<svg width="512" height="512" viewBox="0 0 512 512" fill="none" xmlns="http://www.w3.org/2000/svg">
<g clip-path="url(#clip0_492_10135)">
<path d="M511.819 272.06V298.54C511.819 298.54 503.371 313.42 497.787 315.74H396.507L389.067 313.42L385.803 320.86H133.051L132.379 320.62L120.971 316.668L35.019 327.82C35.019 327.82 32.299 327.692 28.395 327.18C17.451 325.756 -2.757 321.324 2.027 308.3C2.027 308.3 -2.533 283.612 2.027 269.276C2.027 269.276 3.419 249.292 20.603 242.316C37.803 235.356 88.443 221.868 116.315 217.708C116.315 217.708 140.939 210.268 151.627 200.508C151.627 200.508 175.739 182.492 205.515 169.436C221.563 162.412 238.731 158.268 256.171 156.636C289.915 153.468 363.259 148.588 409.947 160.076C449.611 169.852 475.899 192.252 489.739 207.228C497.339 215.452 501.483 226.188 501.483 237.388V247.436L504.731 259.052C504.747 259.052 511.819 264.156 511.819 272.06Z" fill="#00A08D"/>
<path d="M132.587 315.9C132.587 317.484 132.523 319.068 132.379 320.62L120.971 316.668L35.019 327.82C35.019 327.82 32.299 327.692 28.395 327.18C27.595 323.548 27.179 319.772 27.179 315.9C27.179 286.796 50.779 263.196 79.883 263.196C108.987 263.196 132.587 286.796 132.587 315.9Z" fill="#2E3235"/>
<path d="M79.883 358.972C103.671 358.972 122.955 339.688 122.955 315.9C122.955 292.112 103.671 272.828 79.883 272.828C56.095 272.828 36.811 292.112 36.811 315.9C36.811 339.688 56.095 358.972 79.883 358.972Z" fill="#3E4347"/>
<path d="M388.059 315.708L389.067 313.404L396.507 315.724H493.451C493.355 286.7 469.803 263.196 440.763 263.196C411.707 263.196 388.155 286.7 388.059 315.708Z" fill="#2E3235"/>
<path d="M440.747 358.971C464.535 358.971 483.819 339.687 483.819 315.899C483.819 292.111 464.535 272.827 440.747 272.827C416.959 272.827 397.675 292.111 397.675 315.899C397.675 339.687 416.959 358.971 440.747 358.971Z" fill="#3E4347"/>
<path d="M287.499 166.651C278.555 166.955 272.891 167.259 272.779 167.275L272.459 167.291H272.139C271.243 167.259 270.347 167.259 269.451 167.259C230.395 167.259 191.483 190.459 171.755 204.283C162.843 210.523 155.835 219.307 151.771 229.227L276.235 219.291L287.499 166.651Z" fill="#3E4347"/>
<path d="M403.771 174.444C391.403 169.036 361.947 166.06 320.699 166.06C315.867 166.06 311.179 166.108 306.763 166.172L302.283 217.196L425.627 207.356C426.027 205.052 426.363 202.86 426.603 200.86L426.619 200.7L426.651 200.54C427.947 192.988 413.899 180.62 403.771 174.444Z" fill="#3E4347"/>
<path d="M11.019 261.467C11.019 261.467 28.155 241.515 47.355 243.019C52.027 243.387 65.995 249.643 44.155 261.467C37.323 265.163 23.883 267.339 13.659 267.499C5.371 267.611 11.019 261.467 11.019 261.467Z" fill="#FFD83B"/>
<path d="M501.499 247.436V237.388C501.499 233.052 500.699 228.844 499.499 224.764C492.587 223.9 483.931 223.468 481.115 226.284C477.371 230.028 477.371 243.724 481.115 247.468C484.251 250.604 494.715 249.724 501.835 248.684L501.499 247.436Z" fill="#FFD83B"/>
<path d="M79.883 344.652C95.7623 344.652 108.635 331.78 108.635 315.9C108.635 300.021 95.7623 287.148 79.883 287.148C64.0037 287.148 51.131 300.021 51.131 315.9C51.131 331.78 64.0037 344.652 79.883 344.652Z" fill="#CBD6E0"/>
<path d="M79.883 339.356C92.8374 339.356 103.339 328.855 103.339 315.9C103.339 302.946 92.8374 292.444 79.883 292.444C66.9286 292.444 56.427 302.946 56.427 315.9C56.427 328.855 66.9286 339.356 79.883 339.356Z" fill="#939799"/>
<path d="M79.883 332.781C89.2056 332.781 96.763 325.223 96.763 315.901C96.763 306.578 89.2056 299.021 79.883 299.021C70.5604 299.021 63.003 306.578 63.003 315.901C63.003 325.223 70.5604 332.781 79.883 332.781Z" fill="#CBD6E0"/>
<path d="M440.747 344.652C456.626 344.652 469.499 331.78 469.499 315.9C469.499 300.021 456.626 287.148 440.747 287.148C424.868 287.148 411.995 300.021 411.995 315.9C411.995 331.78 424.868 344.652 440.747 344.652Z" fill="#CBD6E0"/>
<path d="M440.747 339.356C453.701 339.356 464.203 328.855 464.203 315.9C464.203 302.946 453.701 292.444 440.747 292.444C427.793 292.444 417.291 302.946 417.291 315.9C417.291 328.855 427.793 339.356 440.747 339.356Z" fill="#939799"/>
<path d="M440.747 332.78C450.07 332.78 457.627 325.222 457.627 315.9C457.627 306.577 450.07 299.02 440.747 299.02C431.424 299.02 423.867 306.577 423.867 315.9C423.867 325.222 431.424 332.78 440.747 332.78Z" fill="#CBD6E0"/>
<path d="M180.875 226.892L207.067 224.796L240.011 171.228C228.555 174.172 217.691 178.508 207.691 183.292L180.875 226.892Z" fill="#5A5F63"/>
<path d="M216.299 224.06L229.963 222.972L263.995 167.628C259.307 167.884 254.651 168.396 250.027 169.212L216.299 224.06Z" fill="#5A5F63"/>
<path d="M309.403 216.636L335.595 214.54L364.507 167.516C357.211 166.972 349.115 166.572 340.315 166.348L309.403 216.636Z" fill="#5A5F63"/>
<path d="M344.811 213.804L358.475 212.716L384.891 169.756C381.211 169.18 377.259 168.652 372.843 168.22L344.811 213.804Z" fill="#5A5F63"/>
</g>
<defs>
<clipPath id="clip0_492_10135">
<rect width="511.819" height="511.819" fill="white"/>
</clipPath>
</defs>
</svg>
