<svg width="512" height="512" viewBox="0 0 512 512" fill="none" xmlns="http://www.w3.org/2000/svg">
<path d="M90 256C139.501 256 180 296.499 180 346C180 395.501 139.501 436 90 436C40.499 436 0 395.501 0 346C0 296.499 40.499 256 90 256ZM90 406C122.999 406 150 378.999 150 346C150 313.001 122.999 286 90 286C57.001 286 30 313.001 30 346C30 378.999 57.001 406 90 406Z" fill="#495A79"/>
<path d="M0 346C0 395.501 40.499 436 90 436V406C57.001 406 30 378.999 30 346C30 313.001 57.001 286 90 286V256C40.499 256 0 296.499 0 346Z" fill="#42516D"/>
<path d="M422 256C471.501 256 512 296.499 512 346C512 395.501 471.501 436 422 436C372.499 436 332 395.501 332 346C332 296.499 372.499 256 422 256ZM422 406C454.999 406 482 378.999 482 346C482 313.001 454.999 286 422 286C389.001 286 362 313.001 362 346C362 378.999 389.001 406 422 406Z" fill="#495A79"/>
<path d="M332 346C332 395.501 372.499 436 422 436V406C389.001 406 362 378.999 362 346C362 313.001 389.001 286 422 286V256C372.499 256 332 296.499 332 346Z" fill="#42516D"/>
<path d="M240 166H392V256H240V166Z" fill="#495A79"/>
<path d="M165 106H195C203.291 106 210 99.291 210 91C210 82.709 203.291 76 195 76H165C156.709 76 150 82.709 150 91C150 99.291 156.709 106 165 106Z" fill="#495A79"/>
<path d="M81.599 358.599C84.3 360.099 87.001 361 90 361C94.799 361 99.6 358.599 102.599 354.401L172.8 249.401C177.599 242.5 175.499 233.2 168.9 228.401C162.001 223.9 152.701 225.7 147.9 232.6L90 318.702L77.401 337.6C72.9 344.5 74.7 353.8 81.599 358.599Z" fill="#949FB3"/>
<path d="M255 316V376H422C438.5 376 452 362.5 452 346C452 329.5 438.5 316 422 316H255Z" fill="#949FB3"/>
<path d="M255 316H316V376H255V316Z" fill="#8A94A8"/>
<path d="M240 166H316V256H240V166Z" fill="#42516D"/>
<path d="M165 76C173.401 76 180 82.599 180 91V136H225C230.099 136 234.6 138.401 237.599 142.599L294.101 226H338.9L386.6 154.6C394.4 142.9 407.3 136 421.399 136H497C505.401 136 512 142.599 512 151C512 189.401 482.901 221.499 445.401 225.399L397.4 297.4C389.6 309.1 376.7 316 362.601 316H326.3L316 334.9L307 352.899C299.801 367 285.399 376 269.2 376H247.2C227.101 376 210 361.901 206.1 342.1L203.699 331.601C191.7 270.399 137.401 226 75 226C66.599 226 60 219.401 60 211V181C60 123.1 107.1 76 165 76Z" fill="white"/>
<path d="M165 76C173.401 76 180 82.599 180 91V136H225C230.099 136 234.6 138.401 237.599 142.599L294.101 226H338.9L386.6 154.6C394.4 142.9 407.3 136 421.399 136H497C505.401 136 512 142.599 512 151C512 189.401 482.901 221.499 445.401 225.399L397.4 297.4C389.6 309.1 376.7 316 362.601 316H326.3L316 334.9L307 352.899C299.801 367 285.399 376 269.2 376H247.2C227.101 376 210 361.901 206.1 342.1L203.699 331.601C191.7 270.399 137.401 226 75 226C66.599 226 60 219.401 60 211V181C60 123.1 107.1 76 165 76Z" fill="#00A08D" fill-opacity="0.7"/>
<path d="M60 181V211C60 219.401 66.599 226 75 226C137.401 226 191.7 270.399 203.699 331.601L206.1 342.1C210 361.901 227.1 376 247.2 376H269.2C285.399 376 299.801 367 307 352.899L316 334.9V226H294.101L237.6 142.599C234.6 138.401 230.099 136 225 136H180V91C180 82.599 173.401 76 165 76C107.1 76 60 123.1 60 181Z" fill="#00A08D"/>
<path d="M81.599 358.599C84.3 360.099 87.001 361 90 361V318.701L77.401 337.599C72.9 344.5 74.7 353.8 81.599 358.599Z" fill="#8A94A8"/>
</svg>
