<svg width="73" height="70" viewBox="0 0 73 70" fill="none" xmlns="http://www.w3.org/2000/svg">
<g clip-path="url(#clip0_9826_37007)">
<path d="M41.202 69.6724C38.3534 68.3231 37.2159 65.1154 36.8141 62.1292C36.7463 61.6299 36.6042 61.1173 36.7662 60.6427C36.9282 60.1682 37.4292 59.778 37.907 59.9119C38.3038 60.0227 38.5369 60.4245 38.803 60.7436C39.1569 61.1685 39.6314 61.4893 40.1538 61.658C40.4977 61.7688 40.9044 61.8018 41.1871 61.5786C41.5756 61.2711 41.526 60.6708 41.4384 60.1781C41.2764 59.2604 41.116 58.3411 40.954 57.4234C40.868 56.9307 40.7804 56.428 40.8548 55.9336C40.9292 55.4392 41.1937 54.9482 41.6418 54.7365C42.0882 54.5265 42.7148 54.6985 42.895 55.1648C42.9694 55.3582 42.9644 55.5748 43.0124 55.7765C43.0603 55.9783 43.1942 56.1899 43.3992 56.2131C43.6059 56.2379 43.7795 56.0643 43.9018 55.8956C44.3267 55.3119 44.5632 54.6108 44.7781 53.9197C44.993 53.2269 45.1964 52.5209 45.5651 51.8991C45.9354 51.2774 46.5008 50.7401 47.2002 50.5797C47.8995 50.4209 48.7262 50.7285 49.0221 51.3915C49.3181 52.0562 49.032 52.83 48.6865 53.4683C48.1723 54.4141 47.5226 55.2838 46.7637 56.0411C46.6265 56.1783 46.4793 56.3255 46.4496 56.519C46.3983 56.8662 46.7654 57.139 47.1076 57.1936C47.4961 57.2531 47.888 57.1489 48.2798 57.1291C48.6716 57.1093 49.118 57.2085 49.3247 57.5474C49.6124 58.017 49.28 58.6172 48.9229 59.0339C48.2104 59.8673 47.3539 60.5749 46.4049 61.1173C46.0644 61.3107 45.7023 61.4926 45.4526 61.7969C45.203 62.1011 45.1021 62.574 45.3369 62.8915C45.5733 63.2089 46.0445 63.2437 46.4132 63.1097C46.7819 62.9758 47.0861 62.7112 47.425 62.5128C48.0599 62.1424 48.9428 62.0416 49.4751 62.5525C49.8256 62.8898 49.9414 63.4206 49.8752 63.905C49.8091 64.3879 49.5826 64.8326 49.3346 65.251C48.4633 66.7093 47.2465 67.971 45.7668 68.7812C44.2871 69.593 42.8553 69.9865 41.197 69.679" fill="#F5F5F5"/>
<path d="M41.6533 67.6814C41.8369 66.1089 42.1807 64.4009 42.6023 62.6267C42.7098 62.1836 42.8156 61.7454 42.9198 61.3138C43.0256 60.8839 43.1281 60.4573 43.2571 60.0456C43.5084 59.2222 43.8142 58.4484 44.125 57.7241C44.4375 56.9999 44.7599 56.3236 45.0658 55.692C45.3733 55.062 45.6709 54.48 45.9652 53.9625C46.5504 52.9224 47.1208 52.142 47.5325 51.6212C47.7392 51.3599 47.9045 51.1631 48.0202 51.0309C48.0748 50.968 48.1194 50.9184 48.1508 50.882C48.1806 50.849 48.1971 50.8324 48.1971 50.8341C48.1971 50.8341 48.1855 50.8539 48.1574 50.8887C48.126 50.9267 48.0847 50.9779 48.0334 51.0441C47.9243 51.1797 47.7623 51.3814 47.5606 51.6443C47.1572 52.1701 46.5967 52.9555 46.0214 53.9955C45.732 54.5147 45.4378 55.0968 45.1335 55.7267C44.831 56.3584 44.5119 57.0346 44.2027 57.7589C43.8936 58.4831 43.591 59.2536 43.343 60.0721C43.2174 60.4805 43.1132 60.9038 43.0091 61.3353C42.9049 61.7669 42.7991 62.2034 42.6933 62.6465C42.2717 64.4191 41.9261 66.1222 41.7393 67.6897" fill="#E0E0E0"/>
<path d="M43.2818 60.0378C43.2818 60.0378 43.2471 59.9683 43.1975 59.8361C43.1479 59.7038 43.0834 59.5103 43.0074 59.2706C42.8553 58.7911 42.6668 58.1231 42.4618 57.384C42.2568 56.6448 42.0601 55.9802 41.8997 55.5056C41.8203 55.2675 41.7542 55.0757 41.7079 54.9434C41.6616 54.8111 41.6385 54.7367 41.6434 54.7334C41.65 54.7318 41.6831 54.8012 41.741 54.9302C41.7988 55.0592 41.8749 55.2477 41.9609 55.4841C42.1361 55.9553 42.3444 56.62 42.5494 57.3592C42.7495 58.0883 42.9313 58.7481 43.0702 59.2524C43.1347 59.4789 43.1876 59.6707 43.2322 59.8245C43.2703 59.9601 43.2885 60.0361 43.2818 60.0378Z" fill="#E0E0E0"/>
<path d="M49.4206 57.7804C49.4206 57.7804 49.3329 57.8118 49.1726 57.8531C49.0122 57.8945 48.7807 57.954 48.4964 58.0366C47.926 58.197 47.1473 58.4467 46.2991 58.7609C45.451 59.075 44.6954 59.3942 44.1564 59.6389C43.8853 59.7596 43.6687 59.8637 43.5199 59.9348C43.3695 60.0059 43.2852 60.0423 43.2835 60.0374C43.2802 60.0324 43.3596 59.9844 43.505 59.9018C43.6505 59.8207 43.8638 59.7083 44.1316 59.5793C44.6657 59.3181 45.4196 58.9891 46.2694 58.6732C47.1208 58.3591 47.9061 58.1177 48.4815 57.9738C48.7692 57.8994 49.0039 57.8481 49.1676 57.8184C49.3313 57.7886 49.4222 57.7737 49.4239 57.7804H49.4206Z" fill="#E0E0E0"/>
<path d="M41.7112 67.5507C41.7112 67.5507 41.6897 67.5292 41.655 67.4813C41.6153 67.4234 41.5674 67.354 41.5079 67.2696C41.3805 67.0861 41.2036 66.8149 40.9904 66.4776C40.5622 65.803 39.9984 64.8522 39.3916 63.7957C38.7849 62.7374 38.231 61.7834 37.8177 61.1005C37.616 60.7682 37.449 60.4953 37.325 60.2936C37.2721 60.206 37.2274 60.1332 37.1927 60.0737C37.163 60.0224 37.1497 59.996 37.1514 59.9927C37.1547 59.9927 37.1729 60.0158 37.2076 60.0621C37.2473 60.12 37.2952 60.1894 37.3548 60.2738C37.4821 60.4573 37.659 60.7285 37.8722 61.0658C38.3004 61.7404 38.8642 62.6912 39.471 63.7494C40.0777 64.806 40.6316 65.7617 41.0449 66.4446C41.2466 66.7752 41.4136 67.0497 41.5376 67.2514C41.5905 67.3391 41.6352 67.4118 41.6699 67.4714C41.6996 67.5226 41.7129 67.5507 41.7112 67.5524V67.5507Z" fill="#E0E0E0"/>
<path d="M49.6768 63.4104C49.6768 63.4104 49.652 63.4303 49.5991 63.4584C49.5363 63.4914 49.4603 63.5328 49.3677 63.5824C49.1544 63.6932 48.8651 63.8436 48.5146 64.0272C47.7954 64.4025 46.8067 64.9333 45.7155 65.5219C44.6243 66.1105 43.629 66.6314 42.9016 66.9935C42.5379 67.1737 42.2419 67.3176 42.0353 67.4118C41.9394 67.4548 41.8617 67.4912 41.7972 67.5193C41.7426 67.5425 41.7129 67.554 41.7112 67.5507C41.7112 67.5474 41.736 67.5309 41.7889 67.5011C41.8517 67.468 41.9278 67.4267 42.0204 67.3771C42.2337 67.2663 42.523 67.1159 42.8735 66.9323C43.5927 66.557 44.5814 66.0262 45.6742 65.4376C46.7654 64.8489 47.759 64.3281 48.4881 63.966C48.8518 63.7858 49.1478 63.6419 49.3544 63.5477C49.4503 63.5047 49.528 63.4683 49.5925 63.4402C49.6471 63.417 49.6768 63.4055 49.6785 63.4088L49.6768 63.4104Z" fill="#E0E0E0"/>
<path d="M20.5291 34.1825C20.5291 34.1825 18.565 34.4553 19.6677 38.7577C20.7705 43.06 21.7062 45.2773 21.7062 45.2773C21.7062 45.2773 21.855 46.2513 21.0681 46.2215C20.2827 46.1917 18.6807 45.5535 18.1367 46.4017C17.573 47.2814 18.0657 48.3396 19.2974 49.4491C20.5291 50.5586 23.1396 53.0867 23.3744 53.3166C23.6059 53.5414 23.7811 54.0193 23.2422 54.0838C22.7032 54.1483 18.8807 53.7002 18.7749 55.5273C18.6708 57.3544 22.6106 59.8792 23.0355 60.1636C23.4604 60.448 23.5282 60.6696 23.4323 60.9176C23.3364 61.164 22.0667 60.8928 20.9738 60.8101C19.881 60.7274 18.5997 60.8217 18.6278 61.8816C18.6559 62.9415 20.7242 65.6184 26.7604 67.6076L29.6173 68.3467L31.7286 66.2666C35.9776 61.5393 36.4421 58.1894 35.9412 57.2551C35.4386 56.3226 34.2796 56.8765 33.3719 57.4916C32.4643 58.1067 31.4971 58.9748 31.2921 58.8078C31.0871 58.6408 31.0342 58.4142 31.2623 57.9562C31.4905 57.4982 33.6547 53.348 32.6561 51.8152C31.6575 50.2808 28.5625 52.5708 28.0632 52.7825C27.5639 52.9941 27.4779 52.4915 27.5672 52.1823C27.6565 51.8665 28.6666 48.3743 29.1841 46.8002C29.7016 45.2261 29.6041 44.062 28.6782 43.5792C27.7854 43.1129 26.7124 44.4638 26.0462 44.8789C25.3799 45.2955 25.0244 44.3762 25.0244 44.3762C25.0244 44.3762 24.7351 41.9869 23.553 37.7044C22.3725 33.4219 20.4894 34.1891 20.4894 34.1891" fill="#EBEBEB"/>
<path d="M29.6173 69.0592C28.7625 65.911 27.3374 60.2908 26.0875 55.4709C24.8392 50.6527 23.7051 46.2924 22.8652 43.1393C22.4453 41.5668 22.1047 40.292 21.8683 39.4074C21.7509 38.9692 21.6599 38.6286 21.5971 38.3921C21.5674 38.278 21.5459 38.1904 21.5293 38.1276C21.5145 38.068 21.5095 38.0366 21.5095 38.0366C21.5095 38.0366 21.5211 38.0664 21.5392 38.1243C21.5574 38.1871 21.5839 38.2747 21.6153 38.3872C21.6814 38.622 21.779 38.9626 21.903 39.3974C22.151 40.2754 22.5015 41.5486 22.928 43.1227C23.7828 46.2709 24.9269 50.6295 26.1751 55.4477C27.4234 60.2676 28.8402 65.8911 29.6785 69.0426" fill="#E0E0E0"/>
<path d="M20.3423 47.3854C20.3423 47.3854 20.4117 47.4169 20.5307 47.4863C20.6498 47.5557 20.8168 47.6616 21.0234 47.7938C21.4351 48.0601 21.9956 48.4404 22.6056 48.8736C23.2058 49.3018 23.7481 49.6887 24.1647 49.9847C24.3532 50.117 24.5119 50.2294 24.6392 50.3187C24.7516 50.3964 24.8128 50.4427 24.8095 50.4477C24.8062 50.4526 24.7384 50.4179 24.621 50.3485C24.5036 50.279 24.335 50.1732 24.13 50.0376C23.72 49.7681 23.1661 49.3795 22.556 48.9463C21.9526 48.523 21.407 48.1394 20.9903 47.8468C20.8019 47.7145 20.6432 47.6037 20.5142 47.5144C20.4018 47.435 20.3423 47.3887 20.3456 47.3838L20.3423 47.3854Z" fill="#E0E0E0"/>
<path d="M25.0459 50.309C25.0244 50.2958 25.7601 49.107 26.6876 47.6535C27.6168 46.2001 28.3856 45.0328 28.4071 45.046C28.4286 45.0592 27.6928 46.2481 26.7637 47.7015C25.8345 49.1549 25.0657 50.3223 25.0443 50.3074L25.0459 50.309Z" fill="#E0E0E0"/>
<path d="M26.6298 57.7942C26.6298 57.7942 26.681 57.7363 26.7868 57.6421C26.9059 57.5379 27.0547 57.4073 27.2332 57.2519C27.6085 56.9228 28.126 56.4648 28.6782 55.939C29.2321 55.4149 29.7165 54.9221 30.0637 54.5633C30.2274 54.3947 30.3662 54.2525 30.4754 54.1384C30.5729 54.0392 30.6291 53.9846 30.6341 53.9896C30.639 53.9945 30.5911 54.0557 30.5018 54.1632C30.4125 54.2707 30.2786 54.4228 30.11 54.608C29.7744 54.9784 29.2949 55.4794 28.741 56.0068C28.1872 56.5343 27.6614 56.9857 27.2746 57.3031C27.0811 57.4619 26.9224 57.5875 26.81 57.6719C26.6976 57.7562 26.6347 57.8008 26.6298 57.7959V57.7942Z" fill="#E0E0E0"/>
<path d="M21.7939 56.0879C21.7939 56.0879 21.865 56.0995 21.9889 56.1358C22.1311 56.1805 22.3064 56.2334 22.5114 56.2979C22.9512 56.4384 23.5579 56.6385 24.2259 56.865C24.8938 57.0916 25.4973 57.3015 25.9321 57.457C26.1338 57.5314 26.3057 57.5942 26.4463 57.6471C26.567 57.6934 26.6331 57.7232 26.6314 57.7281C26.6298 57.7348 26.5603 57.7166 26.4363 57.6802C26.2942 57.6355 26.1189 57.5826 25.9139 57.5181C25.4741 57.3776 24.8674 57.1775 24.1994 56.951C23.5315 56.7245 22.928 56.5145 22.4932 56.3591C22.2915 56.2847 22.1196 56.2218 21.979 56.1689C21.8583 56.1226 21.7922 56.0929 21.7939 56.0879Z" fill="#E0E0E0"/>
<path d="M22.3527 62.8735C22.3527 62.8735 22.4436 62.8901 22.6023 62.9364C22.7776 62.9893 23.0024 63.0587 23.2736 63.1414C23.839 63.3183 24.6177 63.568 25.4774 63.8507C26.3371 64.1318 27.1125 64.3931 27.673 64.5849C27.9408 64.6791 28.1624 64.7568 28.3343 64.818C28.4897 64.8742 28.5757 64.909 28.5724 64.9156C28.5691 64.9222 28.4815 64.899 28.3228 64.8527C28.1475 64.7998 27.9227 64.7304 27.6515 64.6477C27.0861 64.4708 26.3074 64.2211 25.4477 63.9384C24.5896 63.6573 23.8125 63.396 23.2521 63.2042C22.9842 63.11 22.7627 63.0323 22.5908 62.9711C22.4353 62.9149 22.3494 62.8801 22.3527 62.8735Z" fill="#E0E0E0"/>
<path d="M28.4385 64.8249C28.4385 64.8249 28.503 64.7505 28.6319 64.6281C28.7725 64.4958 28.9576 64.3222 29.1792 64.1139C29.6404 63.679 30.2753 63.0755 30.9581 62.3893C31.6409 61.7048 32.2444 61.0682 32.6776 60.6036C32.8859 60.3803 33.0578 60.1968 33.1901 60.0546C33.3124 59.9256 33.3819 59.8562 33.3868 59.8595C33.3918 59.8644 33.3306 59.9405 33.2182 60.0777C33.1041 60.215 32.9371 60.4101 32.7255 60.6465C32.3039 61.1227 31.7087 61.7659 31.0243 62.4538C30.3414 63.1416 29.6966 63.7386 29.2238 64.1618C28.9874 64.3735 28.7923 64.5421 28.6567 64.6562C28.5212 64.7703 28.4434 64.8315 28.4385 64.8265V64.8249Z" fill="#E0E0E0"/>
<path d="M11.998 8.52532L10.3844 8.02266C10.3844 8.02266 9.96116 9.37686 8.54593 8.96183C7.81021 8.74688 7.5804 8.14832 7.54237 7.7333C7.49608 7.25214 7.70274 6.78255 8.06482 6.46178C8.4798 6.09636 9.20725 5.87314 10.234 6.4039L11.3681 2.76625L9.77268 2.26855L9.10805 4.39989C9.10805 4.39989 6.68927 4.28084 5.92048 6.74617C5.18476 9.10569 7.12905 10.3144 8.03506 10.5971C8.72779 10.8137 11.14 11.3825 11.9964 8.52532H11.998Z" fill="#F5F5F5"/>
<path d="M9.98807 1.51175L11.6074 2.01709L12.0791 0.504965L10.4599 -0.000370417L9.98807 1.51175Z" fill="#F5F5F5"/>
<path d="M16.452 4.41653L17.0985 4.24622C17.0985 4.24622 16.9546 3.70388 17.5168 3.54514C17.8077 3.46247 18.0111 3.61459 18.1103 3.74521C18.2277 3.89733 18.2558 4.0974 18.2029 4.28094C18.1417 4.49093 17.945 4.71746 17.4887 4.75549L17.8722 6.2122L18.5104 6.04355L18.2855 5.19035C18.2855 5.19035 19.1205 4.72242 18.8592 3.73529C18.6096 2.79116 17.7052 2.79446 17.3415 2.89036C17.0638 2.96312 16.1363 3.28059 16.4504 4.41653H16.452Z" fill="#EBEBEB"/>
<path d="M18.5985 6.34241L17.9495 6.51367L18.1094 7.11961L18.7584 6.94835L18.5985 6.34241Z" fill="#EBEBEB"/>
<path d="M69.8207 21.1512L70.4489 21.3794C70.4489 21.3794 70.6407 20.8519 71.1913 21.0404C71.4773 21.1379 71.5583 21.3794 71.5666 21.543C71.5765 21.7349 71.4872 21.9151 71.3368 22.0358C71.1665 22.173 70.8755 22.2474 70.4787 22.0192L69.9662 23.4363L70.5878 23.6612L70.8887 22.8311C70.8887 22.8311 71.841 22.9221 72.1899 21.9614C72.5222 21.042 71.7766 20.5311 71.4227 20.4021C71.1533 20.3046 70.2109 20.0367 69.8207 21.1495V21.1512Z" fill="#EBEBEB"/>
<path d="M70.4938 23.9532L69.8627 23.7246L69.6493 24.3138L70.2804 24.5424L70.4938 23.9532Z" fill="#EBEBEB"/>
<path d="M3.14624 28.349L4.47549 27.8364C4.47549 27.8364 4.04563 26.7203 5.19799 26.2524C5.79648 26.0094 6.26106 26.2838 6.5041 26.5385C6.78681 26.8328 6.89593 27.2495 6.82484 27.6513C6.74217 28.1093 6.37845 28.6384 5.42118 28.8252L6.57684 31.823L7.89122 31.317L7.21502 29.561C7.21502 29.561 8.87494 28.3738 8.09292 26.3417C7.34398 24.3972 5.42614 24.6171 4.6805 24.9048C4.11011 25.1247 2.21873 26.0127 3.14789 28.3474L3.14624 28.349Z" fill="#F5F5F5"/>
<path d="M8.14655 31.9297L6.81206 32.4438L7.29231 33.6905L8.62681 33.1763L8.14655 31.9297Z" fill="#F5F5F5"/>
<path d="M70.3382 33.392L69.3958 33.7558C69.3958 33.7558 69.7 34.5478 68.8833 34.8785C68.4584 35.0505 68.1294 34.8553 67.9574 34.6768C67.7574 34.4684 67.6797 34.1725 67.7309 33.8881C67.7888 33.5623 68.0467 33.1886 68.7246 33.0564L67.9062 30.9316L66.9737 31.2904L67.4532 32.5355C67.4532 32.5355 66.276 33.3771 66.8315 34.8173C67.3623 36.1947 68.7213 36.0392 69.2503 35.8359C69.6554 35.6804 70.9946 35.0521 70.3365 33.3953L70.3382 33.392Z" fill="#F5F5F5"/>
<path d="M66.7965 30.8571L67.7422 30.4927L67.4023 29.6101L66.4565 29.9745L66.7965 30.8571Z" fill="#F5F5F5"/>
<path d="M73 69.9571C73 69.9802 56.6571 70 36.5017 70C16.3462 70 0 69.9802 0 69.9571C0 69.9339 16.3396 69.9141 36.5017 69.9141C56.6637 69.9141 73 69.9339 73 69.9571Z" fill="#263238"/>
<path d="M64.8509 7.9518H64.1928C64.1928 7.9518 64.1928 8.50406 63.6192 8.51398C63.3216 8.51894 63.1661 8.32383 63.1033 8.17337C63.0306 7.99975 63.0521 7.80133 63.1496 7.64095C63.262 7.45741 63.5051 7.28876 63.9498 7.36812V5.8833H63.2984V6.75303C63.2984 6.75303 62.3858 6.98948 62.3858 7.99479C62.3858 9.00011 63.2488 9.18034 63.6175 9.18034C63.9002 9.18034 64.8624 9.11254 64.8492 7.95015L64.8509 7.9518Z" fill="#00A08D"/>
<path d="M63.2901 5.5791H63.9498V4.96235H63.2901V5.5791Z" fill="#00A08D"/>
<path d="M68.4551 7.07021C68.4551 7.07021 68.4567 7.0421 68.4551 6.98753C68.4534 6.92635 68.4518 6.84533 68.4485 6.74282C68.4451 6.68825 68.4468 6.62873 68.4402 6.56259C68.4303 6.49645 68.4203 6.4237 68.4104 6.34598C68.3989 6.26827 68.3873 6.18394 68.3741 6.09465C68.3526 6.00702 68.3294 5.91277 68.3046 5.81356C68.2021 5.41838 68.0285 4.93887 67.7094 4.44944C67.3953 3.96001 66.9456 3.45074 66.3355 3.03903C65.7238 2.63392 64.955 2.32142 64.0903 2.23874C63.8738 2.23048 63.6539 2.20402 63.4307 2.22552C63.3199 2.23378 63.2058 2.23048 63.0934 2.24701C62.981 2.26355 62.8669 2.28173 62.7528 2.29827C62.3015 2.39086 61.8402 2.5248 61.4103 2.75628C60.9788 2.98281 60.5688 3.27547 60.2034 3.63263C59.8463 3.99639 59.5355 4.42299 59.2958 4.89588C59.0544 5.36878 58.8874 5.89128 58.8229 6.43527C58.7965 6.57086 58.7965 6.7081 58.7882 6.84533C58.7799 6.98257 58.7733 7.12146 58.7799 7.26036C58.7915 7.53814 58.8262 7.81758 58.8857 8.09206C59.013 8.69062 59.2561 9.2528 59.5818 9.74719L59.5768 9.69758C59.347 10.2713 59.1205 10.8352 58.9006 11.3841L58.8609 11.4833L58.9651 11.4552C59.5834 11.2849 60.1852 11.1196 60.7689 10.9592L60.7242 10.9509C61.3525 11.4238 62.0717 11.7264 62.7842 11.8504C63.1397 11.9132 63.4968 11.9397 63.839 11.9166C64.011 11.9099 64.1813 11.9017 64.3466 11.8686C64.4293 11.8554 64.5119 11.8438 64.5929 11.8306C64.674 11.8157 64.7533 11.7909 64.831 11.771C66.1008 11.4453 67.0382 10.6632 67.5739 9.88939C67.8467 9.50247 68.0417 9.11887 68.1641 8.76998C68.1955 8.68235 68.2253 8.59802 68.255 8.517C68.2765 8.43433 68.2963 8.35331 68.3162 8.27725C68.3344 8.20119 68.3526 8.12843 68.3707 8.05733C68.384 7.98623 68.3922 7.91844 68.4005 7.85561C68.417 7.72829 68.4385 7.61585 68.4435 7.5183C68.4468 7.4224 68.4501 7.33972 68.4518 7.27028C68.4518 7.20745 68.4534 7.15784 68.4551 7.11816C68.4551 7.08343 68.4551 7.0669 68.4534 7.0669C68.4518 7.0669 68.4501 7.08343 68.4468 7.11816C68.4435 7.15619 68.4402 7.20579 68.4352 7.26862C68.4303 7.33642 68.4253 7.41909 68.4187 7.51499C68.4104 7.61255 68.3873 7.72333 68.3674 7.849C68.2765 8.34504 68.0781 9.0891 67.5226 9.8497C66.9853 10.6087 66.0578 11.3709 64.8095 11.6834C64.7318 11.7016 64.6541 11.7264 64.5748 11.7396C64.4937 11.7512 64.4144 11.7644 64.3317 11.776C64.1697 11.8074 64.0027 11.814 63.8341 11.8206C63.4968 11.8421 63.148 11.8157 62.7991 11.7529C62.1014 11.6272 61.3988 11.3296 60.7837 10.8649L60.7639 10.8501L60.7391 10.8567C60.1571 11.0154 59.5537 11.1791 58.9353 11.3494L58.9982 11.4205C59.2197 10.8716 59.4462 10.3077 59.6777 9.73396L59.6876 9.7075L59.6711 9.68436C59.3536 9.19989 59.1155 8.64928 58.9899 8.0656C58.932 7.79608 58.899 7.52491 58.8874 7.25209C58.8808 7.1165 58.8874 6.98092 58.894 6.84533C58.9023 6.7114 58.9023 6.57582 58.9271 6.44354C58.9899 5.91112 59.1519 5.40019 59.3883 4.93722C59.6215 4.47425 59.924 4.05757 60.2745 3.69876C60.6316 3.34823 61.0317 3.06052 61.4533 2.8373C61.8733 2.60912 62.3263 2.47519 62.7677 2.38425C62.8801 2.36771 62.9909 2.34953 63.1 2.33299C63.2108 2.31646 63.3216 2.31811 63.4307 2.30984C63.6506 2.28835 63.8655 2.31315 64.0788 2.31976C64.9269 2.39748 65.6841 2.70006 66.2892 3.09359C66.8927 3.49539 67.3407 3.99308 67.6549 4.47425C67.9756 4.95541 68.1525 5.42665 68.26 5.81687C68.2864 5.91443 68.3112 6.00702 68.3344 6.09465C68.3493 6.18394 68.3625 6.26662 68.3757 6.34433C68.3889 6.42204 68.4005 6.49314 68.4104 6.55763C68.417 6.62377 68.4187 6.68329 68.4237 6.7362C68.4319 6.83872 68.4369 6.91974 68.4418 6.97927C68.4468 7.03383 68.4501 7.06194 68.4518 7.06194L68.4551 7.07021Z" fill="#263238"/>
<path d="M19.1519 26.5716H28.6997C28.6997 26.5716 28.6997 18.5539 37.0307 18.41C41.3574 18.3356 43.6009 21.1697 44.5119 23.3423C45.57 25.8639 45.2493 28.7376 43.8324 31.0773C42.2122 33.7477 38.7253 36.4313 32.2907 35.297L32.2295 56.5723H41.6715V43.9596C41.6715 43.9596 54.9128 40.5369 54.9128 25.9416C54.9128 11.3464 43.6224 8.96204 37.5531 8.76693C34.1771 8.65945 32.952 8.51395 28.7758 9.10755C23.4538 9.86318 19.0378 16.0439 19.1502 26.5716H19.1519Z" fill="#00A08D"/>
<path d="M41.7856 61.0068H32.2031V69.9571H41.7856V61.0068Z" fill="#00A08D"/>
<path opacity="0.1" d="M41.7856 61.0068H32.2031V69.9571H41.7856V61.0068Z" fill="black"/>
<path opacity="0.1" d="M19.1519 26.5716H28.6997C28.6997 26.5716 28.6997 18.5539 37.0307 18.41C41.3574 18.3356 43.6009 21.1697 44.5119 23.3423C45.57 25.8639 45.2493 28.7376 43.8324 31.0773C42.2122 33.7477 38.7253 36.4313 32.2907 35.297L32.2295 56.5723H41.6715V43.9596C41.6715 43.9596 54.9128 40.5369 54.9128 25.9416C54.9128 11.3464 43.6224 8.96204 37.5531 8.76693C34.1771 8.65945 32.952 8.51395 28.7758 9.10755C23.4538 9.86318 19.0378 16.0439 19.1502 26.5716H19.1519Z" fill="black"/>
<path d="M15.1972 26.5716H24.745C24.745 26.5716 24.745 18.5539 33.076 18.41C37.4027 18.3356 39.6462 21.1697 40.5572 23.3424C41.6153 25.8639 41.2946 28.7377 39.8777 31.0773C38.2575 33.7477 34.7095 36.175 28.2748 35.0407V56.5723H37.7168V43.9596C37.7168 43.9596 50.9581 40.5369 50.9581 25.9416C50.9581 11.3464 38.4377 8.73389 33.0777 8.73389C28.9791 8.73389 15.017 9.72432 15.1972 26.5716Z" fill="#00A08D"/>
<path opacity="0.3" d="M15.1972 26.5716H24.745C24.745 26.5716 24.745 18.5539 33.076 18.41C37.4027 18.3356 39.6462 21.1697 40.5572 23.3424C41.6153 25.8639 41.2946 28.7377 39.8777 31.0773C38.2575 33.7477 34.7095 36.175 28.2748 35.0407V56.5723H37.7168V43.9596C37.7168 43.9596 50.9581 40.5369 50.9581 25.9416C50.9581 11.3464 38.4377 8.73389 33.0777 8.73389C28.9791 8.73389 15.017 9.72432 15.1972 26.5716Z" fill="black"/>
<path d="M37.8309 61.0068H28.2484V69.9571H37.8309V61.0068Z" fill="#00A08D"/>
<path opacity="0.3" d="M37.8309 61.0068H28.2484V69.9571H37.8309V61.0068Z" fill="black"/>
<path d="M34.154 18.4548C34.154 18.4548 34.1044 18.4548 34.0118 18.4466C33.9175 18.4416 33.782 18.4151 33.6051 18.4135C33.2513 18.3903 32.7371 18.3986 32.1072 18.4763C31.4789 18.5557 30.7366 18.7111 29.9463 18.9839C29.5528 19.1261 29.1444 19.2882 28.7427 19.5015C28.3376 19.7065 27.9359 19.9578 27.5655 20.2637C27.1919 20.5663 26.8761 20.9202 26.6017 21.2823C26.3256 21.6444 26.0858 22.0131 25.8792 22.3769C25.4725 23.1094 25.1964 23.8154 25.0244 24.4255C24.8492 25.034 24.7715 25.5433 24.7367 25.8955C24.7169 26.0724 24.7103 26.2096 24.707 26.3022C24.702 26.3948 24.6971 26.4444 24.6937 26.4444C24.6904 26.4444 24.6888 26.3948 24.6888 26.3022C24.6888 26.208 24.6888 26.0707 24.7037 25.8922C24.7285 25.5367 24.7963 25.0224 24.9649 24.4073C25.1302 23.7923 25.403 23.0779 25.8097 22.3372C26.0164 21.9701 26.2561 21.5964 26.5339 21.2294C26.81 20.8639 27.1291 20.5035 27.5093 20.1959C27.8863 19.8851 28.293 19.6321 28.703 19.4254C29.1097 19.2105 29.5231 19.0484 29.9198 18.9079C30.7184 18.6351 31.4673 18.4846 32.1006 18.4135C32.7338 18.344 33.2529 18.344 33.6067 18.3788C33.7853 18.3854 33.9208 18.4184 34.0134 18.4284C34.106 18.4432 34.154 18.4515 34.154 18.4548Z" fill="#263238"/>
<path d="M48.541 16.7501C48.541 16.7501 48.5294 16.7386 48.5096 16.7121C48.4881 16.6823 48.46 16.6443 48.4253 16.5964C48.3492 16.4889 48.2451 16.3401 48.1112 16.1499C48.0417 16.054 47.9706 15.9432 47.883 15.8292C47.7904 15.7184 47.6912 15.5977 47.5854 15.467C47.4779 15.3364 47.3639 15.1975 47.2432 15.0504C47.1192 14.9065 46.9737 14.766 46.8298 14.6105C46.681 14.4601 46.5339 14.2931 46.3669 14.1343C46.195 13.9789 46.0181 13.8185 45.8329 13.6515C45.7403 13.5688 45.6494 13.4812 45.5502 13.3985C45.4493 13.3192 45.3468 13.2381 45.2427 13.1555C45.0327 12.9934 44.8244 12.8182 44.5979 12.6545C43.6919 11.998 42.6321 11.3664 41.4698 10.8059C41.1755 10.6736 40.8846 10.5413 40.5985 10.4124C40.3059 10.2983 40.0166 10.1858 39.7322 10.0767C39.4511 9.9593 39.1635 9.87663 38.8857 9.78569C38.6063 9.69971 38.3368 9.59884 38.064 9.53436C37.7929 9.46326 37.53 9.39381 37.2737 9.32602C37.0175 9.25823 36.7629 9.21854 36.5198 9.16563C36.2751 9.11934 36.042 9.05981 35.8122 9.03005C35.5841 8.99698 35.3642 8.96556 35.1542 8.93415C34.7359 8.86305 34.3524 8.84817 34.0184 8.8151C33.8514 8.80187 33.6943 8.78368 33.5505 8.77707C33.4067 8.77376 33.2761 8.77045 33.157 8.76714C32.9256 8.75888 32.742 8.75392 32.6114 8.74896L32.4692 8.74234C32.4378 8.74069 32.4213 8.73904 32.4213 8.73738C32.4213 8.73738 32.4378 8.73408 32.4692 8.73408C32.5056 8.73408 32.5536 8.73408 32.6114 8.73242C32.742 8.73242 32.9256 8.73242 33.157 8.73242C33.2761 8.73242 33.4083 8.73408 33.5522 8.73573C33.696 8.74069 33.8531 8.75557 34.02 8.76714C34.3557 8.79691 34.7409 8.80683 35.1608 8.87462C35.3708 8.90273 35.5923 8.93249 35.8205 8.96391C36.0503 8.99036 36.2851 9.04989 36.5314 9.09453C36.7761 9.14579 37.0307 9.18547 37.2886 9.25161C37.5465 9.31775 37.8111 9.3872 38.0839 9.45664C38.3583 9.51948 38.6278 9.61869 38.9089 9.70632C39.1883 9.79726 39.4776 9.87994 39.7603 9.99733C40.0447 10.1081 40.3357 10.2189 40.6299 10.333C40.9176 10.4636 41.2103 10.5942 41.5045 10.7282C42.6718 11.2904 43.7349 11.9269 44.6425 12.59C44.8707 12.7537 45.079 12.9323 45.289 13.096C45.3931 13.1786 45.4956 13.2613 45.5965 13.3407C45.6957 13.4233 45.7866 13.5126 45.8792 13.5953C46.0627 13.764 46.2413 13.9276 46.4116 14.0831C46.5785 14.2435 46.7257 14.4121 46.8728 14.5642C47.0167 14.7197 47.1605 14.8635 47.2845 15.009C47.4035 15.1578 47.5176 15.2984 47.6218 15.4307L47.9144 15.7977C47.9987 15.9151 48.0698 16.0259 48.136 16.1251C48.2649 16.3186 48.3658 16.4724 48.4369 16.5815L48.5129 16.7005C48.5294 16.727 48.5377 16.7419 48.5361 16.7435L48.541 16.7501Z" fill="#263238"/>
<path d="M47.5457 37.2515C47.5457 37.2515 47.5226 37.2878 47.473 37.3507C47.4168 37.4201 47.344 37.5111 47.2531 37.6252C47.1572 37.7442 47.0382 37.8881 46.8927 38.0484C46.7472 38.2105 46.5885 38.399 46.395 38.5924C46.2065 38.7909 45.9999 39.0058 45.7651 39.2257C45.537 39.4522 45.279 39.6788 45.0096 39.9202C44.4623 40.3914 43.839 40.8858 43.1545 41.362C42.4668 41.8333 41.7823 42.24 41.1474 42.5839C40.8267 42.7493 40.5225 42.9113 40.2299 43.0436C39.9405 43.1841 39.6661 43.3015 39.4131 43.4074C39.1635 43.5181 38.9304 43.6008 38.7287 43.6785C38.5269 43.7579 38.35 43.8174 38.2046 43.8654C38.0657 43.91 37.9549 43.9464 37.8706 43.9745C37.7945 43.9977 37.7532 44.0092 37.7515 44.0059C37.7515 44.0026 37.7896 43.9861 37.864 43.958C37.9466 43.9266 38.0558 43.8852 38.193 43.834C38.3368 43.7827 38.5104 43.7182 38.7105 43.6339C38.9105 43.5512 39.142 43.4652 39.3883 43.3511C39.638 43.242 39.9108 43.123 40.1968 42.9791C40.4878 42.8452 40.7887 42.6815 41.1078 42.5145C41.7393 42.1689 42.4172 41.7605 43.1033 41.2909C43.7861 40.818 44.4078 40.3269 44.955 39.8607C45.2245 39.6226 45.4841 39.3993 45.7122 39.1745C45.947 38.9579 46.1569 38.7446 46.3471 38.5511C46.5422 38.3609 46.7042 38.1758 46.8513 38.017C47.0001 37.8599 47.1225 37.7194 47.2217 37.6037C47.3176 37.4945 47.3953 37.4069 47.4548 37.3408C47.5094 37.2812 47.5375 37.2515 47.5408 37.2531L47.5457 37.2515Z" fill="#263238"/>
<path d="M37.5498 55.8217C37.5267 55.8217 37.5069 53.1662 37.5069 49.8907C37.5069 46.6151 37.5267 43.958 37.5498 43.958C37.573 43.958 37.5928 46.6135 37.5928 49.8907C37.5928 53.1679 37.573 55.8217 37.5498 55.8217Z" fill="#263238"/>
<path d="M37.9136 69.3502C37.8904 69.3502 37.8706 67.4867 37.8706 65.1884C37.8706 62.89 37.8904 61.0249 37.9136 61.0249C37.9367 61.0249 37.9566 62.8884 37.9566 65.1884C37.9566 67.4883 37.9367 69.3502 37.9136 69.3502Z" fill="#263238"/>
<path d="M47.3126 25.3032C47.1456 25.6356 47.764 25.9051 48.1194 26.0126C48.4765 26.1201 48.8568 26.1085 49.2271 26.0886C49.7198 26.0622 50.2307 26.0159 50.6589 25.7712C51.0392 25.5529 51.3235 25.1941 51.5219 24.8039C51.7203 24.4137 51.841 23.9871 51.96 23.5654C51.96 23.5654 48.0533 23.8217 47.311 25.3032H47.3126Z" fill="#00A08D"/>
<g opacity="0.4">
<path d="M47.3126 25.3032C47.1456 25.6356 47.764 25.9051 48.1194 26.0126C48.4765 26.1201 48.8568 26.1085 49.2271 26.0886C49.7198 26.0622 50.2307 26.0159 50.6589 25.7712C51.0392 25.5529 51.3235 25.1941 51.5219 24.8039C51.7203 24.4137 51.841 23.9871 51.96 23.5654C51.96 23.5654 48.0533 23.8217 47.311 25.3032H47.3126Z" fill="black"/>
</g>
<path d="M58.3468 24.2431C58.9833 24.6978 59.7686 24.9442 60.5523 24.9359C60.9276 24.9309 61.326 24.8582 61.6021 24.6052C61.7294 24.4895 61.8253 24.339 61.9559 24.2282C62.0452 24.1521 62.1494 24.0943 62.2337 24.0116C62.318 23.9289 62.3808 23.8115 62.356 23.6974C62.3296 23.58 62.232 23.3915 62.1279 23.332C61.6798 23.0774 61.1442 23.0873 60.6283 23.0989C60.1125 23.1105 59.6049 23.2312 59.1156 23.3949C58.7155 23.5288 58.2972 23.7189 58.0938 24.0893" fill="#00A08D"/>
<g opacity="0.4">
<path d="M62.3544 23.699C62.3279 23.5816 62.1659 23.4262 62.0617 23.3667C61.6137 23.112 61.1425 23.0889 60.6267 23.1005C60.1108 23.112 59.6033 23.2328 59.1139 23.3964C58.7138 23.5304 58.2955 23.7205 58.0921 24.0909L58.3468 24.243C58.9833 24.6977 59.7686 24.9441 60.5523 24.9358C60.9276 24.9309 61.3244 24.8581 61.6021 24.6051C61.7294 24.4894 61.8253 24.3389 61.9559 24.2281C62.0452 24.1521 62.1494 24.0942 62.2337 24.0115C62.318 23.9289 62.3808 23.8115 62.356 23.6974L62.3544 23.699Z" fill="black"/>
</g>
<path d="M50.7217 30.1793L58.9634 30.2867C59.0362 30.2867 59.0874 30.2173 59.0659 30.1478L58.0988 27.1319C58.0988 27.1319 58.2409 25.6256 58.4377 23.8117C58.7369 21.0603 59.1337 17.5996 59.1387 17.6079C58.5766 16.0271 55.2501 15.7593 55.2501 15.7593L51.4591 15.9842L51.3252 15.7609L50.234 16.2685C49.9959 16.3793 49.7678 16.5083 49.5495 16.6538C48.8303 17.1366 47.0927 18.2411 46.7753 19.4746C46.0429 22.3252 47.2828 25.5082 47.2828 25.5082L48.0781 24.8865C48.2864 24.7294 48.4831 24.5922 48.7096 24.4648L50.3067 28.7457C50.3067 28.7457 49.9744 28.9474 49.9595 29.2946C49.9463 29.6419 50.1315 30.0602 50.7184 30.1776" fill="#00A08D"/>
<g opacity="0.3">
<path d="M54.2548 25.1329C54.5161 23.7275 54.3788 22.2823 54.2383 20.8604C53.7803 22.0244 53.7969 23.3356 53.3124 24.4881C53.2595 24.6121 53.2017 24.7361 53.1835 24.87C53.1653 25.004 53.1934 25.1511 53.2943 25.2421C53.4265 25.3628 53.6216 25.2983 53.7985 25.2768C53.9853 25.2536 54.0845 25.1908 54.2532 25.1329" fill="black"/>
</g>
<g opacity="0.4">
<path d="M51.2194 28.3853C51.884 28.6167 52.585 28.1885 53.2843 28.1124C53.7473 28.0628 54.2102 28.1687 54.6698 28.2431C55.5973 28.3935 56.5463 28.4167 57.4804 28.3125C57.6226 28.296 57.7698 28.2761 57.8938 28.205C58.0178 28.1339 58.1186 27.9372 58.1103 27.795C56.5546 27.6346 54.9972 27.5403 53.4414 27.3799C53.0512 27.3403 52.6478 27.3006 52.2742 27.4163C51.803 27.5618 51.4409 27.9322 51.1103 28.296" fill="black"/>
</g>
<path d="M62.1179 23.1536C61.4434 21.639 59.0726 17.4458 59.0726 17.4458L57.2357 19.7491L57.6639 24.2714C57.6639 24.2714 58.6344 23.1883 61.3475 23.1668C61.9791 23.1619 62.3577 23.6993 62.3577 23.6993L62.1196 23.1553L62.1179 23.1536Z" fill="#00A08D"/>
<path d="M51.0871 22.3533C51.064 22.3599 50.9251 21.9168 50.7779 21.3645C50.6291 20.8123 50.5283 20.3592 50.5514 20.3526C50.5746 20.346 50.7135 20.7891 50.8606 21.3414C51.0094 21.8937 51.1102 22.3467 51.0871 22.3533Z" fill="#263238"/>
<path d="M57.0952 19.4434C57.0952 19.4434 57.1597 19.4913 57.2655 19.5872C57.368 19.6864 57.5151 19.8352 57.6755 20.037C57.9963 20.4338 58.3881 21.0555 58.5534 21.8326C58.6361 22.2195 58.6493 22.5999 58.6063 22.9405C58.5633 23.2794 58.4989 23.5754 58.4575 23.8284C58.4145 24.0797 58.3881 24.2847 58.3749 24.4269C58.3616 24.5691 58.3583 24.6485 58.3517 24.6485C58.3468 24.6485 58.3385 24.5691 58.3418 24.4253C58.3451 24.2814 58.3616 24.0731 58.398 23.8201C58.4327 23.5655 58.4906 23.2662 58.5286 22.9322C58.5667 22.5999 58.5501 22.2295 58.4708 21.8525C58.3104 21.0935 57.9351 20.4784 57.6292 20.0766C57.3234 19.6699 57.0853 19.4566 57.0985 19.445L57.0952 19.4434Z" fill="#263238"/>
<path d="M55.4121 29.819C55.4121 29.819 55.3493 29.8438 55.2319 29.8719C55.1741 29.8868 55.1013 29.9033 55.017 29.9132C54.9327 29.9248 54.8368 29.943 54.7277 29.948C54.5127 29.9695 54.2548 29.9678 53.9705 29.943C53.6861 29.9132 53.3769 29.857 53.0612 29.7611C52.747 29.6619 52.4593 29.5329 52.208 29.3957C51.96 29.2552 51.7468 29.1097 51.5814 28.9708C51.4955 28.9063 51.426 28.8368 51.3632 28.779C51.2987 28.7227 51.2491 28.6682 51.2094 28.6219C51.1284 28.5326 51.0871 28.4813 51.0904 28.478C51.102 28.4664 51.2805 28.6649 51.6178 28.9228C51.7848 29.0534 51.9981 29.1907 52.2444 29.3263C52.4924 29.4569 52.7768 29.5809 53.0843 29.6784C53.3935 29.7727 53.6977 29.8306 53.9771 29.8636C54.2565 29.8917 54.5094 29.8984 54.7227 29.8868C55.1476 29.8653 55.4055 29.8025 55.4105 29.819H55.4121Z" fill="#263238"/>
<path d="M57.9566 28.8762C57.9665 28.8745 57.9996 28.9638 58.0194 29.1176C58.0392 29.2697 58.0426 29.4896 57.9748 29.7194C57.9086 29.9509 57.7714 30.1328 57.6507 30.232C57.53 30.3329 57.4374 30.3643 57.4325 30.356C57.4259 30.3445 57.5052 30.2932 57.6094 30.1874C57.7119 30.0832 57.8309 29.9112 57.8921 29.6946C58.0178 29.2581 57.9235 28.8778 57.9549 28.8745L57.9566 28.8762Z" fill="#263238"/>
<path d="M57.5085 29.4586C57.53 29.4536 57.573 29.695 57.4672 29.9678C57.363 30.2407 57.168 30.3895 57.1547 30.3713C57.1365 30.3531 57.2903 30.1894 57.3862 29.9364C57.4854 29.6851 57.4821 29.4602 57.5085 29.4586Z" fill="#263238"/>
<path d="M56.0338 24.0166C56.052 24.0348 55.8982 24.2068 55.7395 24.4399C55.5791 24.6714 55.4733 24.8764 55.4502 24.8665C55.4287 24.8582 55.5031 24.6317 55.6684 24.3919C55.8321 24.1505 56.0189 24.0001 56.0338 24.0183V24.0166Z" fill="#263238"/>
<path d="M50.3762 20.0138C50.3663 20.0237 50.2356 19.9195 50.0108 19.7724C49.786 19.6252 49.4602 19.4433 49.075 19.2978C48.6898 19.1556 48.3244 19.0796 48.0582 19.0432C47.7921 19.0068 47.6234 19.0002 47.6234 18.987C47.6234 18.9771 47.7921 18.9622 48.0649 18.9837C48.3377 19.0052 48.713 19.073 49.1048 19.2185C49.4966 19.3656 49.8256 19.5607 50.0439 19.7228C50.2638 19.8848 50.3811 20.0072 50.3745 20.0154L50.3762 20.0138Z" fill="#263238"/>
<path d="M59.0726 17.3895C59.0891 17.4126 58.6427 17.6838 58.2376 18.1716C57.8276 18.6544 57.6342 19.1405 57.6094 19.1289C57.5995 19.1256 57.6342 19 57.7251 18.8082C57.8144 18.618 57.9648 18.365 58.1715 18.117C58.3798 17.8706 58.603 17.6788 58.7766 17.5581C58.9502 17.4374 59.0676 17.3812 59.0726 17.3895Z" fill="#263238"/>
<path d="M55.6684 16.0273C55.6684 16.0273 55.6833 16.0521 55.7048 16.1034C55.7296 16.1547 55.7544 16.2324 55.7825 16.3349C55.8354 16.5399 55.8635 16.8557 55.7792 17.2311C55.6932 17.6015 55.4865 18.0314 55.1046 18.3703C54.726 18.7109 54.1672 18.9143 53.5836 18.9127C52.9983 18.9094 52.4478 18.7076 52.0477 18.4001C51.6426 18.0942 51.3731 17.7139 51.2028 17.3749C51.0342 17.0327 50.9565 16.7317 50.9218 16.5234C50.9052 16.4192 50.8937 16.3365 50.892 16.282C50.8887 16.2258 50.8871 16.1977 50.892 16.1977C50.9003 16.1977 50.9102 16.3134 50.9565 16.5184C51.0011 16.7235 51.0871 17.0161 51.259 17.3485C51.4343 17.6759 51.7005 18.0446 52.0973 18.3373C52.4875 18.6332 53.0198 18.8234 53.5869 18.8283C54.1523 18.83 54.6897 18.6365 55.055 18.3125C55.4254 17.99 55.632 17.5767 55.723 17.2178C55.8123 16.8557 55.7941 16.5482 55.7527 16.3432C55.7114 16.1381 55.6618 16.0323 55.6717 16.0273H55.6684Z" fill="#263238"/>
<g opacity="0.3">
<path d="M56.2471 24.311C56.2438 24.2283 56.2338 24.1307 56.1627 24.0894C56.1181 24.0629 56.0602 24.0696 56.0123 24.0927C55.966 24.1159 55.928 24.1539 55.8933 24.1919C55.6932 24.4085 55.5527 24.6202 55.4518 24.8979L56.2619 24.8285C56.257 24.6582 56.2537 24.4829 56.2471 24.3126V24.311Z" fill="black"/>
</g>
<g opacity="0.3">
<path d="M58.937 22.6063C58.8742 22.1433 58.6377 21.7183 58.3501 21.3496C58.6989 22.4938 58.5815 23.1403 58.3864 23.9224L58.4294 23.8133C58.6543 23.3553 59.0015 23.0692 58.9386 22.6046L58.937 22.6063Z" fill="black"/>
</g>
<path d="M57.3184 61.0428L56.8241 68.4586L53.6001 68.4206L53.0926 60.7104L57.3184 61.0428Z" fill="#FFBE9D"/>
<path d="M56.915 67.4833V67.6982C56.915 67.6982 60.5506 69.1616 60.5887 69.8511L53.3703 69.8081L53.4828 67.4072C54.5524 67.9099 55.675 67.9727 56.915 67.4833Z" fill="#00A08D"/>
<path d="M54.2085 68.1779C54.068 68.216 53.9705 68.3714 54.0035 68.5136C54.0349 68.6558 54.1937 68.755 54.3342 68.7203C54.4747 68.6856 54.5971 68.5004 54.5508 68.3648C54.5028 68.2275 54.311 68.1201 54.1837 68.1879" fill="white"/>
<path d="M53.3703 69.808L53.3968 69.231L60.3043 69.4823C60.3043 69.4823 60.625 69.6245 60.587 69.8494L53.3687 69.8064L53.3703 69.808Z" fill="#263238"/>
<path d="M56.9415 67.7179C56.9415 67.7526 56.7645 67.7675 56.5893 67.8799C56.4124 67.9874 56.3215 68.1395 56.29 68.1263C56.257 68.1197 56.3115 67.908 56.5248 67.7758C56.7364 67.6418 56.9497 67.6848 56.9415 67.7179Z" fill="#263238"/>
<path d="M57.697 68.0354C57.7053 68.0701 57.5515 68.128 57.4308 68.2768C57.3052 68.4223 57.2754 68.5827 57.239 68.5811C57.206 68.586 57.1828 68.3793 57.3366 68.1975C57.4887 68.0139 57.6954 68.0007 57.697 68.0338V68.0354Z" fill="#263238"/>
<path d="M58.1219 68.9435C58.0905 68.9502 58.0425 68.7749 58.1335 68.5814C58.2244 68.388 58.3897 68.3136 58.4046 68.3417C58.4245 68.3714 58.317 68.474 58.2443 68.6327C58.1682 68.7898 58.1566 68.9386 58.1219 68.9419V68.9435Z" fill="#263238"/>
<path d="M56.7298 6.80725C56.915 6.34428 56.6901 5.78209 56.2884 5.48612C55.8866 5.19015 55.3493 5.12566 54.8566 5.20503C54.3639 5.28274 53.901 5.48943 53.4447 5.69281C53.0314 5.27778 52.3767 5.11905 51.8195 5.30093C51.2623 5.48281 50.8275 5.99539 50.7383 6.57576C50.3828 6.48482 49.9827 6.60718 49.7363 6.87835C49.49 7.15117 49.4106 7.56124 49.5379 7.90516L51.7732 8.69056L54.2135 12.9846C54.9277 13.5931 56.0933 13.5766 56.7893 12.9483C57.4854 12.3199 57.6193 11.1592 57.0853 10.3887C57.2225 10.268 57.3366 10.1225 57.4275 9.96539C57.8144 9.72564 58.1169 9.35361 58.2178 8.90717C58.4294 7.96303 57.6904 6.91969 56.7298 6.8056V6.80725Z" fill="#263238"/>
<path d="M55.2501 15.7593C55.1112 15.0599 55.0153 14.582 55.0153 14.587C55.0153 14.587 56.333 14.0744 56.2421 12.2324C56.1975 11.3164 55.847 9.87459 55.5246 8.70227C55.2336 7.64735 54.2499 6.48496 53.2083 6.82061L50.0604 8.35835C49.7446 8.46086 49.6884 8.75684 49.7628 9.08092L49.7678 9.23965L50.9929 14.3092L51.5103 16.5745C51.7401 17.5385 52.666 18.1684 53.6464 18.0262C54.731 17.8692 55.4634 16.8341 55.2485 15.7593H55.2501Z" fill="#FFBE9D"/>
<path d="M55.5047 9.92752C55.5345 10.0466 55.4568 10.1706 55.3328 10.2036C55.2088 10.2367 55.0831 10.1673 55.0534 10.0466C55.0236 9.92752 55.1013 9.80351 55.2253 9.77044C55.3493 9.73737 55.475 9.80681 55.5047 9.92752Z" fill="#263238"/>
<path d="M55.3691 9.57531C55.3477 9.61168 55.1476 9.51909 54.9013 9.572C54.6549 9.61995 54.5012 9.7853 54.4681 9.76049C54.4516 9.75057 54.4698 9.6894 54.5359 9.61664C54.602 9.54389 54.7211 9.46122 54.8748 9.42815C55.0286 9.39673 55.1691 9.42649 55.2551 9.46783C55.3427 9.50917 55.3791 9.55877 55.3691 9.57531Z" fill="#263238"/>
<path d="M53.1124 10.4763C53.1422 10.5954 53.0644 10.7194 52.9404 10.7525C52.8165 10.7855 52.6908 10.7161 52.661 10.5954C52.6313 10.4763 52.709 10.3523 52.833 10.3193C52.957 10.2862 53.0826 10.3556 53.1124 10.4763Z" fill="#263238"/>
<path d="M52.9917 10.1588C52.9702 10.1952 52.7702 10.1026 52.5238 10.1555C52.2775 10.2034 52.1237 10.3688 52.0907 10.344C52.0741 10.3341 52.0907 10.2729 52.1584 10.2001C52.2246 10.1274 52.3436 10.0447 52.4974 10.0116C52.6511 9.98023 52.7916 10.01 52.8776 10.0513C52.9652 10.0943 53.0016 10.1423 52.9917 10.1588Z" fill="#263238"/>
<path d="M54.2366 11.7132C54.2333 11.7 54.3805 11.6405 54.6202 11.5578C54.6814 11.538 54.7376 11.5132 54.7392 11.4685C54.7442 11.4206 54.7045 11.3577 54.6582 11.2916C54.5673 11.1527 54.4714 11.0055 54.3722 10.8518C53.9721 10.2251 53.6679 9.70425 53.6927 9.68937C53.7175 9.67283 54.063 10.1689 54.4631 10.7955C54.5607 10.951 54.6533 11.0981 54.7426 11.2387C54.7806 11.3048 54.8384 11.3776 54.8269 11.4784C54.8203 11.5297 54.7806 11.5727 54.7426 11.5925C54.7045 11.614 54.6698 11.6206 54.6384 11.6289C54.3921 11.695 54.2383 11.7281 54.2333 11.7149L54.2366 11.7132Z" fill="#263238"/>
<path d="M55.017 14.5868C55.017 14.5868 53.8349 14.9158 52.4974 14.4512C52.4974 14.4512 53.362 15.5822 55.1112 15.0415L55.017 14.5868Z" fill="#EB996E"/>
<path d="M53.038 9.80849C53.0215 9.87959 52.7685 9.87794 52.4808 9.94904C52.1915 10.0135 51.965 10.1293 51.9187 10.073C51.8972 10.0466 51.9319 9.97715 52.0179 9.89943C52.1039 9.82172 52.2477 9.74235 52.4213 9.70102C52.5949 9.65968 52.7586 9.66795 52.871 9.69936C52.9834 9.72913 53.0446 9.77708 53.038 9.81015V9.80849Z" fill="#263238"/>
<path d="M55.2749 8.7934C55.2352 8.85954 55.0236 8.84466 54.7822 8.89261C54.5392 8.93395 54.3458 9.02324 54.2862 8.97529C54.2598 8.95048 54.2796 8.88931 54.359 8.81655C54.435 8.74545 54.5739 8.67105 54.7409 8.64128C54.9079 8.61152 55.0616 8.63136 55.1575 8.67105C55.2551 8.71073 55.2948 8.76199 55.2782 8.7934H55.2749Z" fill="#263238"/>
<path d="M50.8358 7.17447C50.9085 7.53162 51.1466 7.85074 51.4674 8.02436C51.7881 8.19797 52.1865 8.21782 52.5238 8.08058C52.785 7.97475 53.0562 7.77468 53.3207 7.87059C53.6001 7.97145 53.6877 8.34348 53.9473 8.48899C54.3176 8.69732 54.764 8.33687 55.1873 8.37324C55.5146 8.40135 55.7676 8.65599 56.0239 8.86102C56.2801 9.06605 56.6356 9.23801 56.9249 9.08259C56.8472 8.80976 56.7695 8.53363 56.6323 8.28561C56.4951 8.03759 56.29 7.81602 56.0272 7.71351C55.8817 7.65729 55.7246 7.63745 55.5857 7.56635C55.2865 7.41257 55.1542 7.06534 54.936 6.81071C54.6549 6.48166 54.2085 6.30144 53.7787 6.34608C53.4199 6.38246 53.081 6.56268 52.7222 6.5478C52.456 6.53623 52.2014 6.41883 51.9352 6.42214C51.4178 6.43041 51.0276 6.88511 50.7399 7.31502" fill="#263238"/>
<path d="M52.5784 7.55307C52.342 7.53488 51.8542 7.48527 51.6939 7.31662C51.3467 6.94955 50.8275 6.75774 50.3646 6.8801C49.9017 7.00246 49.528 7.46709 49.5346 7.98132C48.9676 8.10368 48.4881 8.57492 48.3277 9.16686C48.1674 9.75881 48.331 10.45 48.7411 10.903C48.8485 11.0221 49.0122 11.2965 49.0122 11.2965C49.0122 11.2965 48.7989 11.5628 48.7179 11.743C48.341 12.5796 49.366 12.9004 49.366 12.9004C49.3693 13.4626 49.8868 13.4609 50.2191 13.4576C50.5382 13.4576 50.7349 14.3422 50.9945 14.3075L50.7316 11.5694C50.7631 11.5826 50.8027 11.5909 50.8523 11.5909C51.4789 11.6024 51.3153 10.4169 51.1119 10.1093C51.2888 9.8729 51.4674 9.63149 51.5814 9.3537C51.6955 9.07427 51.7038 8.37815 51.6062 8.08549C51.8245 8.05407 52.6809 7.55968 52.5767 7.55141L52.5784 7.55307Z" fill="#263238"/>
<path d="M50.8259 11.7163C50.7283 11.341 50.2621 11.174 49.9728 11.4319C49.8141 11.5741 49.7198 11.8122 49.819 12.2107C50.0852 13.2756 51.0987 12.7878 51.0937 12.7564C51.0904 12.7365 50.9383 12.1545 50.8242 11.7163H50.8259Z" fill="#FFBE9D"/>
<path d="M50.6672 12.4357C50.6672 12.4357 50.6523 12.4539 50.6242 12.4754C50.5977 12.4969 50.5465 12.5201 50.4869 12.5134C50.3646 12.5002 50.2241 12.3448 50.1712 12.1546C50.1447 12.0587 50.1414 11.9612 50.1563 11.8768C50.1695 11.7909 50.2059 11.7231 50.2604 11.6999C50.3133 11.6735 50.3613 11.6966 50.3828 11.7231C50.4043 11.7495 50.4026 11.7727 50.4092 11.7727C50.4125 11.7743 50.4274 11.7495 50.4092 11.7065C50.3993 11.6867 50.3811 11.6652 50.3514 11.6503C50.32 11.6354 50.2803 11.6354 50.2423 11.6503C50.1612 11.6768 50.1067 11.771 50.0902 11.8636C50.0687 11.9579 50.0703 12.0687 50.1001 12.1761C50.1612 12.3894 50.3216 12.5614 50.4853 12.568C50.5646 12.568 50.6225 12.53 50.6473 12.4969C50.6738 12.4622 50.6738 12.4374 50.6688 12.4357H50.6672Z" fill="#EB996E"/>
<path d="M56.5347 10.23C56.5347 10.23 56.6306 10.1556 56.7662 9.99023C56.8985 9.82488 57.0605 9.54545 57.0985 9.16349C57.1167 8.975 57.1068 8.7617 57.039 8.55005C56.9712 8.34006 56.8489 8.12676 56.6604 7.96307C56.2934 7.62906 55.6866 7.47529 55.141 7.66709C55.0914 7.68363 55.0451 7.70843 54.9972 7.72827C54.9525 7.75142 54.9095 7.77788 54.8665 7.80268L54.8004 7.83906V7.7663C54.7971 7.63733 54.7492 7.51332 54.6665 7.41907C54.5838 7.32317 54.4764 7.25042 54.3606 7.20081C54.1292 7.0983 53.8795 7.09664 53.6514 7.14956C53.1951 7.25372 52.8082 7.46206 52.4428 7.5034C52.0807 7.5497 51.7798 7.46041 51.6178 7.33805C51.5335 7.28018 51.4872 7.21404 51.4558 7.1727C51.4293 7.12641 51.4161 7.10326 51.4194 7.1016C51.4277 7.09499 51.4723 7.20247 51.636 7.3116C51.7964 7.42073 52.0857 7.49679 52.4345 7.44553C52.6081 7.42073 52.7933 7.35789 52.9901 7.28514C53.1868 7.21239 53.3984 7.12641 53.6348 7.0735C53.7539 7.04869 53.8779 7.02885 54.0085 7.03547C54.1374 7.04208 54.2681 7.07184 54.3937 7.12475C54.5177 7.17766 54.6367 7.25703 54.731 7.36451C54.8269 7.47198 54.8847 7.61749 54.8864 7.76796L54.8203 7.73158C54.8649 7.70678 54.9112 7.67701 54.9591 7.65221C55.0087 7.63072 55.0583 7.60426 55.1112 7.58773C55.6915 7.38435 56.3264 7.5497 56.7133 7.9052C56.91 8.08046 57.039 8.30864 57.1068 8.53021C57.1746 8.75343 57.1812 8.975 57.158 9.17176C57.1117 9.56694 56.9348 9.85134 56.791 10.0134C56.7183 10.0944 56.6538 10.1523 56.6058 10.1837C56.5595 10.2168 56.5347 10.2333 56.5331 10.2316L56.5347 10.23Z" fill="#455A64"/>
<path d="M56.3182 6.49128C56.3115 6.50286 56.2057 6.40696 55.9759 6.37389C55.8635 6.35901 55.7197 6.35901 55.5692 6.41026C55.4188 6.45656 55.26 6.55742 55.1509 6.7145L55.1112 6.77238L55.0864 6.70624C54.9525 6.34909 54.5623 6.01012 54.0779 5.95721C53.7142 5.91587 53.3835 6.07957 53.1091 6.23665C52.8313 6.39869 52.5784 6.55742 52.3403 6.63348C52.1055 6.71616 51.8956 6.72608 51.7583 6.70128C51.6889 6.6897 51.6377 6.67317 51.6046 6.65829C51.5715 6.6434 51.5533 6.63514 51.555 6.63183C51.5583 6.62356 51.6294 6.65332 51.7633 6.66655C51.8972 6.67978 52.094 6.66159 52.3205 6.57396C52.5486 6.49294 52.79 6.3342 53.0694 6.16555C53.2099 6.08288 53.362 5.99855 53.5323 5.93902C53.7026 5.87784 53.8944 5.84808 54.0878 5.86792C54.607 5.92579 55.0203 6.29121 55.1559 6.67647L55.0914 6.66821C55.2154 6.49459 55.3923 6.39208 55.5543 6.34743C55.7163 6.29783 55.8685 6.30444 55.9858 6.32594C56.1049 6.34908 56.1909 6.39208 56.2454 6.42515C56.2983 6.46152 56.3231 6.48467 56.3215 6.48632L56.3182 6.49128Z" fill="#455A64"/>
<path d="M54.1408 12.2024C54.0664 12.1296 53.9539 12.1065 53.8498 12.1181C53.7522 12.1296 53.6332 12.2156 53.5704 12.3214C53.5704 12.3231 53.5671 12.3247 53.5654 12.3281C53.5621 12.333 53.5588 12.3363 53.5555 12.3413L53.5588 12.338C53.5356 12.376 53.5224 12.419 53.5274 12.4636C53.5373 12.5612 53.6117 12.6439 53.6993 12.6869C53.8382 12.7563 54.0234 12.7365 54.1325 12.624C54.2416 12.5116 54.2482 12.3115 54.1358 12.2024H54.1408Z" fill="#00A08D"/>
<path d="M54.2234 12.7165C54.2102 12.7199 54.1937 12.6669 54.1507 12.5975C54.1077 12.5281 54.03 12.4421 53.9209 12.3925C53.8101 12.3429 53.6944 12.3412 53.615 12.3544C53.534 12.366 53.4844 12.3892 53.4778 12.3776C53.4712 12.3693 53.5125 12.3263 53.6001 12.2966C53.6861 12.2651 53.8233 12.2552 53.9572 12.3148C54.0895 12.3759 54.1722 12.4867 54.2052 12.571C54.2399 12.657 54.235 12.7165 54.2234 12.7165Z" fill="#263238"/>
<path d="M50.849 12.9201C50.849 12.9201 50.897 13.0028 50.8341 13.1285C50.8027 13.188 50.7465 13.2541 50.6572 13.2872C50.5696 13.3219 50.4555 13.3087 50.3663 13.2525C50.2753 13.1962 50.2158 13.1003 50.2092 13.0044C50.2009 12.9102 50.2373 12.8308 50.277 12.7763C50.3629 12.6655 50.4588 12.6638 50.4588 12.6738C50.4638 12.687 50.3861 12.7118 50.3282 12.811C50.3001 12.8589 50.2786 12.9267 50.2886 12.9962C50.2968 13.0656 50.3431 13.1351 50.4125 13.1797C50.482 13.2227 50.5663 13.2343 50.6324 13.2128C50.7002 13.1913 50.7515 13.1433 50.7829 13.097C50.8474 13.0011 50.8358 12.9201 50.8507 12.9201H50.849Z" fill="#00A08D"/>
<path d="M50.2919 12.8573C50.3018 12.8622 50.2869 12.9135 50.2142 12.9482C50.1794 12.9647 50.1298 12.9747 50.0769 12.9614C50.0224 12.9482 49.9711 12.9085 49.9414 12.854C49.9116 12.7994 49.9066 12.7333 49.9248 12.682C49.943 12.6307 49.9777 12.5944 50.0108 12.5745C50.0802 12.5332 50.1315 12.5497 50.1298 12.5596C50.1298 12.5729 50.0885 12.5811 50.0488 12.6225C50.0075 12.6622 49.9761 12.7399 50.0174 12.8126C50.0571 12.887 50.1381 12.9036 50.1943 12.8903C50.2505 12.8788 50.2819 12.849 50.2919 12.8556V12.8573Z" fill="#00A08D"/>
<path d="M52.1088 27.5421C52.1088 27.5421 56.2024 27.7802 58.6212 27.8017C60.4961 27.8182 61.331 27.3205 61.7046 26.1168C62.0188 25.1049 61.3425 23.167 61.3425 23.167C60.0761 23.1736 59.2925 23.3489 58.4774 23.7308L58.694 24.6171L52.094 25.1859L52.1055 27.5421H52.1088Z" fill="#FFBE9D"/>
<path d="M60.0745 25.5629C60.0513 25.5778 59.8595 25.219 59.4561 24.9495C59.0577 24.6733 58.6526 24.6254 58.6592 24.5989C58.6592 24.589 58.7617 24.5857 58.9221 24.6221C59.0808 24.6568 59.2974 24.7378 59.5041 24.88C59.7107 25.0222 59.8661 25.1925 59.9554 25.3281C60.0464 25.4637 60.0811 25.5596 60.0728 25.5645L60.0745 25.5629Z" fill="#EB996E"/>
<path d="M50.6109 23.7243C50.6109 23.7243 49.3445 24.0285 48.4154 24.6502L49.404 27.3388C49.7347 28.2217 50.7465 28.6549 51.5467 28.1969C52.7917 27.4859 53.2314 25.4092 53.2314 25.4092L54.6004 19.4765L52.3337 18.0562L50.6109 23.7243Z" fill="#FFBE9D"/>
<path d="M52.332 18.0558L52.423 16.1047L51.9171 14.1288C51.889 14.0197 51.8757 13.8825 51.9634 13.8163C52.0559 13.7469 52.1948 13.7502 52.2692 13.8262C52.4081 13.9684 53.0694 15.7029 53.0694 15.7029C53.0694 15.7029 54.073 15.0994 54.2515 15.0713C54.4301 15.0415 54.6533 15.5822 54.6682 15.6236C54.6814 15.6666 54.6698 15.9857 54.6698 15.9857C54.6698 15.9857 55.2898 16.0039 55.346 16.0899C55.4022 16.1742 55.4171 16.6157 55.4171 16.6157C55.4171 16.6157 55.68 16.7 55.7213 16.8984C55.7643 17.0968 55.8486 17.4242 55.7246 17.497C55.6006 17.5681 55.3394 17.7119 55.3394 17.7119C55.3394 17.7119 55.2336 18.7238 55.2071 18.8164C55.1807 18.909 54.5987 19.4762 54.5987 19.4762L52.332 18.0558Z" fill="#FFBE9D"/>
<path d="M50.2241 28.238C50.2241 28.238 50.2852 28.2728 50.4142 28.3158C50.5415 28.3587 50.7416 28.3968 50.9978 28.3621C51.2524 28.3273 51.5649 28.2165 51.8443 27.9718C52.1204 27.7222 52.3998 27.3915 52.6313 26.9764C52.747 26.7681 52.8512 26.5399 52.9371 26.2936C53.0264 26.0472 53.0843 25.7793 53.1488 25.5015C53.2794 24.9443 53.4183 24.3441 53.5671 23.7075C53.8647 22.4327 54.1986 21.0057 54.559 19.4696L54.5623 19.4581L54.5706 19.4498C54.6847 19.3374 54.7988 19.2233 54.9128 19.1059C54.9691 19.0464 55.0253 18.9868 55.0798 18.9257C55.1063 18.8942 55.1344 18.8628 55.1542 18.8331C55.1741 18.8132 55.1741 18.7735 55.1823 18.7305C55.227 18.3998 55.2617 18.0576 55.2981 17.7137V17.6922L55.3196 17.6806C55.4237 17.6227 55.5279 17.5632 55.6353 17.5037C55.6585 17.4888 55.6949 17.4722 55.7097 17.4607C55.723 17.4507 55.7345 17.4309 55.7395 17.4045C55.7511 17.3548 55.7478 17.292 55.7412 17.2325C55.7263 17.1167 55.6982 16.9812 55.6684 16.8737C55.6271 16.7728 55.5146 16.7017 55.4055 16.662L55.3774 16.6521V16.624C55.3725 16.5281 55.3659 16.4289 55.3543 16.3313C55.3493 16.2817 55.3427 16.2338 55.3328 16.1858C55.3278 16.1643 55.3212 16.1379 55.3146 16.1247C55.3096 16.1131 55.3113 16.1214 55.3047 16.1147C55.2964 16.1114 55.2881 16.1065 55.2766 16.1032C55.0931 16.0519 54.8765 16.0453 54.6715 16.0354H54.6285V15.9907C54.6334 15.8882 54.6367 15.7741 54.6318 15.6683C54.6351 15.6402 54.6086 15.5972 54.5938 15.5575C54.5756 15.5178 54.5574 15.4781 54.5375 15.4401C54.4979 15.3624 54.4532 15.288 54.402 15.2219C54.3755 15.1888 54.3474 15.159 54.3177 15.1392C54.2846 15.1193 54.2697 15.1144 54.23 15.1293C54.154 15.1557 54.0746 15.1971 53.9969 15.2367C53.6877 15.3971 53.3885 15.5724 53.0942 15.7477L53.0512 15.7725L53.033 15.7262C52.876 15.3343 52.7222 14.9474 52.5701 14.5671C52.4941 14.3769 52.418 14.1868 52.3436 13.9999C52.3155 13.9057 52.2494 13.8511 52.1617 13.8296C52.0741 13.8065 51.9882 13.8346 51.9468 13.909C51.927 13.9437 51.9171 13.9867 51.922 14.0264C51.927 14.0628 51.9452 14.119 51.9551 14.1636C51.9799 14.2595 52.0047 14.3538 52.0295 14.448C52.0791 14.6365 52.1287 14.825 52.1766 15.0102C52.2742 15.3806 52.3701 15.746 52.4627 16.1015V16.1131C52.4312 16.7927 52.3998 17.4441 52.3701 18.0642V18.0725C51.7435 20.1062 51.226 21.7928 50.8623 22.9734C50.6804 23.5587 50.5366 24.02 50.4374 24.3375C50.3878 24.4913 50.3497 24.6103 50.3233 24.6946C50.2968 24.7757 50.2803 24.817 50.2803 24.817C50.2803 24.817 50.2902 24.774 50.3117 24.693C50.3365 24.607 50.3712 24.488 50.4159 24.3325C50.5101 24.0134 50.6473 23.5504 50.8226 22.9618C51.178 21.7779 51.6872 20.088 52.299 18.051V18.0592C52.3254 17.4392 52.3552 16.7877 52.3866 16.1081V16.1197C52.294 15.7642 52.1965 15.4004 52.0989 15.0284C52.0493 14.8432 51.9997 14.6564 51.9501 14.4662C51.9253 14.372 51.9005 14.2761 51.8741 14.1818C51.8625 14.1306 51.8476 14.0925 51.8377 14.0314C51.8311 13.9735 51.8443 13.914 51.8741 13.8627C51.9038 13.8114 51.9501 13.7701 52.008 13.7503C52.0659 13.7304 52.1237 13.7321 52.1783 13.7453C52.2328 13.7585 52.2857 13.7833 52.3304 13.823C52.375 13.8594 52.4048 13.9222 52.4197 13.9652C52.4941 14.1521 52.5701 14.3422 52.6462 14.5324C52.7983 14.9127 52.9537 15.2996 53.1107 15.6914L53.0496 15.67C53.3455 15.4947 53.6448 15.3194 53.9572 15.1557C54.0366 15.116 54.1126 15.0747 54.2019 15.0433C54.2267 15.0367 54.2499 15.0267 54.2846 15.0317C54.3144 15.0367 54.3425 15.0482 54.3623 15.0631C54.4069 15.0912 54.4383 15.1276 54.4665 15.164C54.5243 15.2367 54.569 15.3161 54.6103 15.3971C54.6301 15.4368 54.65 15.4781 54.6698 15.5195C54.6847 15.5625 54.7128 15.5972 54.7161 15.66C54.7211 15.7774 54.7161 15.8882 54.7128 15.9924L54.6715 15.9477C54.8847 15.9593 55.0898 15.9626 55.303 16.0205C55.3163 16.0238 55.3311 16.0321 55.346 16.0387C55.3592 16.0453 55.3857 16.0684 55.389 16.0817C55.4055 16.1131 55.4088 16.1379 55.4155 16.166C55.427 16.2189 55.4336 16.2685 55.4386 16.3198C55.4502 16.4206 55.4568 16.5198 55.4601 16.619L55.4303 16.5794C55.5576 16.6273 55.6849 16.7017 55.7461 16.8406C55.7858 16.9762 55.8073 17.0919 55.8255 17.2226C55.8321 17.2871 55.837 17.3532 55.8222 17.4243C55.8156 17.459 55.7974 17.4987 55.7626 17.5268C55.7279 17.5516 55.7064 17.5599 55.6783 17.5764C55.5709 17.6359 55.4651 17.6955 55.3609 17.7533L55.3824 17.7203C55.346 18.0658 55.3096 18.4065 55.265 18.7405L55.2551 18.8049C55.2534 18.8248 55.2385 18.8612 55.2237 18.8777C55.1972 18.9157 55.1691 18.9471 55.1427 18.9786C55.0864 19.0414 55.0302 19.1026 54.9724 19.1621C54.8583 19.2811 54.7426 19.3952 54.6285 19.5077L54.64 19.4878C54.2763 21.0223 53.9391 22.4476 53.6365 23.7224C53.4844 24.359 53.3422 24.9575 53.2099 25.5148C53.1438 25.7925 53.0826 26.0637 52.9917 26.3117C52.9024 26.5614 52.795 26.7912 52.6776 27.0012C52.4395 27.4196 52.1551 27.7519 51.8724 28.0016C51.5831 28.2496 51.2624 28.3587 51.0044 28.3885C50.7432 28.4199 50.5382 28.3753 50.4126 28.329C50.3481 28.3058 50.3018 28.2827 50.272 28.2661C50.2423 28.2496 50.2257 28.2413 50.2274 28.2397L50.2241 28.238Z" fill="#EB996E"/>
<path d="M54.6698 15.9825C54.6698 15.9941 54.6136 16.0007 54.526 16.0056C54.4383 16.0106 54.3193 16.0139 54.197 16.0453C54.0746 16.0767 53.9754 16.1379 53.9159 16.1958C53.8547 16.252 53.8283 16.3 53.8167 16.295C53.8068 16.2917 53.8134 16.2322 53.8696 16.1561C53.9242 16.0801 54.0349 15.999 54.1738 15.9627C54.3127 15.9279 54.4384 15.9362 54.5276 15.9461C54.6169 15.9577 54.6698 15.9726 54.6682 15.9842L54.6698 15.9825Z" fill="#EB996E"/>
<path d="M54.1854 16.0008C54.1639 15.9925 54.1622 15.9413 54.1821 15.8867C54.2019 15.8322 54.2366 15.7941 54.2598 15.8024C54.2813 15.8107 54.2829 15.8619 54.2631 15.9165C54.2433 15.9711 54.2085 16.0091 54.1854 16.0008Z" fill="#EB996E"/>
<path d="M55.4452 16.6027C55.4452 16.6275 55.2237 16.6539 54.9542 16.6705C54.8203 16.6821 54.7211 16.73 54.6814 16.8028C54.6384 16.8706 54.6516 16.9268 54.64 16.9301C54.6318 16.9383 54.5871 16.8739 54.6268 16.7746C54.645 16.7284 54.6863 16.6771 54.7442 16.644C54.8021 16.611 54.8732 16.5944 54.9426 16.5862C55.2204 16.568 55.4436 16.5812 55.4436 16.6043L55.4452 16.6027Z" fill="#EB996E"/>
<path d="M55.3344 17.1963C55.3576 17.1963 55.3725 17.3203 55.3659 17.4691C55.3592 17.6196 55.3344 17.7386 55.3113 17.7386C55.2881 17.7386 55.2733 17.6146 55.2799 17.4658C55.2865 17.3153 55.3113 17.1963 55.3344 17.1963Z" fill="#EB996E"/>
<path d="M56.0222 21.6508L56.1694 21.1431C56.1991 21.0406 56.3264 21.0092 56.4008 21.0853L56.5926 21.2804L56.7116 20.8042C56.7431 20.6785 56.915 20.662 56.9712 20.7777L57.2424 21.3416L56.0222 21.6491V21.6508Z" fill="white"/>
<path d="M57.244 21.56C57.249 21.5832 56.9877 21.6675 56.6604 21.7485C56.3314 21.8295 56.0619 21.8775 56.0553 21.8543C56.0503 21.8312 56.3115 21.7469 56.6389 21.6659C56.9662 21.5848 57.2374 21.5369 57.244 21.56Z" fill="white"/>
<path d="M47.4118 18.7319C47.4118 18.7319 47.3506 18.7948 47.2647 18.9287C47.1803 19.061 47.0861 19.2743 47.0398 19.5537C46.9919 19.8315 46.9886 20.1705 47.0101 20.5441C47.0282 20.9178 47.058 21.3295 47.1043 21.7595C47.1952 22.6193 47.3341 23.3914 47.4531 23.9454C47.5127 24.2231 47.5656 24.4464 47.6019 24.6001C47.6185 24.6679 47.6317 24.7274 47.6449 24.7771C47.6548 24.8184 47.6581 24.8399 47.6581 24.8399C47.6581 24.8399 47.6499 24.82 47.6383 24.7787C47.6251 24.7291 47.6085 24.6712 47.5887 24.6034C47.5474 24.4497 47.4912 24.2281 47.43 23.9503C47.3043 23.3964 47.1622 22.6242 47.0712 21.7628C47.0249 21.3329 46.9968 20.9211 46.9803 20.5458C46.9605 20.1721 46.9654 19.8298 47.0183 19.5488C47.0679 19.2677 47.1655 19.0527 47.2547 18.9221C47.344 18.7898 47.4135 18.7336 47.4135 18.7336L47.4118 18.7319Z" fill="white"/>
<path d="M50.892 16.4849C50.892 16.4849 50.8804 16.4931 50.8556 16.5047C50.8226 16.5213 50.7862 16.5378 50.7465 16.556C50.6523 16.6006 50.5151 16.6668 50.3514 16.7577C50.0207 16.9346 49.5809 17.2091 49.1098 17.5348C48.6386 17.8589 48.2186 18.1665 47.9144 18.3847C47.7739 18.4839 47.6532 18.5699 47.5507 18.641C47.5143 18.6658 47.4812 18.689 47.4515 18.7088C47.4283 18.7237 47.4168 18.732 47.4151 18.7303C47.4151 18.7303 47.425 18.7204 47.4465 18.7022C47.4763 18.679 47.5077 18.6559 47.5424 18.6294C47.6416 18.555 47.7607 18.4657 47.8995 18.3632C48.2021 18.14 48.6171 17.8292 49.0899 17.5051C49.5628 17.1793 50.0058 16.9082 50.3398 16.7362C50.5051 16.6486 50.644 16.5841 50.7416 16.5427L50.854 16.4965C50.8804 16.4865 50.8937 16.4816 50.8937 16.4832L50.892 16.4849Z" fill="white"/>
<path d="M58.7766 17.5596C58.7766 17.5596 58.7667 17.553 58.7485 17.5381C58.7254 17.5183 58.7006 17.4968 58.6741 17.4736C58.6096 17.4191 58.5121 17.3414 58.3848 17.257C58.1318 17.0851 57.7549 16.8916 57.3217 16.7196C56.8885 16.546 56.4835 16.4237 56.1892 16.3426C56.0421 16.3013 55.9214 16.2716 55.8387 16.2517C55.8056 16.2434 55.7742 16.2352 55.7428 16.2269C55.7213 16.2203 55.7097 16.217 55.7097 16.2153C55.7097 16.2153 55.7213 16.2153 55.7445 16.2186C55.7759 16.2236 55.8073 16.2302 55.842 16.2368C55.9263 16.2534 56.047 16.2798 56.1958 16.3178C56.4934 16.3923 56.9001 16.513 57.3349 16.6866C57.7698 16.8602 58.1484 17.0586 58.398 17.2355C58.651 17.4108 58.7766 17.5563 58.7766 17.5563V17.5596Z" fill="white"/>
<path d="M50.9383 30.1825C50.9383 30.1825 50.9135 30.1775 50.8738 30.161C50.8341 30.1445 50.7763 30.1164 50.7101 30.0734C50.5795 29.9907 50.4043 29.8303 50.3514 29.5873C50.2968 29.3492 50.3481 29.1226 50.4159 28.9821C50.4489 28.911 50.4836 28.8564 50.5117 28.8217C50.5382 28.787 50.5564 28.7704 50.558 28.7721C50.563 28.7754 50.4985 28.8498 50.439 28.992C50.3795 29.1325 50.3332 29.3508 50.3861 29.579C50.4357 29.8105 50.601 29.9676 50.725 30.0535C50.8523 30.1412 50.9433 30.1775 50.94 30.1842L50.9383 30.1825Z" fill="white"/>
<path d="M50.4126 28.3917C50.4225 28.3884 50.4572 28.4826 50.4919 28.6C50.5266 28.7174 50.5465 28.815 50.5382 28.8166C50.5283 28.8199 50.4936 28.7257 50.4589 28.6083C50.4241 28.4909 50.4043 28.3933 50.4126 28.3917Z" fill="white"/>
<path d="M52.6478 65.4628L57.6904 65.438L57.5995 48.0004L57.5532 30.2635L50.7234 30.1792L49.495 32.4941C48.999 33.4283 48.6634 34.4435 48.5509 35.4951C48.465 36.2971 49.0651 38.9096 49.2751 39.5743L51.1549 45.5367L52.6495 65.4628H52.6478Z" fill="#263238"/>
<path d="M59.0312 30.2884L64.5731 45.3962C65.2245 47.4217 65.0063 49.4291 63.8903 51.2991L57.4573 63.8573L53.8399 59.3317L59.223 48.0815L54.478 40.3928L55.2766 30.3049L57.5118 30.2686L59.0329 30.2884H59.0312Z" fill="#263238"/>
<path d="M57.0919 35.3496C57.0919 35.3496 57.0952 35.3761 57.1002 35.4273C57.1035 35.4819 57.1084 35.5579 57.115 35.6555C57.1266 35.8605 57.1415 36.1549 57.1613 36.5318C57.1977 37.2974 57.2523 38.397 57.3168 39.7545C57.3796 41.1169 57.454 42.7357 57.5366 44.533C57.5763 45.4325 57.6193 46.3767 57.6639 47.3555C57.6954 47.8449 57.6805 48.3443 57.6871 48.8486C57.6871 49.3546 57.6904 49.8671 57.6921 50.388C57.6987 54.5432 57.7053 58.3048 57.7102 61.0314C57.7086 62.3906 57.7069 63.4918 57.7053 64.2574C57.7036 64.6344 57.7003 64.9303 57.7003 65.1337C57.7003 65.2313 57.697 65.3073 57.697 65.3619C57.697 65.4131 57.6921 65.4396 57.6921 65.4396C57.6921 65.4396 57.6887 65.4131 57.6871 65.3619L57.6821 65.1337C57.6805 64.9287 57.6755 64.6344 57.6722 64.2574C57.6673 63.4918 57.659 62.3906 57.6491 61.0314C57.6375 58.3048 57.6226 54.5432 57.6061 50.388C57.6061 49.8688 57.6028 49.3546 57.6011 48.8503C57.5962 48.3443 57.611 47.8449 57.5796 47.3572C57.5366 46.3783 57.497 45.4342 57.4573 44.5347C57.3812 42.7374 57.3134 41.1169 57.2556 39.7561C57.201 38.3986 57.158 37.2991 57.1266 36.5335C57.1134 36.1565 57.1035 35.8622 57.0969 35.6572C57.0952 35.5596 57.0919 35.4835 57.0919 35.429C57.0919 35.3777 57.0919 35.3513 57.0919 35.3513V35.3496Z" fill="#455A64"/>
<path d="M56.9646 30.5859C56.9646 30.5859 56.9828 30.6438 56.9993 30.7496C57.0159 30.8555 57.0373 31.0109 57.0588 31.201C57.1035 31.583 57.1498 32.1138 57.1762 32.7007C57.2027 33.2877 57.2043 33.8201 57.1944 34.2054C57.1894 34.3972 57.1828 34.5543 57.1762 34.6618C57.1696 34.7692 57.1613 34.8288 57.1564 34.8288C57.1432 34.8288 57.1398 34.5907 57.1349 34.2071C57.1283 33.8234 57.1184 33.2927 57.0919 32.7074C57.0655 32.122 57.0291 31.5929 56.9993 31.2093C56.9712 30.8257 56.953 30.5892 56.9646 30.5876V30.5859Z" fill="#455A64"/>
<path d="M55.8536 30.9266C55.8618 30.9382 55.7676 30.9812 55.7411 31.1151C55.7296 31.1796 55.7411 31.2623 55.8056 31.3169C55.8651 31.3731 55.9693 31.3995 56.0536 31.3615C56.1379 31.3235 56.1842 31.2259 56.1809 31.1449C56.1809 31.0606 56.1264 30.9977 56.0702 30.9647C55.9511 30.8969 55.8569 30.9399 55.8552 30.9266C55.8536 30.9217 55.8718 30.9051 55.9131 30.8919C55.9544 30.8803 56.0239 30.877 56.0983 30.9101C56.171 30.9415 56.2537 31.0242 56.2603 31.1399C56.2686 31.2507 56.2123 31.3813 56.0883 31.4392C55.9627 31.4938 55.8271 31.4508 55.7494 31.3731C55.6651 31.2921 55.6568 31.1763 55.6816 31.1003C55.7048 31.0209 55.7511 30.9713 55.7891 30.9481C55.8271 30.9233 55.8519 30.9217 55.8536 30.9266Z" fill="#455A64"/>
<path d="M53.2083 30.6274C53.2083 30.6274 53.2331 30.682 53.2529 30.7862C53.2728 30.8903 53.286 31.0458 53.2678 31.2359C53.2496 31.4261 53.1918 31.6509 53.0777 31.8758C52.9636 32.1023 52.785 32.3272 52.547 32.5008C52.3056 32.6711 52.0361 32.767 51.7848 32.8034C51.5335 32.8398 51.302 32.8233 51.1169 32.7786C50.93 32.7356 50.7878 32.6744 50.6953 32.6215C50.6027 32.5686 50.558 32.5322 50.5597 32.5273C50.568 32.5108 50.763 32.6496 51.1284 32.7191C51.4839 32.7902 52.0344 32.7571 52.4957 32.4297C52.9537 32.0974 53.1603 31.5865 53.2066 31.2277C53.2579 30.8589 53.1884 30.6291 53.2066 30.6274H53.2083Z" fill="#455A64"/>
<path d="M59.6959 32.074C59.6959 32.0823 59.5702 32.0922 59.3784 32.036C59.1866 31.9814 58.9353 31.8475 58.727 31.6193C58.5204 31.3911 58.4112 31.1266 58.3749 30.9314C58.3385 30.7347 58.36 30.6107 58.3683 30.6123C58.3831 30.6123 58.3848 30.733 58.4344 30.9182C58.4823 31.1018 58.5948 31.3465 58.7898 31.5631C58.9866 31.778 59.218 31.9136 59.3966 31.9797C59.5752 32.0475 59.6959 32.0591 59.6942 32.0757L59.6959 32.074Z" fill="#455A64"/>
<path d="M61.6649 48.3627C61.6649 48.3627 61.569 48.4718 61.3723 48.5958C61.2731 48.6553 61.1491 48.7215 60.9953 48.7595C60.8449 48.7992 60.6614 48.8042 60.4878 48.7463C60.1356 48.6305 59.9157 48.366 59.7818 48.1841C59.6479 47.9973 59.5801 47.8716 59.5884 47.8666C59.5983 47.8584 59.6859 47.9725 59.8298 48.1477C59.9736 48.318 60.1918 48.5594 60.5142 48.6653C60.8383 48.7727 61.1475 48.6471 61.3409 48.5429C61.5393 48.4354 61.655 48.3511 61.6633 48.3627H61.6649Z" fill="#455A64"/>
<path d="M60.4035 49.3265C60.3836 49.3398 60.1505 49.0454 59.881 48.6668C59.6115 48.2882 59.4098 47.9707 59.4297 47.9575C59.4495 47.9442 59.6826 48.2385 59.9521 48.6172C60.2216 48.9958 60.4233 49.3133 60.4035 49.3265Z" fill="#455A64"/>
<path d="M51.9303 35.9351C51.9088 35.9433 51.8493 35.8491 51.7997 35.7218C51.7484 35.5961 51.7269 35.4853 51.7484 35.4771C51.7699 35.4688 51.8294 35.563 51.879 35.6904C51.9303 35.816 51.9518 35.9268 51.9303 35.9351Z" fill="#FAFAFA"/>
<path d="M55.1311 36.393C55.1079 36.393 55.0881 36.3103 55.0881 36.2094C55.0881 36.1086 55.1079 36.0259 55.1311 36.0259C55.1542 36.0259 55.1741 36.1086 55.1741 36.2094C55.1741 36.3103 55.1542 36.393 55.1311 36.393Z" fill="#FAFAFA"/>
<path d="M53.8151 38.1309C53.7919 38.1309 53.7655 38.0317 53.7572 37.9043C53.7489 37.7787 53.7605 37.6745 53.7853 37.6729C53.8084 37.6729 53.8349 37.7721 53.8432 37.8994C53.8514 38.025 53.8399 38.1292 53.8151 38.1309Z" fill="#FAFAFA"/>
<path d="M51.4111 39.4123C51.3913 39.4271 51.3235 39.366 51.2342 39.3015C51.1466 39.237 51.0673 39.1907 51.0755 39.1675C51.0821 39.1461 51.1846 39.1593 51.2855 39.232C51.3863 39.3048 51.431 39.399 51.4111 39.4123Z" fill="#FAFAFA"/>
<path d="M55.6486 41.0275C55.6287 41.0143 55.6535 40.9416 55.7048 40.8671C55.756 40.7911 55.8122 40.7398 55.8321 40.7531C55.8519 40.7663 55.8271 40.839 55.7759 40.9134C55.7246 40.9895 55.6684 41.0408 55.6486 41.0275Z" fill="#FAFAFA"/>
<path d="M53.0281 41.4859C53.0049 41.4859 52.9851 41.3487 52.9851 41.1817C52.9851 41.0147 53.0049 40.8774 53.0281 40.8774C53.0512 40.8774 53.0711 41.0147 53.0711 41.1817C53.0711 41.3487 53.0512 41.4859 53.0281 41.4859Z" fill="#FAFAFA"/>
<path d="M52.1766 43.3392C52.1634 43.359 52.0758 43.3193 51.9832 43.2515C51.8906 43.1838 51.8261 43.1143 51.841 43.0945C51.8542 43.0746 51.9419 43.1143 52.0344 43.1821C52.127 43.2499 52.1915 43.3193 52.1766 43.3392Z" fill="#FAFAFA"/>
<path d="M54.8269 43.9855C54.8368 44.007 54.7822 44.0516 54.7078 44.0864C54.6318 44.1194 54.5623 44.1294 54.5524 44.1079C54.5425 44.0864 54.5971 44.0417 54.6715 44.007C54.7475 43.9739 54.8169 43.964 54.8269 43.9855Z" fill="#FAFAFA"/>
<path d="M53.0281 47.0033C53.0066 47.0132 52.9206 46.8859 52.8379 46.7172C52.7536 46.5486 52.7024 46.403 52.7239 46.3931C52.7454 46.3832 52.8313 46.5105 52.914 46.6792C52.9983 46.8478 53.0496 46.9933 53.0281 47.0033Z" fill="#FAFAFA"/>
<path d="M55.9544 46.729C55.9329 46.7174 55.971 46.6066 56.0387 46.4793C56.1065 46.3537 56.1776 46.2594 56.1991 46.271C56.2206 46.2826 56.1826 46.3933 56.1148 46.5207C56.047 46.6463 55.9759 46.7406 55.9544 46.729Z" fill="#FAFAFA"/>
<path d="M54.6731 49.29C54.6483 49.2866 54.65 49.156 54.6252 49.0006C54.602 48.8452 54.559 48.7212 54.5822 48.7112C54.602 48.6997 54.6847 48.8171 54.7111 48.9874C54.7393 49.1577 54.6963 49.2949 54.6748 49.29H54.6731Z" fill="#FAFAFA"/>
<path d="M53.3009 50.7553C53.2827 50.7718 53.2 50.709 53.1174 50.6164C53.033 50.5238 52.9785 50.4362 52.9967 50.4196C53.0148 50.4031 53.0975 50.4659 53.1802 50.5585C53.2645 50.6511 53.3191 50.7388 53.3009 50.7553Z" fill="#FAFAFA"/>
<path d="M56.6323 51.3092C56.6158 51.2927 56.6769 51.2034 56.7679 51.1108C56.8604 51.0182 56.9481 50.9553 56.9646 50.9719C56.9811 50.9884 56.92 51.0777 56.829 51.1703C56.7364 51.2629 56.6488 51.3257 56.6323 51.3092Z" fill="#FAFAFA"/>
<path d="M54.7161 53.4998C54.693 53.4965 54.693 53.3708 54.7161 53.2187C54.7392 53.0666 54.7773 52.9459 54.8004 52.9508C54.8236 52.9541 54.8236 53.0798 54.8004 53.2319C54.7773 53.384 54.7392 53.5047 54.7161 53.4998Z" fill="#FAFAFA"/>
<path d="M53.4282 54.563C53.4083 54.5746 53.3356 54.4903 53.2661 54.3729C53.1984 54.2555 53.1587 54.1513 53.1785 54.1397C53.1984 54.1282 53.2711 54.2125 53.3406 54.3299C53.4083 54.4473 53.448 54.5514 53.4282 54.563Z" fill="#FAFAFA"/>
<path d="M56.5314 55.9055C56.5447 55.9254 56.4603 56.0097 56.343 56.094C56.2256 56.1784 56.1181 56.2313 56.1049 56.2114C56.0916 56.1916 56.176 56.1073 56.2933 56.0229C56.4107 55.9386 56.5182 55.8857 56.5314 55.9055Z" fill="#FAFAFA"/>
<path d="M53.9457 57.6469C53.9225 57.6386 53.9523 57.5047 53.9655 57.341C53.9804 57.1773 53.9754 57.0401 53.9986 57.0367C54.0217 57.0318 54.0664 57.1723 54.0498 57.3493C54.0349 57.5262 53.9655 57.6568 53.944 57.6485L53.9457 57.6469Z" fill="#FAFAFA"/>
<path d="M54.979 60.145C54.9608 60.1599 54.8914 60.1037 54.8236 60.0193C54.7558 59.935 54.7161 59.8556 54.7359 59.8408C54.7541 59.8259 54.8236 59.8821 54.8914 59.9664C54.9591 60.0508 54.9988 60.1301 54.979 60.145Z" fill="#FAFAFA"/>
<path d="M53.8498 61.8234C53.8299 61.8367 53.739 61.7391 53.6464 61.6035C53.5538 61.468 53.4943 61.3489 53.5141 61.3357C53.534 61.3224 53.6249 61.42 53.7175 61.5556C53.8101 61.6895 53.8696 61.8102 53.8498 61.8234Z" fill="#FAFAFA"/>
<path d="M56.9596 59.7188C56.9381 59.7105 56.9398 59.6493 56.9646 59.5815C56.9894 59.5138 57.0291 59.4658 57.0506 59.4741C57.0721 59.4823 57.0704 59.5435 57.0456 59.6113C57.0208 59.6791 56.9811 59.7271 56.9596 59.7188Z" fill="#FAFAFA"/>
<path d="M55.589 63.7135C55.5676 63.7019 55.6089 63.5845 55.6403 63.4374C55.6734 63.2902 55.6866 63.1662 55.7097 63.1646C55.7329 63.1629 55.7593 63.2952 55.723 63.4556C55.6882 63.616 55.6072 63.7251 55.5874 63.7135H55.589Z" fill="#FAFAFA"/>
<path d="M56.4802 38.1587C56.4587 38.1686 56.4058 38.1025 56.3628 38.0099C56.3198 37.9173 56.3016 37.8346 56.3231 37.8247C56.3446 37.8148 56.3975 37.8809 56.4405 37.9735C56.4835 38.0661 56.5017 38.1488 56.4802 38.1587Z" fill="#FAFAFA"/>
<path d="M54.1854 33.0084C54.1986 33.0299 54.0829 33.1225 53.9589 33.2548C53.8349 33.3854 53.7489 33.5077 53.7274 33.4962C53.7076 33.4862 53.7621 33.3374 53.8961 33.1952C54.0283 33.053 54.1738 32.9886 54.1854 33.0084Z" fill="#FAFAFA"/>
<path d="M56.2289 32.947C56.2057 32.952 56.1661 32.8544 56.1082 32.7403C56.052 32.6262 55.9974 32.5369 56.0156 32.5204C56.0321 32.5039 56.1231 32.5766 56.1859 32.7023C56.2487 32.8279 56.252 32.9437 56.2289 32.947Z" fill="#FAFAFA"/>
<path d="M49.8637 34.627C49.8422 34.6187 49.8637 34.5079 49.9149 34.3823C49.9645 34.2549 50.024 34.1607 50.0455 34.169C50.067 34.1772 50.0455 34.288 49.9943 34.4137C49.9447 34.5393 49.8851 34.6352 49.8637 34.627Z" fill="#FAFAFA"/>
<path d="M50.0703 37.1257C50.0554 37.1439 49.9612 37.091 49.8603 37.0066C49.7595 36.9223 49.6901 36.8396 49.7049 36.8214C49.7198 36.8033 49.8141 36.8562 49.9149 36.9405C50.0158 37.0248 50.0852 37.1075 50.0703 37.1257Z" fill="#FAFAFA"/>
<path d="M54.2466 31.0273C54.2251 31.0356 54.1788 30.9744 54.1457 30.8901C54.1126 30.8058 54.1027 30.7297 54.1242 30.7215C54.1457 30.7132 54.192 30.7744 54.2251 30.8587C54.2581 30.943 54.2681 31.0191 54.2466 31.0273Z" fill="#FAFAFA"/>
<path d="M58.2459 32.2476C58.2228 32.2426 58.2244 32.1434 58.2509 32.0244C58.2773 31.907 58.317 31.816 58.3401 31.821C58.3633 31.826 58.3616 31.9252 58.3352 32.0442C58.3087 32.1616 58.2691 32.2526 58.2459 32.2476Z" fill="#FAFAFA"/>
<path d="M59.1866 34.1358C59.1651 34.1276 59.1949 34.0036 59.2528 33.8597C59.3123 33.7159 59.3768 33.6084 59.3999 33.6167C59.4214 33.6249 59.3917 33.7489 59.3338 33.8928C59.2743 34.0366 59.2098 34.1441 59.1866 34.1358Z" fill="#FAFAFA"/>
<path d="M58.5154 35.6623C58.4939 35.6723 58.4162 35.5582 58.3401 35.4077C58.2641 35.2556 58.2194 35.125 58.2409 35.1134C58.2624 35.1035 58.3401 35.2176 58.4162 35.368C58.4922 35.5201 58.5369 35.6508 58.5154 35.6623Z" fill="#FAFAFA"/>
<path d="M59.9488 37.1865C59.9273 37.1782 59.9422 37.0823 59.9852 36.9732C60.0265 36.864 60.0794 36.7814 60.1009 36.7896C60.1224 36.7979 60.1075 36.8938 60.0645 37.0029C60.0232 37.1121 59.9703 37.1947 59.9488 37.1865Z" fill="#FAFAFA"/>
<path d="M58.6675 38.6797C58.6477 38.6929 58.5964 38.6482 58.5551 38.5804C58.5137 38.5127 58.4956 38.4482 58.5154 38.4349C58.5352 38.4217 58.5865 38.4664 58.6278 38.5341C58.6692 38.6019 58.6873 38.6664 58.6675 38.6797Z" fill="#FAFAFA"/>
<path d="M58.9403 41.7602C58.9221 41.7768 58.8196 41.6941 58.7105 41.5767C58.6014 41.4593 58.527 41.3502 58.5435 41.3336C58.5617 41.3171 58.6642 41.3998 58.7733 41.5172C58.8824 41.6346 58.9568 41.7437 58.9403 41.7602Z" fill="#FAFAFA"/>
<path d="M60.6184 39.9908C60.6002 40.0057 60.5093 39.9214 60.4167 39.804C60.3241 39.6866 60.2646 39.5791 60.2828 39.5642C60.301 39.5493 60.3919 39.6337 60.4845 39.751C60.5771 39.8684 60.6366 39.9759 60.6184 39.9908Z" fill="#FAFAFA"/>
<path d="M61.5393 42.4329C61.5178 42.423 61.5558 42.299 61.6236 42.1551C61.6914 42.0129 61.7641 41.9038 61.7856 41.9154C61.8071 41.9253 61.7691 42.0493 61.7013 42.1932C61.6335 42.3354 61.5608 42.4445 61.5393 42.4329Z" fill="#FAFAFA"/>
<path d="M59.5818 44.442C59.5603 44.4553 59.4842 44.3627 59.3768 44.2651C59.271 44.1676 59.1734 44.0981 59.185 44.075C59.1949 44.0535 59.3189 44.0932 59.4363 44.2006C59.552 44.3081 59.6016 44.4288 59.5818 44.4404V44.442Z" fill="#FAFAFA"/>
<path d="M59.7041 46.5156C59.7041 46.5388 59.6215 46.5586 59.5206 46.5586C59.4197 46.5586 59.3371 46.5388 59.3371 46.5156C59.3371 46.4925 59.4197 46.4727 59.5206 46.4727C59.6215 46.4727 59.7041 46.4925 59.7041 46.5156Z" fill="#FAFAFA"/>
<path d="M61.7162 45.9371C61.6947 45.9238 61.7377 45.8213 61.7691 45.6907C61.8022 45.5617 61.8137 45.4509 61.8385 45.4493C61.8617 45.446 61.8898 45.5683 61.8534 45.7122C61.817 45.8577 61.736 45.9503 61.7162 45.9371Z" fill="#FAFAFA"/>
<path d="M63.715 46.6315C63.6919 46.6398 63.6324 46.524 63.5795 46.3736C63.5266 46.2231 63.5018 46.0941 63.5249 46.0859C63.548 46.0776 63.6076 46.1933 63.6605 46.3438C63.7134 46.4943 63.7382 46.6232 63.715 46.6315Z" fill="#FAFAFA"/>
<path d="M63.3976 49.4755C63.3761 49.4639 63.4274 49.325 63.5117 49.1663C63.596 49.0059 63.6803 48.8852 63.7018 48.8968C63.7233 48.9083 63.672 49.0472 63.5877 49.206C63.5034 49.3664 63.4191 49.4871 63.3976 49.4755Z" fill="#FAFAFA"/>
<path d="M61.5724 51.1471C61.5509 51.1554 61.4831 51.0413 61.4202 50.8909C61.3591 50.7404 61.326 50.6114 61.3475 50.6015C61.369 50.5932 61.4368 50.7073 61.4996 50.8578C61.5608 51.0083 61.5938 51.1372 61.5724 51.1471Z" fill="#FAFAFA"/>
<path d="M59.552 51.792C59.552 51.8152 59.4842 51.835 59.3999 51.835C59.3156 51.835 59.2478 51.8152 59.2478 51.792C59.2478 51.7689 59.3156 51.749 59.3999 51.749C59.4842 51.749 59.552 51.7689 59.552 51.792Z" fill="#FAFAFA"/>
<path d="M60.711 54.4442C60.6878 54.4508 60.6415 54.3532 60.6085 54.2259C60.5754 54.1002 60.5655 53.9928 60.5886 53.9862C60.6118 53.9795 60.6581 54.0771 60.6911 54.2044C60.7242 54.3301 60.7341 54.4376 60.711 54.4442Z" fill="#FAFAFA"/>
<path d="M59.2462 53.5593C59.2263 53.5477 59.2495 53.4684 59.3007 53.384C59.352 53.2997 59.4082 53.2419 59.4297 53.2534C59.4495 53.265 59.4264 53.3444 59.3751 53.4287C59.3239 53.513 59.2676 53.5709 59.2462 53.5593Z" fill="#FAFAFA"/>
<path d="M59.2164 56.4861C59.1932 56.4894 59.1602 56.3753 59.1436 56.2314C59.1271 56.0876 59.1321 55.9702 59.1552 55.9669C59.1784 55.9636 59.2114 56.0776 59.228 56.2215C59.2445 56.3654 59.2395 56.4827 59.2164 56.4861Z" fill="#FAFAFA"/>
</g>
<defs>
<clipPath id="clip0_9826_37007">
<rect width="73" height="70" fill="white"/>
</clipPath>
</defs>
</svg>
