<svg width="172" height="129" viewBox="0 0 172 129" fill="none" xmlns="http://www.w3.org/2000/svg">
<g clip-path="url(#clip0_9826_25614)">
<path d="M141.051 100.689C136.183 99.833 130.918 85.644 139.983 80.8919C149.047 76.1398 152.097 73.6155 153.971 62.5441C155.846 51.4727 162.309 56.7285 160.854 63.2046C159.399 69.6806 169.129 68.8802 171.121 72.0035C174.619 77.36 166.88 78.2164 162.454 81.2613C158.028 84.3062 165.929 86.3996 162.784 91.5603C159.64 96.721 149.349 102.15 141.051 100.689Z" fill="#D4D4D4"/>
<path d="M140.553 100.549L142.277 97.5157L144.039 94.4988C145.214 92.4894 146.445 90.5135 147.693 88.5489C148.941 86.5842 150.222 84.6308 151.571 82.7389C152.237 81.7874 152.925 80.8415 153.613 79.9067C154.301 78.972 155.029 78.054 155.784 77.1641C155.465 77.6566 155.146 78.1436 154.822 78.6249L153.876 80.0914C153.244 81.0653 152.606 82.0393 151.99 83.0244L148.247 88.9015C146.988 90.8606 145.746 92.8196 144.465 94.7674C143.183 96.7153 141.935 98.6799 140.553 100.549Z" fill="white"/>
<path d="M145.578 92.5105C147.494 91.8336 149.448 91.2729 151.431 90.8313C153.41 90.3548 155.417 90.0014 157.441 89.7734C155.524 90.4536 153.568 91.0144 151.582 91.4526C149.605 91.9291 147.599 92.2824 145.578 92.5105Z" fill="white"/>
<path d="M150.396 84.9662C150.204 83.788 150.135 82.5932 150.189 81.4007C150.215 80.2089 150.367 79.0232 150.642 77.8633C150.836 79.0393 150.905 80.2325 150.849 81.4231C150.823 82.6168 150.671 83.8044 150.396 84.9662Z" fill="white"/>
<path d="M142.573 107.827C142.573 107.827 139.843 102.498 144.504 99.078C149.165 95.6581 151.218 91.2418 148.566 87.2286C145.914 83.2154 139.082 85.7117 136.194 83.7807C133.307 81.8496 134.549 77.7189 132.182 73.2523C129.01 67.2688 122.872 68.8472 121.433 69.7708C119.995 70.6943 117.449 73.5209 120.784 78.9503C124.119 84.3796 121.657 86.2883 119.005 90.5478C116.353 94.8073 121.003 96.4697 128.545 97.9082C136.088 99.3467 137.397 108.621 137.397 108.621L142.573 107.827Z" fill="#E6E6E6"/>
<path d="M140.654 113.166C140.598 111.405 140.443 109.648 140.19 107.905C139.932 106.164 139.63 104.429 139.227 102.727C138.824 101.026 138.365 99.324 137.845 97.6505L137.017 95.1541L136.06 92.7137C135.769 91.8909 135.377 91.1017 135.025 90.3013C134.672 89.5008 134.325 88.6948 133.906 87.928L132.692 85.594C132.501 85.2022 132.255 84.8383 132.037 84.4745L131.365 83.3551C129.537 80.3457 127.515 77.4588 125.311 74.7129C125.91 75.3566 126.509 76.0059 127.096 76.6663C127.684 77.3268 128.31 77.9593 128.836 78.6758C129.899 80.0919 131.019 81.4744 131.947 82.9912C133.909 85.956 135.568 89.1099 136.899 92.4058C138.247 95.6994 139.254 99.1222 139.904 102.621C140.24 104.362 140.464 106.125 140.632 107.888C140.763 109.645 140.771 111.408 140.654 113.166Z" fill="white"/>
<path d="M137.459 95.8251C136.488 94.9283 135.407 94.159 134.242 93.5359C133.097 92.9141 131.894 92.4078 130.649 92.0246C130.017 91.8567 129.396 91.6608 128.752 91.5544C128.428 91.4929 128.115 91.4033 127.79 91.3641C127.465 91.3249 127.141 91.2746 126.811 91.2242C126.486 91.1718 126.16 91.1363 125.832 91.1178L124.841 91.0283C124.181 90.9835 123.515 90.9835 122.838 90.9163C123.493 90.782 124.164 90.6701 124.836 90.5917C125.511 90.532 126.189 90.5114 126.867 90.5301C128.235 90.5711 129.593 90.7874 130.907 91.1738C132.219 91.5807 133.465 92.1765 134.605 92.9425C135.753 93.687 136.726 94.6702 137.459 95.8251Z" fill="white"/>
<path d="M138.617 99.1437C138.202 97.9804 138.034 96.7431 138.125 95.5111C138.202 94.2529 138.558 93.0276 139.166 91.9232L139.401 91.5146C139.485 91.3803 139.591 91.2572 139.68 91.1284C139.863 90.8719 140.061 90.627 140.274 90.3952L140.962 89.7459C141.203 89.5399 141.459 89.3527 141.728 89.1862C142.249 88.8451 142.807 88.5635 143.39 88.3466C143.966 88.1466 144.555 87.9857 145.153 87.8652C144.632 88.1899 144.084 88.425 143.58 88.7384C143.081 89.0439 142.605 89.3843 142.154 89.7571C141.256 90.4696 140.51 91.3545 139.96 92.3598C139.405 93.3665 139.027 94.4607 138.841 95.595C138.634 96.7658 138.559 97.9562 138.617 99.1437Z" fill="white"/>
<path d="M158.912 105.028C167.552 107.216 167.764 99.6825 162.465 95.479C159.158 92.8538 165.912 91.4545 168.531 88.9022C173.007 84.5139 165.817 79.0006 162.079 82.8404C158.341 86.6801 156.019 87.8779 153.294 88.2025C150.569 88.5272 142.875 88.6167 143.541 93.5143C143.955 96.5592 141.303 99.1676 141.678 102.224C149.668 99.5426 154.408 103.908 158.912 105.028Z" fill="#E6E6E6"/>
<path d="M141.678 102.228C144.842 99.5209 148.193 97.0389 151.705 94.8008C153.462 93.6814 155.247 92.6123 157.082 91.6216C158.912 90.624 160.799 89.7362 162.734 88.9629C160.943 90.0208 159.175 91.1066 157.407 92.1813C155.639 93.256 153.899 94.381 152.158 95.5061L146.932 98.8644C145.198 100.023 143.441 101.137 141.678 102.228Z" fill="white"/>
<path d="M150.558 96.0709C150.483 95.5013 150.466 94.9255 150.508 94.3525C150.534 93.7897 150.593 93.229 150.687 92.6733C150.775 92.1167 150.895 91.5655 151.045 91.0222C151.193 90.4677 151.391 89.9281 151.638 89.4102C151.712 89.9798 151.731 90.5553 151.694 91.1285C151.663 91.6912 151.602 92.2518 151.509 92.8077C151.421 93.3649 151.3 93.9163 151.146 94.4589C151.001 95.0135 150.804 95.5532 150.558 96.0709Z" fill="white"/>
<path d="M148.191 97.6391C149.207 97.4793 150.23 97.3747 151.258 97.3257C152.281 97.2585 153.305 97.2473 154.324 97.2417C155.342 97.2361 156.372 97.2417 157.396 97.3425C158.423 97.3966 159.447 97.5087 160.462 97.6783C159.445 97.8381 158.419 97.9427 157.39 97.9917C156.372 98.0589 155.348 98.0701 154.324 98.0757C153.3 98.0813 152.281 98.0421 151.258 97.975C150.23 97.9187 149.206 97.8066 148.191 97.6391Z" fill="white"/>
<path d="M150.877 116.316H138.231L135.288 103.672H153.82L150.877 116.316Z" fill="#A6A6A6"/>
<path d="M155.801 100.453H133.307V105.541H155.801V100.453Z" fill="#C2C2C2"/>
<g opacity="0.74">
<path d="M27.0039 102.027C27.8991 99.788 30.0646 99.1163 31.1277 97.1013C33.019 93.4967 29.8296 92.5675 29.4491 90.1719C28.9455 86.9815 31.1837 87.2725 32.3364 85.3247C33.6961 83.041 31.3963 80.3431 32.8064 78.1714C36.3148 72.7812 42.0222 78.7031 45.7376 79.9513C48.0149 80.7125 51.4226 81.0316 53.2188 79.5819C55.5856 77.6676 57.9469 73.2346 55.457 70.6767C51.9206 67.0664 53.2188 65.2193 57.0349 64.307C58.7135 63.904 59.5025 62.6278 57.628 61.1445C60.4761 65.2641 50.9638 61.5083 49.2739 64.307C48.0989 66.2492 49.5481 67.3967 49.9566 68.8911C51.003 72.7141 48.3786 75.9996 42.9007 72.1767C39.756 69.9714 40.019 66.0533 36.6785 65.057C33.5618 64.1223 29.9303 66.9209 28.7832 70.6543C27.6361 74.3876 26.2988 76.2515 22.2981 75.8485C17.5475 75.3504 13.9048 78.2945 16.0087 82.5652C17.8944 86.3378 23.1094 84.194 25.7561 86.3546C28.6993 88.7558 27.7816 92.0638 23.9823 95.1647C22.8016 96.1274 20.9831 97.5659 21.4531 99.2059C21.7553 100.269 23.6522 101.954 24.8776 102.005L27.0039 102.027Z" fill="white"/>
</g>
<path d="M34.0094 103.511H32.9911V102.14C32.9918 102 32.965 101.862 32.9122 101.733C32.8594 101.604 32.7816 101.487 32.6833 101.388C32.585 101.289 32.4682 101.211 32.3395 101.157C32.2108 101.104 32.0729 101.076 31.9335 101.076H19.9032C19.6222 101.078 19.3532 101.19 19.155 101.39C18.9569 101.589 18.8456 101.859 18.8456 102.14V110.536C18.8471 112.066 19.4554 113.533 20.5369 114.614C21.6185 115.696 23.085 116.305 24.6146 116.306H27.2277C28.4312 116.303 29.6036 115.924 30.5809 115.222C31.5582 114.519 32.2913 113.528 32.6777 112.388H34.0094C34.4977 112.388 34.9659 112.194 35.3112 111.849C35.6564 111.504 35.8504 111.035 35.8504 110.547V105.319C35.8416 104.836 35.6437 104.377 35.2994 104.038C34.9552 103.7 34.4919 103.511 34.0094 103.511ZM34.6753 110.58C34.6738 110.757 34.6032 110.925 34.4787 111.05C34.3541 111.174 34.1856 111.245 34.0094 111.246H32.9463C32.9753 111.016 32.9903 110.784 32.9911 110.552V104.692H34.0094C34.1851 104.692 34.3536 104.761 34.4783 104.885C34.603 105.009 34.6738 105.177 34.6753 105.352V110.58Z" fill="#E02D76"/>
<path d="M31.4467 104.065C31.4439 103.038 31.2365 102.022 30.8368 101.076H19.9032C19.6222 101.078 19.3532 101.19 19.155 101.39C18.9569 101.589 18.8456 101.859 18.8456 102.14V110.536C18.847 111.515 19.0973 112.478 19.573 113.334C19.7409 113.334 19.9032 113.334 20.071 113.334C26.3548 113.379 31.4467 109.209 31.4467 104.065Z" fill="#FF928E"/>
<path d="M160.233 129.001H7.89524C7.11316 129.001 6.36312 128.69 5.81011 128.137C5.25709 127.584 4.94643 126.833 4.94643 126.051C4.9457 125.663 5.02141 125.279 5.16927 124.921C5.31714 124.562 5.53423 124.236 5.80813 123.962C6.08202 123.687 6.40735 123.469 6.76548 123.321C7.12361 123.172 7.50752 123.096 7.89524 123.096H160.233C160.62 123.096 161.004 123.172 161.362 123.321C161.721 123.469 162.046 123.687 162.32 123.962C162.594 124.236 162.811 124.562 162.959 124.921C163.106 125.279 163.182 125.663 163.181 126.051C163.181 126.833 162.871 127.584 162.318 128.137C161.765 128.69 161.015 129.001 160.233 129.001Z" fill="#007B6C"/>
<path d="M163.965 124.651H4.16304C3.61634 124.651 3.075 124.543 2.56991 124.334C2.06483 124.125 1.6059 123.818 1.21933 123.431C0.832754 123.045 0.526104 122.586 0.316891 122.08C0.107678 121.575 -7.62939e-06 121.033 -7.62939e-06 120.487C-7.62939e-06 119.94 0.107678 119.398 0.316891 118.893C0.526104 118.388 0.832754 117.929 1.21933 117.542C1.6059 117.155 2.06483 116.849 2.56991 116.639C3.075 116.43 3.61634 116.322 4.16304 116.322H163.965C165.069 116.322 166.128 116.761 166.909 117.542C167.689 118.323 168.128 119.382 168.128 120.487C168.128 121.591 167.689 122.65 166.909 123.431C166.128 124.212 165.069 124.651 163.965 124.651Z" fill="#00A08D"/>
<path d="M138.102 47.8622C144.073 47.8622 148.913 43.0206 148.913 37.0483C148.913 31.0759 144.073 26.2344 138.102 26.2344C132.132 26.2344 127.292 31.0759 127.292 37.0483C127.292 43.0206 132.132 47.8622 138.102 47.8622Z" fill="#00A08D"/>
<path d="M138.102 45.4781C142.756 45.4781 146.529 41.7041 146.529 37.0486C146.529 32.3931 142.756 28.6191 138.102 28.6191C133.448 28.6191 129.676 32.3931 129.676 37.0486C129.676 41.7041 133.448 45.4781 138.102 45.4781Z" fill="white"/>
<path d="M138.102 37.0477V31.9766" stroke="#00A08D" stroke-width="0.98" stroke-linecap="round" stroke-linejoin="round"/>
<path d="M138.102 37.0488L141.202 40.1441" stroke="#00A08D" stroke-width="0.98" stroke-linecap="round" stroke-linejoin="round"/>
<path d="M138.102 44.5253V43.5234" stroke="#00A08D" stroke-width="0.68" stroke-linecap="round" stroke-linejoin="round"/>
<path d="M141.84 43.5238L141.342 42.6562" stroke="#00A08D" stroke-width="0.68" stroke-linecap="round" stroke-linejoin="round"/>
<path d="M144.576 40.787L143.709 40.2832" stroke="#00A08D" stroke-width="0.68" stroke-linecap="round" stroke-linejoin="round"/>
<path d="M145.584 37.0488H144.576" stroke="#00A08D" stroke-width="0.68" stroke-linecap="round" stroke-linejoin="round"/>
<path d="M144.576 33.3086L143.715 33.8068" stroke="#00A08D" stroke-width="0.68" stroke-linecap="round" stroke-linejoin="round"/>
<path d="M141.84 30.5723L141.342 31.4342" stroke="#00A08D" stroke-width="0.68" stroke-linecap="round" stroke-linejoin="round"/>
<path d="M138.102 30.572V29.5645" stroke="#00A08D" stroke-width="0.68" stroke-linecap="round" stroke-linejoin="round"/>
<path d="M134.868 31.4398L134.365 30.5723" stroke="#00A08D" stroke-width="0.68" stroke-linecap="round" stroke-linejoin="round"/>
<path d="M132.496 33.8068L131.628 33.3086" stroke="#00A08D" stroke-width="0.68" stroke-linecap="round" stroke-linejoin="round"/>
<path d="M131.628 37.0488H130.632" stroke="#00A08D" stroke-width="0.68" stroke-linecap="round" stroke-linejoin="round"/>
<path d="M132.496 40.2832L131.628 40.787" stroke="#00A08D" stroke-width="0.68" stroke-linecap="round" stroke-linejoin="round"/>
<path d="M134.868 42.6562L134.365 43.5238" stroke="#00A08D" stroke-width="0.68" stroke-linecap="round" stroke-linejoin="round"/>
<path d="M138.102 37.5345C138.371 37.5345 138.589 37.3165 138.589 37.0475C138.589 36.7786 138.371 36.5605 138.102 36.5605C137.834 36.5605 137.616 36.7786 137.616 37.0475C137.616 37.3165 137.834 37.5345 138.102 37.5345Z" fill="#00A08D"/>
<path d="M59.7879 25.4174C58.6935 24.3226 57.392 23.4569 55.9594 22.8709C54.5268 22.2849 52.9918 21.9903 51.4441 22.0044C49.8964 22.0185 48.367 22.3409 46.9453 22.9529C45.5236 23.5648 44.238 24.454 43.1637 25.5685C41.1528 27.6743 39.9985 30.4541 39.9261 33.3654C39.8537 36.2766 40.8683 39.1104 42.772 41.3136C44.5701 43.3753 47.036 44.7384 49.7378 45.1641C52.4397 45.5898 55.2051 45.051 57.5497 43.6421C57.7555 43.5188 57.9848 43.4402 58.2229 43.4112C58.461 43.3823 58.7025 43.4038 58.9318 43.4742L61.875 44.3529C61.9263 44.3683 61.9808 44.3695 62.0328 44.3565C62.0847 44.3434 62.1321 44.3164 62.17 44.2786C62.2079 44.2407 62.2348 44.1932 62.2479 44.1413C62.2609 44.0893 62.2597 44.0348 62.2443 43.9835L61.3658 41.0394C61.2963 40.8089 61.2754 40.5666 61.3043 40.3277C61.3332 40.0888 61.4113 39.8584 61.5337 39.6512C62.8716 37.4239 63.4265 34.8129 63.1102 32.2337C62.7938 29.6545 61.6244 27.2552 59.7879 25.4174Z" fill="#DBDBDB"/>
<path d="M44.9598 28.5566H58.1596" stroke="white" stroke-width="1.67" stroke-linecap="round" stroke-linejoin="round"/>
<path d="M54.9926 31.9551H58.1596" stroke="white" stroke-width="1.67" stroke-linecap="round" stroke-linejoin="round"/>
<path d="M44.9598 31.9551H51.8479" stroke="white" stroke-width="1.67" stroke-linecap="round" stroke-linejoin="round"/>
<path d="M50.9918 35.3516H58.1596" stroke="white" stroke-width="1.67" stroke-linecap="round" stroke-linejoin="round"/>
<path d="M44.9598 35.3516H48.4011" stroke="white" stroke-width="1.67" stroke-linecap="round" stroke-linejoin="round"/>
<path d="M54.9926 38.75H58.1596" stroke="white" stroke-width="1.67" stroke-linecap="round" stroke-linejoin="round"/>
<path d="M44.9598 38.75H51.6912" stroke="white" stroke-width="1.67" stroke-linecap="round" stroke-linejoin="round"/>
<path d="M84.1507 30.9417C84.1507 30.9417 82.97 25.7419 87.978 21.2752C92.986 16.8086 100.713 17.2172 104.955 19.5457C110.45 22.5626 115.844 30.5499 110.914 41.9627C105.984 53.3755 128.579 48.6794 120.986 64.1223C113.393 79.5651 100.282 68.9079 95.5935 75.3168C90.9044 81.7256 74.5824 64.9283 88.5096 53.1908C102.437 41.4534 85.197 41.4925 84.1507 30.9417Z" fill="#5E5E5E"/>
<path d="M82.8749 65.0065C77.1563 67.4413 72.4225 81.9382 71.9805 112.858H84.2906C84.2906 112.858 91.7885 61.206 82.8749 65.0065Z" fill="#FF928E"/>
<path d="M98.1618 60.3941C104.921 59.7281 115.933 60.8531 119.895 65.2246C120.768 66.1873 120.773 67.9952 120.303 70.4972C118.625 79.3297 111.093 96.8043 115.111 116.322H79.9317C79.9317 116.322 83.289 101.075 81.4033 96.267C79.2714 90.7705 77.4249 85.8001 79.5232 81.2047C84.3017 70.7435 80.0212 66.4168 83.054 64.9055C87.7765 62.5022 92.895 60.9738 98.1618 60.3941Z" fill="#FF928E"/>
<path d="M112.682 86.2818C111.211 94.8176 101.323 95.8755 96.3656 94.2075C96.3656 94.2075 103.578 98.5734 108.782 96.1218C108.782 96.1218 110.103 100.292 108.122 113.412H114.59V113.345C113.688 106.908 113.752 100.373 114.78 93.9557C114.913 92.6086 115.143 91.273 115.469 89.9592V89.9256C116.291 85.7389 117.315 81.916 118.233 78.58C118.622 76.3626 118.809 74.1145 118.792 71.8633C115.7 76.1498 113.611 81.0778 112.682 86.2818Z" fill="#E02D76"/>
<path d="M113.051 104.613C113.051 104.613 106.896 112.164 103.931 110.115C100.014 107.412 96.7573 107.457 94.161 108.996C92.4939 110.043 91.1906 111.58 90.4288 113.395H111.524L117.679 108.078L113.051 104.613Z" fill="#FFD3C6"/>
<path d="M120.124 65.5391C120.124 65.5391 125.546 79.7058 130.196 91.2865C133.951 100.634 111.317 113.379 111.317 113.379L107.579 108.386L120.611 93.9284L112.643 77.1366C112.643 77.1366 108.021 67.9627 115.038 64.7107C118.938 62.8636 120.124 65.5391 120.124 65.5391Z" fill="#FF928E"/>
<path d="M102.789 46.5977C102.789 46.5977 101.939 57.3388 104.513 60.143C107.825 63.7533 102.012 71.5334 93.2769 77.4218C93.2769 77.4218 88.3921 71.998 92.2194 63.1655C96.0467 54.3331 92.3369 49.3403 92.3369 49.3403L102.789 46.5977Z" fill="#FFD3C6"/>
<path d="M104.513 41.9618C104.513 49.3222 99.3313 55.2777 94.95 55.2777C90.5687 55.2777 85.1019 50.3857 84.3633 41.3294C83.7646 33.997 87.7206 28.6348 93.691 28.6348C99.6614 28.6348 104.513 34.6014 104.513 41.9618Z" fill="#FFD9CD"/>
<path d="M86.2658 26.9109C85.6503 27.2692 84.3185 28.1311 82.763 29.1498C81.0844 30.2693 79.2658 32.2283 78.6503 34.3609C77.5816 38.0271 80.2786 42.6728 85.6447 41.0328C91.0108 39.3928 93.5735 30.7842 97.9268 35.7602C103.332 41.9452 105.296 38.4973 105.296 38.4973C105.296 38.4973 104.211 30.7954 98.7326 27.3307C95.7949 25.4948 91.3521 23.9668 86.2658 26.9109Z" fill="#5E5E5E"/>
<path d="M108.139 39.3103C108.139 41.7115 106.723 43.6593 104.972 43.6593C103.22 43.6593 101.804 41.7115 101.804 39.3103C101.804 36.9091 103.22 34.9668 104.972 34.9668C106.723 34.9668 108.139 36.9091 108.139 39.3103Z" fill="#FF928E"/>
<path d="M94.9836 24.8245C90.1099 23.8842 85.4097 25.7257 82.763 29.168C84.3137 28.13 86.0544 27.4092 87.8848 27.0471C89.7151 26.6849 91.5991 26.6886 93.428 27.0578C99.9076 28.306 104.49 33.5618 104.619 39.4054C104.743 39.0224 104.842 38.6316 104.916 38.2355C106.119 32.1121 101.659 26.1063 94.9836 24.8245Z" fill="#FF928E"/>
<path d="M104.266 40.7305C104.266 40.7305 105.151 50.5537 96.1194 51.4884" stroke="#FF928E" stroke-width="1.05" stroke-miterlimit="10"/>
<path d="M95.5319 52.4688H94.1107C93.8896 52.4688 93.6775 52.3809 93.5211 52.2245C93.3648 52.0681 93.2769 51.856 93.2769 51.6348C93.2769 51.4136 93.3648 51.2015 93.5211 51.045C93.6775 50.8886 93.8896 50.8008 94.1107 50.8008H95.5319C95.7531 50.8008 95.9651 50.8886 96.1215 51.045C96.2778 51.2015 96.3657 51.4136 96.3657 51.6348C96.3657 51.856 96.2778 52.0681 96.1215 52.2245C95.9651 52.3809 95.7531 52.4688 95.5319 52.4688Z" fill="#FF928E"/>
<path d="M116.621 113.373H65.389C64.672 113.373 64.0908 113.954 64.0908 114.672V115.019C64.0908 115.736 64.672 116.317 65.389 116.317H116.621C117.338 116.317 117.92 115.736 117.92 115.019V114.672C117.92 113.954 117.338 113.373 116.621 113.373Z" fill="#007B6C"/>
<path d="M92.9356 116.322H45.6145C44.9871 116.322 44.375 116.128 43.8614 115.768C43.3479 115.407 42.9577 114.897 42.744 114.307L31.7096 83.9814C31.5416 83.5194 31.4873 83.0237 31.5513 82.5362C31.6153 82.0487 31.7957 81.5838 32.0773 81.1808C32.3588 80.7778 32.7333 80.4486 33.1689 80.2209C33.6046 79.9933 34.0886 79.874 34.5801 79.873H81.9013C82.5294 79.8731 83.1424 80.0665 83.6569 80.427C84.1714 80.7874 84.5626 81.2976 84.7774 81.8881L95.8285 112.214C95.9971 112.678 96.0512 113.176 95.9861 113.665C95.921 114.154 95.7386 114.62 95.4545 115.024C95.1703 115.427 94.7929 115.756 94.3543 115.982C93.9157 116.208 93.429 116.325 92.9356 116.322Z" fill="#007567"/>
<path d="M33.4891 80.0752C33.6681 97.9864 57.6672 112.495 87.245 112.495C90.1435 112.495 92.9916 112.355 95.767 112.086L84.7774 81.8607C84.5626 81.2702 84.1715 80.7601 83.6569 80.3996C83.1424 80.0391 82.5295 79.8458 81.9013 79.8457H34.5802C34.2055 79.8545 33.8356 79.9323 33.4891 80.0752Z" fill="#00A08D"/>
<path d="M66.6368 97.4924C66.6368 97.9633 66.544 98.4296 66.3637 98.8646C66.1833 99.2995 65.919 99.6947 65.5859 100.027C65.2528 100.36 64.8574 100.624 64.4222 100.804C63.9871 100.983 63.5208 101.075 63.0501 101.075C62.1003 101.075 61.1894 100.697 60.5178 100.025C59.8463 99.3536 59.469 98.4425 59.469 97.4924C59.4704 96.5428 59.8482 95.6325 60.5195 94.961C61.1908 94.2895 62.1008 93.9116 63.0501 93.9102C64.0004 93.9102 64.9118 94.2874 65.5843 94.959C66.2568 95.6307 66.6353 96.5418 66.6368 97.4924Z" fill="#006F61"/>
<path d="M117.964 2.47947C118.757 1.6852 119.701 1.05702 120.739 0.631683C121.778 0.206347 122.891 -0.00762001 124.013 0.00228173C125.135 0.0121835 126.244 0.245754 127.275 0.68935C128.306 1.13295 129.238 1.77767 130.017 2.58582C131.478 4.11139 132.317 6.12705 132.371 8.23871C132.424 10.3504 131.689 12.4062 130.308 14.0042C129.003 15.4997 127.213 16.4876 125.253 16.7947C123.292 17.1018 121.286 16.7083 119.587 15.6834C119.437 15.5955 119.271 15.5397 119.099 15.5194C118.926 15.4992 118.751 15.515 118.585 15.5659L116.448 16.1983C116.411 16.2101 116.372 16.2116 116.334 16.2027C116.296 16.1938 116.262 16.1748 116.234 16.1477C116.207 16.1207 116.187 16.0866 116.177 16.0491C116.168 16.0117 116.168 15.9723 116.179 15.9353L116.817 13.7971C116.868 13.6299 116.884 13.4539 116.863 13.2803C116.841 13.1067 116.784 12.9396 116.694 12.7896C115.726 11.1754 115.326 9.28402 115.556 7.41593C115.786 5.54785 116.634 3.81031 117.964 2.47947Z" fill="#DBDBDB"/>
<path d="M119.246 9.8174C120 9.8174 120.611 9.20594 120.611 8.45167C120.611 7.6974 120 7.08594 119.246 7.08594C118.492 7.08594 117.88 7.6974 117.88 8.45167C117.88 9.20594 118.492 9.8174 119.246 9.8174Z" fill="white"/>
<path d="M123.929 9.8174C124.683 9.8174 125.294 9.20594 125.294 8.45167C125.294 7.6974 124.683 7.08594 123.929 7.08594C123.175 7.08594 122.564 7.6974 122.564 8.45167C122.564 9.20594 123.175 9.8174 123.929 9.8174Z" fill="white"/>
<path d="M128.618 9.8174C129.372 9.8174 129.983 9.20594 129.983 8.45167C129.983 7.6974 129.372 7.08594 128.618 7.08594C127.864 7.08594 127.253 7.6974 127.253 8.45167C127.253 9.20594 127.864 9.8174 128.618 9.8174Z" fill="white"/>
<g opacity="0.07">
<path d="M153.72 2.22852L154.928 3.43193" stroke="#00A08D" stroke-linecap="round" stroke-linejoin="round"/>
<path d="M154.928 2.22852L153.72 3.43193" stroke="#00A08D" stroke-linecap="round" stroke-linejoin="round"/>
<path d="M3.26218 66.5742L5.67384 68.9866" stroke="#00A08D" stroke-width="2" stroke-linecap="round" stroke-linejoin="round"/>
<path d="M5.67384 66.5742L3.26218 68.9866" stroke="#00A08D" stroke-width="2" stroke-linecap="round" stroke-linejoin="round"/>
<path d="M69.8094 52.4688L71.4937 54.1535" stroke="#00A08D" stroke-width="1.4" stroke-linecap="round" stroke-linejoin="round"/>
<path d="M71.4937 52.4688L69.8094 54.1535" stroke="#00A08D" stroke-width="1.4" stroke-linecap="round" stroke-linejoin="round"/>
<path d="M165.067 111.576L166.751 113.261" stroke="#00A08D" stroke-width="1.4" stroke-linecap="round" stroke-linejoin="round"/>
<path d="M166.751 111.576L165.067 113.261" stroke="#00A08D" stroke-width="1.4" stroke-linecap="round" stroke-linejoin="round"/>
<path d="M99.141 8.45346C99.141 8.58945 99.1142 8.72411 99.0622 8.84974C99.0102 8.97537 98.9339 9.08952 98.8378 9.18568C98.7417 9.28183 98.6276 9.35811 98.502 9.41015C98.3764 9.46219 98.2418 9.48896 98.1058 9.48896C97.8313 9.48896 97.568 9.37987 97.3739 9.18568C97.1797 8.99149 97.0707 8.72809 97.0707 8.45346C97.0707 8.17884 97.1797 7.91546 97.3739 7.72127C97.568 7.52707 97.8313 7.41797 98.1058 7.41797C98.2418 7.41797 98.3764 7.44476 98.502 7.4968C98.6276 7.54884 98.7417 7.62511 98.8378 7.72127C98.9339 7.81742 99.0102 7.93158 99.0622 8.05721C99.1142 8.18284 99.141 8.31748 99.141 8.45346V8.45346Z" stroke="#00A08D" stroke-width="1.4" stroke-linecap="round" stroke-linejoin="round"/>
<path d="M41.5186 50.8011C41.5186 51.0758 41.4095 51.3391 41.2154 51.5333C41.0213 51.7275 40.758 51.8366 40.4835 51.8366C40.3478 51.8366 40.2134 51.8098 40.0881 51.7577C39.9629 51.7056 39.8491 51.6292 39.7535 51.533C39.6578 51.4368 39.5821 51.3226 39.5306 51.197C39.4792 51.0714 39.4531 50.9368 39.4539 50.8011C39.4531 50.6654 39.4792 50.5309 39.5306 50.4053C39.5821 50.2797 39.6578 50.1655 39.7535 50.0693C39.8491 49.973 39.9629 49.8967 40.0881 49.8446C40.2134 49.7925 40.3478 49.7656 40.4835 49.7656C40.758 49.7656 41.0213 49.8747 41.2154 50.0689C41.4095 50.2631 41.5186 50.5265 41.5186 50.8011V50.8011Z" stroke="#00A08D" stroke-width="1.4" stroke-linecap="round" stroke-linejoin="round"/>
<path d="M166.947 37.7155C166.947 37.8514 166.92 37.9861 166.868 38.1117C166.816 38.2374 166.74 38.3515 166.644 38.4477C166.548 38.5438 166.434 38.6201 166.308 38.6721C166.183 38.7242 166.048 38.751 165.912 38.751C165.776 38.751 165.642 38.7242 165.516 38.6721C165.39 38.6201 165.276 38.5438 165.18 38.4477C165.084 38.3515 165.008 38.2374 164.956 38.1117C164.904 37.9861 164.877 37.8514 164.877 37.7155C164.877 37.5797 164.904 37.4454 164.956 37.32C165.008 37.1947 165.084 37.0809 165.18 36.9852C165.277 36.8895 165.391 36.8138 165.516 36.7623C165.642 36.7109 165.776 36.6848 165.912 36.6856C166.048 36.6848 166.182 36.7109 166.308 36.7623C166.433 36.8138 166.548 36.8895 166.644 36.9852C166.74 37.0809 166.816 37.1947 166.868 37.32C166.92 37.4454 166.947 37.5797 166.947 37.7155Z" stroke="#00A08D" stroke-width="1.4" stroke-linecap="round" stroke-linejoin="round"/>
<path d="M8.69542 95.8266C8.69542 96.4768 8.4372 97.1004 7.97758 97.5601C7.51796 98.0199 6.89459 98.2782 6.24459 98.2782C5.59408 98.2782 4.9701 98.0201 4.50959 97.5605C4.04909 97.1009 3.78964 96.4773 3.78816 95.8266C3.78964 95.1759 4.04909 94.5523 4.50959 94.0927C4.9701 93.6331 5.59408 93.375 6.24459 93.375C6.89459 93.375 7.51796 93.6333 7.97758 94.0931C8.4372 94.5528 8.69542 95.1764 8.69542 95.8266Z" stroke="#00A08D" stroke-width="1.4" stroke-linecap="round" stroke-linejoin="round"/>
<path d="M143.653 64.8676C143.653 65.5183 143.395 66.1425 142.936 66.6031C142.476 67.0638 141.853 67.3233 141.202 67.3248C140.552 67.3233 139.928 67.0638 139.469 66.6031C139.01 66.1425 138.752 65.5183 138.752 64.8676C138.752 64.2174 139.01 63.5938 139.469 63.1341C139.929 62.6743 140.552 62.416 141.202 62.416C141.852 62.416 142.476 62.6743 142.935 63.1341C143.395 63.5938 143.653 64.2174 143.653 64.8676Z" stroke="#00A08D" stroke-width="1.4" stroke-linecap="round" stroke-linejoin="round"/>
</g>
</g>
<defs>
<clipPath id="clip0_9826_25614">
<rect width="172" height="129" fill="white"/>
</clipPath>
</defs>
</svg>
