<svg width="94" height="90" viewBox="0 0 94 90" fill="none" xmlns="http://www.w3.org/2000/svg">
<path d="M76.2901 37.6383H60.2458C60.3831 36.7531 60.452 35.8587 60.4519 34.9629V17.8117C60.4467 13.1988 58.6119 8.7763 55.3501 5.51448C52.0883 2.25266 47.6658 0.417876 43.0529 0.412659H17.7102C13.0973 0.417882 8.67479 2.25267 5.41297 5.51449C2.15115 8.77631 0.316374 13.1988 0.311157 17.8117V34.9628C0.31638 39.5757 2.15116 43.9982 5.41298 47.26C8.6748 50.5218 13.0973 52.3566 17.7102 52.3619H33.7584C33.6192 53.2468 33.549 54.1413 33.5483 55.0372V72.1884C33.5536 76.8013 35.3883 81.2237 38.6501 84.4855C41.9119 87.7474 46.3344 89.5821 50.9473 89.5873H76.2902C80.9031 89.5821 85.3256 87.7474 88.5874 84.4855C91.8492 81.2237 93.684 76.8013 93.6892 72.1884V55.0372C93.6839 50.4242 91.8491 46.0018 88.5873 42.74C85.3255 39.4782 80.903 37.6434 76.2901 37.6383ZM4.06104 34.9628V17.8117C4.06513 14.193 5.50448 10.7237 8.06331 8.16486C10.6221 5.60605 14.0915 4.16673 17.7102 4.16266H43.0529C46.6716 4.16673 50.1409 5.60606 52.6997 8.16487C55.2585 10.7237 56.6978 14.193 56.7019 17.8117V34.9628C56.6978 38.5815 55.2585 42.0509 52.6997 44.6097C50.1409 47.1685 46.6716 48.6078 43.0529 48.6119H17.7102C14.0915 48.6078 10.6221 47.1685 8.06331 44.6097C5.50448 42.0509 4.06513 38.5815 4.06104 34.9628ZM77.6963 59.2521H73.126C71.8789 63.7049 69.5594 67.7842 66.3707 71.1329C67.9691 72.4107 69.6976 73.5168 71.5274 74.4329L74.0783 75.7137C74.2984 75.8242 74.4945 75.977 74.6555 76.1633C74.8165 76.3496 74.9393 76.5658 75.0167 76.7995C75.0942 77.0332 75.1249 77.2799 75.107 77.5255C75.0891 77.7711 75.023 78.0107 74.9126 78.2308C74.8021 78.4508 74.6493 78.647 74.463 78.808C74.2767 78.969 74.0605 79.0918 73.8268 79.1692C73.5931 79.2467 73.3464 79.2774 73.1008 79.2595C72.8552 79.2416 72.6155 79.1755 72.3955 79.065L69.8446 77.7842C67.6196 76.6724 65.528 75.3115 63.6102 73.7277C61.6985 75.3117 59.6124 76.6726 57.3925 77.7841L54.8418 79.065C54.3974 79.2881 53.8825 79.3256 53.4105 79.1691C52.9385 79.0127 52.5479 78.6751 52.3247 78.2307C52.1016 77.7863 52.0641 77.2714 52.2206 76.7994C52.377 76.3274 52.7146 75.9368 53.159 75.7136L55.7097 74.4328C57.5352 73.5182 59.2591 72.4133 60.8525 71.1366C58.9643 69.1344 57.3701 66.874 56.1177 64.4233C56.006 64.2039 55.9385 63.9646 55.9191 63.7191C55.8998 63.4737 55.929 63.2268 56.0051 62.9926C56.0811 62.7584 56.2026 62.5415 56.3625 62.3543C56.5224 62.167 56.7176 62.0131 56.937 61.9013C57.1564 61.7895 57.3957 61.722 57.6411 61.7027C57.8866 61.6834 58.1335 61.7126 58.3677 61.7887C58.6018 61.8647 58.8188 61.9862 59.006 62.1461C59.1932 62.306 59.3472 62.5012 59.459 62.7206C60.5561 64.8662 61.9542 66.8442 63.6107 68.5945C66.149 65.9356 68.0623 62.744 69.211 59.2521H49.5409C49.0436 59.2521 48.5667 59.0546 48.2151 58.7029C47.8634 58.3513 47.6659 57.8744 47.6659 57.3771C47.6659 56.8798 47.8634 56.4029 48.2151 56.0513C48.5667 55.6997 49.0436 55.5021 49.5409 55.5021H61.7437V49.8363C61.7437 49.339 61.9413 48.8621 62.2929 48.5104C62.6445 48.1588 63.1215 47.9613 63.6187 47.9613C64.116 47.9613 64.5929 48.1588 64.9446 48.5104C65.2962 48.8621 65.4937 49.339 65.4937 49.8363V55.5021H77.6963C78.1936 55.5021 78.6705 55.6997 79.0222 56.0513C79.3738 56.4029 79.5713 56.8798 79.5713 57.3771C79.5713 57.8744 79.3738 58.3513 79.0222 58.7029C78.6705 59.0546 78.1936 59.2521 77.6963 59.2521Z" fill="#00A08D"/>
<path d="M33.7362 16.3145C33.1239 14.8001 31.8385 13.8593 30.3816 13.8593C28.9246 13.8593 27.6391 14.8001 27.0269 16.3146L18.9328 36.3376C18.8405 36.5659 18.7941 36.8101 18.7962 37.0563C18.7983 37.3026 18.8489 37.546 18.9451 37.7726C19.0413 37.9993 19.1811 38.2048 19.3567 38.3774C19.5323 38.55 19.7402 38.6864 19.9685 38.7786C20.1968 38.8709 20.441 38.9173 20.6872 38.9152C20.9334 38.9131 21.1768 38.8625 21.4035 38.7664C21.6302 38.6702 21.8357 38.5303 22.0083 38.3547C22.1809 38.1791 22.3172 37.9712 22.4095 37.743L25.444 30.2362H35.319L38.3535 37.743C38.4453 37.9719 38.5814 38.1806 38.7539 38.3569C38.9265 38.5332 39.1321 38.6737 39.3591 38.7704C39.586 38.8671 39.8298 38.918 40.0765 38.9203C40.3232 38.9226 40.5679 38.8762 40.7966 38.7837C41.0253 38.6913 41.2336 38.5546 41.4094 38.3815C41.5851 38.2085 41.7251 38.0024 41.8211 37.7752C41.9171 37.548 41.9673 37.304 41.9689 37.0573C41.9705 36.8106 41.9234 36.5661 41.8302 36.3376L33.7362 16.3145ZM26.9599 26.4862L30.3816 18.0218L33.8032 26.4862H26.9599Z" fill="#00A08D"/>
</svg>
