<svg width="336" height="350" viewBox="0 0 336 350" fill="none" xmlns="http://www.w3.org/2000/svg">
<g style="mix-blend-mode:multiply">
<path d="M135.787 341.157C135.787 345.847 220.412 349.657 324.787 349.657C429.162 349.657 513.787 345.847 513.787 341.157C513.787 336.468 429.162 332.657 324.787 332.657C220.412 332.657 135.787 336.468 135.787 341.157Z" fill="#D8D8D8"/>
</g>
<path d="M172.03 12.8565C172.028 12.7593 172.022 12.6628 172.015 12.5667C171.812 9.30892 169.07 6.70687 165.641 6.51382C165.54 6.50682 165.438 6.50207 165.336 6.49913C165.302 6.49868 165.269 6.49438 165.235 6.49438H13.7649C13.7309 6.49438 13.6981 6.49868 13.6641 6.49913C13.5615 6.50207 13.4597 6.50682 13.3584 6.51382C9.92929 6.7071 7.18791 9.30892 6.98451 12.5667C6.97722 12.6628 6.97213 12.7596 6.96897 12.8565C6.96848 12.8889 6.96387 12.9201 6.96387 12.9526V312.177C6.96387 315.289 9.61995 317.81 12.8928 317.81H166.106C169.379 317.81 172.035 315.289 172.035 312.177V12.9524C172.036 12.9201 172.031 12.8889 172.03 12.8565ZM7.07128 28.7604V19.7219H16.9687C17.2552 19.8444 17.5699 19.9133 17.9002 19.9133C18.2338 19.9133 18.5517 19.8444 18.8348 19.7219H24.0148C24.2981 19.8444 24.6157 19.9133 24.9494 19.9133C25.283 19.9133 25.6009 19.8444 25.884 19.7219H31.0639C31.3473 19.8444 31.6651 19.9133 31.9985 19.9133C32.332 19.9133 32.6501 19.8444 32.9332 19.7219H142.151V19.9133H160.061V19.7219H171.975V28.7604H7.07128Z" fill="#F0F0F0"/>
<path d="M162.085 0H16.9153C7.57481 0 0 7.19379 0 16.0712V311.929C0 320.806 7.57481 328 16.9153 328H162.085C171.428 328 179 320.806 179 311.929V16.071C179 7.19379 171.428 0 162.085 0ZM172.036 309.079C172.036 313.902 167.919 317.81 162.846 317.81H16.1569C11.0807 317.81 6.96438 313.902 6.96438 309.079V16.2355C6.96438 10.8535 11.5558 6.49417 17.2174 6.49417H161.782C167.444 6.49417 172.035 10.8535 172.035 16.2355L172.036 309.079Z" fill="#20111D"/>
<path d="M172.037 28.7319V312.178C172.037 315.289 169.38 317.811 166.105 317.811H12.8945C9.61996 317.811 6.96558 315.289 6.96558 312.178V28.7319H7.07154V28.7606H171.977V28.7319H172.037Z" fill="#F0F0F0"/>
<path d="M49.6568 28.7606H43.9065L43.9308 78.3325H6.96558V83.7957H43.9337L43.9519 120.457H6.96558V125.92H43.9548L43.982 182.229H6.96558V187.693H43.9849L44.0122 240.649H6.96558V246.113H44.0153L44.0515 317.811H49.8018L49.7746 263.604H125.163V286.08H93.9909V317.811H99.7412V291.544H172.037V286.08H130.914V263.604H171.922V258.14H92.4748L92.4505 232.935H154.217L154.242 160.089H172.037V154.626H154.242L154.254 125.921H172.037V120.457H154.254L154.266 83.7961H172.037V78.333H154.269V56.5748H172.037V51.1117H49.6689L49.6568 28.7606ZM49.684 83.7959H111.847V103.685C102.713 104.896 95.4682 111.779 94.1938 120.457H49.702L49.684 83.7959ZM114.722 108.956C122.981 108.956 129.703 115.342 129.703 123.189C129.703 131.036 122.982 137.422 114.722 137.422C106.463 137.422 99.7412 131.036 99.7412 123.189C99.7414 115.342 106.463 108.956 114.722 108.956ZM49.7051 125.921H94.1938C95.4679 134.599 102.713 141.482 111.847 142.693V154.626H49.7202L49.7051 125.921ZM49.7717 258.14L49.7233 160.089H86.6278L86.7247 258.14H49.7717ZM148.467 227.471H92.4444L92.3778 160.089H148.491L148.467 227.471ZM148.491 154.626H117.597V142.693C126.731 141.482 133.977 134.599 135.251 125.921H148.503L148.491 154.626ZM148.503 120.457H135.251C133.977 111.779 126.731 104.896 117.597 103.685V83.7959H148.516L148.503 120.457ZM107.861 56.5744H148.518V78.3325H107.861V56.5744ZM102.111 78.3325H49.6808L49.6687 56.5744H102.111V78.3325Z" fill="white"/>
<path d="M128.795 290.106H101.557V287.806H126.374V262.502H88.2408V229.148H149.98V158.988H113.36V141.701C107.145 141.341 102.078 138.19 98.6539 132.532C96.6841 129.278 95.7716 126.053 95.4125 124.483H45.5681V85.9524H47.9892V122.182H97.4549L97.6095 123.162C97.6161 123.202 98.303 127.365 100.788 131.442C104.019 136.746 108.657 139.435 114.571 139.435H115.782V156.687H152.402V231.448H90.6624V260.201H128.796V290.106H128.795Z" fill="#00A08D"/>
<path d="M106.702 87.9652H54.95V97.4541H106.702V87.9652Z" fill="#F0F0F0"/>
<path d="M121.834 171.352H110.636V180.841H121.834V171.352Z" fill="#F0F0F0"/>
<path d="M167.836 166.464H156.639V175.953H167.836V166.464Z" fill="#F0F0F0"/>
<path d="M130.006 197.806H118.808V207.295H130.006V197.806Z" fill="#F0F0F0"/>
<path d="M146.349 270.553H135.151V280.042H146.349V270.553Z" fill="#F0F0F0"/>
<path d="M169.047 270.553H157.849V280.042H169.047V270.553Z" fill="#F0F0F0"/>
<path d="M168.442 296.719H105.794V306.208H168.442V296.719Z" fill="#F0F0F0"/>
<path d="M20.4485 146.336H9.25073V155.825H20.4485V146.336Z" fill="#F0F0F0"/>
<path d="M68.2664 135.409H57.0686V144.898H68.2664V135.409Z" fill="#F0F0F0"/>
<path d="M20.4485 161.863H9.25073V171.352H20.4485V161.863Z" fill="#F0F0F0"/>
<path d="M92.1751 135.409H80.9773V144.898H92.1751V135.409Z" fill="#F0F0F0"/>
<path d="M144.23 141.735H133.032V151.224H144.23V141.735Z" fill="#F0F0F0"/>
<path d="M68.2664 104.355H57.0686V113.844H68.2664V104.355Z" fill="#F0F0F0"/>
<path d="M89.4515 104.355H78.2537V113.844H89.4515V104.355Z" fill="#F0F0F0"/>
<path d="M144.23 89.1154H133.032V98.6042H144.23V89.1154Z" fill="#F0F0F0"/>
<path d="M97.9253 62.6617H86.7275V72.1506H97.9253V62.6617Z" fill="#F0F0F0"/>
<path d="M40.4231 87.9652H11.6719V97.4541H40.4231V87.9652Z" fill="#F0F0F0"/>
<path d="M40.4231 107.518H11.6719V117.007H40.4231V107.518Z" fill="#F0F0F0"/>
<path d="M38.002 130.809H9.25073V140.298H38.002V130.809Z" fill="#F0F0F0"/>
<path d="M38.6072 31.8949H27.4094V72.1506H38.6072V31.8949Z" fill="#F0F0F0"/>
<path d="M20.4485 31.8949H9.25073V72.1506H20.4485V31.8949Z" fill="#F0F0F0"/>
<path d="M135.453 62.6617H124.256V72.1506H135.453V62.6617Z" fill="#F0F0F0"/>
<path d="M172.073 36.4957H55.2524V45.9846H172.073V36.4957Z" fill="#F0F0F0"/>
<path d="M81.5826 62.6617H70.3848V72.1506H81.5826V62.6617Z" fill="#F0F0F0"/>
<path d="M65.24 62.6617H54.0422V72.1506H65.24V62.6617Z" fill="#F0F0F0"/>
<path d="M120.321 236.048H96.1096V245.537H120.321V236.048Z" fill="#F0F0F0"/>
<path d="M81.5826 166.464H70.3848V199.531H81.5826V166.464Z" fill="#F0F0F0"/>
<path d="M40.1204 253.013H28.9226V286.081H40.1204V253.013Z" fill="#F0F0F0"/>
<path d="M65.24 267.39H54.0422V300.457H65.24V267.39Z" fill="#F0F0F0"/>
<path d="M89.4515 282.63H78.2537V315.697H89.4515V282.63Z" fill="#F0F0F0"/>
<path d="M120.926 282.63V271.991L78.2534 271.991V282.63L120.926 282.63Z" fill="#F0F0F0"/>
<path d="M41.3311 291.831H30.1333V306.208H41.3311V291.831Z" fill="#F0F0F0"/>
<path d="M81.5826 211.32H70.3848V220.809H81.5826V211.32Z" fill="#F0F0F0"/>
<path d="M134.848 214.77H102.768V224.259H134.848V214.77Z" fill="#F0F0F0"/>
<path d="M146.046 165.314H134.848V224.259H146.046V165.314Z" fill="#F0F0F0"/>
<path d="M156.638 236.048H124.558V245.537H156.638V236.048Z" fill="#F0F0F0"/>
<path d="M167.836 186.592H156.639V245.537H167.836V186.592Z" fill="#F0F0F0"/>
<path d="M37.6993 192.918H26.5015V202.406H37.6993V192.918Z" fill="#F0F0F0"/>
<path d="M20.4485 192.918H9.25073V202.406H20.4485V192.918Z" fill="#F0F0F0"/>
<path d="M20.4485 226.56H9.25073V236.049H20.4485V226.56Z" fill="#F0F0F0"/>
<path d="M81.5826 229.435H70.3848V238.924H81.5826V229.435Z" fill="#F0F0F0"/>
<path d="M39.3219 69.0148L46.5827 82.7077L54.2044 69.1929C56.4608 64.2357 52.8387 58.5799 47.1589 58.3557C47.0748 58.3523 46.9905 58.3502 46.9059 58.3491C46.8214 58.348 46.7368 58.3482 46.6527 58.3496C40.9688 58.438 37.1978 64.0051 39.3219 69.0148ZM46.8488 62.6416C48.928 62.6664 50.5924 64.2881 50.5661 66.2635C50.5399 68.239 48.8332 69.8202 46.7538 69.7953C44.6746 69.7705 43.0103 68.1488 43.0365 66.1734C43.0628 64.1979 44.7697 62.6167 46.8488 62.6416Z" fill="#ED2B47"/>
<path d="M90.1662 278.057L97.4271 291.75L105.049 278.235C107.305 273.278 103.683 267.622 98.0032 267.398C97.9192 267.394 97.8348 267.392 97.7503 267.391C97.6655 267.39 97.5811 267.39 97.4971 267.391C91.8131 267.48 88.0419 273.047 90.1662 278.057ZM97.6932 271.683C99.7723 271.708 101.437 273.33 101.41 275.305C101.384 277.281 99.6776 278.862 97.5982 278.837C95.519 278.812 93.8546 277.19 93.8809 275.215C93.9071 273.24 95.6137 271.658 97.6932 271.683Z" fill="#ED2B47"/>
<path d="M165.077 6.49414H13.8633C10.0537 6.49414 6.96436 9.42735 6.96436 13.0482V28.7604H7.07128H171.916H171.976V13.0482C171.976 9.42735 168.886 6.49414 165.077 6.49414Z" fill="#00A08D"/>
<g opacity="0.9">
<path d="M20.461 17.7486C20.461 18.6277 19.8984 19.3843 19.0885 19.722C18.7993 19.8446 18.4746 19.9135 18.1337 19.9135C17.7961 19.9135 17.4749 19.8446 17.1823 19.722C16.3724 19.387 15.8066 18.6277 15.8066 17.7486C15.8066 16.5526 16.8513 15.584 18.1337 15.584C19.4197 15.5838 20.461 16.5526 20.461 17.7486Z" fill="white"/>
<path d="M27.6612 17.7486C27.6612 18.6277 27.0986 19.3843 26.2887 19.722C25.9995 19.8446 25.6748 19.9135 25.3341 19.9135C24.9934 19.9135 24.6688 19.8446 24.3793 19.722C23.5694 19.3841 23.0068 18.6277 23.0068 17.7486C23.0068 16.5526 24.0484 15.584 25.3341 15.584C26.6199 15.584 27.6612 16.5526 27.6612 17.7486Z" fill="white"/>
<path d="M34.8611 17.7486C34.8611 18.6277 34.2986 19.3843 33.4886 19.722C33.1994 19.8446 32.8748 19.9135 32.5341 19.9135C32.1934 19.9135 31.8687 19.8446 31.5795 19.722C30.7696 19.3841 30.207 18.6277 30.207 17.7486C30.207 16.5526 31.2486 15.584 32.5341 15.584C33.8196 15.5838 34.8611 16.5526 34.8611 17.7486Z" fill="white"/>
<path d="M145.041 13.8525V15.3983H144.099V18.0503H145.041V19.9131H163.333V13.8525H145.041ZM145.667 14.3489H162.706V19.4199H145.667V14.3489Z" fill="white"/>
<path d="M161.67 15.1383H159.863V18.6034H161.67V15.1383Z" fill="white"/>
<path d="M158.639 15.1383H156.831V18.6034H158.639V15.1383Z" fill="white"/>
<path d="M155.525 15.1383H153.717V18.6034H155.525V15.1383Z" fill="white"/>
</g>
<path d="M267.906 271.703V259.029H256.602V271.703H267.906Z" fill="#F7F7F7"/>
<path d="M262.082 323.771V311.096H250.778V323.771H262.082Z" fill="#F7F7F7"/>
<path d="M299.42 280.952V268.278H288.116V280.952H299.42Z" fill="#F7F7F7"/>
<path d="M232.623 297.052V284.378H221.318V297.052H232.623Z" fill="#F7F7F7"/>
<path d="M319.631 299.107V286.432H249.408V299.107H319.631Z" fill="#F7F7F7"/>
<path d="M344.979 311.096V274.786H333.675V311.096H344.979Z" fill="#F7F7F7"/>
<path d="M344.979 323.771V311.096H274.756V323.771H344.979Z" fill="#F7F7F7"/>
<path d="M349.914 319.511C349.914 319.511 302.234 327.284 301.664 326.94C301.093 326.595 294.997 299.949 294.997 299.949C294.997 299.949 334.427 292.975 335.065 292.977C335.703 292.978 344.256 299.86 344.368 300.318C344.481 300.775 349.914 319.511 349.914 319.511Z" fill="#3A2645"/>
<path d="M202.534 330.525C201.391 330.636 148.13 330.754 148.13 330.754L150.047 311.31C150.047 311.31 158.082 299.235 162.31 299.467C166.538 299.699 191.698 295.693 196.029 298.715C200.361 301.738 204.254 299.349 206.29 306.555C208.327 313.761 209.93 314.572 208.315 318.907C206.7 323.242 202.534 330.525 202.534 330.525Z" fill="#3A2645"/>
<path d="M325.836 343.834C336.685 343.834 345.48 335.036 345.48 324.183C345.48 313.33 336.685 304.532 325.836 304.532C314.987 304.532 306.192 313.33 306.192 324.183C306.192 335.036 314.987 343.834 325.836 343.834Z" fill="#1A1A1A"/>
<path d="M339.506 324.239C339.541 316.688 333.45 310.539 325.901 310.504C318.353 310.469 312.206 316.563 312.171 324.114C312.136 331.665 318.227 337.814 325.776 337.849C333.324 337.884 339.472 331.791 339.506 324.239Z" fill="#9E9DA2"/>
<g opacity="0.5">
<path d="M333.49 312.854C334.798 314.958 335.553 317.441 335.545 320.101C335.524 327.652 329.387 333.756 321.839 333.735C319.016 333.727 316.397 332.863 314.223 331.391C316.628 335.259 320.908 337.841 325.797 337.855C333.346 337.877 339.482 331.773 339.504 324.222C339.517 319.494 337.13 315.32 333.49 312.854Z" fill="#9E9DA2"/>
</g>
<path d="M325.878 333.341C330.926 333.317 334.999 329.203 334.975 324.153C334.951 319.103 330.838 315.029 325.79 315.053C320.742 315.078 316.669 319.191 316.693 324.241C316.718 329.291 320.83 333.365 325.878 333.341Z" fill="#D8D9DD"/>
<g opacity="0.3">
<path d="M330.906 316.576C331.862 318.026 332.418 319.763 332.412 321.63C332.398 326.68 328.294 330.762 323.246 330.748C321.379 330.743 319.646 330.177 318.202 329.212C319.832 331.683 322.628 333.318 325.81 333.327C330.858 333.342 334.962 329.26 334.976 324.21C334.985 321.027 333.367 318.221 330.906 316.576Z" fill="#D8D9DD"/>
</g>
<path d="M194.243 323.819C194.275 312.967 185.507 304.142 174.658 304.11C163.809 304.077 154.987 312.849 154.955 323.701C154.922 334.554 163.691 343.379 174.54 343.411C185.389 343.444 194.21 334.672 194.243 323.819Z" fill="#1A1A1A"/>
<path d="M188.254 323.798C188.284 316.247 182.189 310.102 174.64 310.072C167.092 310.043 160.948 316.14 160.919 323.691C160.889 331.242 166.985 337.388 174.533 337.417C182.082 337.446 188.225 331.349 188.254 323.798Z" fill="#9E9DA2"/>
<g opacity="0.5">
<path d="M182.245 312.427C183.553 314.531 184.307 317.014 184.3 319.673C184.279 327.224 178.142 333.328 170.593 333.307C167.771 333.299 165.151 332.435 162.978 330.963C165.383 334.832 169.663 337.414 174.552 337.428C182.101 337.449 188.237 331.345 188.259 323.794C188.272 319.066 185.884 314.893 182.245 312.427Z" fill="#9E9DA2"/>
</g>
<path d="M183.733 323.765C183.739 318.715 179.652 314.616 174.603 314.61C169.555 314.604 165.458 318.693 165.452 323.743C165.446 328.793 169.533 332.892 174.581 332.898C179.63 332.904 183.727 328.815 183.733 323.765Z" fill="#D8D9DD"/>
<g opacity="0.3">
<path d="M179.661 316.146C180.617 317.596 181.173 319.334 181.168 321.201C181.153 326.251 177.049 330.333 172.001 330.319C170.134 330.313 168.401 329.748 166.957 328.783C168.587 331.254 171.383 332.889 174.565 332.898C179.613 332.912 183.717 328.83 183.731 323.78C183.74 320.597 182.122 317.791 179.661 316.146Z" fill="#D8D9DD"/>
</g>
<path d="M129.544 304.925C131.236 293.978 136.611 291.693 152.501 288.562C170.035 285.107 192.316 273.741 192.316 273.741C192.316 273.741 230.312 255.258 239.613 253.151C248.915 251.044 271.77 251.718 290.97 251.925C310.17 252.132 321.431 257.497 331.162 265.144C340.893 272.791 357.791 278.629 357.791 278.629L360.862 279.187C364.021 279.76 366.314 282.515 366.305 285.724L366.228 312.9C366.219 315.977 364.139 318.662 361.161 319.44L350.048 322.342C349.143 322.495 348.304 321.85 348.207 320.937C347.022 309.816 337.435 301.34 325.975 301.321C313.788 301.301 303.766 311.286 303.739 323.472C303.736 324.857 303.861 326.212 304.101 327.527C304.349 328.885 303.303 330.133 301.922 330.129L199.721 329.84C197.735 329.834 196.197 328.085 196.466 326.117C196.595 325.17 196.665 324.204 196.671 323.223C196.741 311.186 187.035 301.18 175.002 300.898C162.527 300.605 152.305 310.612 152.27 323.029C152.268 323.851 152.31 324.663 152.396 325.462C152.636 327.725 150.88 329.701 148.605 329.695L133.908 329.653C131.236 329.646 129.076 327.473 129.084 324.801L129.124 310.567C129.13 308.679 129.256 306.791 129.544 304.925Z" fill="#00A08D"/>
<path d="M148.83 293.353C155.831 292.542 156.865 295.911 155.589 300.272C154.829 302.868 152.521 304.708 149.821 304.871L136.822 305.655C134.133 305.818 132.626 302.612 134.467 300.645C134.467 300.645 143.215 294.003 148.83 293.353Z" fill="#EDEDED"/>
<path d="M152.179 318.428C153.125 318.408 153.852 319.239 153.728 320.176C153.591 321.218 153.518 322.28 153.515 323.359C153.512 324.271 153.56 325.172 153.654 326.058C153.921 328.569 151.973 330.763 149.448 330.755L133.14 330.709C130.175 330.701 127.779 328.291 127.787 325.326L127.799 321.105C127.803 319.909 128.76 318.933 129.956 318.907L152.179 318.428Z" fill="#00A08D"/>
<path d="M152.179 318.428C153.125 318.408 153.852 319.239 153.728 320.176C153.591 321.218 153.518 322.28 153.515 323.359C153.512 324.271 153.56 325.172 153.654 326.058C153.921 328.569 151.973 330.763 149.448 330.755L133.14 330.709C130.175 330.701 127.779 328.291 127.787 325.326L127.799 321.105C127.803 319.909 128.76 318.933 129.956 318.907L152.179 318.428Z" fill="black" fill-opacity="0.2"/>
<g opacity="0.5">
<path d="M191.903 280.233L192.024 280.633C192.086 280.837 198.196 301.227 198.441 320.736L198.447 321.253L258.481 320.252V320.255L259.013 320.243L259.51 320.235V320.232L302.597 319.246L302.637 318.788C302.642 318.734 303.157 313.394 307.218 308.348C312.591 301.673 321.747 298.518 333.695 299.227L334.135 299.253L338.298 279.984L338.121 279.789C337.478 279.079 322.246 262.379 310.524 258.689C298.888 255.026 261.005 255.74 259.185 255.777C258.503 255.741 242.671 254.999 228.469 261.529C214.124 268.124 192.487 279.915 192.27 280.033L191.903 280.233ZM259.513 319.203L259.69 256.797C264.319 256.722 299.419 256.271 310.215 259.67C321.007 263.067 335.418 278.38 337.181 280.286L333.315 298.176C318.039 297.384 310.241 302.928 306.382 307.746C302.802 312.217 301.881 316.792 301.669 318.239L259.513 319.203ZM193.127 280.738C196.033 279.16 215.609 268.573 228.899 262.463C241.709 256.574 255.885 256.697 258.661 256.785L258.485 319.223L199.461 320.207C199.143 302.228 193.979 283.682 193.127 280.738Z" fill="#00A08D"/>
<path d="M191.903 280.233L192.024 280.633C192.086 280.837 198.196 301.227 198.441 320.736L198.447 321.253L258.481 320.252V320.255L259.013 320.243L259.51 320.235V320.232L302.597 319.246L302.637 318.788C302.642 318.734 303.157 313.394 307.218 308.348C312.591 301.673 321.747 298.518 333.695 299.227L334.135 299.253L338.298 279.984L338.121 279.789C337.478 279.079 322.246 262.379 310.524 258.689C298.888 255.026 261.005 255.74 259.185 255.777C258.503 255.741 242.671 254.999 228.469 261.529C214.124 268.124 192.487 279.915 192.27 280.033L191.903 280.233ZM259.513 319.203L259.69 256.797C264.319 256.722 299.419 256.271 310.215 259.67C321.007 263.067 335.418 278.38 337.181 280.286L333.315 298.176C318.039 297.384 310.241 302.928 306.382 307.746C302.802 312.217 301.881 316.792 301.669 318.239L259.513 319.203ZM193.127 280.738C196.033 279.16 215.609 268.573 228.899 262.463C241.709 256.574 255.885 256.697 258.661 256.785L258.485 319.223L199.461 320.207C199.143 302.228 193.979 283.682 193.127 280.738Z" fill="black" fill-opacity="0.2"/>
</g>
<path d="M193.954 324.631C193.961 323.519 193.881 322.423 193.723 321.35C193.533 320.062 194.53 318.898 195.878 318.87L305.982 316.582C307.183 316.557 308.046 317.666 307.715 318.781C307.139 320.727 306.827 322.776 306.822 324.891C306.819 326.293 306.949 327.665 307.2 328.997C307.461 330.387 306.372 331.671 304.908 331.667L197.17 331.366C195.056 331.36 193.464 329.551 193.745 327.528C193.877 326.58 193.948 325.613 193.954 324.631Z" fill="#00A08D"/>
<path d="M193.954 324.631C193.961 323.519 193.881 322.423 193.723 321.35C193.533 320.062 194.53 318.898 195.878 318.87L305.982 316.582C307.183 316.557 308.046 317.666 307.715 318.781C307.139 320.727 306.827 322.776 306.822 324.891C306.819 326.293 306.949 327.665 307.2 328.997C307.461 330.387 306.372 331.671 304.908 331.667L197.17 331.366C195.056 331.36 193.464 329.551 193.745 327.528C193.877 326.58 193.948 325.613 193.954 324.631Z" fill="black" fill-opacity="0.2"/>
<path d="M314.124 288.11L327.595 288.148C327.852 288.149 328.06 287.941 328.061 287.685L328.065 286.29C328.066 286.034 327.858 285.825 327.602 285.824L314.131 285.786C313.874 285.786 313.666 285.993 313.665 286.25L313.661 287.644C313.66 287.901 313.868 288.109 314.124 288.11Z" fill="#1A1A1A"/>
<path d="M241.005 289.066L254.475 289.104C254.732 289.105 254.941 288.897 254.942 288.641L254.945 287.247C254.946 286.99 254.739 286.781 254.482 286.78L241.011 286.742C240.755 286.742 240.546 286.949 240.545 287.206L240.541 288.6C240.541 288.857 240.748 289.065 241.005 289.066Z" fill="#1A1A1A"/>
<path d="M325.54 282.232L266.792 282.621C266.792 282.621 263.197 282.514 262.717 279.129C262.237 275.744 262.32 261.253 262.32 261.253C262.32 261.253 262.754 258.345 265.541 258.315C267.235 258.297 281.431 257.323 295.231 259.044C306.488 260.447 316.891 265.62 324.766 273.543L328.924 277.726C328.924 277.726 331.724 282.191 325.54 282.232Z" fill="#E6E6E6"/>
<path d="M255.775 263.071L255.732 278.265C255.726 280.239 254.207 281.856 252.292 281.928L206.125 283.653C205.065 283.693 204.029 283.211 203.424 282.314C202.599 281.091 202.508 279.082 206.652 276.4C213.859 271.736 232.188 261.657 238.961 260.696C243.273 260.084 248.911 259.829 252.441 259.725C254.271 259.67 255.78 261.186 255.775 263.071Z" fill="#E6E6E6"/>
<g opacity="0.3">
<path d="M300.386 282.4L288.761 282.477L280.167 258.053C283.921 258.117 288.091 258.305 292.309 258.721L300.386 282.4Z" fill="white"/>
</g>
<g opacity="0.3">
<path d="M284.349 282.506L279.982 282.535L271.836 258.09C272.996 258.061 274.281 258.039 275.665 258.03L284.349 282.506Z" fill="white"/>
</g>
<g opacity="0.3">
<path d="M231.163 263.285C234.327 261.93 237.088 260.965 238.962 260.699C239.926 260.562 240.957 260.444 242.015 260.341L249.415 282.039L237.913 282.468L231.163 263.285Z" fill="white"/>
</g>
<g opacity="0.3">
<path d="M233.549 282.632L229.22 282.793L223.861 266.712C225.021 266.129 226.174 265.565 227.304 265.03L233.549 282.632Z" fill="white"/>
</g>
</svg>
