<svg width="357" height="344" viewBox="0 0 357 344" fill="none" xmlns="http://www.w3.org/2000/svg">
<g style="mix-blend-mode:multiply">
<path d="M-164 324.5C-164 330.293 -79.3748 335 25 335C129.375 335 214 330.293 214 324.5C214 318.707 129.375 314 25 314C-79.3748 314 -164 318.707 -164 324.5Z" fill="#D8D8D8"/>
</g>
<g clip-path="url(#clip0_9837_2792)">
<path d="M216.65 94.0666L215.706 94.9102C215.217 95.3495 214.49 95.3285 214.07 94.8684L197.28 76.3995C196.86 75.9393 196.923 75.2142 197.405 74.782L198.349 73.9314C198.838 73.4991 199.565 73.5131 199.985 73.9732L216.775 92.4491C217.195 92.9093 217.139 93.6343 216.65 94.0666Z" fill="#282828"/>
<path d="M273.578 79.0559C271.334 77.2292 253.978 84.8496 254.201 87.506C254.425 90.1623 242.094 115.882 242.094 115.882L220.788 98.8774H220.781C220.592 98.2708 218.572 91.6543 218.474 90.4691C218.369 89.2281 214.769 87.0598 213.099 87.3735C211.428 87.6942 214.532 89.7928 214.734 90.1763C215.287 91.2221 213.148 91.6195 213.148 91.6195C213.148 91.6195 206.989 88.238 206.863 86.251C206.73 84.264 205.458 80.0947 204.13 80.9662C203.445 81.4194 203.452 84.3755 203.662 85.7769C203.263 84.1873 202.704 82.3885 202.159 82.2072C201.159 81.8795 200.67 83.1485 200.845 83.7759C201.026 84.3964 202.634 91.1593 203.123 91.9193C203.599 92.6653 213.546 100.683 214.979 102.419C214.979 102.419 242.542 133.954 244.506 134.776C246.225 135.501 252.37 124.632 258.165 117.423C263.967 110.207 280.604 84.766 273.592 79.0559H273.578Z" fill="#F9C38A"/>
<path d="M334.939 316.907C334.939 316.907 338.727 320.602 338.811 321.961C338.895 323.321 339.147 337.858 337.602 339.217C336.057 340.577 331.514 341.539 332.975 343.066C334.079 344.223 342.565 343.972 348.192 343.665C349.835 343.575 351.897 330.46 352.547 328.529C353.491 325.726 355.791 319.424 354.931 317.471C354.511 316.523 352.512 314.564 349.688 312.744C346.717 310.827 343.879 306.553 343.879 306.553L334.939 316.907Z" fill="#F9C38A"/>
<path d="M295.702 325.517C295.702 325.517 299.093 335.097 299.093 335.125C299.344 336.644 300.337 340.395 300.337 341.776C300.337 346.963 276.976 337.377 282.211 335.076C282.687 334.867 284.168 333.207 284.329 331.443C284.567 328.724 282.358 325.315 282.358 325.315L295.695 325.517H295.702Z" fill="#F9C38A"/>
<path d="M259.053 147.089C259.053 147.089 257.347 164.268 257.347 164.519C257.347 192.31 251.846 246.587 252.887 251.809C255.439 264.554 282.924 329.554 282.924 329.554L297.779 327.776L278.423 249.947L285.546 218.622L295.626 156.703L259.053 147.082V147.089Z" fill="#282828"/>
<path d="M308.9 162.281L311.717 178.561L319.343 245.569L348.381 311.057C348.381 311.057 344.299 320.588 338.273 321.927L292.054 254.688L263.345 168.653L264.351 149.536L308.9 162.281Z" fill="#353535"/>
<path d="M349.499 312.654C349.499 312.654 340.769 337.251 337.35 338.436C336.442 338.75 332.087 339.552 331.269 341.476C331.024 342.055 331.269 343.993 331.269 343.993H349.465C349.465 343.993 351.764 333.159 352.673 328.397C352.673 328.397 357.489 316.76 356.951 315.708C356.413 314.648 349.492 312.654 349.492 312.654H349.499Z" fill="#353535"/>
<path d="M301.672 343.484L298.995 335.027C298.995 335.027 293.375 337.404 290.565 337.007C287.755 336.61 282.267 335.027 282.267 335.027C271.055 338.722 261.87 340.514 263.54 343.484H301.665H301.672Z" fill="#353535"/>
<path d="M250.238 140.772C250.154 140.737 249.846 140.5 249.672 140.354C250.336 132.413 250.217 124.716 247.728 122.115C247.784 121.99 248.329 120.832 248.903 119.633C251.79 121.864 253.16 127.804 252.621 137.44C252.587 138.102 252.398 138.611 252.244 139.434C251.405 140.354 250.65 140.947 250.245 140.779L250.238 140.772Z" fill="#F9C38A"/>
<path d="M320.07 46.4755C316.051 42.9756 315.093 37.14 314.891 33.7515C315.688 39.7684 321.112 45.0741 321.112 45.0741C314.653 37.4328 325.076 9.46796 308.753 2.39832C298.072 -2.23111 290.201 0.801727 286.035 3.4511C276.717 2.18916 265.539 15.5894 265.539 15.5894L287.845 45.0741C287.845 45.0741 289.439 41.4068 291.669 41.5742C290.46 46.2454 289.747 50.0591 292.081 52.4575C303.692 64.3588 298.953 70.1316 305.587 72.1674C313.702 74.6634 329.871 55.0023 320.077 46.4755H320.07Z" fill="#041235"/>
<path d="M262.862 63.3897C262.862 63.3897 255.711 63.8359 252.034 68.047C248.357 72.2581 247.868 106.567 247.868 106.567C247.868 106.567 248.875 110.409 253.153 110.095C257.424 109.782 262.862 63.3827 262.862 63.3827V63.3897Z" fill="#591D63"/>
<path d="M335.959 148.944C335.47 150.136 333.324 151.196 330.234 151.962C323.314 153.678 311.64 153.908 303.133 150.763C294.004 147.396 287.384 99.2748 284.574 74.6147C283.595 66.0112 283.071 60.2593 283.071 60.2593C283.071 60.2593 288.314 52.0742 308.606 54.8002C328.892 57.5263 330.947 64.3519 332.772 76.6296C334.596 88.9074 337.56 145.074 335.966 148.937L335.959 148.944Z" fill="#EE9849"/>
<path d="M330.234 151.962C323.314 153.678 311.64 153.908 303.133 150.763C294.004 147.396 287.384 99.2748 284.574 74.6147C286.979 66.1298 288.887 60.5452 288.887 60.5452C288.887 60.5452 314.366 57.4775 319.323 65.1467C323.754 72.0072 329.151 138.081 330.241 151.962H330.234Z" fill="#E58638"/>
<path d="M311.773 154.925C304.797 139.315 301.455 134.902 301.337 129.993C301.246 126.11 303.161 121.92 306.894 111.643C307.775 109.224 308.376 106.735 308.753 104.218C311.703 84.4103 300.218 62.9923 293.081 61.5351C291.096 61.0122 287.727 53.8589 287.768 42.3271L286.874 42.5014L271.845 45.4715C271.845 45.4715 272.187 50.1916 272.194 54.6328C272.201 58.3349 271.977 61.8488 271.139 62.2881C270.055 62.3857 269.419 62.4484 269.419 62.4484C269.419 62.4484 256.886 79.8088 255.83 95.956C254.774 112.103 265.868 119.117 255.746 151.384C245.415 184.333 315.625 163.557 311.773 154.932V154.925Z" fill="#FFB27D"/>
<path d="M271.845 45.4646C271.845 45.4646 272.187 50.1847 272.194 54.6258C280.603 54.3888 285.049 46.7335 286.874 42.4945L271.845 45.4646Z" fill="#E8945B"/>
<path d="M288.433 40.87C288.433 40.87 292.843 33.9259 293.899 27.9857C294.654 23.7467 292.487 8.02477 276.654 10.2907C276.654 10.2907 272.054 10.7439 267.727 13.6582C264.288 15.9729 259.325 20.9718 264.875 34.6928L266.315 39.3292L288.433 40.877V40.87Z" fill="#041235"/>
<path d="M269.035 49.6757C269.035 49.6757 288.936 50.0034 288.95 37.642C288.964 25.2806 291.543 16.9908 278.835 16.2587C266.127 15.5267 263.659 20.2398 262.646 24.3672C261.632 28.4947 263.862 49.2713 269.035 49.6757Z" fill="#FFB27D"/>
<path d="M269.776 15.959C269.776 15.959 275.228 30.4608 283.588 32.6082C291.949 34.7556 295.577 32.5176 295.577 32.5176C295.577 32.5176 298.513 18.9361 297.184 10.0676C297.184 10.0676 273.886 9.0567 269.776 15.959Z" fill="#041235"/>
<path d="M271.125 17.1372C271.125 17.1372 267.056 20.3722 266.064 23.5236C265.071 26.668 264.624 33.152 262.729 32.9358C262.729 32.9358 258.626 23.0774 263.24 17.4997C268.133 11.5875 271.125 17.1372 271.125 17.1372Z" fill="#041235"/>
<path d="M306.901 111.643C303.168 121.92 301.253 126.11 301.344 129.993C289.453 111.636 267.979 108.868 267.979 108.868L308.753 104.218C308.383 106.735 307.775 109.224 306.894 111.643H306.901Z" fill="#CB7D45"/>
<path d="M270.37 17.6253C270.37 17.6253 274.249 32.8173 284.805 37.6768C284.805 37.6768 274.256 28.3413 273.355 18.3155C272.46 8.28974 270.37 17.6183 270.37 17.6183V17.6253Z" fill="#041235"/>
<path d="M328.948 168.319C328.969 168.144 328.976 167.97 328.955 167.796C328.403 162.183 323.747 115.039 322.957 113.038C322.251 111.225 301.358 81.3287 301.358 81.3287L291.089 95.3286L311.179 122.143C311.626 123.844 318.875 155.672 318.875 155.672C318.875 155.672 320.364 161.472 321.028 164.944C320.728 165.781 320.427 166.569 320.161 167.217C319.497 168.605 318.707 169.741 317.994 170.696C317.1 171.902 315.611 174.531 315.429 175.235C315.219 176.051 314.835 177.752 314.618 178.784C314.401 179.809 314.101 181.008 314.052 181.566C314.024 181.907 313.674 182.584 313.402 183.058C313.003 183.769 313.688 184.605 314.457 184.354C315.184 184.11 315.757 183.169 316.107 182.577C317.093 180.917 317.624 177.877 317.869 178.038C318.113 178.198 318.98 183.35 319.12 183.936C319.26 184.515 320.294 190.504 320.881 191.591C321.469 192.686 322.244 192.505 322.447 191.815C322.622 191.222 321.797 182.855 321.797 182.855C321.797 182.855 321.692 181.789 322.161 182.123C322.629 182.458 323.391 190.058 323.719 191.166C324.048 192.275 324.782 192.867 325.411 191.975C326.173 190.887 324.859 182.828 324.859 182.828C324.859 182.828 324.712 181.817 325.145 181.907C325.579 182.005 326.117 188.475 326.46 189.04C326.795 189.597 327.648 189.8 328.053 188.865C328.529 187.764 327.298 180.583 327.298 180.583C327.298 180.583 327.361 180.011 327.627 180.199C327.9 180.387 328.752 185.874 329.312 186.383C329.78 186.809 330.171 186.397 330.171 186.397C331.192 185.7 329.626 180.478 329.64 177.884C329.654 175.291 328.452 172.37 328.808 169.281C328.829 169.086 328.892 168.612 328.934 168.312L328.948 168.319Z" fill="#F9C38A"/>
<path d="M316.47 166.192C316.533 167.454 316.47 168.458 316.24 169.176C315.443 171.679 312.71 172.816 306.09 172.132C302.05 171.714 300.246 164.958 299.442 159.192C297.017 167.44 293.612 172.07 289.222 173.039C282.812 174.461 250.468 178.386 248.35 163.048C246.023 146.183 252.992 116.314 253.376 100.216C252.426 94.5059 252.104 89.5488 252.202 85.2958C252.475 73.8268 255.844 67.3986 258.444 64.805C259.178 64.2403 259.912 63.8917 262.869 63.3828C264.379 63.1248 266.469 62.832 269.426 62.4415C269.426 62.4415 270.635 62.3021 270.607 62.3509C270.062 63.327 262.736 74.3916 263.303 77.2362C263.904 80.2132 289.88 77.536 291.676 75.8975C293.466 74.2591 296.304 61.7164 296.304 61.7164C296.304 61.7164 306.37 61.9674 310.864 65.2303C310.864 65.2303 312.164 66.8618 312.395 67.308C317.197 76.4274 320.735 99.4142 324.104 115.826C315.932 120.316 308.788 118.978 306.572 118.385C309.466 137.286 316.037 157.582 316.47 166.192Z" fill="#850F99"/>
<path d="M269.419 62.4485C269.419 62.4485 269.405 62.4694 269.377 62.5182C268.496 63.9126 254.691 85.9163 253.369 100.223C252.419 94.5129 252.097 89.5557 252.195 85.3028C253.971 79.8995 258.277 67.8867 262.855 63.3967C263.428 62.8319 269.412 62.4555 269.412 62.4555L269.419 62.4485Z" fill="#E58638"/>
<path d="M316.47 166.192C312.025 164.714 306.328 160.775 299.477 151.955C281.351 128.592 297.939 101.136 300.162 100.62C302.385 100.111 306.572 118.385 306.572 118.385C309.466 137.286 316.037 157.582 316.47 166.192Z" fill="#610572"/>
<path d="M304 61.1587C304 61.1587 288.076 72.4255 286.713 98.6891C285.343 124.953 309.054 130.293 309.054 130.293L307.516 121.997C307.516 121.997 288.307 115.059 293.326 94.1434C298.338 73.2203 312.78 62.4485 312.78 62.4485L304.007 61.1587H304Z" fill="#E58638"/>
</g>
<path d="M160.486 275.931C168.538 275.931 175.065 286.845 175.065 300.309C175.065 313.772 168.538 324.686 160.486 324.686H146.383V275.931H160.486Z" fill="#1D1D1B"/>
<path d="M146.383 324.686C138.331 324.686 131.804 313.772 131.804 300.309C131.804 286.845 138.331 275.931 146.383 275.931C154.435 275.931 160.962 286.845 160.962 300.309C160.962 313.772 154.435 324.686 146.383 324.686Z" fill="#1D1D1B"/>
<path d="M146.383 318.592C140.573 318.592 135.862 310.406 135.862 300.309C135.862 290.211 140.573 282.026 146.383 282.026C152.194 282.026 156.904 290.211 156.904 300.309C156.904 310.406 152.194 318.592 146.383 318.592Z" fill="#3C3C3B"/>
<path d="M47.8053 275.931C55.8571 275.931 62.3844 286.845 62.3844 300.309C62.3844 313.772 55.8571 324.686 47.8053 324.686H33.7021V275.931H47.8053Z" fill="#1D1D1B"/>
<path d="M33.702 324.686C25.6502 324.686 19.1228 313.772 19.1228 300.309C19.1228 286.845 25.6502 275.931 33.702 275.931C41.7539 275.931 48.2811 286.845 48.2811 300.309C48.2811 313.772 41.7539 324.686 33.702 324.686Z" fill="#1D1D1B"/>
<path d="M33.7022 318.592C27.8918 318.592 23.1815 310.406 23.1815 300.309C23.1815 290.211 27.8918 282.026 33.7022 282.026C39.5126 282.026 44.2228 290.211 44.2228 300.309C44.2228 310.406 39.5126 318.592 33.7022 318.592Z" fill="#3C3C3B"/>
<path d="M22.5338 310.397C21.8306 307.977 21.2926 305.43 20.9484 302.784C18.5576 284.414 26.3646 268.304 38.3857 266.8C50.4068 265.296 61.5703 279.041 64.4811 297.338C65.2791 302.355 65.6226 306.673 65.5836 310.396H22.5338V310.397Z" fill="#1D1D1B"/>
<path d="M56.8176 275.931C64.8694 275.931 71.3967 286.845 71.3967 300.309C71.3967 313.772 64.8694 324.686 56.8176 324.686H42.7143V275.931H56.8176Z" fill="#1D1D1B"/>
<path d="M42.7143 324.686C34.6625 324.686 28.1352 313.772 28.1352 300.309C28.1352 286.845 34.6625 275.931 42.7143 275.931C50.7661 275.931 57.2935 286.845 57.2935 300.309C57.2935 313.772 50.7661 324.686 42.7143 324.686Z" fill="#3C3C3B"/>
<path d="M42.7142 318.592C36.9038 318.592 32.1936 310.406 32.1936 300.309C32.1936 290.211 36.9038 282.026 42.7142 282.026C48.5246 282.026 53.2349 290.211 53.2349 300.309C53.2349 310.406 48.5246 318.592 42.7142 318.592Z" fill="#878787"/>
<path d="M-93.4922 269.877C-93.4303 267.894 -92.8814 266.198 -91.9696 264.476C-90.7603 262.192 -91.3155 260.202 -91.4734 257.764C-91.593 255.919 -91.6363 253.973 -91.2422 252.154C-90.7498 249.882 -89.2291 249.186 -87.7871 247.572C-86.5892 246.231 -85.9421 244.812 -84.0768 244.262C-83.0519 243.96 -82.425 243.889 -81.4731 243.315C-80.3239 242.623 -79.2035 241.884 -78.1042 241.118C-70.234 235.632 -63.2043 229.261 -54.7668 224.541C-46.4974 219.916 -37.5423 216.451 -28.243 214.43C-18.7998 212.377 -9.08218 211.551 0.550827 210.835C10.5542 210.093 20.5645 209.989 30.5885 210.001C41.016 210.013 54.4393 210.756 64.859 211.854C69.5666 212.351 74.0126 213.283 78.5162 214.395C83.4253 215.607 87.3751 217.144 91.7567 219.092C103.846 224.465 124.676 239.218 129.912 242.91C131.238 243.845 133.268 244.862 135.231 245.274C143.108 246.923 150.65 249.848 155.573 252.724C157.311 253.739 158.867 254.75 160.585 255.783C162.464 256.911 164.271 257.473 166.295 258.357C168.337 259.25 170.572 259.972 172.481 260.886C174.385 261.799 175.673 262.553 177.384 263.801C178.856 264.875 180.489 266.624 180.763 268.462C181.017 270.165 180.299 272.571 181.279 274.076C181.536 274.47 182.646 275.365 183.007 275.612C184.935 276.931 185.073 279.916 185.159 282.141C185.407 288.551 184.451 294.398 184.78 297.919C184.982 300.092 185.408 302.275 184.897 304.438C184.522 306.026 183.494 309.043 181.962 309.892C181.332 310.242 180.816 310.202 180.208 310.69C179.721 311.082 179.424 311.563 178.82 311.808C178.367 311.991 177.927 312.01 177.473 312.01C162.93 312.01 137.35 312.01 113.9 312.01C91.6554 312.01 71.3271 312.01 64.157 312.01H62.1014C62.0406 306.882 61.5147 301.064 60.2911 295.233C59.1898 289.985 56.1164 282.866 53.7006 279.304C46.0542 268.029 35.7362 270.528 32.2504 273.234C26.1929 277.936 23.8434 286.933 23.8434 294.176C23.8434 302.922 25.2023 306.73 26.164 310.398H22.9678C20.0749 310.398 16.6815 310.398 13.127 310.398C6.1581 310.398 -1.43303 310.398 -7.10461 310.398C-17.3341 310.398 -27.5639 310.398 -37.7934 310.398C-43.9402 310.398 -47.9483 310.398 -55.6248 310.398C-56.077 310.398 -56.4875 310.325 -56.7787 309.988C-57.3732 309.299 -55.5656 303.622 -57.0154 295.089C-57.8223 290.338 -59.0424 285.704 -61.3264 281.437C-63.4202 277.526 -67.681 270.663 -73.3678 271.111C-80.4865 271.672 -84.545 280.514 -85.6329 285.761C-87.4979 294.755 -86.4071 300.22 -85.5339 305.194C-85.1831 307.193 -86.8804 305.978 -87.9244 305.375C-89.5531 304.434 -90.4228 303.935 -91.459 302.655C-92.7376 301.076 -92.5758 299.309 -92.7676 297.383C-93.2451 292.589 -94.1811 288.093 -92.7629 282.913C-91.5837 278.603 -93.6291 274.241 -93.4922 269.877Z" fill="#00A08D"/>
<path d="M-93.4922 269.877C-93.4303 267.894 -92.8814 266.198 -91.9696 264.476C-90.7603 262.192 -91.3155 260.202 -91.4734 257.764C-91.593 255.919 -91.6363 253.973 -91.2422 252.154C-90.7498 249.882 -89.2291 249.186 -87.7871 247.572C-86.5892 246.231 -85.9421 244.812 -84.0768 244.262C-83.0519 243.96 -82.425 243.889 -81.4731 243.315C-80.3239 242.623 -79.2035 241.884 -78.1042 241.118C-70.234 235.632 -63.2043 229.261 -54.7668 224.541C-46.4974 219.916 -37.5423 216.451 -28.243 214.43C-18.7998 212.377 -9.08218 211.551 0.550827 210.835C10.5542 210.093 20.5645 209.989 30.5885 210.001C41.016 210.013 54.4393 210.756 64.859 211.854C69.5666 212.351 74.0126 213.283 78.5162 214.395C83.4253 215.607 87.3751 217.144 91.7567 219.092C103.846 224.465 124.676 239.218 129.912 242.91C131.238 243.845 133.268 244.862 135.231 245.274C143.108 246.923 150.65 249.848 155.573 252.724C157.311 253.739 158.867 254.75 160.585 255.783C162.464 256.911 164.271 257.473 166.295 258.357C168.337 259.25 170.572 259.972 172.481 260.886C174.385 261.799 175.673 262.553 177.384 263.801C178.856 264.875 180.489 266.624 180.763 268.462C181.017 270.165 180.299 272.571 181.279 274.076C181.536 274.47 182.646 275.365 183.007 275.612C184.935 276.931 185.073 279.916 185.159 282.141C185.407 288.551 184.451 294.398 184.78 297.919C184.982 300.092 185.408 302.275 184.897 304.438C184.522 306.026 183.494 309.043 181.962 309.892C181.332 310.242 180.816 310.202 180.208 310.69C179.721 311.082 179.424 311.563 178.82 311.808C178.367 311.991 177.927 312.01 177.473 312.01C162.93 312.01 137.35 312.01 113.9 312.01C91.6554 312.01 71.3271 312.01 64.157 312.01H62.1014C62.0406 306.882 61.5147 301.064 60.2911 295.233C59.1898 289.985 56.1164 282.866 53.7006 279.304C46.0542 268.029 35.7362 270.528 32.2504 273.234C26.1929 277.936 23.8434 286.933 23.8434 294.176C23.8434 302.922 25.2023 306.73 26.164 310.398H22.9678C20.0749 310.398 16.6815 310.398 13.127 310.398C6.1581 310.398 -1.43303 310.398 -7.10461 310.398C-17.3341 310.398 -27.5639 310.398 -37.7934 310.398C-43.9402 310.398 -47.9483 310.398 -55.6248 310.398C-56.077 310.398 -56.4875 310.325 -56.7787 309.988C-57.3732 309.299 -55.5656 303.622 -57.0154 295.089C-57.8223 290.338 -59.0424 285.704 -61.3264 281.437C-63.4202 277.526 -67.681 270.663 -73.3678 271.111C-80.4865 271.672 -84.545 280.514 -85.6329 285.761C-87.4979 294.755 -86.4071 300.22 -85.5339 305.194C-85.1831 307.193 -86.8804 305.978 -87.9244 305.375C-89.5531 304.434 -90.4228 303.935 -91.459 302.655C-92.7376 301.076 -92.5758 299.309 -92.7676 297.383C-93.2451 292.589 -94.1811 288.093 -92.7629 282.913C-91.5837 278.603 -93.6291 274.241 -93.4922 269.877Z" fill="url(#paint0_linear_9837_2792)"/>
<path d="M118.773 234.017C121.438 233.956 124.326 234.265 126.707 235.485C128.564 236.435 131.86 239.571 130.078 241.85C129.021 243.2 127.215 241.866 126.296 241.199C125.139 240.361 119.589 236.835 118.392 235.938C116.629 234.616 116.559 234.067 118.773 234.017Z" fill="#00A08D"/>
<path d="M7.77586 216.44C25.7469 214.492 43.537 214.244 63.4943 214.768C67.8513 214.883 73.9517 215.3 78.0492 215.809C82.5833 216.373 84.2249 216.996 89.4119 219.316C93.3971 221.099 97.5862 223.384 101.288 225.671C104.861 227.88 116.848 235.777 122.348 240.489C123.493 241.47 126.893 244.141 123.773 243.926C114.259 243.271 96.2713 242.832 87.5848 242.86C59.0393 242.952 46.4152 245.246 42.0167 245.176C40.3151 245.15 38.2182 245.597 36.6554 244.763C35.0489 243.905 33.5127 241.7 32.2769 240.362C28.9408 236.75 15.2995 223.163 11.7899 220.049C11.2812 219.598 9.58232 217.941 7.77586 216.44Z" fill="url(#paint1_linear_9837_2792)"/>
<path d="M59.2695 263.499C61.4775 263.022 63.7034 262.602 65.959 262.416C70.3297 262.056 75.1764 263.25 79.4244 264.201C88.2383 266.174 108.013 270.874 109.885 271.35C112.701 272.066 110.298 273.094 108.325 274.258C104.764 276.358 101.78 278.085 97.5541 278.018C89.117 277.885 80.2496 277.296 72.0991 275.93C67.6321 275.181 63.8898 274.217 59.9903 271.897C58.3144 270.899 55.8839 268.933 54.4934 267.577C54.0275 267.123 53.1332 266.124 52.982 265.469C52.835 264.831 58.5904 263.646 59.2695 263.499Z" fill="url(#paint2_linear_9837_2792)"/>
<path d="M172.447 271.797C172.446 271.205 173.125 270.502 173.501 269.967C174.155 269.035 174.532 267.681 174.661 266.525C174.805 265.232 174.437 261.949 175.591 262.391C176.649 262.797 178.537 264.339 179.434 265.154C181.393 266.934 181.151 269.046 181.043 271.51C180.968 273.235 179.973 279.977 177.453 277.466C176.421 276.437 175.707 275.571 174.66 274.464C173.818 273.573 172.444 272.497 172.447 271.797Z" fill="#E5E5E5"/>
<path d="M116.631 309.26C118.426 308.254 119.275 307.904 121.652 307.904C126.458 307.904 162.739 307.904 170.833 307.904C174.25 307.904 175.588 307.595 178.319 310.076C180.842 312.37 177.553 312.008 175.962 312.008C165.743 312.008 122.622 312.008 114.928 312.008C114.27 312.008 113.977 311.588 114.222 311.096C114.448 310.644 115.917 309.66 116.631 309.26Z" fill="#1D1D1B"/>
<path d="M112.564 278.338C114.46 276.536 116.852 274.429 119.14 273.077C120.879 272.05 123.678 271.487 127.291 271.599C133.578 271.795 142.543 272.153 149.4 272.153C155.648 272.153 159.795 272.209 165.661 271.848C168.609 271.667 170.214 271.29 172.246 272.95C174.253 274.59 177.156 278.509 178.329 280.862C179.14 282.489 178.517 285.493 177.278 288.857C176.303 291.505 173.277 297.949 171.841 300.384C171.016 301.783 168.519 303.051 165.98 303.051C162.982 303.051 135.508 303.051 129.233 303.051C126.156 303.051 124.359 301.667 122.942 300.132C120.366 297.345 113.08 287.784 111.473 285.201C109.789 282.493 110.436 280.359 112.564 278.338Z" fill="#1D1D1B"/>
<path d="M133.824 296.952H166.515C167.038 296.952 167.463 296.527 167.463 296.004V288.128C167.463 287.604 167.038 287.179 166.515 287.179H133.824C133.301 287.179 132.876 287.604 132.876 288.128V296.004C132.876 296.527 133.301 296.952 133.824 296.952Z" fill="#878787"/>
<path d="M75.2528 294.505C76.4126 292.93 79.3156 289.191 81.2414 287.62C83.0127 286.174 86.1009 286.337 88.9186 286.337C89.517 286.337 89.5665 286.745 89.3081 287.152C87.9222 289.334 86.6101 291.394 85.1435 293.523C83.5651 295.814 82.1579 297.452 83.0003 300.245C83.2646 301.122 84.6851 302.018 86.3586 302.442C88.7837 303.056 103.559 305.583 108.58 306.517C109.04 306.602 108.932 307.049 108.612 307.347C107.579 308.31 104.665 307.936 102.909 307.775C100.373 307.543 82.2884 305.473 79.9288 305.052C77.8031 304.672 76.4013 303.784 75.3016 302.883C74.2892 302.054 73.2967 300.799 73.1201 299.808C72.7119 297.512 73.9395 296.287 75.2528 294.505Z" fill="#1D1D1B"/>
<path d="M180.041 306.365C180.241 305.632 181.283 303.324 181.517 301.503C181.727 299.874 181.674 298.062 181.664 296.363C181.645 293.27 181.578 291.033 181.49 287.875C181.472 287.204 182.172 286.701 182.405 286.603C183.136 286.296 183.908 286.135 184.719 286.132C185.064 286.131 185.274 286.505 185.274 286.769C185.274 286.769 184.904 298.21 184.779 299.608C184.688 300.628 184.558 301.867 184.34 302.861C183.948 304.641 183.294 306.883 181.458 307.975C180.165 308.743 179.779 307.322 180.041 306.365Z" fill="#1D1D1B"/>
<path d="M74.44 297.221C74.44 298.489 75.4134 299.517 76.6141 299.517C77.8148 299.517 78.7881 298.489 78.7881 297.221C78.7881 295.954 77.8148 294.926 76.6141 294.926C75.4134 294.926 74.44 295.954 74.44 297.221Z" fill="#575756"/>
<path d="M181.659 295.769C181.662 295.964 181.662 296.163 181.665 296.364C181.668 297.127 181.683 297.914 181.674 298.696C182.076 299.2 182.673 299.518 183.342 299.518C183.916 299.518 184.433 299.285 184.823 298.9C185.248 298.483 185.516 297.886 185.516 297.224C185.516 296.635 185.307 296.101 184.962 295.696C184.567 295.224 183.987 294.927 183.342 294.927C182.664 294.927 182.058 295.256 181.659 295.769Z" fill="#EDEDED"/>
<path d="M75.4248 297.221C75.4248 298.489 76.3982 299.517 77.5988 299.517C78.7995 299.517 79.7729 298.489 79.7729 297.221C79.7729 295.954 78.7995 294.926 77.5988 294.926C76.3986 294.926 75.4248 295.954 75.4248 297.221Z" fill="#EDEDED"/>
<path d="M-79.464 250.672C-65.0498 251.335 -6.17381 257.207 8.8053 259.184C12.5773 259.682 16.4124 260.003 20.1777 260.547C21.8536 260.789 29.541 261.515 29.5437 263.28C29.5464 265.266 25.2735 265.588 22.3034 265.68C18.5985 265.794 15.0125 265.707 11.4998 265.047C4.28447 263.691 -2.44198 261.579 -9.62883 260.037C-17.0012 258.455 -24.5448 257.232 -32.0213 256.393C-40.6868 255.421 -75.3482 251.96 -77.4069 251.735C-77.992 251.671 -81.3504 251.449 -81.681 250.94C-81.9172 250.577 -80.0503 250.645 -79.464 250.672Z" fill="#00A08D"/>
<path d="M-79.464 250.672C-65.0498 251.335 -6.17381 257.207 8.8053 259.184C12.5773 259.682 16.4124 260.003 20.1777 260.547C21.8536 260.789 29.541 261.515 29.5437 263.28C29.5464 265.266 25.2735 265.588 22.3034 265.68C18.5985 265.794 15.0125 265.707 11.4998 265.047C4.28447 263.691 -2.44198 261.579 -9.62883 260.037C-17.0012 258.455 -24.5448 257.232 -32.0213 256.393C-40.6868 255.421 -75.3482 251.96 -77.4069 251.735C-77.992 251.671 -81.3504 251.449 -81.681 250.94C-81.9172 250.577 -80.0503 250.645 -79.464 250.672Z" fill="black" fill-opacity="0.2"/>
<path d="M-47.4206 288.901C-44.7316 288.575 -42.0461 288.731 -39.3543 288.929C-34.1045 289.315 -2.08565 292.332 8.66383 293.635C9.76237 293.769 19.9591 294.937 18.6559 296.776C18.2411 297.361 16.1664 297.152 15.5451 297.16C13.2197 297.187 -36.2123 293.293 -42.4273 292.812C-45.1491 292.602 -54.1537 292.103 -54.3338 291.246C-54.5369 290.28 -49.4266 289.144 -47.4206 288.901Z" fill="#00A08D"/>
<path d="M-47.4206 288.901C-44.7316 288.575 -42.0461 288.731 -39.3543 288.929C-34.1045 289.315 -2.08565 292.332 8.66383 293.635C9.76237 293.769 19.9591 294.937 18.6559 296.776C18.2411 297.361 16.1664 297.152 15.5451 297.16C13.2197 297.187 -36.2123 293.293 -42.4273 292.812C-45.1491 292.602 -54.1537 292.103 -54.3338 291.246C-54.5369 290.28 -49.4266 289.144 -47.4206 288.901Z" fill="white" fill-opacity="0.2"/>
<path d="M77.3887 265.448C79.3935 265.448 81.0187 267.435 81.0187 269.887C81.0187 272.339 79.3935 274.326 77.3887 274.326C75.3842 274.326 73.759 272.339 73.759 269.887C73.7586 267.435 75.3838 265.448 77.3887 265.448ZM77.3887 272.484C78.5617 272.484 79.512 271.321 79.512 269.887C79.512 268.453 78.5613 267.29 77.3887 267.29C76.2161 267.29 75.2653 268.453 75.2653 269.887C75.2649 271.321 76.2157 272.484 77.3887 272.484Z" fill="white"/>
<path d="M63.7338 266.087C63.0212 263.346 65.8731 263.364 68.5626 263.402C69.2108 263.411 73.9691 263.711 73.8416 264.231C73.6942 264.834 68.7629 264.789 67.8402 264.886C64.5536 265.229 69.0214 271.106 70.4813 272.061C73.4763 274.02 77.6927 274.204 81.1415 274.666C85.8491 275.298 90.6217 275.787 95.3873 276.128C96.9809 276.242 98.4545 276.27 99.0432 276.716C99.5948 277.134 97.814 277.149 97.2468 277.132C92.9349 277.001 88.5934 276.707 84.2882 276.294C79.7292 275.856 75.0957 275.589 70.7694 274.455C68.646 273.898 67.2652 272.417 66.0766 270.64C65.1902 269.313 64.1509 267.69 63.7338 266.087Z" fill="white"/>
<path d="M-53.5925 243.378C-52.9013 242.171 -16.6817 243.269 3.57764 244.143C6.74421 244.279 30.8737 245.883 34.0301 246.055C40.4849 246.408 47.2632 247.508 53.6334 248.609C65.4389 250.649 77.1719 253.358 94.614 259.137C97.8807 260.22 113.473 266.588 115.294 268.628C116.295 269.749 110.516 266.369 103.018 263.949C87.7752 259.028 72.6265 255.489 52.9796 252.619C47.8366 251.867 40.9621 251.89 37.9744 251.94C34.4629 251.999 27.782 251.977 24.2724 251.948C18.2967 251.899 12.454 250.893 2.04755 249.972C-12.9479 248.646 -54.5627 245.071 -53.5925 243.378Z" fill="#00A08D"/>
<path d="M-53.5925 243.378C-52.9013 242.171 -16.6817 243.269 3.57764 244.143C6.74421 244.279 30.8737 245.883 34.0301 246.055C40.4849 246.408 47.2632 247.508 53.6334 248.609C65.4389 250.649 77.1719 253.358 94.614 259.137C97.8807 260.22 113.473 266.588 115.294 268.628C116.295 269.749 110.516 266.369 103.018 263.949C87.7752 259.028 72.6265 255.489 52.9796 252.619C47.8366 251.867 40.9621 251.89 37.9744 251.94C34.4629 251.999 27.782 251.977 24.2724 251.948C18.2967 251.899 12.454 250.893 2.04755 249.972C-12.9479 248.646 -54.5627 245.071 -53.5925 243.378Z" fill="black" fill-opacity="0.2"/>
<path d="M-64.0488 234.066C-63.2469 233.268 -52.4998 226.489 -46.2781 223.634C-40.0136 220.758 -33.9183 218.612 -27.1115 217.591C-20.155 216.549 -13.1389 215.982 -6.12399 216.909C-0.0446301 217.713 4.81144 221.133 9.27847 225.105C14.2129 229.492 18.6807 234.545 23.1134 239.222C24.1009 240.263 28.4677 244.617 27.6674 245.794C26.9914 246.787 24.3726 247.237 23.2499 247.45C21.4984 247.782 19.7337 248.048 17.9615 248.249C16.5858 248.406 15.1313 248.525 13.7529 248.531C7.44161 248.559 -17.1253 246.586 -24.4002 246.09C-32.4665 245.539 -40.5254 244.893 -48.5828 244.233C-50.252 244.096 -52.2655 243.929 -53.8727 243.459C-55.6343 242.944 -57.1878 242.248 -58.7425 241.303C-59.7478 240.693 -66.0174 236.026 -64.0488 234.066Z" fill="url(#paint3_linear_9837_2792)"/>
<path d="M66.5923 221.185C77.0373 221.517 84.4732 223.865 92.278 227.241C98.9354 230.121 110.56 237.476 113.64 240.464C114.003 240.816 114.378 241.56 113.848 241.56C111.562 241.56 109.642 241.559 107.115 241.559C104.913 241.559 102.912 240.492 100.83 239.894C96.2445 238.577 91.4168 238.254 86.6734 238.261C86.3393 238.262 86.3616 237.971 86.2298 237.761C84.1622 234.458 77.997 234.743 74.5455 236.401C74.3646 236.488 73.6458 236.607 73.4103 236.108C71.6011 232.272 68.0549 225.549 66.0559 222.115C65.8637 221.785 65.719 221.158 66.5923 221.185Z" fill="url(#paint4_linear_9837_2792)"/>
<path d="M74.2679 238.351C76.0798 237.204 79.3497 236.649 81.2977 237.89C81.6123 238.09 82.2056 238.45 81.2848 238.681C80.8123 238.799 80.3332 238.968 80.1017 239.291C79.7391 239.797 79.7851 240.986 79.0152 241.279C78.5439 241.458 75.8553 241.381 75.2004 241.376C75.0019 241.374 74.7918 241.361 74.7057 241.127C74.5669 240.748 74.1155 239.275 73.9541 238.88C73.8453 238.616 74.0937 238.461 74.2679 238.351Z" fill="url(#paint5_linear_9837_2792)"/>
<path d="M26.6893 230.335C35.568 224.456 43.1785 222.561 52.75 221.832C53.8079 221.752 54.1436 221.643 54.7646 222.632C55.4776 223.769 60.8069 236.881 61.923 240.511C62.1573 241.274 62.2984 241.713 61.1952 241.763C53.0022 242.14 47.8358 242.591 39.2939 243.239C37.9712 243.34 37.1662 243.221 36.2283 242.298C34.7053 240.799 29.5486 235.465 26.508 232.338C25.4461 231.247 26.0839 230.735 26.6893 230.335ZM35.6198 237.549H49.9607C50.9903 237.549 51.7407 236.699 51.6405 235.682L51.041 229.606C50.9619 228.805 50.1888 228.173 49.3121 228.173H37.0969C36.2201 228.173 35.391 228.805 35.2413 229.606L34.1049 235.682C33.9147 236.7 34.5903 237.549 35.6198 237.549Z" fill="url(#paint6_linear_9837_2792)"/>
<path d="M-14.6282 232.486C-14.3865 230.8 -14.1963 229.245 -13.829 227.581C-13.5125 226.146 -13.3312 224.425 -12.7898 223.06C-12.4346 222.164 -11.7719 221.645 -10.8001 221.687C-7.69198 221.824 -3.09005 221.591 0.479594 222.772C3.55182 223.787 6.28413 225.625 8.5155 227.722C8.74939 227.941 9.20352 228.356 8.96105 228.736C8.85423 228.904 8.63282 229.098 8.47962 229.224C8.05782 229.572 5.99484 231.357 5.53445 231.692C5.10096 232.008 4.15957 232.749 3.2731 232.104C2.59909 231.614 2.33865 230.352 1.87554 229.651C0.978157 228.292 -0.0541124 227.868 -1.69957 227.78C-3.00978 227.711 -7.42065 227.69 -9.62902 227.69C-11.2491 227.69 -11.8542 230.407 -12.2027 231.434C-12.4814 232.255 -12.7227 233.128 -13.2618 233.957C-13.638 234.535 -14.8422 233.976 -14.6282 232.486Z" fill="url(#paint7_linear_9837_2792)"/>
<path d="M-64.0486 234.065C-63.9052 233.922 -63.4381 233.585 -62.7396 233.115C-64.0771 235.18 -58.3018 239.547 -57.3479 240.136C-55.8182 241.081 -54.3306 241.747 -52.5974 242.262C-51.0163 242.732 -48.9947 242.929 -47.352 243.066C-39.4244 243.727 -31.4957 244.373 -23.5596 244.923C-16.402 245.419 7.76883 247.392 13.9784 247.364C15.3342 247.358 16.7657 247.239 18.1192 247.082C19.8629 246.881 21.5987 246.615 23.3222 246.283C24.386 246.078 26.8115 245.651 27.5826 244.732C27.776 245.181 27.8297 245.553 27.6668 245.793C26.9908 246.786 24.372 247.236 23.2492 247.449C21.4978 247.781 19.733 248.047 17.9609 248.248C16.5852 248.405 15.1307 248.524 13.7523 248.53C7.441 248.558 -17.1259 246.585 -24.4009 246.089C-32.4672 245.539 -40.5261 244.893 -48.5834 244.232C-50.2526 244.095 -52.2661 243.928 -53.8734 243.458C-55.635 242.943 -57.1884 242.247 -58.7431 241.303C-59.7477 240.691 -66.0172 236.024 -64.0486 234.065Z" fill="white"/>
<path d="M-8.00221 241.06C-7.23035 236.991 1.27648 235.503 4.74321 235.287C7.15156 235.137 9.87878 234.921 11.7118 236.626C13.2796 238.085 14.2405 240.154 14.4234 242.295C14.5828 244.161 13.8137 246.39 12.2322 247.558C10.3922 248.917 6.28185 248.577 4.14872 248.305C0.193531 247.8 -9.10893 246.895 -8.00221 241.06Z" fill="#00A08D"/>
<path d="M36.3182 289.453C36.5182 289.098 37.0549 289.252 37.037 289.659C37.0203 290.04 37.0117 290.425 37.0117 290.814C37.0117 299.397 41.0152 306.355 45.9539 306.355C47.6961 306.355 49.3212 305.487 50.6954 303.989C50.9484 303.713 51.4104 303.945 51.3538 304.315C50.3368 310.955 46.8552 315.849 42.7141 315.849C37.7753 315.849 33.7718 308.891 33.7718 300.308C33.7718 296.083 34.7433 292.254 36.3182 289.453Z" fill="#DADADA"/>
<defs>
<linearGradient id="paint0_linear_9837_2792" x1="57.2431" y1="219.237" x2="39.0454" y2="322.441" gradientUnits="userSpaceOnUse">
<stop stop-color="#00A08D"/>
<stop offset="0.5" stop-color="#00A08D" stop-opacity="0.8"/>
<stop offset="0.7215" stop-color="#00A08D" stop-opacity="0.9"/>
<stop offset="1" stop-color="#00A08D"/>
</linearGradient>
<linearGradient id="paint1_linear_9837_2792" x1="-76.8863" y1="248.003" x2="25.2469" y2="235.274" gradientUnits="userSpaceOnUse">
<stop stop-color="#2E668F"/>
<stop offset="0.3617" stop-color="#254D73"/>
<stop offset="0.7568" stop-color="#1D385B"/>
<stop offset="1" stop-color="#1A3052"/>
</linearGradient>
<linearGradient id="paint2_linear_9837_2792" x1="111.171" y1="270.185" x2="42.8302" y2="270.185" gradientUnits="userSpaceOnUse">
<stop stop-color="#EDEDED"/>
<stop offset="0.2558" stop-color="#E9E9E9"/>
<stop offset="0.5207" stop-color="#DCDCDC"/>
<stop offset="0.7889" stop-color="#C8C8C8"/>
<stop offset="1" stop-color="#B2B2B2"/>
</linearGradient>
<linearGradient id="paint3_linear_9837_2792" x1="-76.2958" y1="241.84" x2="24.2712" y2="229.306" gradientUnits="userSpaceOnUse">
<stop stop-color="#2E668F"/>
<stop offset="0.3617" stop-color="#254D73"/>
<stop offset="0.7568" stop-color="#1D385B"/>
<stop offset="1" stop-color="#1A3052"/>
</linearGradient>
<linearGradient id="paint4_linear_9837_2792" x1="-108.116" y1="231.373" x2="22.8661" y2="231.373" gradientUnits="userSpaceOnUse">
<stop stop-color="#30B5BF"/>
<stop offset="1" stop-color="#244E78"/>
</linearGradient>
<linearGradient id="paint5_linear_9837_2792" x1="-108.116" y1="239.291" x2="22.8667" y2="239.291" gradientUnits="userSpaceOnUse">
<stop stop-color="#30B5BF"/>
<stop offset="1" stop-color="#244E78"/>
</linearGradient>
<linearGradient id="paint6_linear_9837_2792" x1="-108.116" y1="232.526" x2="22.8664" y2="232.526" gradientUnits="userSpaceOnUse">
<stop stop-color="#30B5BF"/>
<stop offset="1" stop-color="#244E78"/>
</linearGradient>
<linearGradient id="paint7_linear_9837_2792" x1="-108.116" y1="227.933" x2="22.8665" y2="227.933" gradientUnits="userSpaceOnUse">
<stop stop-color="#30B5BF"/>
<stop offset="1" stop-color="#244E78"/>
</linearGradient>
<clipPath id="clip0_9837_2792">
<rect width="160" height="344" fill="white" transform="translate(197)"/>
</clipPath>
</defs>
</svg>
