<svg width="360" height="379" viewBox="0 0 360 379" fill="none" xmlns="http://www.w3.org/2000/svg">
<g style="mix-blend-mode:multiply">
<path d="M111 370.5C111 375.19 195.625 379 300 379C404.375 379 489 375.19 489 370.5C489 365.81 404.375 362 300 362C195.625 362 111 365.81 111 370.5Z" fill="#D8D8D8"/>
</g>
<g clip-path="url(#clip0_9837_1038)">
<path d="M114.733 68.3118C114.733 68.3118 123.222 71.9909 124.857 76.297C126.491 80.603 126.904 130.573 129.562 135.009C132.22 139.445 134.745 164.927 130.651 177.2C130.651 177.2 133.803 188.101 132.809 190.243C131.815 192.378 123.723 195.01 120.814 194.844C117.906 194.679 116.419 181.092 119.614 177.2L114.733 68.3118Z" fill="#FFB27D"/>
<path d="M34.0793 48.9876C39.3364 45.3026 40.5955 39.1452 40.8606 35.5725C39.815 41.9134 32.7172 47.5089 32.7172 47.5089C41.1772 39.4527 27.5337 9.97856 48.8935 2.52572C62.8757 -2.35411 73.1764 0.845876 78.6249 3.63773C90.8179 2.31278 105.448 16.4318 105.448 16.4318L76.2614 47.5089C76.2614 47.5089 74.1777 43.6405 71.262 43.818C72.8524 48.7392 73.7801 52.7614 70.7172 55.2871C55.5201 67.8327 61.7271 73.9132 53.0462 76.0663C42.4289 78.6984 21.2605 57.9724 34.0867 48.9876H34.0793Z" fill="#041235"/>
<path d="M108.945 66.8153C108.945 66.8153 118.304 67.2885 123.112 71.7247C127.927 76.1609 128.56 112.331 128.56 112.331C128.56 112.331 127.235 116.383 121.646 116.051C116.051 115.726 108.938 66.8153 108.938 66.8153H108.945Z" fill="#591D63"/>
<path d="M13.2865 156.995C13.9344 158.254 16.7397 159.372 20.7746 160.177C29.8309 161.987 45.109 162.223 56.2417 158.911C68.1843 155.356 76.8504 104.641 80.5319 78.651C81.8204 69.5834 82.4978 63.5206 82.4978 63.5206C82.4978 63.5206 75.6356 54.8907 49.0776 57.7713C22.5269 60.6459 19.8395 67.8385 17.4539 80.7804C15.0609 93.7223 11.188 152.919 13.2718 157L13.2865 156.995Z" fill="#EE9849"/>
<path d="M20.782 160.177C29.8383 161.987 45.1164 162.223 56.2491 158.911C68.1917 155.356 76.8579 104.641 80.5393 78.6511C77.3953 69.7077 74.8993 63.8223 74.8993 63.8223C74.8993 63.8223 41.5601 60.5868 35.066 68.6785C29.264 75.9125 22.203 145.555 20.7746 160.183L20.782 160.177Z" fill="#E58638"/>
<path d="M44.9323 163.3C54.0623 146.845 58.4358 142.195 58.5831 137.02C58.7083 132.927 56.1901 128.508 51.3085 117.678C50.1599 115.129 49.3647 112.502 48.8788 109.847C45.0206 88.9668 60.0483 66.3954 69.3918 64.8575C71.9909 64.3074 76.394 56.7658 76.3424 44.6106L77.5131 44.794L97.1868 47.923C97.1868 47.923 96.7377 52.8974 96.7229 57.5821C96.7082 61.4859 97.0027 65.1887 98.1072 65.6501C99.5209 65.7506 100.36 65.8216 100.36 65.8216C100.36 65.8216 116.765 84.1165 118.142 101.14C119.519 118.157 105.006 125.551 118.252 159.562C131.77 194.294 39.8887 172.391 44.9396 163.3H44.9323Z" fill="#FFB27D"/>
<path d="M97.1868 47.9229C97.1868 47.9229 96.7376 52.8974 96.7229 57.5821C85.7154 57.3336 79.8987 49.2656 77.5131 44.7939L97.1868 47.9229Z" fill="#E8945B"/>
<path d="M75.4883 43.0786C75.4883 43.0786 69.7231 35.7559 68.3389 29.4978C67.3523 25.0261 70.187 8.45837 90.9062 10.848C90.9062 10.848 96.9291 11.3271 102.584 14.397C107.083 16.8399 113.577 22.1101 106.317 36.5662L104.432 41.452L75.4883 43.0845V43.0786Z" fill="#041235"/>
<path d="M100.861 52.3591C100.861 52.3591 74.8183 52.7022 74.8036 39.6715C74.7889 26.6409 71.4093 17.9045 88.0421 17.1356C104.668 16.3667 107.907 21.3352 109.233 25.6827C110.558 30.0302 107.642 51.9332 100.868 52.3591H100.861Z" fill="#FFB27D"/>
<path d="M99.9037 16.8222C99.9037 16.8222 92.769 32.1123 81.8277 34.3718C70.8865 36.6313 66.1374 34.2772 66.1374 34.2772C66.1374 34.2772 62.294 19.9571 64.0316 10.6115C64.0316 10.6115 94.5214 9.54677 99.8963 16.8222H99.9037Z" fill="#041235"/>
<path d="M98.1293 18.0584C98.1293 18.0584 103.453 21.4713 104.756 24.7896C106.052 28.1079 106.641 34.9397 109.115 34.709C109.115 34.709 114.49 24.3164 108.452 18.4369C102.046 12.2026 98.1293 18.0584 98.1293 18.0584Z" fill="#041235"/>
<path d="M67.9929 321.182C74.5459 342.121 84.4122 358.174 84.4122 358.174L93.0047 357.695C93.0047 357.695 88.7931 341.6 89.0361 319.851C89.2055 304.649 91.5469 286.68 99.0276 269.521C124.724 210.566 120.571 167.653 120.571 167.653L72.2487 172.196L69.9956 172.409C69.7968 190.237 69.2225 214.446 68.7219 233.374C68.2801 250.398 67.8898 263.15 67.8898 263.15C58.5979 279.221 61.9701 301.911 68.0077 321.182H67.9929Z" fill="#272525"/>
<path d="M51.3159 117.678C56.1975 128.508 58.7082 132.927 58.5904 137.02C74.1483 117.666 102.245 114.75 102.245 114.75L48.8861 109.847C49.3721 112.502 50.1673 115.123 51.3159 117.678Z" fill="#CB7D45"/>
<path d="M11.0629 180.779L18.8823 182.66C18.8823 182.66 44.6746 148.282 47.016 139.338C47.7817 136.428 49.6593 130.596 51.8461 124.072C56.3743 110.55 62.2204 94.0063 62.2204 94.0063L64.1421 87.3106L70.7098 64.467C70.7098 64.467 58.1414 65.4962 50.7858 67.9687C48.3487 68.785 46.4932 69.7609 45.8453 70.9025C40.4409 80.4433 35.0513 104.523 31.2594 121.7C29.1462 131.276 27.5337 138.706 26.6944 140.279C24.353 144.674 17.1815 168.848 11.0629 180.773V180.779Z" fill="#FFB27D"/>
<path d="M40.2715 317.84C43.0547 341.659 55.2845 357.068 55.2845 357.068L59.3856 359.463C59.3856 359.463 63.2659 342.683 66.0196 322.714C68.6408 303.733 72.2265 283.651 76.2835 277.524C92.4009 253.213 97.2531 161.443 97.2531 161.443L48.2603 159.491C43.3345 166.145 41.1845 177.058 40.6765 189.474C39.388 220.793 48.5548 261.636 49.9243 267.545C49.9243 267.545 49.9243 267.551 49.9243 267.557C50.0347 268.012 49.8654 268.462 49.6003 268.876C39.8518 284.379 38.4455 302.112 40.2715 317.852V317.84Z" fill="#353535"/>
<path d="M99.1233 18.5788C99.1233 18.5788 94.0429 34.5906 80.2374 39.7189C80.2374 39.7189 94.0429 29.8823 95.2136 19.3123C96.3843 8.74227 99.1233 18.5788 99.1233 18.5788Z" fill="#041235"/>
<path d="M38.7917 175.177C38.7107 176.502 38.7917 177.567 39.0935 178.324C40.1391 180.962 43.7174 182.163 52.3689 181.441C57.6554 180.997 60.0189 173.876 61.0718 167.801C64.2526 176.496 68.6998 181.37 74.4502 182.399C82.8439 183.896 125.166 188.03 127.942 171.871C130.99 154.09 121.867 122.611 121.367 105.641C122.611 99.6254 123.038 94.3966 122.898 89.9131C122.545 77.8229 118.127 71.0444 114.733 68.3176C113.768 67.7261 112.811 67.3535 108.945 66.8211C106.972 66.549 104.241 66.2415 100.36 65.8274C100.36 65.8274 98.7773 65.6855 98.8141 65.7328C99.5283 66.762 109.115 78.4203 108.371 81.4192C107.591 84.5601 73.5888 81.7327 71.2474 80.0055C68.8986 78.2784 65.1951 65.0585 65.1951 65.0585C65.1951 65.0585 52.0302 65.3187 46.1398 68.7612C46.1398 68.7612 44.439 70.4825 44.1371 70.9498C37.8566 80.5616 33.2253 104.789 28.8149 122.09C39.5132 126.822 48.8568 125.415 51.7578 124.788C47.9659 144.709 39.3733 166.104 38.8064 175.183L38.7917 175.177Z" fill="#850F99"/>
<path d="M100.36 65.8215C100.36 65.8215 100.375 65.8452 100.412 65.8925C101.568 67.3594 119.629 90.5519 121.359 105.635C122.604 99.6195 123.031 94.3907 122.891 89.9072C120.564 84.2111 114.931 71.5531 108.938 66.8152C108.187 66.2178 100.353 65.8215 100.353 65.8215H100.36Z" fill="#E58638"/>
<path d="M40.2715 317.84C43.0547 341.659 55.2845 357.068 55.2845 357.068L59.4592 360.126C59.4592 360.126 63.2658 342.683 66.0122 322.714C63.1186 322.885 50.3513 323.258 40.2641 317.84H40.2715Z" fill="#FFB27D"/>
<path d="M67.9928 321.182C74.5458 342.121 84.4121 358.174 84.4121 358.174L93.0046 357.695C93.0046 357.695 88.7931 341.6 89.036 319.851C86.1203 321.028 80.1048 322.229 68.0002 321.182H67.9928Z" fill="#FFB27D"/>
<path d="M79.4643 363.959H84.9496C86.7904 363.728 88.1451 363.302 90.0227 363.101C92.8795 362.799 94.1975 363.74 94.4625 363.959C94.4993 363.988 94.5141 364.006 94.5141 364.006H117.803C118.385 363.332 117.825 361.776 117.273 360.629C116.897 359.848 116.095 359.262 115.093 359.026C112.627 358.452 107.753 357.937 103.298 354.696C100.787 352.874 91.186 348 91.186 348L91.1345 347.988C90.921 347.988 89.9196 348.237 85.5534 351.2C83.293 352.726 79.4422 349.041 79.4422 349.041C79.4422 349.041 78.7206 349.52 78.1831 350.419C77.7487 351.123 77.4321 352.093 77.6825 353.294C78.0285 354.98 76.9093 358.115 76.0111 360.232C75.4662 361.516 75.0097 362.427 75.0097 362.427C75.0097 362.427 74.7447 363.485 79.4643 363.959Z" fill="#272525"/>
<path d="M78.1758 350.419C79.4864 351.159 82.2475 352.62 84.0809 352.809C86.5548 353.069 91.1787 347.994 91.1787 347.994L91.1272 347.982C90.9136 347.982 89.9123 348.231 85.5461 351.194C83.2857 352.72 79.4349 349.035 79.4349 349.035C79.4349 349.035 78.7133 349.514 78.1758 350.413V350.419Z" fill="#464545"/>
<path d="M79.4643 363.959H84.9496C86.7904 363.728 88.1451 363.302 90.0227 363.101C92.8795 362.799 94.1975 363.74 94.4625 363.959C94.4993 363.988 94.5141 364.006 94.5141 364.006H117.803C118.385 363.332 117.825 361.776 117.273 360.628C116.566 360.126 116.367 362.823 115.977 363.255C115.587 363.686 96.9806 363.414 95.9057 362.782C94.8307 362.155 91.6057 361.054 87.1143 361.918C83.2046 362.669 77.4395 360.741 76.0111 360.232C75.4662 361.516 75.0097 362.427 75.0097 362.427C75.0097 362.427 74.7447 363.485 79.4643 363.959Z" fill="#464545"/>
<path d="M50.204 363.959H55.6894C57.5301 363.728 58.8849 363.302 60.7698 363.101C63.6266 362.799 64.9446 363.74 65.2096 363.959C65.2465 363.988 65.2612 364.006 65.2612 364.006H88.5501C89.1391 363.332 88.5721 361.776 88.0199 360.629C87.6518 359.848 86.8419 359.262 85.8405 359.026C83.3739 358.452 78.4997 357.937 74.0451 354.696C71.5344 352.874 61.9332 348 61.9332 348L61.8816 347.988C61.6681 347.988 60.6667 348.237 56.3005 351.2C54.0401 352.726 50.1893 349.041 50.1893 349.041C50.1893 349.041 49.4678 349.52 48.9303 350.419C48.4958 351.123 48.1792 352.093 48.4296 353.294C48.7756 354.98 47.6565 358.115 46.7582 360.232C46.2133 361.516 45.7568 362.427 45.7568 362.427C45.7568 362.427 45.4918 363.485 50.2114 363.959H50.204Z" fill="#272525"/>
<path d="M48.9229 350.419C50.2335 351.159 52.9946 352.62 54.8279 352.809C57.3019 353.069 61.9258 347.994 61.9258 347.994L61.8742 347.982C61.6607 347.982 60.6594 348.231 56.2932 351.194C54.0327 352.72 50.1819 349.035 50.1819 349.035C50.1819 349.035 49.4604 349.514 48.9229 350.413V350.419Z" fill="#464545"/>
<path d="M50.2041 363.959H55.6894C57.5302 363.728 58.8849 363.302 60.7698 363.101C63.6267 362.799 64.9446 363.74 65.2097 363.959C65.2465 363.988 65.2612 364.006 65.2612 364.006H88.5501C89.4042 363.184 88.5722 361.776 88.02 360.628C87.3131 360.126 87.1143 362.823 86.7241 363.255C86.3339 363.686 67.7204 363.414 66.6528 362.782C65.5778 362.155 62.3529 361.054 57.8615 361.918C53.9518 362.669 48.1866 360.741 46.7582 360.232C46.2134 361.516 45.7569 362.427 45.7569 362.427C45.7569 362.427 45.4918 363.485 50.2114 363.959H50.2041Z" fill="#464545"/>
<path d="M38.7916 175.177C44.6083 173.616 52.0669 169.469 61.0276 160.165C84.7435 135.541 63.045 106.599 60.1293 106.061C57.221 105.523 51.743 124.782 51.743 124.782C47.9511 144.703 39.3586 166.098 38.7916 175.177Z" fill="#610572"/>
<path d="M55.1077 64.467C55.1077 64.467 75.9448 76.3442 77.734 104.026C79.5231 131.708 48.4959 137.339 48.4959 137.339L50.5059 128.591C50.5059 128.591 75.6429 121.28 69.0752 99.2291C62.5148 77.1782 43.6142 65.8215 43.6142 65.8215L55.1004 64.4611L55.1077 64.467Z" fill="#E58638"/>
<path d="M45.6244 205.042L67.5291 208.041C67.5291 208.041 72.2045 209.33 71.6965 221.314C71.4167 227.867 71.6891 237.32 71.991 244.536C72.2192 249.912 66.2332 254.094 59.6287 253.189L45.7938 251.297C44.4611 251.113 43.5039 250.167 43.5554 249.084L45.6244 205.042Z" fill="#963333"/>
<path d="M-67.8012 228.37C-67.168 226.105 -66.0414 223.147 -64.1565 219.314C-63.781 218.545 -63.4644 217.706 -63.2067 216.83C-61.9182 212.542 -61.7857 207.242 -60.5634 203.125C-60.5634 203.125 -59.216 189.598 -37.3187 193.732C-32.2751 194.685 -26.2449 195.72 -19.7729 196.755C-14.6631 194.306 -2.74987 189.491 8.32394 191.567C17.8884 193.354 23.7566 199.21 26.7018 203.113C32.1871 203.711 36.9067 204.137 40.382 204.32C55.8662 205.136 57.3094 215.115 55.3508 220.982C55.0342 221.929 54.7692 223.378 54.5409 225.152C53.3334 234.433 57.9941 246.358 51.6841 252.095C50.2189 253.432 -36.2437 240.005 -60.637 236.71C-65.526 236.048 -68.8762 232.262 -67.7865 228.376L-67.8012 228.37ZM7.43303 194.62C0.00386047 193.23 -8.20579 195.554 -13.7059 197.701C-1.9105 199.511 10.7684 201.256 21.4446 202.516C18.5289 199.387 13.9271 195.838 7.42566 194.62H7.43303Z" fill="#B64C41"/>
<path d="M11.6225 179.732C11.6225 179.732 9.24424 184.233 6.7703 185.487C4.29636 186.741 0.254131 191.91 1.29966 194.229C1.83716 195.418 6.13709 199.05 11.0702 198.671C14.1847 198.435 16.2832 187.267 17.1962 185.173C18.1092 183.079 18.8896 182.659 18.8896 182.659L11.6298 179.732H11.6225Z" fill="#FFB27D"/>
</g>
<path d="M330.482 103C315.701 103 303.689 114.73 303.174 129.39H303.123C303.123 129.39 299.592 145.266 330.362 174.9C344.154 161.617 351.044 151.11 354.458 143.545C356.612 139.634 357.845 135.142 357.845 130.358C357.845 115.244 345.597 103 330.482 103ZM330.482 148.19C320.634 148.19 312.66 140.21 312.66 130.358C312.66 120.519 320.635 112.531 330.482 112.531C340.334 112.531 348.309 120.519 348.309 130.358C348.309 140.211 340.333 148.19 330.482 148.19Z" fill="#FF3E00"/>
<path d="M155.366 290.329C142.38 290.329 131.854 307.931 131.854 329.643C131.854 351.356 142.38 368.958 155.366 368.958H178.11V290.329H155.366Z" fill="#1D1D1B"/>
<path d="M178.11 368.958C191.095 368.958 201.622 351.356 201.622 329.643C201.622 307.931 191.095 290.329 178.11 290.329C165.124 290.329 154.598 307.931 154.598 329.643C154.598 351.356 165.124 368.958 178.11 368.958Z" fill="#1D1D1B"/>
<path d="M178.109 359.129C187.48 359.129 195.076 345.928 195.076 329.644C195.076 313.359 187.48 300.158 178.109 300.158C168.739 300.158 161.143 313.359 161.143 329.644C161.143 345.928 168.739 359.129 178.109 359.129Z" fill="#3C3C3B"/>
<path d="M337.089 290.329C324.103 290.329 313.577 307.931 313.577 329.643C313.577 351.356 324.103 368.958 337.089 368.958H359.833V290.329H337.089Z" fill="#1D1D1B"/>
<path d="M359.833 368.958C372.819 368.958 383.346 351.356 383.346 329.643C383.346 307.931 372.819 290.329 359.833 290.329C346.848 290.329 336.321 307.931 336.321 329.643C336.321 351.356 346.848 368.958 359.833 368.958Z" fill="#1D1D1B"/>
<path d="M359.833 359.129C369.204 359.129 376.8 345.928 376.8 329.644C376.8 313.359 369.204 300.158 359.833 300.158C350.463 300.158 342.866 313.359 342.866 329.644C342.866 345.928 350.463 359.129 359.833 359.129Z" fill="#3C3C3B"/>
<path d="M377.844 345.912C378.978 342.01 379.846 337.902 380.401 333.635C384.257 304.01 371.666 278.028 352.28 275.603C332.893 273.178 314.889 295.344 310.195 324.852C308.908 332.943 308.354 339.907 308.417 345.912H377.844V345.912Z" fill="#1D1D1B"/>
<path d="M322.554 290.329C309.569 290.329 299.042 307.931 299.042 329.643C299.042 351.356 309.569 368.958 322.554 368.958H345.299V290.329H322.554Z" fill="#1D1D1B"/>
<path d="M345.299 368.958C358.284 368.958 368.811 351.356 368.811 329.643C368.811 307.931 358.284 290.329 345.299 290.329C332.314 290.329 321.787 307.931 321.787 329.643C321.787 351.356 332.314 368.958 345.299 368.958Z" fill="#3C3C3B"/>
<path d="M345.299 359.129C354.67 359.129 362.266 345.928 362.266 329.644C362.266 313.359 354.67 300.158 345.299 300.158C335.929 300.158 328.332 313.359 328.332 329.644C328.332 345.928 335.929 359.129 345.299 359.129Z" fill="#878787"/>
<path d="M564.963 280.565C564.863 277.367 563.978 274.632 562.507 271.855C560.557 268.171 561.452 264.963 561.707 261.031C561.9 258.055 561.97 254.917 561.334 251.983C560.54 248.318 558.087 247.195 555.762 244.593C553.83 242.431 552.786 240.143 549.778 239.256C548.125 238.769 547.114 238.653 545.579 237.728C543.726 236.612 541.919 235.421 540.146 234.185C527.454 225.338 516.116 215.062 502.509 207.451C489.173 199.992 474.731 194.404 459.734 191.145C444.504 187.834 428.832 186.501 413.297 185.347C397.164 184.15 381.021 183.982 364.855 184.001C348.038 184.021 326.39 185.219 309.586 186.991C301.994 187.792 294.824 189.294 287.56 191.088C279.643 193.043 273.274 195.521 266.207 198.662C246.71 207.327 213.117 231.12 204.673 237.075C202.535 238.583 199.26 240.223 196.094 240.887C183.391 243.547 171.228 248.264 163.288 252.902C160.486 254.539 157.977 256.169 155.206 257.835C152.176 259.655 149.261 260.561 145.998 261.987C142.704 263.426 139.099 264.59 136.021 266.065C132.951 267.537 130.874 268.754 128.114 270.767C125.74 272.498 123.107 275.32 122.664 278.283C122.255 281.029 123.413 284.91 121.832 287.336C121.418 287.972 119.628 289.416 119.045 289.814C115.936 291.941 115.714 296.755 115.575 300.344C115.175 310.68 116.716 320.11 116.187 325.79C115.861 329.293 115.174 332.815 115.998 336.303C116.602 338.864 118.261 343.73 120.73 345.099C121.746 345.662 122.579 345.598 123.559 346.385C124.345 347.017 124.824 347.793 125.798 348.188C126.529 348.484 127.238 348.513 127.97 348.513C151.425 348.513 192.678 348.513 230.495 348.513C266.371 348.513 299.155 348.513 310.718 348.513H314.033C314.131 340.244 314.979 330.861 316.953 321.457C318.729 312.993 323.685 301.513 327.581 295.768C339.913 277.584 356.553 281.615 362.174 285.978C371.944 293.561 375.733 308.072 375.733 319.752C375.733 333.857 373.541 339.999 371.99 345.914H377.145C381.81 345.914 387.283 345.914 393.015 345.914C404.254 345.914 416.497 345.914 425.643 345.914C442.141 345.914 458.638 345.914 475.136 345.914C485.049 345.914 491.513 345.914 503.893 345.914C504.622 345.914 505.284 345.796 505.754 345.252C506.713 344.142 503.797 334.987 506.135 321.225C507.437 313.562 509.405 306.089 513.088 299.208C516.465 292.901 523.336 281.833 532.508 282.555C543.988 283.46 550.533 297.72 552.288 306.182C555.295 320.686 553.536 329.501 552.128 337.522C551.562 340.745 554.3 338.786 555.983 337.813C558.61 336.296 560.012 335.491 561.684 333.427C563.746 330.88 563.485 328.031 563.794 324.925C564.564 317.194 566.074 309.942 563.786 301.589C561.885 294.638 565.183 287.603 564.963 280.565Z" fill="#00A08D"/>
<path d="M564.963 280.565C564.863 277.367 563.978 274.632 562.507 271.855C560.557 268.171 561.452 264.963 561.707 261.031C561.9 258.055 561.97 254.917 561.334 251.983C560.54 248.318 558.087 247.195 555.762 244.593C553.83 242.431 552.786 240.143 549.778 239.256C548.125 238.769 547.114 238.653 545.579 237.728C543.726 236.612 541.919 235.421 540.146 234.185C527.454 225.338 516.116 215.062 502.509 207.451C489.173 199.992 474.731 194.404 459.734 191.145C444.504 187.834 428.832 186.501 413.297 185.347C397.164 184.15 381.021 183.982 364.855 184.001C348.038 184.021 326.39 185.219 309.586 186.991C301.994 187.792 294.824 189.294 287.56 191.088C279.643 193.043 273.274 195.521 266.207 198.662C246.71 207.327 213.117 231.12 204.673 237.075C202.535 238.583 199.26 240.223 196.094 240.887C183.391 243.547 171.228 248.264 163.288 252.902C160.486 254.539 157.977 256.169 155.206 257.835C152.176 259.655 149.261 260.561 145.998 261.987C142.704 263.426 139.099 264.59 136.021 266.065C132.951 267.537 130.874 268.754 128.114 270.767C125.74 272.498 123.107 275.32 122.664 278.283C122.255 281.029 123.413 284.91 121.832 287.336C121.418 287.972 119.628 289.416 119.045 289.814C115.936 291.941 115.714 296.755 115.575 300.344C115.175 310.68 116.716 320.11 116.187 325.79C115.861 329.293 115.174 332.815 115.998 336.303C116.602 338.864 118.261 343.73 120.73 345.099C121.746 345.662 122.579 345.598 123.559 346.385C124.345 347.017 124.824 347.793 125.798 348.188C126.529 348.484 127.238 348.513 127.97 348.513C151.425 348.513 192.678 348.513 230.495 348.513C266.371 348.513 299.155 348.513 310.718 348.513H314.033C314.131 340.244 314.979 330.861 316.953 321.457C318.729 312.993 323.685 301.513 327.581 295.768C339.913 277.584 356.553 281.615 362.174 285.978C371.944 293.561 375.733 308.072 375.733 319.752C375.733 333.857 373.541 339.999 371.99 345.914H377.145C381.81 345.914 387.283 345.914 393.015 345.914C404.254 345.914 416.497 345.914 425.643 345.914C442.141 345.914 458.638 345.914 475.136 345.914C485.049 345.914 491.513 345.914 503.893 345.914C504.622 345.914 505.284 345.796 505.754 345.252C506.713 344.142 503.797 334.987 506.135 321.225C507.437 313.562 509.405 306.089 513.088 299.208C516.465 292.901 523.336 281.833 532.508 282.555C543.988 283.46 550.533 297.72 552.288 306.182C555.295 320.686 553.536 329.501 552.128 337.522C551.562 340.745 554.3 338.786 555.983 337.813C558.61 336.296 560.012 335.491 561.684 333.427C563.746 330.88 563.485 328.031 563.794 324.925C564.564 317.194 566.074 309.942 563.786 301.589C561.885 294.638 565.183 287.603 564.963 280.565Z" fill="url(#paint0_linear_9837_1038)"/>
<path d="M222.638 222.732C218.34 222.635 213.682 223.132 209.841 225.1C206.848 226.633 201.532 231.69 204.406 235.365C206.11 237.543 209.022 235.391 210.505 234.315C212.37 232.963 221.322 227.277 223.253 225.83C226.095 223.698 226.209 222.813 222.638 222.732Z" fill="#00A08D"/>
<path d="M401.645 194.386C372.663 191.245 343.972 190.844 311.787 191.689C304.76 191.874 294.922 192.548 288.314 193.369C281.001 194.278 278.354 195.282 269.989 199.024C263.562 201.899 256.806 205.585 250.836 209.274C245.073 212.835 225.743 225.57 216.871 233.171C215.025 234.752 209.542 239.061 214.573 238.714C229.918 237.656 258.926 236.95 272.935 236.995C318.971 237.143 339.331 240.842 346.424 240.73C349.168 240.686 352.55 241.409 355.07 240.063C357.661 238.679 360.139 235.123 362.132 232.965C367.512 227.14 389.511 205.229 395.172 200.207C395.992 199.479 398.732 196.806 401.645 194.386Z" fill="url(#paint1_linear_9837_1038)"/>
<path d="M318.6 270.28C315.039 269.51 311.449 268.833 307.812 268.533C300.763 267.952 292.947 269.878 286.096 271.411C271.881 274.593 239.99 282.172 236.971 282.941C232.43 284.095 236.305 285.753 239.488 287.63C245.23 291.017 250.042 293.802 256.858 293.694C270.464 293.48 284.765 292.53 297.91 290.327C305.114 289.119 311.149 287.564 317.438 283.822C320.14 282.214 324.06 279.043 326.303 276.856C327.054 276.123 328.496 274.513 328.74 273.456C328.977 272.427 319.695 270.517 318.6 270.28Z" fill="url(#paint2_linear_9837_1038)"/>
<path d="M136.076 283.661C136.077 282.706 134.982 281.573 134.377 280.71C133.322 279.208 132.714 277.024 132.506 275.159C132.273 273.073 132.867 267.78 131.005 268.493C129.299 269.146 126.254 271.634 124.808 272.948C121.649 275.819 122.039 279.225 122.212 283.199C122.334 285.981 123.939 296.854 128.002 292.804C129.667 291.145 130.818 289.748 132.506 287.962C133.864 286.526 136.081 284.79 136.076 283.661Z" fill="#E5E5E5"/>
<path d="M226.092 344.079C223.196 342.457 221.827 341.893 217.994 341.893C210.243 341.893 151.732 341.893 138.678 341.893C133.168 341.893 131.011 341.393 126.607 345.396C122.537 349.095 127.841 348.511 130.407 348.511C146.887 348.511 216.431 348.511 228.838 348.511C229.9 348.511 230.372 347.834 229.976 347.04C229.612 346.311 227.243 344.724 226.092 344.079Z" fill="#1D1D1B"/>
<path d="M232.651 294.21C229.593 291.304 225.734 287.906 222.045 285.726C219.24 284.069 214.727 283.161 208.9 283.342C198.761 283.657 184.302 284.236 173.244 284.236C163.167 284.236 156.481 284.325 147.019 283.744C142.266 283.451 139.676 282.845 136.4 285.522C133.163 288.166 128.481 294.485 126.59 298.281C125.282 300.905 126.287 305.749 128.285 311.175C129.857 315.445 134.737 325.837 137.053 329.764C138.384 332.02 142.411 334.065 146.506 334.065C151.34 334.065 195.648 334.065 205.767 334.065C210.73 334.065 213.628 331.833 215.914 329.358C220.068 324.863 231.819 309.444 234.41 305.279C237.126 300.91 236.083 297.47 232.651 294.21Z" fill="#1D1D1B"/>
<path d="M198.364 324.229H145.643C144.798 324.229 144.114 323.544 144.114 322.7V309.998C144.114 309.154 144.798 308.469 145.643 308.469H198.364C199.208 308.469 199.892 309.154 199.892 309.998V322.7C199.892 323.544 199.208 324.229 198.364 324.229Z" fill="#878787"/>
<path d="M292.823 320.283C290.953 317.743 286.271 311.714 283.165 309.179C280.309 306.848 275.328 307.111 270.784 307.111C269.819 307.111 269.739 307.769 270.156 308.425C272.391 311.943 274.507 315.266 276.872 318.699C279.418 322.394 281.687 325.035 280.329 329.541C279.903 330.955 277.612 332.4 274.913 333.084C271.002 334.074 247.173 338.15 239.076 339.655C238.335 339.793 238.508 340.514 239.024 340.995C240.69 342.547 245.389 341.944 248.222 341.685C252.312 341.311 281.477 337.972 285.282 337.292C288.71 336.68 290.971 335.248 292.745 333.795C294.377 332.457 295.978 330.435 296.263 328.835C296.921 325.134 294.941 323.158 292.823 320.283Z" fill="#1D1D1B"/>
<path d="M123.829 339.41C123.505 338.228 121.826 334.506 121.448 331.568C121.109 328.941 121.195 326.019 121.211 323.279C121.242 318.291 121.35 314.684 121.491 309.591C121.521 308.509 120.392 307.698 120.016 307.54C118.837 307.044 117.592 306.785 116.284 306.78C115.727 306.778 115.39 307.381 115.39 307.807C115.39 307.807 115.986 326.258 116.188 328.513C116.334 330.158 116.543 332.156 116.896 333.759C117.527 336.63 118.582 340.246 121.544 342.007C123.629 343.246 124.251 340.954 123.829 339.41Z" fill="#1D1D1B"/>
<path d="M294.134 324.664C294.134 326.709 292.564 328.366 290.628 328.366C288.692 328.366 287.122 326.709 287.122 324.664C287.122 322.62 288.692 320.962 290.628 320.962C292.564 320.962 294.134 322.62 294.134 324.664Z" fill="#575756"/>
<path d="M121.219 322.322C121.214 322.637 121.214 322.956 121.209 323.281C121.204 324.512 121.181 325.782 121.195 327.042C120.548 327.855 119.584 328.367 118.505 328.367C117.579 328.367 116.745 327.991 116.117 327.371C115.431 326.699 115 325.735 115 324.668C115 323.718 115.336 322.858 115.892 322.204C116.53 321.443 117.465 320.963 118.506 320.963C119.598 320.963 120.576 321.495 121.219 322.322Z" fill="#EDEDED"/>
<path d="M292.546 324.664C292.546 326.709 290.976 328.366 289.04 328.366C287.103 328.366 285.534 326.709 285.534 324.664C285.534 322.62 287.103 320.962 289.04 320.962C290.975 320.962 292.546 322.62 292.546 324.664Z" fill="#EDEDED"/>
<path d="M289.379 273.422C286.145 273.422 283.524 276.628 283.524 280.581C283.524 284.535 286.145 287.741 289.379 287.741C292.611 287.741 295.232 284.536 295.232 280.581C295.233 276.628 292.612 273.422 289.379 273.422ZM289.379 284.77C287.487 284.77 285.954 282.894 285.954 280.581C285.954 278.269 287.488 276.393 289.379 276.393C291.27 276.393 292.803 278.269 292.803 280.581C292.804 282.894 291.27 284.77 289.379 284.77Z" fill="white"/>
<path d="M311.4 274.452C312.549 270.033 307.95 270.061 303.613 270.123C302.567 270.138 294.893 270.621 295.099 271.46C295.337 272.432 303.29 272.359 304.778 272.515C310.078 273.069 302.873 282.547 300.518 284.088C295.688 287.247 288.888 287.543 283.326 288.289C275.734 289.308 268.037 290.097 260.352 290.647C257.782 290.831 255.405 290.875 254.456 291.595C253.566 292.269 256.438 292.293 257.353 292.265C264.307 292.054 271.308 291.58 278.252 290.914C285.604 290.208 293.077 289.778 300.054 287.948C303.478 287.049 305.705 284.662 307.622 281.796C309.051 279.655 310.728 277.038 311.4 274.452Z" fill="white"/>
<path d="M500.615 237.829C499.5 235.883 441.088 237.654 408.416 239.063C403.309 239.283 364.395 241.869 359.304 242.148C348.894 242.717 337.963 244.49 327.689 246.266C308.65 249.556 289.728 253.924 261.599 263.245C256.331 264.991 231.185 275.261 228.247 278.552C226.634 280.358 235.953 274.908 248.046 271.004C272.628 263.068 297.059 257.362 328.744 252.732C337.038 251.52 348.125 251.557 352.943 251.638C358.606 251.733 369.381 251.697 375.041 251.651C384.678 251.572 394.1 249.949 410.883 248.464C435.067 246.326 502.18 240.56 500.615 237.829Z" fill="#00A08D"/>
<path d="M500.615 237.829C499.5 235.883 441.088 237.654 408.416 239.063C403.309 239.283 364.395 241.869 359.304 242.148C348.894 242.717 337.963 244.49 327.689 246.266C308.65 249.556 289.728 253.924 261.599 263.245C256.331 264.991 231.185 275.261 228.247 278.552C226.634 280.358 235.953 274.908 248.046 271.004C272.628 263.068 297.059 257.362 328.744 252.732C337.038 251.52 348.125 251.557 352.943 251.638C358.606 251.733 369.381 251.697 375.041 251.651C384.678 251.572 394.1 249.949 410.883 248.464C435.067 246.326 502.18 240.56 500.615 237.829Z" fill="black" fill-opacity="0.2"/>
<path d="M306.79 202.039C289.945 202.573 277.953 206.36 265.366 211.805C254.63 216.45 235.883 228.311 230.915 233.13C230.33 233.697 229.726 234.898 230.579 234.898C234.267 234.898 237.362 234.895 241.439 234.895C244.989 234.895 248.216 233.176 251.574 232.211C258.969 230.087 266.755 229.565 274.405 229.578C274.944 229.579 274.908 229.109 275.12 228.77C278.455 223.444 288.397 223.903 293.964 226.577C294.256 226.717 295.415 226.91 295.795 226.105C298.712 219.919 304.431 209.076 307.655 203.538C307.965 203.006 308.198 201.994 306.79 202.039Z" fill="url(#paint3_linear_9837_1038)"/>
<path d="M294.412 229.722C291.49 227.872 286.216 226.977 283.075 228.978C282.567 229.301 281.61 229.882 283.095 230.254C283.857 230.445 284.63 230.718 285.003 231.238C285.588 232.054 285.514 233.972 286.756 234.444C287.516 234.733 291.852 234.608 292.908 234.6C293.228 234.597 293.567 234.577 293.706 234.198C293.929 233.588 294.657 231.212 294.918 230.575C295.093 230.149 294.693 229.9 294.412 229.722Z" fill="url(#paint4_linear_9837_1038)"/>
<path d="M371.143 216.794C356.824 207.313 344.55 204.258 329.114 203.082C327.408 202.952 326.866 202.777 325.865 204.372C324.715 206.205 316.12 227.351 314.32 233.206C313.943 234.437 313.715 235.144 315.494 235.226C328.707 235.833 337.039 236.56 350.815 237.606C352.948 237.767 354.246 237.576 355.759 236.087C358.215 233.671 366.531 225.069 371.435 220.025C373.148 218.265 372.119 217.44 371.143 216.794ZM356.74 228.429H333.612C331.952 228.429 330.742 227.058 330.903 225.418L331.87 215.618C331.998 214.327 333.244 213.307 334.658 213.307H354.358C355.772 213.307 357.109 214.327 357.351 215.618L359.183 225.418C359.49 227.059 358.401 228.429 356.74 228.429Z" fill="url(#paint5_linear_9837_1038)"/>
<path d="M355.614 312.136C355.292 311.563 354.426 311.811 354.455 312.467C354.482 313.083 354.496 313.704 354.496 314.331C354.496 328.173 348.039 339.394 340.074 339.394C337.265 339.394 334.644 337.994 332.428 335.578C332.02 335.133 331.275 335.507 331.366 336.104C333.006 346.813 338.621 354.705 345.299 354.705C353.264 354.705 359.721 343.484 359.721 329.642C359.721 322.828 358.154 316.652 355.614 312.136Z" fill="#DADADA"/>
<defs>
<linearGradient id="paint0_linear_9837_1038" x1="321.868" y1="198.896" x2="351.216" y2="365.337" gradientUnits="userSpaceOnUse">
<stop stop-color="#00A08D"/>
<stop offset="0.5" stop-color="#00A08D" stop-opacity="0.8"/>
<stop offset="0.7215" stop-color="#00A08D" stop-opacity="0.9"/>
<stop offset="1" stop-color="#00A08D"/>
</linearGradient>
<linearGradient id="paint1_linear_9837_1038" x1="538.182" y1="245.289" x2="373.469" y2="224.759" gradientUnits="userSpaceOnUse">
<stop stop-color="#2E668F"/>
<stop offset="0.3617" stop-color="#254D73"/>
<stop offset="0.7568" stop-color="#1D385B"/>
<stop offset="1" stop-color="#1A3052"/>
</linearGradient>
<linearGradient id="paint2_linear_9837_1038" x1="234.897" y1="281.062" x2="345.112" y2="281.062" gradientUnits="userSpaceOnUse">
<stop stop-color="#EDEDED"/>
<stop offset="0.2558" stop-color="#E9E9E9"/>
<stop offset="0.5207" stop-color="#DCDCDC"/>
<stop offset="0.7889" stop-color="#C8C8C8"/>
<stop offset="1" stop-color="#B2B2B2"/>
</linearGradient>
<linearGradient id="paint3_linear_9837_1038" x1="588.547" y1="218.468" x2="377.308" y2="218.468" gradientUnits="userSpaceOnUse">
<stop stop-color="#30B5BF"/>
<stop offset="1" stop-color="#244E78"/>
</linearGradient>
<linearGradient id="paint4_linear_9837_1038" x1="588.546" y1="231.238" x2="377.308" y2="231.238" gradientUnits="userSpaceOnUse">
<stop stop-color="#30B5BF"/>
<stop offset="1" stop-color="#244E78"/>
</linearGradient>
<linearGradient id="paint5_linear_9837_1038" x1="588.547" y1="220.328" x2="377.308" y2="220.328" gradientUnits="userSpaceOnUse">
<stop stop-color="#30B5BF"/>
<stop offset="1" stop-color="#244E78"/>
</linearGradient>
<clipPath id="clip0_9837_1038">
<rect width="201" height="364" fill="white" transform="matrix(-1 0 0 1 133 0)"/>
</clipPath>
</defs>
</svg>
