<svg width="66" height="70" viewBox="0 0 66 70" fill="none" xmlns="http://www.w3.org/2000/svg">
<g clip-path="url(#clip0_9826_39380)">
<path d="M35.8963 31.6608H21.4028L18.6342 35.7801L15.9328 31.6608H1.69655C0.786747 31.6608 0.0484619 30.9206 0.0484619 30.0086V1.70054C0.0484619 0.788468 0.786747 0.0483398 1.69655 0.0483398H35.8963C36.8061 0.0483398 37.5444 0.788468 37.5444 1.70054V30.0086C37.5444 30.9206 36.8061 31.6608 35.8963 31.6608Z" fill="#FAFAFA"/>
<path d="M35.8963 31.6608C35.8963 31.6608 35.9262 31.6571 35.9877 31.6533C36.0473 31.6533 36.1368 31.6403 36.2543 31.616C36.4817 31.5636 36.8341 31.4328 37.1399 31.0777C37.2909 30.9039 37.4214 30.6702 37.4866 30.3918C37.5071 30.3226 37.5109 30.2497 37.5239 30.1768C37.5258 30.1021 37.5332 30.0273 37.5314 29.9469C37.5314 29.7899 37.5314 29.6255 37.5314 29.4554C37.5314 28.7732 37.5295 27.9863 37.5276 27.1023C37.5239 23.5587 37.5183 18.4357 37.5127 12.1035C37.5127 8.93741 37.509 5.46853 37.5071 1.74546C37.5183 1.28942 37.3319 0.829647 36.9888 0.517522C36.8192 0.360526 36.616 0.240909 36.396 0.168018C36.1741 0.0895192 35.9429 0.0839122 35.7006 0.0895192C34.7404 0.0895192 33.7654 0.0895192 32.7773 0.0895192C30.7992 0.0895192 28.7633 0.0895192 26.6752 0.0913882C22.4991 0.0913882 18.116 0.0932572 13.5707 0.0951262C11.298 0.0951262 8.98621 0.0951262 6.63899 0.0951262C5.46631 0.0951262 4.28431 0.0951262 3.09485 0.0951262C2.79655 0.0951262 2.50012 0.0951262 2.20182 0.0951262H1.75438C1.67794 0.0951262 1.60896 0.100733 1.53625 0.104471C1.4654 0.117554 1.39083 0.121292 1.32184 0.14372C1.03846 0.211005 0.777453 0.362395 0.570509 0.566117C0.367295 0.775446 0.214418 1.03711 0.149165 1.32307C0.0801839 1.57912 0.108149 1.85199 0.102556 2.12487V2.93976C0.102556 3.48177 0.102556 4.02378 0.102556 4.56206C0.102556 5.64048 0.102556 6.71329 0.102556 7.77862C0.102556 9.90929 0.102556 12.0119 0.102556 14.0809C0.102556 18.2208 0.102556 22.2317 0.100692 26.0781C0.100692 27.0388 0.100692 27.9901 0.100692 28.9302V29.6329C0.104421 29.8666 0.085777 30.1002 0.130521 30.3207C0.216282 30.7656 0.501528 31.1618 0.885586 31.3879C1.07575 31.502 1.29202 31.5767 1.51014 31.6029C1.72827 31.6253 1.95945 31.6122 2.18504 31.616C2.63622 31.616 3.08553 31.616 3.53111 31.616C4.42227 31.616 5.30224 31.616 6.17103 31.616C9.6406 31.616 12.9088 31.6197 15.9403 31.6216H15.9608L15.972 31.6384C16.9153 33.0775 17.8158 34.4531 18.6697 35.7596H18.6137C19.6 34.2943 20.5247 32.9205 21.386 31.6421L21.3954 31.629H21.4103C25.9947 31.6347 29.6172 31.6403 32.0949 31.6421C33.3328 31.6459 34.2837 31.6477 34.9269 31.6496C35.2475 31.6496 35.4899 31.6533 35.6558 31.6533C35.8199 31.6533 35.9019 31.6571 35.9019 31.6571C35.9019 31.6571 35.818 31.659 35.6558 31.6608C35.4918 31.6608 35.2475 31.6627 34.9269 31.6646C34.2837 31.6646 33.331 31.6683 32.0949 31.672C29.6172 31.6758 25.9947 31.6795 21.4103 31.6851L21.4345 31.672C20.575 32.9523 19.6541 34.326 18.6697 35.7932L18.6417 35.8343L18.6137 35.7913C17.7561 34.4868 16.8557 33.113 15.9104 31.6739L15.9403 31.6907C12.9088 31.6907 9.6406 31.6945 6.17103 31.6963C5.30411 31.6963 4.42413 31.6963 3.53111 31.6963C3.08553 31.6963 2.63622 31.6963 2.18504 31.6963C1.95759 31.6926 1.73573 31.7075 1.50082 31.6832C1.26964 31.6552 1.04219 31.5786 0.840841 31.4571C0.436276 31.2179 0.13425 30.8011 0.0447611 30.3301C-0.00371211 30.0927 0.0167958 29.8554 0.0112027 29.6255C0.0112027 29.3918 0.0112027 29.1582 0.0112027 28.9227C0.0112027 27.9826 0.0112027 27.0313 0.0112027 26.0706C0.0112027 22.2261 0.0112027 18.2152 0.00933838 14.0734C0.00933838 12.0026 0.00933838 9.89995 0.00933838 7.77115C0.00933838 6.70581 0.00933838 5.633 0.00933838 4.55458C0.00933838 4.01444 0.00933838 3.47429 0.00933838 2.93228C0.00933838 2.66128 0.00933838 2.39027 0.00933838 2.11739V1.70995C0.0112027 1.57164 0.0223889 1.4296 0.0578116 1.29316C0.128657 0.990382 0.288992 0.711899 0.505257 0.491356C0.717794 0.282027 0.993718 0.121292 1.29388 0.05027C1.36845 0.0278419 1.44489 0.0222349 1.52133 0.0091518C1.59777 0.00541379 1.67607 -0.00206225 1.75065 -0.000193242H2.19809C2.49639 -0.000193242 2.79469 -0.000193242 3.09112 -0.000193242C4.28058 -0.000193242 5.46258 -0.000193242 6.63526 -0.000193242C8.98248 -0.000193242 11.2943 -0.000193242 13.5669 -0.000193242C18.1104 -0.000193242 22.4953 0.00167577 26.6715 0.00354478C28.7596 0.00354478 30.7954 0.00354478 32.7735 0.00541379C33.7635 0.00541379 34.7367 0.00541379 35.6968 0.00541379C35.9336 -0.000193242 36.1872 0.00541379 36.4183 0.0895192C36.6495 0.166149 36.8639 0.293241 37.041 0.457714C37.2182 0.622187 37.3617 0.82404 37.4531 1.04458C37.5463 1.267 37.5854 1.5081 37.5836 1.74546C37.5817 5.46853 37.5798 8.93741 37.578 12.1035C37.5724 18.4357 37.5668 23.5605 37.5631 27.1023C37.5631 27.9882 37.5593 28.7732 37.5593 29.4554C37.5593 29.6255 37.5593 29.7899 37.5593 29.9469C37.5593 30.0254 37.5537 30.1039 37.55 30.1787C37.537 30.2535 37.5314 30.3282 37.5109 30.3974C37.4419 30.6796 37.3095 30.9151 37.1548 31.0889C36.8434 31.4459 36.4855 31.573 36.2561 31.6234C36.1387 31.6459 36.0492 31.6571 35.9877 31.6571C35.928 31.659 35.8963 31.659 35.8963 31.659V31.6608Z" fill="#263238"/>
<path d="M9.60334 21.3438H7.22815C6.6639 21.3438 6.20648 21.8023 6.20648 22.368V26.448C6.20648 27.0137 6.6639 27.4722 7.22815 27.4722H9.60334C10.1676 27.4722 10.625 27.0137 10.625 26.448V22.368C10.625 21.8023 10.1676 21.3438 9.60334 21.3438Z" fill="#EBEBEB"/>
<path d="M20.0307 21.3442H17.7748C17.2105 21.3442 16.7531 21.8028 16.7531 22.3685V26.4485C16.7531 27.0142 17.2105 27.4727 17.7748 27.4727H20.0307C20.5949 27.4727 21.0523 27.0142 21.0523 26.4485V22.3685C21.0523 21.8028 20.5949 21.3442 20.0307 21.3442Z" fill="#EBEBEB"/>
<path d="M14.8627 21.3442H12.6068C12.0426 21.3442 11.5851 21.8028 11.5851 22.3685V26.4485C11.5851 27.0142 12.0426 27.4727 12.6068 27.4727H14.8627C15.4269 27.4727 15.8843 27.0142 15.8843 26.4485V22.3685C15.8843 21.8028 15.4269 21.3442 14.8627 21.3442Z" fill="#EBEBEB"/>
<path d="M25.2956 21.3442H22.9186C22.3543 21.3442 21.8969 21.8028 21.8969 22.3685V26.4485C21.8969 27.0142 22.3543 27.4727 22.9186 27.4727H25.2956C25.8599 27.4727 26.3173 27.0142 26.3173 26.4485V22.3685C26.3173 21.8028 25.8599 21.3442 25.2956 21.3442Z" fill="#EBEBEB"/>
<path d="M30.3648 21.3442H27.9877C27.4235 21.3442 26.9661 21.8028 26.9661 22.3685V26.4485C26.9661 27.0142 27.4235 27.4727 27.9877 27.4727H30.3648C30.929 27.4727 31.3865 27.0142 31.3865 26.4485V22.3685C31.3865 21.8028 30.929 21.3442 30.3648 21.3442Z" fill="#EBEBEB"/>
<path d="M8.98625 24.2464L9.4598 24.5024L9.24726 24.8594L8.76999 24.5772L8.77931 25.1024H8.37101L8.37474 24.5716L7.89747 24.8594L7.68866 24.5024L8.16221 24.2464L7.68866 23.9847L7.89747 23.6277L8.37474 23.9156L8.37101 23.3848H8.77931L8.76999 23.9156L9.24726 23.6277L9.4598 23.9847L8.98625 24.2464Z" fill="#00A08D"/>
<path d="M14.1356 24.2166L14.6092 24.4726L14.3966 24.8296L13.9193 24.5474L13.9287 25.0726H13.5204L13.5241 24.5418L13.0468 24.8296L12.838 24.4726L13.3116 24.2166L12.838 23.9549L13.0468 23.598L13.5241 23.8858L13.5204 23.355H13.9287L13.9193 23.8858L14.3966 23.598L14.6092 23.9549L14.1356 24.2166Z" fill="#00A08D"/>
<path d="M19.4099 24.2166L19.8816 24.4726L19.669 24.8296L19.1917 24.5474L19.2011 25.0726H18.7928L18.7965 24.5418L18.3192 24.8296L18.1104 24.4726L18.5821 24.2166L18.1104 23.9549L18.3192 23.598L18.7965 23.8858L18.7928 23.355H19.2011L19.1917 23.8858L19.669 23.598L19.8816 23.9549L19.4099 24.2166Z" fill="#00A08D"/>
<path d="M24.52 24.2166L24.9917 24.4726L24.7792 24.8296L24.3019 24.5474L24.3112 25.0726H23.9029L23.9067 24.5418L23.4294 24.8296L23.2206 24.4726L23.6923 24.2166L23.2206 23.9549L23.4294 23.598L23.9067 23.8858L23.9029 23.355H24.3112L24.3019 23.8858L24.7792 23.598L24.9917 23.9549L24.52 24.2166Z" fill="#00A08D"/>
<path d="M9.55859 27.5118H7.27289C6.68562 27.5118 6.20648 27.0333 6.20648 26.4427V22.3757C6.20648 21.787 6.68376 21.3066 7.27289 21.3066H9.55859C10.1459 21.3066 10.625 21.7851 10.625 22.3757V26.4427C10.625 27.0314 10.1477 27.5118 9.55859 27.5118ZM7.27289 21.3833C6.72664 21.3833 6.28292 21.8281 6.28292 22.3757V26.4427C6.28292 26.9903 6.72664 27.4351 7.27289 27.4351H9.55859C10.1048 27.4351 10.5486 26.9903 10.5486 26.4427V22.3757C10.5486 21.8281 10.1048 21.3833 9.55859 21.3833H7.27289Z" fill="#263238"/>
<path d="M14.8683 27.5118H12.5826C11.9953 27.5118 11.5162 27.0333 11.5162 26.4427V22.3757C11.5162 21.787 11.9934 21.3066 12.5826 21.3066H14.8683C15.4556 21.3066 15.9347 21.7851 15.9347 22.3757V26.4427C15.9347 27.0314 15.4574 27.5118 14.8683 27.5118ZM12.5826 21.3833C12.0363 21.3833 11.5926 21.8281 11.5926 22.3757V26.4427C11.5926 26.9903 12.0363 27.4351 12.5826 27.4351H14.8683C15.4145 27.4351 15.8583 26.9903 15.8583 26.4427V22.3757C15.8583 21.8281 15.4145 21.3833 14.8683 21.3833H12.5826Z" fill="#263238"/>
<path d="M20.0307 27.5118H17.745C17.1577 27.5118 16.6786 27.0333 16.6786 26.4427V22.3757C16.6786 21.787 17.1559 21.3066 17.745 21.3066H20.0307C20.618 21.3066 21.0971 21.7851 21.0971 22.3757V26.4427C21.0971 27.0314 20.6198 27.5118 20.0307 27.5118ZM17.745 21.3833C17.1987 21.3833 16.755 21.8281 16.755 22.3757V26.4427C16.755 26.9903 17.1987 27.4351 17.745 27.4351H20.0307C20.577 27.4351 21.0207 26.9903 21.0207 26.4427V22.3757C21.0207 21.8281 20.577 21.3833 20.0307 21.3833H17.745Z" fill="#263238"/>
<path d="M25.2509 27.5118H22.9652C22.3779 27.5118 21.8987 27.0333 21.8987 26.4427V22.3757C21.8987 21.787 22.376 21.3066 22.9652 21.3066H25.2509C25.8381 21.3066 26.3173 21.7851 26.3173 22.3757V26.4427C26.3173 27.0314 25.84 27.5118 25.2509 27.5118ZM22.9652 21.3833C22.4189 21.3833 21.9752 21.8281 21.9752 22.3757V26.4427C21.9752 26.9903 22.4189 27.4351 22.9652 27.4351H25.2509C25.7971 27.4351 26.2408 26.9903 26.2408 26.4427V22.3757C26.2408 21.8281 25.7971 21.3833 25.2509 21.3833H22.9652Z" fill="#263238"/>
<path d="M30.3201 27.5118H28.0344C27.4471 27.5118 26.968 27.0333 26.968 26.4427V22.3757C26.968 21.787 27.4452 21.3066 28.0344 21.3066H30.3201C30.9073 21.3066 31.3865 21.7851 31.3865 22.3757V26.4427C31.3865 27.0314 30.9092 27.5118 30.3201 27.5118ZM28.0344 21.3833C27.4881 21.3833 27.0444 21.8281 27.0444 22.3757V26.4427C27.0444 26.9903 27.4881 27.4351 28.0344 27.4351H30.3201C30.8663 27.4351 31.31 26.9903 31.31 26.4427V22.3757C31.31 21.8281 30.8663 21.3833 30.3201 21.3833H28.0344Z" fill="#263238"/>
<path d="M30.4021 25.884C30.4021 25.9102 29.854 25.9326 29.1772 25.9326C28.5005 25.9326 27.9523 25.9102 27.9523 25.884C27.9523 25.8579 28.5005 25.8354 29.1772 25.8354C29.854 25.8354 30.4021 25.8579 30.4021 25.884Z" fill="#00A08D"/>
<path d="M18.9979 16.6333C22.6313 16.6333 25.5767 13.6805 25.5767 10.0381C25.5767 6.39565 22.6313 3.44287 18.9979 3.44287C15.3646 3.44287 12.4191 6.39565 12.4191 10.0381C12.4191 13.6805 15.3646 16.6333 18.9979 16.6333Z" fill="#00A08D"/>
<path d="M35.7215 3.18352C35.9025 2.35889 35.3824 1.54329 34.5599 1.36183C33.7373 1.18038 32.9237 1.70177 32.7427 2.5264C32.5617 3.35104 33.0818 4.16663 33.9044 4.34809C34.727 4.52955 35.5405 4.00815 35.7215 3.18352Z" fill="#E0E0E0"/>
<path d="M33.739 3.39754C33.7278 3.39754 33.7148 3.39381 33.7054 3.38446C33.6868 3.36577 33.6868 3.33587 33.7054 3.31905L34.6936 2.32847C34.7122 2.30978 34.742 2.30978 34.7588 2.32847C34.7775 2.34716 34.7775 2.37707 34.7588 2.39389L33.7707 3.38446C33.7707 3.38446 33.7502 3.39754 33.7371 3.39754H33.739Z" fill="white"/>
<path d="M34.7255 3.39734C34.7143 3.39734 34.7012 3.3936 34.6919 3.38426L33.7038 2.39368C33.6852 2.37499 33.6852 2.34509 33.7038 2.32827C33.7224 2.31145 33.7523 2.30958 33.7691 2.32827L34.7572 3.31884C34.7758 3.33753 34.7758 3.36744 34.7572 3.38426C34.7478 3.3936 34.7367 3.39734 34.7236 3.39734H34.7255Z" fill="white"/>
<path d="M52.5879 36.4326L48.1078 35.7803L39.1459 37.111L36.6309 38.0025L37.0764 43.5161L45.6935 45.1066L51.5066 43.3797L53.7046 40.1369L52.5879 36.4326Z" fill="#FFBE9D"/>
<path d="M55.4124 36.9596L51.6632 36.0737C51.6632 36.0737 49.0121 44.288 42.47 43.9348C37.138 43.647 37.0765 37.6792 37.0765 37.6792L33.234 38.9128C33.234 38.9128 31.7649 48.7942 33.3906 55.7936C33.771 57.429 34.2799 59.6345 34.2799 59.6345L33.7598 69.8635L62.18 69.9084L55.4124 36.9578V36.9596Z" fill="#00A08D"/>
<g opacity="0.3">
<path d="M44.271 67.8787C45.6543 67.845 46.9296 67.9609 48.3129 67.9273C49.9722 67.8861 51.6445 67.845 53.2833 68.116C54.5119 68.3197 55.7051 68.6935 56.9356 68.8879C58.6098 69.1533 60.3995 69.058 61.891 68.2487L61.6505 66.8526L55.9885 65.4863L44.2729 67.8768L44.271 67.8787Z" fill="black"/>
</g>
<path d="M30.0255 41.2175C31.3249 39.5335 33.4857 38.8345 33.4857 38.8345L34.9399 51.525L32.1863 70.0002L23.1665 69.9572C23.1665 69.9572 28.1406 43.6565 30.0236 41.2175H30.0255Z" fill="#00A08D"/>
<path d="M54.9743 36.8661C54.9743 36.8661 61.0446 37.3539 63.2222 47.3232C64.2065 51.8331 65.4519 57.1187 65.8118 60.6698C66.0728 63.2453 64.6745 67.2805 62.1129 67.6095L58.8913 68.0431C58.2592 68.129 57.616 68.116 56.9934 67.972C54.9593 67.5029 54.7524 66.1049 54.3926 64.6172L53.4529 61.6417C52.9384 58.812 55.569 58.285 57.0213 58.3149L55.9381 45.4L54.9743 36.8643V36.8661Z" fill="#00A08D"/>
<path d="M32.7344 45.888C32.7344 45.888 32.7213 45.9347 32.7064 46.0263C32.6915 46.1272 32.671 46.2618 32.6449 46.4282C32.6318 46.516 32.6188 46.6132 32.6039 46.7197C32.5927 46.8281 32.5815 46.944 32.5684 47.0674C32.5442 47.3178 32.5125 47.6019 32.4995 47.9159C32.4529 48.5457 32.4547 49.299 32.4846 50.1344C32.52 50.9698 32.6132 51.8838 32.753 52.837C32.8928 53.7902 33.0681 54.6929 33.2452 55.5078C33.4205 56.3246 33.5994 57.0535 33.7504 57.6646C33.9052 58.2758 34.0338 58.7692 34.1252 59.1094C34.1699 59.272 34.2072 59.4028 34.2333 59.5C34.2594 59.5897 34.2743 59.6364 34.2781 59.6346C34.2818 59.6346 34.2725 59.586 34.252 59.4944C34.2296 59.3953 34.1998 59.2626 34.1606 59.0982C34.0767 58.7449 33.9593 58.2515 33.8157 57.646C33.674 57.0329 33.5006 56.3021 33.331 55.4854C33.1576 54.6705 32.9861 53.7715 32.8462 52.8202C32.7083 51.8707 32.6113 50.9586 32.5703 50.1269C32.5349 49.2952 32.5274 48.5457 32.5647 47.9178C32.574 47.6038 32.5983 47.3197 32.6188 47.0692C32.6281 46.9459 32.6374 46.83 32.6468 46.7216C32.6579 46.6169 32.6691 46.5197 32.6803 46.43C32.699 46.2618 32.712 46.1272 32.7232 46.0263C32.7325 45.9347 32.7344 45.8843 32.7325 45.8843L32.7344 45.888Z" fill="#263238"/>
<path d="M61.7829 61.8137C61.7829 61.8137 61.7755 61.7221 61.7344 61.5633C61.6953 61.4044 61.6207 61.1764 61.4995 60.9072C61.2628 60.3708 60.7929 59.67 60.0602 59.1354C59.3276 58.6009 58.5184 58.3691 57.9367 58.3075C57.644 58.2738 57.4054 58.2738 57.2413 58.285C57.0773 58.2962 56.9878 58.3112 56.9878 58.3168C56.9878 58.3374 57.3513 58.2944 57.9256 58.3766C58.4961 58.4551 59.2847 58.6925 60.0006 59.2158C60.7165 59.7391 61.1845 60.4176 61.4343 60.9372C61.6897 61.4605 61.7605 61.8193 61.7792 61.8137H61.7829Z" fill="#263238"/>
<path d="M60.3809 56.8459C60.3809 56.8459 60.3287 56.8347 60.2337 56.8328C60.1386 56.8291 60.0025 56.8328 59.8328 56.8515C59.4954 56.8833 59.0311 56.9768 58.552 57.1749C58.0729 57.373 57.6758 57.6328 57.4147 57.8477C57.2842 57.9543 57.1817 58.0477 57.1183 58.1169C57.0531 58.186 57.0195 58.2253 57.0232 58.2309C57.0344 58.2421 57.1873 58.1 57.4558 57.9019C57.7242 57.7038 58.1176 57.459 58.5874 57.2627C59.0591 57.0702 59.5103 56.9655 59.8403 56.917C60.1703 56.8684 60.3791 56.8609 60.3791 56.8441L60.3809 56.8459Z" fill="#263238"/>
<path d="M54.0962 43.935C54.0962 43.935 54.1074 43.8397 54.1111 43.6677C54.1111 43.4958 54.1223 43.2491 54.1428 42.9444C54.1838 42.3351 54.2957 41.4941 54.5473 40.5951C54.8009 39.6979 55.1402 38.9204 55.4217 38.3784C55.5616 38.1074 55.6827 37.8906 55.7704 37.743C55.8561 37.5953 55.9009 37.5112 55.8953 37.5075C55.8897 37.5037 55.8337 37.5803 55.7368 37.7224C55.638 37.8644 55.5094 38.0756 55.3602 38.3448C55.0619 38.8812 54.7077 39.6606 54.4523 40.567C54.2006 41.4735 54.0962 42.3239 54.0738 42.9369C54.0607 43.2434 54.0626 43.4939 54.0738 43.6658C54.0831 43.8378 54.0906 43.9331 54.0962 43.9312V43.935Z" fill="#263238"/>
<path d="M42.47 52.9883C42.47 52.9883 42.4756 53.0257 42.498 53.0929C42.5204 53.1602 42.5483 53.263 42.5987 53.3864C42.6919 53.6406 42.8541 53.9975 43.1039 54.4125C43.3537 54.8274 43.7042 55.289 44.1647 55.7357C44.6234 56.1805 45.1994 56.6011 45.865 56.9263C46.5325 57.244 47.2204 57.4309 47.8543 57.5132C48.49 57.5954 49.0699 57.5804 49.5471 57.5169C50.0263 57.4533 50.4066 57.3562 50.662 57.272C50.7906 57.2347 50.8876 57.1917 50.9547 57.1674C51.02 57.1412 51.0554 57.1263 51.0535 57.1225C51.0498 57.1151 50.91 57.1618 50.6527 57.2365C50.3954 57.3094 50.0151 57.3973 49.5415 57.4496C48.5982 57.5617 47.2297 57.4758 45.9079 56.8422C44.5879 56.2048 43.6651 55.1881 43.1636 54.3807C42.9082 53.9751 42.7385 53.6256 42.6341 53.377C42.5297 53.1303 42.4794 52.9901 42.4719 52.992L42.47 52.9883Z" fill="#263238"/>
<path d="M55.2632 67.0153C55.2726 67.0059 55.3695 67.1424 55.5951 67.3293C55.8226 67.5124 56.1991 67.7255 56.7063 67.8601C57.2115 67.9984 57.8416 68.0563 58.5352 68.0208C59.2287 67.9704 59.9931 67.89 60.7892 67.7704C61.5815 67.647 62.3422 67.5031 62.9891 67.262C63.3061 67.1293 63.5708 66.9274 63.7964 66.7219C64.022 66.5125 64.2084 66.292 64.3613 66.0789C64.6689 65.6528 64.8609 65.2678 64.9821 64.9986C65.0399 64.8622 65.0847 64.7575 65.1126 64.6846C65.1406 64.6117 65.1574 64.5744 65.1611 64.5762C65.1648 64.5762 65.1536 64.6174 65.1313 64.6921C65.1108 64.7669 65.0697 64.8753 65.0175 65.0136C64.9076 65.2883 64.723 65.6808 64.4191 66.1182C64.2681 66.3368 64.0816 66.563 63.8523 66.7798C63.623 66.9947 63.3527 67.2041 63.0246 67.3442C62.3608 67.5984 61.6021 67.7405 60.8041 67.8657C60.0043 67.9853 59.2418 68.0638 58.5408 68.1087C57.8398 68.1404 57.2022 68.075 56.6895 67.9236C56.1768 67.7779 55.7964 67.5517 55.5727 67.3555C55.4646 67.2527 55.3807 67.1723 55.336 67.1087C55.2875 67.0471 55.2632 67.0153 55.2651 67.0134L55.2632 67.0153Z" fill="#263238"/>
<path d="M54.2621 47.1138C54.2882 47.1082 54.9277 49.5996 55.6921 52.6778C56.4565 55.7579 57.0531 58.2587 57.027 58.2662C57.0009 58.2718 56.3614 55.7822 55.597 52.7021C54.8345 49.6239 54.236 47.1213 54.2621 47.1138Z" fill="#263238"/>
<path d="M53.4884 61.1724C53.4884 61.1724 53.4698 61.0995 53.4567 60.9668C53.4455 60.8341 53.4269 60.6416 53.4437 60.4005C53.4567 60.1613 53.5387 59.8697 53.7159 59.6025C53.8035 59.4698 53.9023 59.3333 54.0272 59.21C54.1521 59.0866 54.2994 58.9801 54.4579 58.8885C55.1048 58.5352 55.7555 58.3895 56.2253 58.3166C56.4602 58.2829 56.6541 58.2699 56.7864 58.2661C56.9188 58.2624 56.9934 58.2661 56.9934 58.2736C56.9934 58.2904 56.7007 58.3016 56.2365 58.3839C55.7778 58.4717 55.1328 58.6306 54.5063 58.9726C54.3535 59.0623 54.2118 59.1632 54.0925 59.2791C53.9731 59.3931 53.8762 59.5258 53.7904 59.6529C53.617 59.9071 53.5331 60.1762 53.5108 60.408C53.4865 60.6398 53.494 60.8323 53.494 60.965C53.494 61.0977 53.494 61.1706 53.4865 61.1724H53.4884Z" fill="#263238"/>
<g opacity="0.3">
<path d="M33.0141 54.261C31.4648 51.6313 31.4331 48.2147 32.7829 45.4785C32.3802 48.3923 32.4119 51.3808 33.0588 54.2498" fill="black"/>
</g>
<path d="M41.2116 60.8252L41.2226 60.8307L41.2116 60.8252Z" fill="#FFBE9D"/>
<path d="M41.2787 60.8569L41.3027 60.868C41.3027 60.868 41.288 60.8606 41.2787 60.8569Z" fill="#FFBE9D"/>
<path d="M41.2228 60.8286C41.2452 60.8398 41.2638 60.8473 41.2787 60.8548C41.2601 60.8454 41.2396 60.8361 41.2228 60.8286Z" fill="#FFBE9D"/>
<path d="M41.1874 60.812L41.2114 60.8231L41.1874 60.812Z" fill="#FFBE9D"/>
<path d="M35.4843 66.0639C35.9709 65.1407 39.7798 62.7035 39.7798 62.7035L38.7488 62.4642L37.6115 62.9464C37.6115 62.9464 37.5407 63.4174 37.1212 64.0155C36.7017 64.6136 35.9914 63.9949 35.9914 63.9949L36.4724 61.683L38.7246 60.3242C38.7246 60.3242 40.8443 60.6494 41.1855 60.812L42.0897 61.64C42.4868 61.9521 43.6297 63.1801 43.9429 63.2174C44.2561 63.2548 54.0868 61.0382 54.0868 61.0382C55.4348 62.1072 56.1451 64.2342 56.3595 65.7668C56.3595 65.7668 56.6 66.52 56.339 66.9293L44.271 67.8788L41.7131 68.5871C41.7131 68.5871 40.2981 69.1665 39.612 69.3104C38.7618 69.4898 38.1876 69.2151 38.1653 68.7422C38.1429 68.2694 38.8029 68.2189 38.8029 68.2189C38.8029 68.2189 39.8767 67.8302 40.4472 67.4937C41.0177 67.1573 41.3757 66.4733 41.3757 66.4733L40.464 66.5817C40.464 66.5817 38.5251 67.9311 37.798 68.3254C37.069 68.7217 36.9255 67.9946 36.8677 67.7741C36.808 67.5535 39.0452 65.3612 39.0452 65.3612C39.0452 65.3612 36.9199 66.6751 36.5377 67.0059C36.1555 67.3367 35.5887 67.4358 35.4675 67.2134C35.3463 66.991 35.0014 66.9854 35.488 66.0602L35.4843 66.0639Z" fill="#FFBE9D"/>
<path d="M41.303 60.8682L41.3235 60.8775L41.303 60.8682Z" fill="#FFBE9D"/>
<path d="M41.3235 60.8774L41.3344 60.8829L41.3235 60.8774Z" fill="#FFBE9D"/>
<path d="M45.9732 66.2769C45.9732 66.2769 45.9825 66.2246 45.9844 66.1274C45.9881 66.0788 45.9825 66.019 45.9732 65.9517C45.9676 65.8826 45.9545 65.8059 45.9322 65.7218C45.8557 65.3817 45.6376 64.9443 45.3151 64.5275C44.9925 64.1108 44.6439 63.7837 44.3847 63.5594C44.1256 63.3351 43.9541 63.2099 43.9466 63.2192C43.9373 63.2305 44.0958 63.3706 44.3419 63.6061C44.588 63.8416 44.9254 64.1724 45.2442 64.5836C45.563 64.9929 45.783 65.4116 45.8725 65.7387C45.9676 66.0639 45.9564 66.2788 45.975 66.2788L45.9732 66.2769Z" fill="#EB996E"/>
<path d="M39.8693 62.6308C39.8656 62.6532 40.1695 62.6925 40.52 62.5728C40.8705 62.457 41.0904 62.242 41.0737 62.2271C41.0569 62.2046 40.8238 62.3785 40.492 62.4887C40.1601 62.6027 39.8712 62.6046 39.8712 62.6326L39.8693 62.6308Z" fill="#EB996E"/>
<path d="M39.2354 65.1611C39.2447 65.1836 39.6791 65.0266 40.2048 64.8098C40.7306 64.593 41.1501 64.3986 41.1408 64.3762C41.1314 64.3537 40.697 64.5107 40.1713 64.7275C39.6455 64.9443 39.2261 65.1387 39.2354 65.1611Z" fill="#EB996E"/>
<path d="M41.2787 66.4546C41.2899 66.477 41.5062 66.3835 41.7765 66.2789C42.045 66.1723 42.2669 66.0957 42.2613 66.0695C42.2557 66.0471 42.0189 66.0864 41.7448 66.1948C41.4708 66.3013 41.2694 66.434 41.2806 66.4546H41.2787Z" fill="#EB996E"/>
<path d="M39.5505 65.3294C39.5411 65.3537 39.7611 65.436 39.9271 65.6584C40.0967 65.8771 40.1172 66.1125 40.1433 66.1088C40.1545 66.1088 40.1657 66.049 40.1508 65.9518C40.1359 65.8546 40.0893 65.7238 39.9979 65.6042C39.9065 65.4846 39.7928 65.4042 39.7033 65.3649C39.6138 65.3238 39.5523 65.3201 39.5505 65.3294Z" fill="#EB996E"/>
<path d="M38.6556 63.9166C38.6444 63.9409 38.8103 64.0306 38.9203 64.225C39.034 64.4156 39.0322 64.6062 39.0583 64.6081C39.0806 64.6156 39.1291 64.4006 38.9986 64.1801C38.8718 63.9577 38.6612 63.8941 38.6574 63.9184L38.6556 63.9166Z" fill="#EB996E"/>
<path d="M38.9595 61.3949C38.9688 61.4006 39.0042 61.3576 39.0303 61.2753C39.0564 61.1931 39.0695 61.0697 39.0378 60.9389C39.0061 60.8081 38.939 60.7034 38.8774 60.6436C38.8159 60.5819 38.7656 60.5614 38.76 60.5688C38.7432 60.5875 38.898 60.7258 38.952 60.9595C39.0117 61.1931 38.9352 61.3856 38.9595 61.3949Z" fill="#EB996E"/>
<path d="M56.4452 67.277C56.4452 67.277 56.434 67.1779 56.4285 66.9985C56.4285 66.9088 56.4247 66.8004 56.4154 66.6733C56.4079 66.5462 56.4042 66.4023 56.3856 66.2434C56.3315 65.6098 56.1898 64.7332 55.858 63.8193C55.6902 63.3633 55.4907 62.9446 55.2856 62.5783C55.1756 62.4007 55.0768 62.225 54.9668 62.0736C54.9127 61.997 54.8624 61.9241 54.8121 61.8512C54.758 61.784 54.7077 61.7185 54.6573 61.655C54.2565 61.1597 53.9489 60.9074 53.9638 60.8924C53.9675 60.8868 54.0439 60.9504 54.18 61.0663C54.249 61.1242 54.3311 61.1971 54.4168 61.2905C54.5044 61.3821 54.6107 61.483 54.7095 61.6101C54.7617 61.6718 54.8158 61.7372 54.8717 61.8045C54.9258 61.8737 54.978 61.9484 55.0339 62.0251C55.1495 62.1746 55.2502 62.3503 55.3639 62.5297C55.5764 62.8979 55.7797 63.3203 55.9493 63.7819C56.2849 64.7071 56.4154 65.5949 56.4527 66.2341C56.4676 66.3948 56.4657 66.5387 56.4676 66.6677C56.4713 66.7948 56.4676 66.905 56.4639 66.9948C56.4564 67.1742 56.449 67.2732 56.4415 67.2732L56.4452 67.277Z" fill="#263238"/>
<g opacity="0.3">
<path d="M60.5879 58.6309C59.4748 58.1655 58.1754 58.0459 57.012 58.3057C59.1001 58.1767 61.1155 59.5168 61.837 61.4344C61.9246 61.6662 62.0961 61.9409 62.3404 61.9054C62.5678 61.8718 62.6536 61.5858 62.6536 61.354C62.6536 60.1448 61.699 59.0982 60.586 58.6328L60.5879 58.6309Z" fill="black"/>
</g>
<path d="M32.6617 45.0338C32.6617 45.0338 32.602 45.0207 32.5013 44.9796C32.3988 44.9404 32.2552 44.875 32.08 44.7871C31.7295 44.6133 31.2615 44.3423 30.7805 43.9853C30.3014 43.6283 29.9043 43.2601 29.6358 42.9742C29.5016 42.8321 29.3972 42.7125 29.3282 42.6284C29.2592 42.5424 29.2238 42.4938 29.2294 42.4901C29.2406 42.4808 29.4046 42.6564 29.6843 42.9256C29.964 43.1947 30.3629 43.5536 30.8383 43.9068C31.3137 44.2582 31.7724 44.5367 32.1117 44.7254C32.451 44.9142 32.6673 45.0189 32.6617 45.0338Z" fill="white"/>
<path d="M54.1838 45.7383C54.1838 45.7383 54.1689 45.7514 54.1372 45.7701L53.9936 45.856C53.8687 45.9327 53.6786 46.0373 53.4325 46.1663C52.9384 46.4242 52.2039 46.7606 51.2605 47.0821C50.3171 47.4036 49.1631 47.697 47.8618 47.9007C46.5604 48.1063 45.1137 48.2185 43.5961 48.2558C42.0767 48.2913 40.6299 48.2633 39.3156 48.2334C38.0012 48.2016 36.8155 48.1194 35.8292 47.9699C34.843 47.8222 34.0618 47.6148 33.5342 47.4353C33.2695 47.3456 33.0681 47.2709 32.9339 47.2129C32.8705 47.1868 32.8201 47.1643 32.781 47.1494C32.7474 47.1344 32.7288 47.1251 32.7307 47.1251C32.7325 47.1251 32.7493 47.1288 32.7847 47.14C32.8257 47.155 32.8761 47.1718 32.9413 47.1961C33.0774 47.2484 33.2825 47.3176 33.5472 47.4017C34.0767 47.568 34.8579 47.7662 35.8404 47.9045C36.8229 48.0446 38.0049 48.1194 39.3193 48.1474C40.6337 48.1717 42.0785 48.1979 43.5943 48.1624C45.11 48.125 46.5511 48.0166 47.8487 47.8166C49.1463 47.6185 50.2966 47.3325 51.24 47.0204C52.1833 46.7083 52.9198 46.3831 53.4175 46.1364C53.6655 46.0112 53.8575 45.914 53.9862 45.8429C54.0477 45.8112 54.0962 45.785 54.1335 45.7663C54.167 45.7495 54.1838 45.742 54.1857 45.742L54.1838 45.7383Z" fill="white"/>
<path d="M32.7269 52.3922C32.7269 52.3922 32.643 52.3809 32.4957 52.3417C32.3298 52.2968 32.1229 52.2389 31.8749 52.1716C31.3529 52.024 30.6314 51.8146 29.839 51.5754C29.0448 51.338 28.3289 51.1175 27.8106 50.953C27.5664 50.8727 27.3632 50.8072 27.1991 50.753C27.0555 50.7044 26.9772 50.6727 26.9791 50.6671C26.981 50.6615 27.063 50.6783 27.2103 50.7175C27.3762 50.7624 27.5831 50.8203 27.8311 50.8876C28.3531 51.0353 29.0746 51.2446 29.867 51.4838C30.6612 51.7212 31.3771 51.9417 31.8954 52.1062C32.1396 52.1866 32.3428 52.252 32.5069 52.3062C32.6505 52.3548 32.7288 52.3866 32.7269 52.3922Z" fill="white"/>
<path d="M33.2694 62.7274C33.262 62.7536 31.3995 62.2172 29.1119 61.5313C26.8225 60.8453 24.9749 60.2678 24.9824 60.2416C24.9898 60.2155 26.8505 60.7519 29.1399 61.4378C31.4275 62.1237 33.2769 62.7013 33.2694 62.7274Z" fill="white"/>
<path d="M60.215 40.3799C60.215 40.3799 60.146 40.4434 60.0099 40.5425C59.8738 40.6434 59.6743 40.7799 59.4226 40.9443C58.9193 41.2733 58.2015 41.6975 57.3774 42.105C56.5534 42.5106 55.7797 42.8189 55.211 43.0171C54.9277 43.1161 54.6965 43.1909 54.5343 43.2376C54.3721 43.2843 54.2826 43.3067 54.2807 43.3011C54.2789 43.2955 54.3646 43.26 54.5231 43.2021C54.6983 43.1367 54.9202 43.0526 55.1887 42.9535C55.748 42.7386 56.5142 42.4227 57.3364 42.019C58.1567 41.6153 58.8764 41.2004 59.3872 40.8883C59.6296 40.7369 59.8328 40.6116 59.9913 40.5126C60.1329 40.4229 60.2131 40.3761 60.2168 40.3818L60.215 40.3799Z" fill="white"/>
<path d="M63.9288 50.9976C63.9288 50.9976 63.8244 51.0556 63.6268 51.1415C63.4291 51.2294 63.1402 51.3453 62.7785 51.4798C62.0551 51.7471 61.0334 52.0611 59.8794 52.2928C58.7235 52.5227 57.6608 52.6237 56.8908 52.6536C56.5049 52.6685 56.1936 52.6723 55.9792 52.6666C55.7629 52.6629 55.6454 52.6573 55.6454 52.6498C55.6454 52.6424 55.7648 52.6367 55.9792 52.6293C56.1936 52.6237 56.5049 52.6087 56.889 52.5844C57.6552 52.5358 58.7123 52.4255 59.8626 52.1975C61.0111 51.9676 62.0309 51.6649 62.758 51.4144C63.1215 51.2892 63.4142 51.1845 63.6156 51.106C63.8169 51.0294 63.9288 50.992 63.9325 50.9976H63.9288Z" fill="white"/>
<path d="M58.5613 67.9849C58.5613 67.9849 58.5613 67.9476 58.5706 67.8803C58.5837 67.8018 58.5986 67.7046 58.6172 67.585C58.6396 67.4579 58.6657 67.3009 58.6825 67.1196C58.7011 66.9364 58.7328 66.7308 58.7421 66.4991C58.7496 66.3832 58.7571 66.2636 58.7645 66.1384C58.772 66.0131 58.7682 65.8804 58.7701 65.7459C58.7794 65.4749 58.7589 65.1852 58.744 64.8805C58.6974 64.2731 58.6042 63.6077 58.4438 62.9218C58.2761 62.2377 58.0542 61.6042 57.8193 61.0416C57.6925 60.765 57.5788 60.4977 57.4483 60.2603C57.3849 60.1407 57.329 60.023 57.2656 59.9127C57.2022 59.8043 57.1407 59.6996 57.081 59.6006C56.9691 59.3987 56.8461 59.2286 56.7454 59.0754C56.6466 58.9203 56.5534 58.7932 56.4751 58.6904L56.2998 58.4493C56.2607 58.3932 56.242 58.3633 56.2439 58.3614C56.2458 58.3596 56.27 58.3857 56.3147 58.4381C56.3651 58.4997 56.4285 58.5745 56.5049 58.6679C56.5888 58.767 56.6858 58.8922 56.7902 59.0455C56.8946 59.1969 57.0213 59.3651 57.1388 59.5651C57.2003 59.6641 57.2637 59.7688 57.329 59.8753C57.3942 59.9837 57.452 60.1015 57.5191 60.2211C57.6534 60.4584 57.7727 60.7257 57.9013 61.0042C58.1437 61.5686 58.3693 62.2078 58.5389 62.8975C58.7011 63.589 58.7925 64.26 58.8335 64.873C58.8447 65.1796 58.8615 65.4711 58.8503 65.7459C58.8465 65.8823 58.8484 66.015 58.8391 66.1402C58.8298 66.2655 58.8204 66.3869 58.8111 66.5047C58.7981 66.7364 58.7608 66.9439 58.7365 67.1271C58.7142 67.3102 58.6825 67.4654 58.6545 67.5925C58.6284 67.7102 58.6079 67.8074 58.5911 67.884C58.5762 67.9513 58.565 67.9849 58.5632 67.9849H58.5613Z" fill="white"/>
<path d="M65.7633 62.2565C65.7521 62.2565 65.7484 62.1051 65.7055 61.8341C65.6664 61.5649 65.5601 61.1799 65.3401 60.7444C65.122 60.309 64.7659 59.8398 64.2867 59.4137C63.8057 58.9894 63.1942 58.6119 62.4951 58.3633C61.7941 58.1203 61.0856 58.0232 60.4424 58.0007C59.7974 57.9783 59.2157 58.0194 58.731 58.0643C58.2444 58.111 57.851 58.1596 57.5788 58.1895C57.452 58.2026 57.3476 58.2138 57.2656 58.2231C57.1929 58.2306 57.1556 58.2325 57.1556 58.2287C57.1556 58.225 57.1929 58.2175 57.2637 58.2045C57.3457 58.1914 57.4483 58.1727 57.5751 58.1521C57.8454 58.1091 58.2369 58.0512 58.7254 57.9951C59.212 57.9409 59.7974 57.8923 60.448 57.9091C61.0968 57.926 61.8165 58.0232 62.5305 58.2699C63.2427 58.5222 63.8635 58.9091 64.3483 59.3445C64.833 59.7838 65.1909 60.2641 65.4035 60.7108C65.6198 61.1556 65.7167 61.55 65.7447 61.8247C65.7689 61.9612 65.7614 62.0696 65.767 62.1406C65.7689 62.2135 65.767 62.2509 65.7652 62.2509L65.7633 62.2565Z" fill="white"/>
<path d="M45.7065 56.8459C45.7065 56.8459 45.6711 56.8552 45.6003 56.8646C45.5201 56.872 45.4194 56.8833 45.2964 56.8963C45.0186 56.9188 44.6401 56.9524 44.1778 56.9898C43.2325 57.0627 41.9275 57.1524 40.4826 57.2272C39.0377 57.3038 37.729 57.3486 36.7819 57.358C36.3083 57.3617 35.9243 57.3636 35.6595 57.3542C35.5365 57.3505 35.4358 57.3468 35.3538 57.3449C35.2848 57.3412 35.2475 57.3374 35.2475 57.3356C35.2475 57.3337 35.2848 57.3281 35.3538 57.3262C35.4339 57.3243 35.5346 57.3206 35.6595 57.3169C35.9373 57.3094 36.3176 57.3 36.78 57.2888C37.7271 57.2608 39.034 57.2047 40.477 57.1281C41.9144 57.0459 43.2139 56.973 44.1722 56.9188C44.6345 56.8926 45.0149 56.872 45.2926 56.8552C45.4157 56.8496 45.5164 56.8459 45.5984 56.8421C45.6674 56.8403 45.7047 56.8421 45.7047 56.8421L45.7065 56.8459Z" fill="white"/>
<g opacity="0.3">
<path d="M46.7897 57.2344C47.9643 57.5802 49.5919 57.6661 50.7366 57.2288C49.8398 58.5034 48.1116 58.967 46.6126 58.5502C45.1137 58.1353 43.7303 56.6307 43.6147 55.0757C44.3418 56.0644 45.6133 56.8886 46.7897 57.2344Z" fill="black"/>
</g>
<path d="M56.3147 56.0009C56.3147 56.0009 56.283 56.014 56.2215 56.0271C56.1488 56.042 56.0593 56.0607 55.9493 56.085C55.7125 56.1336 55.3714 56.1971 54.9463 56.2719C54.098 56.4214 52.9216 56.6046 51.6184 56.7653C50.3134 56.9242 49.1276 57.0307 48.2682 57.0905C47.8394 57.1204 47.4907 57.141 47.2502 57.1503C47.1384 57.1541 47.047 57.1578 46.9724 57.1597C46.909 57.1597 46.8755 57.1597 46.8755 57.1559C46.8755 57.1522 46.909 57.1466 46.9706 57.1391C47.0451 57.1316 47.1365 57.1223 47.2465 57.1111C47.5 57.0887 47.8431 57.0569 48.2607 57.0195C49.1183 56.9429 50.3003 56.8251 51.6035 56.6663C52.9067 56.5055 54.0831 56.3336 54.9332 56.2027C55.3471 56.1392 55.6883 56.085 55.94 56.0457C56.05 56.0289 56.1413 56.0158 56.214 56.0065C56.2774 55.999 56.311 55.9953 56.311 55.999L56.3147 56.0009Z" fill="white"/>
<g opacity="0.3">
<path d="M54.3609 47.6802C54.0663 51.0631 54.9855 54.4217 55.8971 57.6906C55.9531 57.8906 56.0127 58.098 56.147 58.255C56.2831 58.412 56.518 58.5036 56.7025 58.4102C56.9878 58.2662 56.9486 57.8532 56.8685 57.5448C56.0239 54.3021 55.1794 51.0612 54.3348 47.8185" fill="black"/>
</g>
<path d="M7.15542 51.0521L10.9867 69.9104H44.2468C44.614 69.9104 44.9105 69.6113 44.9105 69.245C44.9105 68.8768 44.6122 68.5796 44.2468 68.5796H37.5519L34.0003 51.0409C33.9313 50.7044 33.6386 50.4615 33.2955 50.4577L7.87506 50.1793C7.4127 50.1736 7.0622 50.5979 7.15542 51.0521Z" fill="#E0E0E0"/>
<path d="M7.15541 51.0521C7.15541 51.0521 7.15168 51.0334 7.14422 50.996C7.13863 50.9586 7.13304 50.9007 7.1405 50.824C7.15355 50.6783 7.23185 50.4334 7.49286 50.2727C7.55625 50.2334 7.63082 50.2054 7.71285 50.1848C7.79488 50.1662 7.88437 50.168 7.97386 50.168C8.15657 50.168 8.35606 50.1718 8.57232 50.1718C9.00485 50.1755 9.5045 50.1792 10.0694 50.1848C12.3253 50.2054 15.6009 50.2372 19.6802 50.2764C21.7216 50.297 23.9626 50.3194 26.3806 50.3437C27.5887 50.3568 28.8416 50.3699 30.1336 50.383C30.7805 50.3904 31.4368 50.396 32.1024 50.4035C32.4361 50.4073 32.7717 50.411 33.1091 50.4147C33.1949 50.4166 33.275 50.4147 33.3664 50.4203C33.4559 50.4297 33.5435 50.4558 33.6237 50.4951C33.784 50.5736 33.9164 50.7119 33.9891 50.8782C34.0264 50.9623 34.0413 51.0521 34.0581 51.1343L34.1103 51.3885C34.1438 51.5586 34.1792 51.7286 34.2147 51.8987C34.2837 52.2389 34.3545 52.5828 34.4235 52.9285C34.5633 53.6201 34.705 54.3191 34.8486 55.0256C35.1357 56.4404 35.4302 57.8889 35.7304 59.3673C36.3307 62.3241 36.9534 65.4004 37.5966 68.5684L37.5519 68.531C38.8084 68.531 40.0986 68.531 41.4074 68.531C42.0617 68.531 42.7217 68.531 43.3873 68.531H44.1368C44.2169 68.531 44.3064 68.5273 44.3959 68.546C44.5712 68.5815 44.7296 68.6899 44.8322 68.8375C44.9347 68.9852 44.9776 69.1721 44.9496 69.3497C44.9198 69.5683 44.7781 69.7646 44.5861 69.8692C44.4891 69.9216 44.3829 69.9496 44.2729 69.9533H43.9653C43.5588 69.9533 43.1524 69.9533 42.7478 69.9533C41.9387 69.9533 41.1352 69.9533 40.3354 69.9533C38.7376 69.9533 37.1604 69.9533 35.6055 69.9533C32.4995 69.9533 29.4885 69.9533 26.6006 69.9515C20.8267 69.9477 15.5487 69.9459 10.9848 69.944H10.9568L10.9512 69.916C9.78042 64.1202 8.82774 59.4047 8.16776 56.1358C7.83963 54.5023 7.58608 53.2332 7.41269 52.3678C7.32693 51.938 7.26168 51.609 7.2188 51.3847C7.17592 51.1623 7.15541 51.0483 7.15541 51.0483C7.15541 51.0483 7.18151 51.1605 7.22812 51.3829C7.27473 51.6053 7.34371 51.9342 7.4332 52.3641C7.61031 53.2276 7.87132 54.4966 8.20691 56.1283C8.87435 59.3953 9.83822 64.1071 11.0221 69.901L10.9885 69.873C15.5525 69.8711 20.8305 69.8674 26.6044 69.8655C29.4904 69.8655 32.5013 69.8655 35.6092 69.8636C37.1622 69.8636 38.7395 69.8636 40.3391 69.8636C41.1389 69.8636 41.9424 69.8636 42.7516 69.8636C43.1561 69.8636 43.5625 69.8636 43.969 69.8636H44.2729C44.368 69.8599 44.4612 69.8337 44.5451 69.7889C44.711 69.6973 44.834 69.5272 44.8601 69.3366C44.8844 69.1814 44.8471 69.0188 44.7576 68.8899C44.67 68.7609 44.5301 68.6675 44.3791 68.6357C44.3046 68.6189 44.2244 68.6226 44.1386 68.6226H43.3892C42.7255 68.6226 42.0655 68.6226 41.4092 68.6226C40.0986 68.6226 38.8103 68.6226 37.5537 68.6226H37.5164L37.509 68.5852C36.8676 65.4173 36.245 62.3409 35.6465 59.3841C35.3482 57.9057 35.0555 56.4572 34.7684 55.0405C34.6248 54.3322 34.4831 53.6332 34.3452 52.9416C34.2762 52.5959 34.2053 52.2538 34.1364 51.9118C34.1028 51.7417 34.0674 51.5716 34.0338 51.4016L33.9835 51.1474C33.9667 51.0614 33.9518 50.981 33.9182 50.9063C33.8548 50.7568 33.7355 50.6334 33.592 50.5624C33.5193 50.5269 33.441 50.5044 33.3627 50.4951C33.2844 50.4876 33.1967 50.4914 33.1128 50.4895C32.7754 50.4858 32.4398 50.482 32.1061 50.4783C31.4405 50.4708 30.7843 50.4633 30.1373 50.4558C28.8453 50.4409 27.5925 50.4259 26.3844 50.4129C23.9682 50.3848 21.7254 50.3587 19.6839 50.3344C15.6028 50.2839 12.329 50.2428 10.0731 50.2147C9.51009 50.2073 9.01044 50.1998 8.57605 50.1942C8.35978 50.1904 8.1603 50.1886 7.97759 50.1848C7.88624 50.1848 7.80048 50.1811 7.72031 50.1979C7.64201 50.2166 7.56743 50.2428 7.50591 50.282C7.25049 50.4372 7.17033 50.6764 7.15355 50.8203C7.13863 50.9698 7.16287 51.0465 7.15914 51.0483L7.15541 51.0521Z" fill="#263238"/>
<path d="M22.4804 59.6834C22.4804 60.2908 21.9882 60.7842 21.3823 60.7842C20.7764 60.7842 20.2842 60.2908 20.2842 59.6834C20.2842 59.0759 20.7764 58.5825 21.3823 58.5825C21.9882 58.5825 22.4804 59.0759 22.4804 59.6834Z" fill="white"/>
<path d="M7.18524 51.2053C7.18524 51.2053 7.22439 51.2016 7.29897 51.2016C7.37727 51.2016 7.48913 51.2016 7.63455 51.1997C7.93285 51.1997 8.36911 51.1997 8.92841 51.1997C10.0545 51.2053 11.6783 51.2128 13.6844 51.2221C17.7021 51.2502 23.2485 51.2894 29.3729 51.3324C30.1392 51.338 30.8961 51.3455 31.6419 51.3511C31.8283 51.3511 32.0147 51.3548 32.1993 51.3548C32.2888 51.3567 32.3857 51.3511 32.4845 51.3717C32.5796 51.3903 32.6728 51.4296 32.7549 51.4819C32.9189 51.5866 33.042 51.7529 33.0923 51.9417C33.1333 52.1267 33.165 52.3006 33.2023 52.48C33.4838 53.9004 33.7542 55.2704 34.0133 56.5768C34.5279 59.1878 34.9921 61.5391 35.3818 63.5146C35.7677 65.4883 36.079 67.0844 36.2953 68.1927C36.4016 68.7422 36.4836 69.1721 36.5395 69.4655C36.5656 69.6094 36.5861 69.7197 36.601 69.7963C36.6141 69.8711 36.6197 69.9104 36.6197 69.9104C36.6197 69.9104 36.6085 69.873 36.5936 69.7982C36.5768 69.7216 36.5544 69.6113 36.5227 69.4693C36.4631 69.1758 36.3755 68.7497 36.2617 68.2002C36.038 67.0938 35.7173 65.4976 35.3184 63.5277C34.9231 61.554 34.4533 59.2028 33.9313 56.5937C33.6721 55.2891 33.3981 53.9191 33.1147 52.4987C33.0793 52.323 33.0457 52.1398 33.0066 51.9679C32.9618 51.8015 32.8537 51.6539 32.7083 51.5623C32.6356 51.5156 32.5535 51.4819 32.4696 51.4651C32.3857 51.4464 32.2962 51.452 32.203 51.4502C32.0185 51.4502 31.832 51.4464 31.6456 51.4464C30.8998 51.4408 30.1429 51.4352 29.3767 51.4277C23.2523 51.3735 17.7058 51.3249 13.6881 51.2894C11.6821 51.267 10.0582 51.2502 8.93214 51.2371C8.37284 51.2296 7.93844 51.2221 7.64014 51.2184C7.49472 51.2147 7.38286 51.2128 7.30456 51.2109C7.22812 51.2091 7.19083 51.2053 7.19083 51.2053H7.18524Z" fill="#263238"/>
<path d="M51.6035 22.5625C51.7023 26.0407 50.2313 29.532 47.6734 31.8832C47.088 30.1824 46.5026 28.4817 45.9172 26.7809" fill="#263238"/>
<path d="M38.3591 12.4158C39.8674 11.5897 41.6889 11.47 43.3742 11.8083C45.0596 12.1466 46.6294 12.911 48.1172 13.7745C48.9524 14.2586 49.7839 14.7913 50.3842 15.5482C51.4786 16.9294 52.5618 19.1984 52.6662 20.959C52.7519 22.3832 52.2076 25.9474 51.6072 27.2407C51.0572 28.4276 48.477 29.3303 47.2055 29.6237L35.5272 16.008C35.9392 14.496 36.987 13.1671 38.3591 12.4158Z" fill="#263238"/>
<path d="M36.3456 14.2513L39.1459 13.7485C37.6152 17.4024 37.2013 25.7569 36.3251 29.622C35.2941 28.1212 32.8965 23.5496 33.0252 21.7311C33.1538 19.9125 33.0196 13.941 36.3475 14.2513H36.3456Z" fill="#263238"/>
<path d="M49.6198 20.333C49.4688 18.1986 48.0911 16.4473 46.0216 15.9184L39.5747 14.2699C36.7893 13.969 34.9287 17.4043 34.746 20.2078C34.5428 23.3215 34.4179 26.6091 34.7814 28.9342C35.5122 33.6086 39.0825 34.2123 39.0825 34.2123C39.0825 34.2048 39.0825 36.4364 39.0862 37.8008L41.2433 46.7533L48.1955 37.1261L49.6347 20.3891C49.6347 20.3087 49.6254 20.4395 49.618 20.333H49.6198Z" fill="#FFBE9D"/>
<path d="M36.1461 23.738C36.1349 24.0539 36.3922 24.3249 36.7222 24.3436C37.0503 24.3623 37.3281 24.1212 37.3393 23.8053C37.3505 23.4894 37.0932 23.2166 36.7651 23.1997C36.4351 23.1811 36.1592 23.4222 36.1461 23.7399V23.738Z" fill="#263238"/>
<path d="M35.4451 22.0391C35.5197 22.1176 35.9727 21.7831 36.6159 21.7849C37.2592 21.7793 37.7308 22.112 37.7998 22.0335C37.8334 21.998 37.7588 21.8578 37.5537 21.7064C37.3524 21.5569 37.0075 21.4111 36.6066 21.4111C36.2058 21.4111 35.8683 21.5588 35.6745 21.7102C35.4768 21.8616 35.4097 22.0036 35.4451 22.0373V22.0391Z" fill="#263238"/>
<path d="M41.7541 23.738C41.7429 24.0539 42.0002 24.3249 42.3302 24.3436C42.6583 24.3623 42.9361 24.1212 42.9473 23.8053C42.9584 23.4894 42.7012 23.2166 42.373 23.1997C42.043 23.1811 41.7671 23.4222 41.7559 23.7399L41.7541 23.738Z" fill="#263238"/>
<path d="M41.5546 22.0391C41.6292 22.1176 42.0822 21.7831 42.7254 21.7849C43.3686 21.7793 43.8403 22.112 43.9093 22.0335C43.9429 21.998 43.8683 21.8578 43.6632 21.7064C43.4619 21.5569 43.117 21.4111 42.7161 21.4111C42.3153 21.4111 41.9778 21.5588 41.7839 21.7102C41.5863 21.8616 41.5192 22.0036 41.5546 22.0391Z" fill="#263238"/>
<path d="M39.5448 27.1043C39.5486 27.0669 39.1477 26.9978 38.5008 26.9137C38.3367 26.8968 38.182 26.8632 38.154 26.7511C38.1149 26.6315 38.1839 26.4539 38.264 26.2633C38.4188 25.8652 38.5828 25.4484 38.7525 25.011C39.4311 23.2261 39.9233 21.7589 39.8506 21.7328C39.7779 21.7066 39.1701 23.1308 38.4915 24.9138C38.3274 25.353 38.1727 25.7736 38.0235 26.1735C37.9601 26.3604 37.8539 26.5735 37.9378 26.8202C37.9825 26.9436 38.1018 27.0333 38.2081 27.0613C38.3125 27.0931 38.4057 27.095 38.4878 27.1006C39.1403 27.138 39.5448 27.1417 39.5467 27.1043H39.5448Z" fill="#263238"/>
<path d="M45.2666 32.5488C45.2666 32.5488 43.749 35.7598 39.0844 35.3112V34.2122C39.0844 34.2122 42.1549 34.4141 45.2666 32.5488Z" fill="#EB996E"/>
<path d="M41.7578 19.7086C41.8212 19.8842 42.4625 19.802 43.2176 19.8955C43.9745 19.974 44.5823 20.1964 44.683 20.0394C44.7277 19.9646 44.6215 19.7983 44.3772 19.6282C44.133 19.4581 43.7452 19.2955 43.2922 19.245C42.8391 19.1946 42.4234 19.2656 42.1493 19.3777C41.8715 19.4899 41.7317 19.6263 41.7597 19.7104L41.7578 19.7086Z" fill="#263238"/>
<path d="M35.6558 20.0657C35.7695 20.2115 36.2114 20.062 36.7446 20.0545C37.2778 20.0302 37.729 20.1554 37.8334 20.0022C37.88 19.9274 37.8091 19.7816 37.6115 19.6415C37.4176 19.5031 37.0932 19.3891 36.726 19.3985C36.3605 19.4097 36.0417 19.5405 35.8572 19.6919C35.6689 19.8414 35.6055 19.9928 35.6558 20.0639V20.0657Z" fill="#263238"/>
<path d="M36.0119 15.9388C36.2971 15.236 37.0671 14.8137 37.8222 14.7744C38.5791 14.7352 39.3174 15.023 39.9718 15.4024C42.7478 17.0116 44.1759 20.8973 46.9184 22.5626C47.5933 22.9719 48.4714 22.5962 49.0456 23.1401C49.6198 23.6821 49.9908 24.5493 49.6739 25.2726C50.043 24.7661 50.4159 24.2503 50.6266 23.6578C50.8354 23.0672 50.8634 22.3794 50.5501 21.8355C50.3134 21.4225 49.8939 21.1085 49.7783 20.6468C49.6776 20.2413 49.8361 19.8151 49.8193 19.3965C49.8007 18.9703 49.6012 18.576 49.3924 18.204C48.3185 16.2995 46.8401 14.5763 44.9366 13.5035C43.693 12.8026 42.2705 12.3933 40.8443 12.4419C39.4181 12.4905 37.9956 13.0157 36.9515 13.9913C36.3382 14.5651 35.6931 15.1576 36.0119 15.9369" fill="#263238"/>
<path d="M48.9803 23.7195C49.0288 23.585 51.4618 22.7065 51.4935 25.297C51.5252 27.8145 48.9915 27.3193 48.9859 27.2464C48.9803 27.1735 48.9803 23.7195 48.9803 23.7195Z" fill="#FFBE9D"/>
<path d="M49.7522 26.2859C49.7634 26.2784 49.7969 26.3158 49.8696 26.3495C49.9424 26.3812 50.0654 26.4037 50.1959 26.3532C50.4606 26.2523 50.6788 25.828 50.6881 25.3757C50.6918 25.1458 50.6434 24.929 50.5595 24.7496C50.4812 24.5664 50.3618 24.4393 50.2276 24.4169C50.0952 24.387 50.0002 24.4692 49.9703 24.5403C49.9368 24.6113 49.9535 24.6617 49.9405 24.6655C49.933 24.6711 49.8864 24.6244 49.9051 24.5197C49.9144 24.4692 49.9442 24.4094 50.002 24.3608C50.0617 24.3104 50.1493 24.2861 50.2425 24.2954C50.4364 24.3066 50.6117 24.4842 50.703 24.6823C50.8037 24.8804 50.8652 25.1253 50.8615 25.3832C50.8503 25.8897 50.5949 26.3682 50.2332 26.4766C50.0561 26.5252 49.9088 26.4728 49.8324 26.413C49.7541 26.3513 49.741 26.2953 49.7485 26.2915L49.7522 26.2859Z" fill="#EB996E"/>
<path d="M49.9796 22.426C49.9796 22.426 49.9255 22.3998 49.8286 22.3419C49.7317 22.2802 49.5844 22.1999 49.4073 22.0728C49.0568 21.8186 48.5702 21.4149 48.0519 20.8355C47.5298 20.2598 46.9855 19.5104 46.3945 18.6768C45.8016 17.8451 45.1509 16.9218 44.3213 16.0901C43.8981 15.6826 43.4544 15.3182 42.9845 15.0303C42.5147 14.7406 42.0225 14.5276 41.5397 14.3724C40.5721 14.0603 39.6436 13.993 38.8792 14.0454C38.1111 14.094 37.5033 14.2566 37.0969 14.3949C36.89 14.4584 36.7371 14.5276 36.6327 14.5668C36.5264 14.6079 36.4705 14.6285 36.4686 14.6248C36.4686 14.621 36.5208 14.5949 36.6234 14.5463C36.7278 14.4995 36.8769 14.4229 37.0839 14.3519C37.4884 14.1986 38.0981 14.0229 38.8755 13.9631C39.6474 13.8996 40.5907 13.9594 41.5732 14.2715C42.0636 14.4248 42.5651 14.6397 43.0442 14.9331C43.5252 15.2247 43.9764 15.5948 44.4033 16.006C45.2423 16.8489 45.8929 17.7778 46.4821 18.6132C47.0694 19.4505 47.6044 20.2 48.1153 20.7794C48.6224 21.3625 49.0959 21.77 49.4371 22.0335C49.6086 22.1643 49.7522 22.2503 49.8435 22.3176C49.9367 22.383 49.9852 22.4185 49.9833 22.4223L49.9796 22.426Z" fill="#455A64"/>
<path d="M50.0374 26.7308C50.2816 26.686 50.5464 26.856 50.6079 27.0972C50.6694 27.3383 50.5147 27.6149 50.2779 27.6896C50.0411 27.7663 49.7559 27.6298 49.6664 27.3962C49.5769 27.1644 49.6944 26.871 49.92 26.7663" fill="white"/>
<path d="M49.92 26.768C49.9349 26.7829 49.7559 26.8558 49.6944 27.1063C49.6645 27.2259 49.6813 27.3847 49.7932 27.5006C49.8995 27.6165 50.0896 27.6894 50.2611 27.6352C50.4327 27.5791 50.5464 27.409 50.565 27.2539C50.5893 27.095 50.5091 26.9549 50.4177 26.8745C50.222 26.7063 50.0356 26.7493 50.0374 26.7287C50.0374 26.7231 50.0766 26.7026 50.1549 26.7007C50.2332 26.7007 50.3525 26.7231 50.4681 26.811C50.5818 26.8932 50.6918 27.0633 50.6694 27.2651C50.6508 27.4595 50.5203 27.6688 50.2947 27.7436C50.0691 27.8127 49.8398 27.7174 49.713 27.5698C49.5788 27.4184 49.5695 27.2165 49.6161 27.082C49.659 26.9437 49.7429 26.8539 49.8081 26.811C49.8734 26.7661 49.9181 26.7586 49.92 26.7661V26.768Z" fill="#263238"/>
<path d="M49.3476 23.1383C49.3868 23.8261 49.4185 24.5513 49.1015 25.1625C48.7846 25.7736 47.9848 26.1885 47.3882 25.8465C46.9016 25.568 46.7562 24.9438 46.6741 24.3868C46.4355 22.7832 46.3274 21.1628 46.0757 19.561L49.3476 23.1364V23.1383Z" fill="#263238"/>
<path d="M36.6308 14.7408C36.6327 14.7558 36.8527 14.6997 37.2554 14.6866C37.6562 14.6754 38.2472 14.7296 38.9165 14.9912C39.2503 15.1221 39.6064 15.294 39.9569 15.5295C40.3092 15.7632 40.6672 16.0416 41.0307 16.3519C41.7504 16.9761 42.498 17.7275 43.1337 18.6246C43.4525 19.0732 43.7359 19.5348 44.0417 19.9628C44.3455 20.3908 44.683 20.7796 45.0484 21.0973C45.7792 21.7328 46.5306 22.1795 47.17 22.5196C47.8132 22.8598 48.3502 23.099 48.7193 23.2635L49.1481 23.4466C49.2469 23.4878 49.2991 23.5065 49.301 23.5008C49.3029 23.4971 49.2544 23.4691 49.1593 23.4205C49.0493 23.3663 48.9114 23.2971 48.7417 23.213C48.3781 23.0336 47.8487 22.7813 47.2167 22.4318C46.5865 22.0804 45.8464 21.63 45.1323 20.9982C44.7762 20.6843 44.45 20.3048 44.1517 19.8806C43.8515 19.4582 43.57 18.9947 43.2474 18.5405C42.6024 17.6303 41.8454 16.8752 41.1146 16.251C40.7455 15.9407 40.3819 15.6622 40.0202 15.4305C39.6586 15.1968 39.2931 15.0249 38.9501 14.8978C38.2622 14.6417 37.6562 14.6044 37.2517 14.6324C37.0485 14.6455 36.8919 14.6735 36.7875 14.6978C36.683 14.7221 36.629 14.7389 36.6308 14.7427V14.7408Z" fill="#455A64"/>
<path d="M49.4166 21.5834C49.4166 21.5834 49.4912 21.6432 49.6385 21.7329C49.81 21.8338 50.0225 21.959 50.2742 22.1067C50.3432 22.146 50.414 22.1871 50.4886 22.2301C50.5688 22.273 50.6564 22.3123 50.7627 22.3216C50.8149 22.3254 50.8783 22.3216 50.9323 22.2824C50.9864 22.245 51.0218 22.1833 51.0255 22.116C51.0311 21.9833 50.9603 21.8862 50.9062 21.7983C50.6806 21.4357 50.4308 21.0358 50.1679 20.6134L50.0691 20.7068C50.304 20.8825 50.5781 21.0208 50.8764 21.1105C51.1747 21.2002 51.4823 21.2339 51.775 21.2171C51.8477 21.2152 51.9279 21.204 52.0025 21.1778C52.0752 21.1516 52.1609 21.1012 52.1982 21.0077C52.2355 20.9161 52.2001 20.8133 52.1553 20.7535C52.1106 20.6881 52.0565 20.6414 52.0118 20.5965C51.6389 20.234 51.3593 19.8527 51.1561 19.5144C50.7533 18.8341 50.6378 18.3463 50.6117 18.3556C50.6042 18.3575 50.6247 18.4808 50.69 18.6939C50.7571 18.907 50.8727 19.2135 51.0684 19.5648C51.2642 19.9162 51.5401 20.3125 51.9186 20.69C52.0118 20.7797 52.105 20.8806 52.0696 20.961C52.0398 21.0395 51.8962 21.0787 51.7657 21.0806C51.4879 21.0956 51.1971 21.0619 50.9155 20.9778C50.634 20.8937 50.373 20.7629 50.1512 20.5984L49.851 20.3779L50.0505 20.69C50.319 21.1105 50.5725 21.5049 50.8037 21.8656C50.8615 21.9534 50.9137 22.0394 50.91 22.1104C50.9062 22.1815 50.8466 22.2244 50.7645 22.217C50.6023 22.2076 50.455 22.0974 50.3134 22.0301C50.0542 21.8955 49.8342 21.7834 49.6571 21.6918C49.5024 21.6152 49.4166 21.5759 49.411 21.5834H49.4166Z" fill="#455A64"/>
<path d="M41.9908 28.295C41.9051 27.9119 41.5136 27.6166 41.1239 27.6558C40.8368 27.6839 40.5795 27.8801 40.449 28.1362C40.3185 28.3922 40.3129 28.7062 40.4117 28.9772L40.4248 29.037C40.6877 29.3286 41.1444 29.4314 41.5005 29.2669C41.8566 29.1025 42.0766 28.6763 41.9908 28.2932V28.295Z" fill="#EB996E"/>
<path d="M39.9587 29.0519C39.9587 28.9547 40.6094 28.9846 41.0978 28.4501C41.5881 27.9156 41.5509 27.2165 41.6422 27.2165C41.6832 27.2091 41.7615 27.3773 41.7541 27.6707C41.7503 27.9585 41.6366 28.3753 41.3365 28.7024C41.0363 29.0295 40.6504 29.1566 40.3838 29.1659C40.1097 29.1771 39.9531 29.0968 39.9587 29.0519Z" fill="#263238"/>
<path d="M61.8742 68.6654C61.8742 68.6654 61.8593 68.6692 61.8295 68.6729C61.7941 68.6767 61.7512 68.6804 61.7008 68.686C61.5797 68.6953 61.4119 68.7103 61.2031 68.7271C60.7705 68.7608 60.1441 68.8037 59.3685 68.8505C57.8193 68.9421 55.6771 69.0355 53.3075 69.0766C50.9379 69.1159 48.7939 69.0934 47.2409 69.0542C46.4653 69.0336 45.837 69.0131 45.4045 68.9925C45.1938 68.9813 45.0279 68.9738 44.9049 68.9682L44.7744 68.9589C44.7445 68.957 44.7296 68.9533 44.7296 68.9533C44.7296 68.9533 44.7445 68.9495 44.7744 68.9495C44.8098 68.9495 44.8527 68.9495 44.9049 68.9495C45.0279 68.9495 45.1938 68.9533 45.4045 68.9551C45.8464 68.9626 46.4728 68.972 47.2409 68.985C48.792 69.0075 50.9361 69.0187 53.3038 68.9794C55.6715 68.9402 57.8118 68.8561 59.3629 68.7813C60.1311 68.7421 60.7556 68.7122 61.1975 68.6897C61.4081 68.6804 61.5741 68.6729 61.6971 68.6673C61.7493 68.6673 61.7922 68.6654 61.8276 68.6636C61.8575 68.6636 61.8724 68.6636 61.8724 68.6654H61.8742Z" fill="white"/>
<path d="M16.3093 11.8236C16.082 11.8236 15.8727 11.7862 15.6814 11.7114C15.4901 11.6365 15.3238 11.5326 15.1824 11.3995C15.041 11.2636 14.9315 11.1056 14.8539 10.9254C14.7762 10.7425 14.7374 10.5429 14.7374 10.3266C14.7374 10.1104 14.7762 9.91216 14.8539 9.73197C14.9315 9.549 15.041 9.39098 15.1824 9.25791C15.3238 9.12207 15.4901 9.01672 15.6814 8.94187C15.8727 8.86702 16.0806 8.82959 16.3051 8.82959C16.5325 8.82959 16.7404 8.86702 16.9289 8.94187C17.1202 9.01672 17.2865 9.12207 17.4279 9.25791C17.5693 9.39098 17.6788 9.549 17.7564 9.73197C17.8341 9.91216 17.8729 10.1104 17.8729 10.3266C17.8729 10.5429 17.8341 10.7425 17.7564 10.9254C17.6788 11.1084 17.5693 11.2664 17.4279 11.3995C17.2865 11.5326 17.1202 11.6365 16.9289 11.7114C16.7404 11.7862 16.5339 11.8236 16.3093 11.8236ZM16.3051 11.3496C16.4521 11.3496 16.5879 11.3246 16.7127 11.2747C16.8374 11.2248 16.9455 11.1541 17.037 11.0627C17.1285 10.9684 17.1992 10.8603 17.2491 10.7383C17.3018 10.6136 17.3281 10.4763 17.3281 10.3266C17.3281 10.1769 17.3018 10.0411 17.2491 9.91909C17.1992 9.79434 17.1285 9.68622 17.037 9.59474C16.9455 9.50048 16.8374 9.4284 16.7127 9.3785C16.5879 9.3286 16.4521 9.30365 16.3051 9.30365C16.1582 9.30365 16.0224 9.3286 15.8976 9.3785C15.7756 9.4284 15.6675 9.50048 15.5733 9.59474C15.4818 9.68622 15.4097 9.79434 15.357 9.91909C15.3071 10.0411 15.2822 10.1769 15.2822 10.3266C15.2822 10.4736 15.3071 10.6094 15.357 10.7341C15.4097 10.8589 15.4818 10.9684 15.5733 11.0627C15.6648 11.1541 15.7729 11.2248 15.8976 11.2747C16.0224 11.3246 16.1582 11.3496 16.3051 11.3496Z" fill="white"/>
<path d="M18.9958 11.7821V9.3286H18.031V8.87117H20.5011V9.3286H19.5364V11.7821H18.9958Z" fill="white"/>
<path d="M20.9068 11.7821V8.87117H22.1045C22.3623 8.87117 22.5827 8.91276 22.7656 8.99593C22.9514 9.07909 23.0942 9.1983 23.194 9.35355C23.2938 9.5088 23.3437 9.69315 23.3437 9.90662C23.3437 10.1201 23.2938 10.3044 23.194 10.4597C23.0942 10.6149 22.9514 10.7341 22.7656 10.8173C22.5827 10.9005 22.3623 10.9421 22.1045 10.9421H21.2062L21.4474 10.6884V11.7821H20.9068ZM21.4474 10.7466L21.2062 10.4846H22.0795C22.3179 10.4846 22.4967 10.4347 22.6159 10.3349C22.7379 10.2324 22.7989 10.0896 22.7989 9.90662C22.7989 9.72088 22.7379 9.5781 22.6159 9.4783C22.4967 9.3785 22.3179 9.3286 22.0795 9.3286H21.2062L21.4474 9.06246V10.7466Z" fill="white"/>
</g>
<defs>
<clipPath id="clip0_9826_39380">
<rect width="65.8416" height="70" fill="white"/>
</clipPath>
</defs>
</svg>
