<svg width="88" height="120" viewBox="0 0 88 120" fill="none" xmlns="http://www.w3.org/2000/svg">
<path d="M44 98.1818C38 98.1818 33.0909 103.091 33.0909 109.091C33.0909 115.091 38 120 44 120C50 120 54.9091 115.091 54.9091 109.091C54.9091 103.091 50 98.1818 44 98.1818ZM11.2727 0C5.27274 0 0.363647 4.90909 0.363647 10.9091C0.363647 16.9091 5.27274 21.8182 11.2727 21.8182C17.2727 21.8182 22.1818 16.9091 22.1818 10.9091C22.1818 4.90909 17.2727 0 11.2727 0ZM11.2727 32.7273C5.27274 32.7273 0.363647 37.6364 0.363647 43.6364C0.363647 49.6364 5.27274 54.5455 11.2727 54.5455C17.2727 54.5455 22.1818 49.6364 22.1818 43.6364C22.1818 37.6364 17.2727 32.7273 11.2727 32.7273ZM11.2727 65.4545C5.27274 65.4545 0.363647 70.3636 0.363647 76.3636C0.363647 82.3636 5.27274 87.2727 11.2727 87.2727C17.2727 87.2727 22.1818 82.3636 22.1818 76.3636C22.1818 70.3636 17.2727 65.4545 11.2727 65.4545ZM76.7273 21.8182C82.7273 21.8182 87.6364 16.9091 87.6364 10.9091C87.6364 4.90909 82.7273 0 76.7273 0C70.7273 0 65.8182 4.90909 65.8182 10.9091C65.8182 16.9091 70.7273 21.8182 76.7273 21.8182ZM44 65.4545C38 65.4545 33.0909 70.3636 33.0909 76.3636C33.0909 82.3636 38 87.2727 44 87.2727C50 87.2727 54.9091 82.3636 54.9091 76.3636C54.9091 70.3636 50 65.4545 44 65.4545ZM76.7273 65.4545C70.7273 65.4545 65.8182 70.3636 65.8182 76.3636C65.8182 82.3636 70.7273 87.2727 76.7273 87.2727C82.7273 87.2727 87.6364 82.3636 87.6364 76.3636C87.6364 70.3636 82.7273 65.4545 76.7273 65.4545ZM76.7273 32.7273C70.7273 32.7273 65.8182 37.6364 65.8182 43.6364C65.8182 49.6364 70.7273 54.5455 76.7273 54.5455C82.7273 54.5455 87.6364 49.6364 87.6364 43.6364C87.6364 37.6364 82.7273 32.7273 76.7273 32.7273ZM44 32.7273C38 32.7273 33.0909 37.6364 33.0909 43.6364C33.0909 49.6364 38 54.5455 44 54.5455C50 54.5455 54.9091 49.6364 54.9091 43.6364C54.9091 37.6364 50 32.7273 44 32.7273ZM44 0C38 0 33.0909 4.90909 33.0909 10.9091C33.0909 16.9091 38 21.8182 44 21.8182C50 21.8182 54.9091 16.9091 54.9091 10.9091C54.9091 4.90909 50 0 44 0Z" fill="#00A08D"/>
</svg>
