<svg width="100" height="100" viewBox="0 0 100 100" fill="none" xmlns="http://www.w3.org/2000/svg">
<path d="M89.9802 79.6987H83.3558V79.7487H89.9802V79.6987Z" fill="#CBD2D9"/>
<path d="M66.244 80.2412H64.5054V80.2912H66.244V80.2412Z" fill="#CBD2D9"/>
<path d="M83.1556 77.8413H79.3172V77.8913H83.1556V77.8413Z" fill="#CBD2D9"/>
<path d="M19.1304 78.1772H10.4918V78.2272H19.1304V78.1772Z" fill="#CBD2D9"/>
<path d="M22.1778 78.1772H20.9112V78.2272H22.1778V78.1772Z" fill="#CBD2D9"/>
<path d="M45.0294 79.022H26.2942V79.072H45.0294V79.022Z" fill="#CBD2D9"/>
<path d="M47.6802 67.5598H9.0604C8.431 67.5598 7.9188 67.0476 7.9188 66.4182V12.1318C7.9188 11.5024 8.431 10.9902 9.0604 10.9902H47.6802C48.3094 10.9902 48.8216 11.5024 48.8216 12.1318V66.4182C48.8216 67.0476 48.3094 67.5598 47.6802 67.5598ZM9.0604 11.0404C8.4584 11.0404 7.9688 11.53 7.9688 12.132V66.4184C7.9688 67.0204 8.4584 67.51 9.0604 67.51H47.6802C48.282 67.51 48.7716 67.0204 48.7716 66.4184V12.1318C48.7716 11.53 48.282 11.0402 47.6802 11.0402L9.0604 11.0404Z" fill="#CBD2D9"/>
<path d="M90.9396 67.5598H52.3198C51.6906 67.5598 51.1784 67.0476 51.1784 66.4182V12.1318C51.1784 11.5024 51.6906 10.9902 52.3198 10.9902H90.9396C91.5692 10.9902 92.0812 11.5024 92.0812 12.1318V66.4182C92.0812 67.0476 91.569 67.5598 90.9396 67.5598ZM52.3198 11.0404C51.718 11.0404 51.2284 11.53 51.2284 12.132V66.4184C51.2284 67.0204 51.718 67.51 52.3198 67.51H90.9396C91.5416 67.51 92.0312 67.0204 92.0312 66.4184V12.1318C92.0312 11.53 91.5416 11.0402 90.9396 11.0402L52.3198 11.0404Z" fill="#CBD2D9"/>
<path d="M100 76.4795H0V76.5295H100V76.4795Z" fill="#CBD2D9"/>
<path d="M23.8662 62.9499C23.6972 61.0183 21.7254 60.2953 19.3888 60.4997C17.0524 60.7041 15.236 61.7587 15.405 63.6903L23.8662 62.9499Z" fill="#DDE2E7"/>
<path d="M19.3116 59.617C20.396 59.5222 20.7422 58.6062 20.6472 57.5218C20.5524 56.4374 20.0524 55.5954 18.968 55.6904C17.8836 55.7852 17.5374 56.7012 17.6324 57.7856C17.7272 58.87 18.2272 59.712 19.3116 59.617Z" fill="#DDE2E7"/>
<path d="M68.02 21.7941C68.0724 22.3921 67.63 22.9193 67.032 22.9715C66.434 23.0239 65.9068 22.5815 65.8546 21.9835C65.8022 21.3855 66.2446 20.8583 66.8426 20.8059C67.4406 20.7537 67.9678 21.1961 68.02 21.7941Z" fill="#F9FAFC"/>
<path d="M74.0346 21.2678C74.087 21.8658 73.6446 22.393 73.0466 22.4452C72.4486 22.4976 71.9214 22.0552 71.869 21.4572C71.8166 20.8592 72.259 20.332 72.857 20.2796C73.4552 20.2274 73.9822 20.6698 74.0346 21.2678Z" fill="#F9FAFC"/>
<path d="M80.0492 20.7417C80.1016 21.3397 79.6592 21.8669 79.0612 21.9193C78.4632 21.9717 77.936 21.5293 77.8836 20.9313C77.8312 20.3333 78.2736 19.8061 78.8716 19.7537C79.4696 19.7013 79.9968 20.1437 80.0492 20.7417Z" fill="#F9FAFC"/>
<path d="M68.5564 27.9247C68.6088 28.5227 68.1664 29.0499 67.5684 29.1023C66.9704 29.1547 66.4432 28.7123 66.3908 28.1143C66.3384 27.5163 66.7808 26.9891 67.3788 26.9369C67.977 26.8843 68.5042 27.3265 68.5564 27.9247Z" fill="#F9FAFC"/>
<path d="M74.571 27.3984C74.6234 27.9964 74.181 28.5236 73.583 28.576C72.985 28.6284 72.4578 28.186 72.4054 27.588C72.353 26.99 72.7954 26.4628 73.3934 26.4104C73.9914 26.3582 74.5186 26.8006 74.571 27.3984Z" fill="#F9FAFC"/>
<path d="M80.5856 26.8722C80.638 27.4702 80.1956 27.9974 79.5976 28.0496C78.9996 28.102 78.4724 27.6596 78.42 27.0616C78.3676 26.4636 78.81 25.9364 79.408 25.884C80.006 25.832 80.5332 26.2744 80.5856 26.8722Z" fill="#F9FAFC"/>
<path d="M69.0928 34.0552C69.1452 34.6532 68.7028 35.1804 68.1048 35.2328C67.5068 35.2852 66.9796 34.8428 66.9274 34.2448C66.875 33.6468 67.3174 33.1196 67.9154 33.0672C68.5132 33.0148 69.0404 33.4572 69.0928 34.0552Z" fill="#F9FAFC"/>
<path d="M75.1074 33.5292C75.1598 34.1272 74.7174 34.6544 74.1194 34.7068C73.5214 34.7592 72.9942 34.3168 72.9418 33.7188C72.8894 33.1208 73.3318 32.5936 73.9298 32.5414C74.5278 32.4888 75.055 32.9312 75.1074 33.5292Z" fill="#F9FAFC"/>
<path d="M81.1218 33.003C81.1742 33.601 80.7318 34.1282 80.1338 34.1804C79.5358 34.2326 79.0086 33.7904 78.9562 33.1924C78.9038 32.5944 79.3462 32.0672 79.9442 32.015C80.5424 31.9626 81.0696 32.405 81.1218 33.003Z" fill="#F9FAFC"/>
<path d="M79.8224 33.3555L67.4652 34.4367L78.4216 21.1233L67.1956 22.1055C67.0644 22.1169 66.9488 22.0199 66.9374 21.8887C66.926 21.7575 67.023 21.6419 67.1542 21.6305L79.5114 20.5493L68.555 33.8627L79.781 32.8805C79.9122 32.8691 80.0278 32.9661 80.0392 33.0971C80.0506 33.2283 79.9536 33.3441 79.8224 33.3555Z" fill="#CBD2D9"/>
<path d="M80.0118 57.1213C79.971 57.0035 79.8656 56.9161 79.7412 56.9079C79.1744 56.8699 78.6956 56.6579 78.3166 56.2773C77.8224 55.7811 77.5318 55.0259 77.4848 54.1293C77.476 53.9623 77.336 53.8321 77.1688 53.8311C76.9836 53.8299 76.836 53.9863 76.846 54.1711C76.903 55.2227 77.2586 56.1221 77.863 56.7291C78.3352 57.2033 78.9442 57.4811 79.6382 57.5417C79.6502 57.5427 79.6658 57.5441 79.6838 57.5455C79.914 57.5637 80.0874 57.3393 80.0118 57.1213Z" fill="#DDE2E7"/>
<path d="M79.3728 60.9602C76.722 60.7282 74.8106 58.9216 74.2056 56.1024C74.167 55.9226 74.2816 55.7456 74.4628 55.7142C74.6302 55.6852 74.7938 55.7912 74.8292 55.9574C75.3712 58.4928 77.0728 60.1164 79.4284 60.3226C82.0118 60.5486 84.7864 58.849 85.2834 54.5642C85.3036 54.3906 85.455 54.2624 85.629 54.2776C85.8072 54.2932 85.9408 54.4522 85.9198 54.6298C85.4436 58.6696 82.7874 61.259 79.3728 60.9602Z" fill="#DDE2E7"/>
<path d="M74.372 53.2926C74.1938 53.277 74.0602 53.118 74.0812 52.9404C74.5576 48.9004 77.214 46.3112 80.6284 46.6098C83.6202 46.8716 85.6374 49.1114 85.9516 52.4854C85.9682 52.6636 85.83 52.8188 85.6514 52.8294H85.6508C85.4766 52.8398 85.3296 52.7082 85.313 52.5346C85.0246 49.4948 83.2294 47.4798 80.5724 47.2474C77.989 47.0214 75.2144 48.7208 74.7174 53.0058C74.6974 53.1796 74.546 53.3078 74.372 53.2926Z" fill="#DDE2E7"/>
<path d="M79.503 59.2464C79.0102 59.2032 78.548 59.0882 78.1238 58.9028C77.9512 58.8274 77.88 58.6196 77.9702 58.4542C78.0488 58.31 78.2242 58.2476 78.3744 58.3138C78.7732 58.489 79.214 58.592 79.689 58.618C81.6484 58.7302 83.7164 57.3424 83.919 53.9892C84.0438 51.924 83.3364 50.2558 82.0156 49.458C81.874 49.3724 81.8214 49.1934 81.8944 49.045C81.9774 48.8764 82.1878 48.8142 82.3486 48.9112C83.877 49.834 84.6978 51.7168 84.558 54.0278C84.3626 57.2612 82.3452 59.4116 79.6522 59.2574C79.6024 59.2542 79.5524 59.2506 79.503 59.2464Z" fill="#DDE2E7"/>
<path d="M76.6532 57.2514C76.4984 57.3572 76.2868 57.3078 76.1928 57.1454C75.6258 56.1646 75.3606 54.9 75.4428 53.5418C75.6298 50.4488 77.4842 48.3466 80.0024 48.3052C80.1892 48.3022 80.3402 48.4584 80.3296 48.645V48.6458C80.32 48.812 80.1846 48.9428 80.0182 48.946C78.1508 48.9828 76.2746 50.3944 76.082 53.5804C76.0072 54.8172 76.2438 55.9586 76.751 56.8314C76.8342 56.9748 76.7902 57.1578 76.6532 57.2514Z" fill="#DDE2E7"/>
<path d="M81.026 56.9902C80.9608 56.842 81.0178 56.6708 81.1566 56.5872C81.9976 56.0808 82.5142 55.018 82.523 53.737C82.53 52.7108 82.2322 51.8428 81.6844 51.2928C81.262 50.8684 80.7158 50.6548 80.0612 50.656C79.0752 50.6586 78.2768 51.1988 77.8344 52.1494C77.7648 52.299 77.5916 52.3698 77.4366 52.3128C77.2604 52.248 77.1766 52.045 77.2562 51.875C77.8034 50.7072 78.83 50.019 80.0594 50.0156C80.8792 50.0144 81.5982 50.299 82.138 50.841C82.8072 51.513 83.1712 52.5428 83.163 53.7412C83.1528 55.253 82.516 56.5202 81.4788 57.1404C81.3156 57.238 81.1026 57.1644 81.026 56.9902Z" fill="#DDE2E7"/>
<path d="M78.7218 54.6386C78.54 54.7116 78.3366 54.606 78.29 54.4156C78.2688 54.329 78.2512 54.2398 78.2374 54.148C78.0564 52.9512 78.6998 51.909 79.734 51.7242C80.2678 51.6284 80.7438 51.754 81.1076 52.0788C81.2552 52.2108 81.2438 52.4462 81.0828 52.5616L81.0628 52.5758C80.9416 52.6626 80.7818 52.643 80.6688 52.5458C80.4518 52.3596 80.1762 52.2952 79.8466 52.3542C79.0584 52.4952 78.7588 53.3152 78.8704 54.0522C78.8812 54.124 78.8948 54.1936 78.9112 54.2604C78.9492 54.4174 78.8716 54.5782 78.7218 54.6386Z" fill="#DDE2E7"/>
<path d="M79.7794 55.8699C79.7786 55.8699 79.7776 55.8697 79.7768 55.8697C79.5562 55.8501 79.4344 55.6029 79.552 55.4151L79.5792 55.3717C79.6382 55.2777 79.7436 55.2259 79.8544 55.2337C79.9492 55.2401 80.0496 55.2341 80.1546 55.2153C80.8428 55.0921 81.1586 54.4513 81.1532 53.8001C81.1518 53.6375 81.2644 53.4971 81.425 53.4729C81.6128 53.4445 81.7902 53.5841 81.7938 53.7741C81.8128 54.8177 81.1984 55.6791 80.2672 55.8455C80.0992 55.8755 79.9358 55.8837 79.7794 55.8699Z" fill="#DDE2E7"/>
<path d="M79.9216 54.6884C79.5808 54.6586 79.3268 54.429 79.2346 54.1012C79.1812 53.9112 79.3406 53.7272 79.537 53.7444L79.6104 53.7508C79.7244 53.7608 79.8184 53.8388 79.8564 53.9468C79.875 53.9996 79.9106 54.0448 79.9772 54.0506C80.131 54.064 80.158 53.8434 80.162 53.799C80.1648 53.7674 80.1714 53.6448 80.119 53.5726C80.0676 53.5018 80.0324 53.4208 80.04 53.3336C80.065 53.049 80.4246 52.9346 80.606 53.1554C80.7502 53.331 80.8242 53.5768 80.7998 53.8548C80.754 54.3782 80.3846 54.729 79.9216 54.6884Z" fill="#DDE2E7"/>
<path d="M73.9068 47.5306C73.7306 47.5152 73.6004 47.36 73.6158 47.1838L73.8584 44.4106L76.6316 44.6532C76.8078 44.6686 76.938 44.8238 76.9226 45C76.9072 45.1762 76.752 45.3064 76.5758 45.291L74.4404 45.1042L74.2536 47.2396C74.2382 47.4158 74.0828 47.546 73.9068 47.5306Z" fill="#DDE2E7"/>
<path d="M87.0924 48.684C86.9162 48.6686 86.786 48.5134 86.8014 48.3372L86.9882 46.2018L84.8528 46.015C84.6766 45.9996 84.5464 45.8444 84.5618 45.6682C84.5772 45.492 84.7324 45.3618 84.9086 45.3772L87.6818 45.6198L87.4392 48.393C87.4238 48.5692 87.2686 48.6994 87.0924 48.684Z" fill="#DDE2E7"/>
<path d="M86.1094 63.5939L83.3362 63.3513C83.16 63.3359 83.0298 63.1807 83.0452 63.0045C83.0606 62.8283 83.2158 62.6981 83.392 62.7135L85.5274 62.9003L85.7142 60.7649C85.7296 60.5887 85.8848 60.4585 86.061 60.4739C86.2372 60.4893 86.3674 60.6445 86.352 60.8207L86.1094 63.5939Z" fill="#DDE2E7"/>
<path d="M75.059 62.6274L72.2858 62.3848L72.5284 59.6116C72.5438 59.4354 72.699 59.3052 72.8752 59.3206C73.0514 59.336 73.1816 59.4912 73.1662 59.6674L72.9794 61.8028L75.1148 61.9896C75.291 62.005 75.4212 62.1602 75.4058 62.3364C75.3904 62.5126 75.2352 62.6428 75.059 62.6274Z" fill="#DDE2E7"/>
<path d="M14.946 56.6253C14.8378 56.6347 14.7422 56.5547 14.7328 56.4463L14.5836 54.7413L16.2886 54.5921C16.397 54.5827 16.4924 54.6627 16.5018 54.7711C16.5112 54.8793 16.4312 54.9749 16.3228 54.9843L15.0098 55.0991L15.1246 56.4121C15.1344 56.5205 15.0542 56.6159 14.946 56.6253Z" fill="#CBD2D9"/>
<path d="M23.0532 55.9157C22.945 55.9251 22.8494 55.8451 22.84 55.7367L22.7252 54.4237L21.4122 54.5385C21.304 54.5479 21.2084 54.4679 21.199 54.3595C21.1896 54.2513 21.2696 54.1557 21.378 54.1463L23.083 53.9971L23.2322 55.7021C23.2416 55.8107 23.1616 55.9063 23.0532 55.9157Z" fill="#CBD2D9"/>
<path d="M23.8932 63.2578L22.1882 63.407C22.08 63.4164 21.9844 63.3364 21.975 63.228C21.9656 63.1198 22.0456 63.0242 22.154 63.0148L23.467 62.9L23.3522 61.587C23.3428 61.4786 23.4228 61.3832 23.5312 61.3738C23.6394 61.3644 23.735 61.4444 23.7444 61.5528L23.8932 63.2578Z" fill="#CBD2D9"/>
<path d="M17.0988 63.8525L15.3938 64.0017L15.2446 62.2965C15.2352 62.1883 15.3152 62.0927 15.4236 62.0833C15.5318 62.0739 15.6274 62.1539 15.6368 62.2623L15.7516 63.5753L17.0646 63.4605C17.1728 63.4511 17.2684 63.5311 17.2778 63.6395C17.2872 63.7475 17.207 63.8429 17.0988 63.8525Z" fill="#CBD2D9"/>
<path d="M22.9166 28.1895L16.3904 28.7605L16.2568 27.2333C16.1182 25.6489 17.2944 24.2473 18.8786 24.1087C20.463 23.9701 21.8646 25.1463 22.0032 26.7305L22.0808 27.6179L23.0224 27.5355L22.9448 26.6481C22.7608 24.5445 20.8998 22.9831 18.7962 23.1671C16.6926 23.3511 15.1312 25.2121 15.3152 27.3157L15.4496 28.8517C14.6902 28.9997 14.1496 29.7001 14.2184 30.4879L14.6846 35.8165C14.7584 36.6591 15.5012 37.2823 16.3438 37.2087L23.6498 36.5695C24.4924 36.4959 25.1156 35.7531 25.042 34.9105L24.5758 29.5819C24.502 28.7391 23.7592 28.1157 22.9166 28.1895ZM20.1444 32.2955L20.305 34.1303C20.3314 34.4315 20.1086 34.6969 19.8074 34.7233C19.5062 34.7497 19.2408 34.5269 19.2144 34.2257L19.0538 32.3909C18.8142 32.2433 18.6432 31.9907 18.6168 31.6887C18.5724 31.1817 18.9476 30.7347 19.4546 30.6903C19.9616 30.6459 20.4086 31.0211 20.453 31.5281C20.4792 31.8299 20.3546 32.1085 20.1444 32.2955Z" fill="#CBD2D9"/>
<path d="M34.089 31.2786L33.4292 30.203C33.0718 30.2524 32.7794 30.2524 32.422 30.203L31.7622 31.2786L31.6356 31.245C31.2104 31.132 30.8002 30.9616 30.4166 30.739L30.3032 30.6732L30.583 29.5056C30.6056 29.411 30.7006 29.3528 30.7952 29.3754C30.8898 29.398 30.948 29.493 30.9252 29.5876L30.7068 30.4984C30.9918 30.6536 31.2914 30.778 31.6002 30.8696L32.2446 29.8188L32.3612 29.8378C32.7348 29.8988 33.116 29.8988 33.4896 29.8378L33.6062 29.8188L34.2506 30.8696C34.5594 30.7778 34.859 30.6536 35.144 30.4984L34.8572 29.3014L34.9532 29.2326C35.2148 29.0446 35.448 28.8224 35.6482 28.571C35.7076 28.4962 35.8134 28.4786 35.8908 28.5344C35.9712 28.5922 35.99 28.7062 35.9286 28.7838C35.7318 29.0322 35.5058 29.2546 35.2542 29.4474L35.548 30.6732L35.4348 30.739C35.0512 30.9616 34.641 31.132 34.2158 31.245L34.089 31.2786ZM30.045 28.9304C29.9896 28.867 29.936 28.8018 29.8846 28.7348L28.6586 29.0284L28.5928 28.9152C28.3702 28.5316 28.1998 28.1214 28.0868 27.6962L28.0532 27.5696L29.1288 26.9098C29.104 26.7306 29.092 26.565 29.092 26.4062C29.092 26.2476 29.1042 26.0818 29.1288 25.9026L28.0532 25.243L28.0868 25.1164C28.1998 24.6912 28.3702 24.281 28.5928 23.8974L28.6586 23.7842L29.8844 24.0778C30.0898 23.8098 30.3288 23.571 30.5968 23.3654L30.3744 22.4378C30.3518 22.3434 30.41 22.2486 30.5042 22.226L30.5048 22.2258C30.5992 22.2032 30.694 22.2614 30.7166 22.3556L30.9934 23.5112L30.8966 23.5808C30.5894 23.802 30.32 24.0714 30.099 24.3786L30.03 24.4744L28.833 24.1876C28.678 24.4726 28.5538 24.7722 28.462 25.081L29.5124 25.7252L29.4934 25.8418C29.4598 26.048 29.4434 26.2326 29.4434 26.406C29.4434 26.5798 29.4598 26.7642 29.4934 26.9702L29.5124 27.0866L28.4618 27.7312C28.5534 28.0402 28.6778 28.3396 28.8328 28.6246L30.0298 28.3378L30.0988 28.4336C30.1638 28.524 30.2336 28.6118 30.3072 28.696C30.3684 28.766 30.3668 28.8706 30.2998 28.9352L30.2934 28.9414C30.223 29.01 30.1098 29.0044 30.045 28.9304ZM37.1924 29.0286L36.7404 28.9204C36.6458 28.8978 36.5876 28.8028 36.6102 28.7082C36.6328 28.6138 36.7278 28.5554 36.8224 28.578L37.0176 28.6248C37.1726 28.3398 37.2968 28.0402 37.3886 27.7314L36.338 27.0868L36.357 26.9704C36.3906 26.7644 36.407 26.5798 36.407 26.4062C36.407 26.2326 36.3906 26.0482 36.357 25.842L36.338 25.7254L37.3884 25.0812C37.2968 24.7722 37.1724 24.4728 37.0174 24.1878L35.8204 24.4746L35.7514 24.3788C35.5304 24.0716 35.261 23.8022 34.9538 23.581L34.857 23.5114L35.1438 22.3144C34.8588 22.1594 34.5592 22.035 34.2504 21.9432L33.606 22.9938L33.4894 22.975C33.1156 22.9144 32.7344 22.9144 32.3606 22.975L32.2442 22.9938L31.5998 21.9434C31.5598 21.9552 31.5198 21.9678 31.4798 21.9808C31.3906 22.01 31.2946 21.962 31.2624 21.874C31.2284 21.7814 31.2766 21.677 31.3702 21.6464C31.458 21.6176 31.5466 21.5914 31.6348 21.568L31.7616 21.5342L32.4214 22.61C32.7804 22.5602 33.0694 22.5602 33.4284 22.61L34.0882 21.5342L34.215 21.5678C34.6402 21.681 35.0504 21.8514 35.434 22.0738L35.5472 22.1396L35.2534 23.3656C35.5214 23.5712 35.7604 23.81 35.9658 24.078L37.1916 23.7844L37.2574 23.8976C37.48 24.2812 37.6504 24.6914 37.7634 25.1166L37.797 25.2432L36.7214 25.9028C36.7462 26.082 36.7582 26.2478 36.7582 26.4064C36.7582 26.5652 36.746 26.7308 36.7214 26.91L37.797 27.5698L37.7634 27.6964C37.6504 28.1216 37.48 28.5318 37.2574 28.9154L37.1924 29.0286ZM32.8762 28.12C31.9826 28.0948 31.2374 27.35 31.2118 26.4564C31.186 25.5558 31.859 24.8036 32.7276 24.7034C32.8326 24.6912 32.9256 24.7734 32.9256 24.8792C32.9256 24.968 32.8594 25.0426 32.7712 25.0526C32.0052 25.1394 31.4298 25.8638 31.5902 26.6806C31.6944 27.211 32.1218 27.6384 32.6524 27.742C33.523 27.9122 34.2882 27.247 34.2882 26.4062C34.2882 26.1248 34.2014 25.8524 34.0416 25.6242C33.9912 25.5522 34.0048 25.4538 34.0708 25.3956C34.1498 25.3258 34.273 25.3404 34.3332 25.427C34.5322 25.713 34.6402 26.054 34.6402 26.4062C34.6398 27.368 33.844 28.1472 32.8762 28.12Z" fill="#DDE2E7"/>
<path d="M21.6628 45.9182L21.2366 45.2234C21.0058 45.2554 20.8168 45.2554 20.586 45.2234L20.1598 45.9182L20.078 45.8964C19.8032 45.8234 19.5382 45.7134 19.2904 45.5694L19.2172 45.5268L19.398 44.7724C19.4126 44.7114 19.474 44.6736 19.535 44.6884C19.596 44.703 19.6336 44.7644 19.619 44.8254L19.478 45.4138C19.6622 45.514 19.8556 45.5944 20.0552 45.6536L20.4714 44.9748L20.5468 44.9872C20.7882 45.0266 21.0344 45.0266 21.2758 44.9872L21.3512 44.9748L21.7676 45.6536C21.9672 45.5944 22.1606 45.514 22.3448 45.4138L22.1594 44.6406L22.2214 44.596C22.3904 44.4746 22.541 44.331 22.6704 44.1686C22.7088 44.1204 22.7772 44.109 22.8272 44.145C22.879 44.1824 22.8912 44.256 22.8516 44.3062C22.7244 44.4666 22.5784 44.6104 22.4158 44.735L22.6056 45.5268L22.5324 45.5694C22.2846 45.7132 22.0196 45.8232 21.7448 45.8964L21.6628 45.9182ZM19.0502 44.4014C19.0144 44.3604 18.9798 44.3184 18.9466 44.275L18.1546 44.4648L18.1122 44.3916C17.9684 44.1438 17.8584 43.8788 17.7854 43.604L17.7636 43.5222L18.4584 43.096C18.4424 42.9802 18.4346 42.8732 18.4346 42.7706C18.4346 42.6682 18.4424 42.561 18.4584 42.4452L17.7636 42.019L17.7854 41.9372C17.8584 41.6624 17.9684 41.3976 18.1122 41.1496L18.1546 41.0764L18.9466 41.2662C19.0792 41.093 19.2336 40.9388 19.4068 40.806L19.2632 40.2068C19.2486 40.1458 19.2862 40.0846 19.347 40.07L19.3474 40.0698C19.4084 40.0552 19.4696 40.0928 19.4842 40.1538L19.663 40.9004L19.6004 40.9454C19.402 41.0882 19.228 41.2622 19.0852 41.4608L19.0406 41.5228L18.2672 41.3376C18.1672 41.5218 18.0868 41.7152 18.0276 41.9148L18.7062 42.331L18.694 42.4064C18.6722 42.5396 18.6618 42.6588 18.6618 42.771C18.6618 42.8832 18.6724 43.0024 18.694 43.1356L18.7064 43.2108L18.0278 43.6272C18.087 43.8268 18.1674 44.0202 18.2674 44.2044L19.0408 44.0192L19.0854 44.0812C19.1274 44.1396 19.1724 44.1964 19.22 44.2508C19.2596 44.296 19.2584 44.3636 19.2152 44.4052L19.211 44.4092C19.1652 44.4526 19.0922 44.449 19.0502 44.4014ZM23.6676 44.4646L23.3756 44.3948C23.3146 44.3802 23.2768 44.3188 23.2914 44.2578C23.306 44.1968 23.3674 44.1592 23.4284 44.1738L23.5546 44.204C23.6546 44.0198 23.735 43.8264 23.7942 43.6268L23.1156 43.2104L23.128 43.1352C23.1496 43.0022 23.1602 42.8828 23.1602 42.7706C23.1602 42.6584 23.1496 42.5392 23.128 42.406L23.1158 42.3306L23.7944 41.9144C23.7352 41.7148 23.6548 41.5214 23.5548 41.3372L22.7814 41.5224L22.7368 41.4604C22.594 41.262 22.42 41.0878 22.2216 40.945L22.159 40.9L22.3444 40.1266C22.1602 40.0264 21.9668 39.9462 21.7672 39.8868L21.351 40.5654L21.2758 40.5532C21.0344 40.514 20.7882 40.514 20.5466 40.5532L20.4714 40.5654L20.0552 39.8868C20.0294 39.8944 20.0034 39.9026 19.9778 39.911C19.9202 39.9298 19.8582 39.8988 19.8374 39.842C19.8154 39.7822 19.8466 39.7148 19.907 39.695C19.9638 39.6764 20.021 39.6594 20.0778 39.6444L20.1598 39.6226L20.586 40.3176C20.818 40.2854 21.0046 40.2854 21.2366 40.3176L21.6628 39.6226L21.7446 39.6444C22.0192 39.7176 22.2842 39.8276 22.5322 39.9712L22.6054 40.0138L22.4156 40.8058C22.5888 40.9386 22.743 41.0928 22.8758 41.266L23.6678 41.0762L23.7102 41.1494C23.854 41.3972 23.964 41.6622 24.037 41.937L24.0588 42.0188L23.364 42.445C23.38 42.5608 23.3878 42.6678 23.3878 42.7704C23.3878 42.873 23.38 42.98 23.364 43.0958L24.0588 43.522L24.037 43.6038C23.964 43.8786 23.854 44.1436 23.7102 44.3914L23.6676 44.4646ZM20.8794 43.8776C20.302 43.8614 19.8208 43.3802 19.8042 42.8028C19.7874 42.221 20.2222 41.735 20.7834 41.6702C20.8512 41.6624 20.9112 41.7156 20.9112 41.7838C20.9112 41.8412 20.8684 41.8894 20.8114 41.8958C20.3166 41.9518 19.9448 42.4198 20.0484 42.9476C20.1156 43.2902 20.3918 43.5664 20.7346 43.6334C21.297 43.7434 21.7914 43.3136 21.7914 42.7704C21.7914 42.5886 21.7354 42.4126 21.6322 42.2652C21.5996 42.2188 21.6084 42.155 21.651 42.1174C21.7022 42.0722 21.7816 42.0818 21.8206 42.1378C21.9492 42.3226 22.019 42.5428 22.019 42.7704C22.0186 43.3918 21.5044 43.8954 20.8794 43.8776Z" fill="#CBD2D9"/>
<path d="M50 85.4032C71.4164 85.4032 88.7778 84.3893 88.7778 83.1386C88.7778 81.8879 71.4164 80.874 50 80.874C28.5836 80.874 11.2222 81.8879 11.2222 83.1386C11.2222 84.3893 28.5836 85.4032 50 85.4032Z" fill="#F9FAFC"/>
<path d="M72.69 29.1655H66.1778L61.5716 81.8153H68.0838C69.9358 81.8153 71.5742 80.3087 71.7362 78.4567L75.7548 32.5241C75.9168 30.6721 74.542 29.1655 72.69 29.1655Z" fill="#00A08D"/>
<path d="M71.3612 29.1655H49.3214C47.4694 29.1655 45.831 30.6721 45.669 32.5241L41.6504 78.4567C41.4884 80.3087 42.8632 81.8153 44.7152 81.8153H66.755C68.607 81.8153 70.2454 80.3087 70.4074 78.4567L74.426 32.5241C74.588 30.6721 73.2132 29.1655 71.3612 29.1655Z" fill="#00A08D"/>
<path opacity="0.3" d="M71.3612 29.1655H49.3214C47.4694 29.1655 45.831 30.6721 45.669 32.5241L41.6504 78.4567C41.4884 80.3087 42.8632 81.8153 44.7152 81.8153H66.755C68.607 81.8153 70.2454 80.3087 70.4074 78.4567L74.426 32.5241C74.588 30.6721 73.2132 29.1655 71.3612 29.1655Z" fill="white"/>
<path opacity="0.4" d="M71.267 30.2417H65.4562C65.1134 30.2417 64.7916 30.4667 64.6646 30.7951C64.1948 32.0091 63.0052 32.8405 61.738 32.8405H58.3018C57.0346 32.8405 55.9902 32.0089 55.7328 30.7951C55.6632 30.4667 55.3808 30.2419 55.038 30.2419H49.2272C47.9666 30.2419 46.8554 31.2637 46.745 32.5243L42.7264 78.4569C42.6162 79.7175 43.5486 80.7393 44.8092 80.7393H66.849C68.1096 80.7393 69.2208 79.7175 69.3312 78.4569L73.3498 32.5243C73.46 31.2637 72.5276 30.2417 71.267 30.2417Z" fill="white"/>
<path d="M65.7766 55.1919H50.3518C49.8944 55.1919 49.5562 54.8211 49.5962 54.3639L49.6734 53.4813C49.7134 53.0239 50.1166 52.6533 50.574 52.6533H65.9988C66.4562 52.6533 66.7944 53.0241 66.7544 53.4813L66.6772 54.3639C66.6372 54.8211 66.234 55.1919 65.7766 55.1919Z" fill="white"/>
<path d="M65.4434 58.9995H50.0186C49.5612 58.9995 49.223 58.6287 49.263 58.1715L49.3402 57.2889C49.3802 56.8315 49.7834 56.4609 50.2408 56.4609H65.6656C66.123 56.4609 66.4612 56.8317 66.4212 57.2889L66.344 58.1715C66.304 58.6287 65.9008 58.9995 65.4434 58.9995Z" fill="white"/>
<path opacity="0.1" d="M61.09 31.1018C61.0456 31.609 60.5986 32.02 60.0914 32.02C59.5842 32.02 59.2092 31.609 59.2536 31.1018C59.298 30.5946 59.745 30.1836 60.2522 30.1836C60.7592 30.1836 61.1344 30.5946 61.09 31.1018Z" fill="black"/>
<path opacity="0.1" d="M60.6734 31.1017C60.6492 31.3787 60.405 31.6033 60.1278 31.6033C59.8508 31.6033 59.6458 31.3787 59.67 31.1017C59.6942 30.8247 59.9384 30.6001 60.2156 30.6001C60.4928 30.6001 60.6976 30.8247 60.6734 31.1017Z" fill="black"/>
<g opacity="0.8">
<path d="M68.5538 32.6338C68.4052 32.6338 68.2952 32.5134 68.3082 32.3648L68.3512 31.873C68.3642 31.7244 68.4952 31.604 68.6438 31.604C68.7924 31.604 68.9024 31.7244 68.8894 31.873L68.8464 32.3648C68.8334 32.5134 68.7024 32.6338 68.5538 32.6338Z" fill="white"/>
<path d="M70.7062 32.6336C70.5576 32.6336 70.4476 32.5132 70.4606 32.3646L70.5616 31.2104C70.5746 31.0618 70.7056 30.9414 70.8542 30.9414C71.0028 30.9414 71.1128 31.0618 71.0998 31.2104L70.9988 32.3646C70.9858 32.5132 70.8548 32.6336 70.7062 32.6336Z" fill="white"/>
<path d="M69.63 32.6335C69.4814 32.6335 69.3714 32.5131 69.3844 32.3645L69.4564 31.5415C69.4694 31.3929 69.6004 31.2725 69.749 31.2725C69.8976 31.2725 70.0076 31.3929 69.9946 31.5415L69.9226 32.3645C69.9096 32.5131 69.7786 32.6335 69.63 32.6335Z" fill="white"/>
</g>
<g opacity="0.8">
<path d="M50.127 32.6337H48.776C48.6918 32.6337 48.6296 32.5655 48.637 32.4813L48.7004 31.7559C48.7078 31.6717 48.782 31.6035 48.866 31.6035H50.217C50.3012 31.6035 50.3634 31.6717 50.356 31.7559L50.2926 32.4813C50.2852 32.5655 50.2112 32.6337 50.127 32.6337Z" fill="white"/>
<path d="M50.7534 32.4369C50.6692 32.4369 50.607 32.3687 50.6144 32.2845L50.6434 31.9527C50.6508 31.8685 50.725 31.8003 50.809 31.8003C50.8932 31.8003 50.9554 31.8685 50.948 31.9527L50.919 32.2845C50.9118 32.3687 50.8376 32.4369 50.7534 32.4369Z" fill="white"/>
</g>
<path d="M63.2376 49.3904C65.9289 46.8143 66.197 42.7268 63.8366 40.2608C61.4761 37.7949 57.3808 37.8842 54.6895 40.4604C51.9982 43.0366 51.73 47.1241 54.0905 49.59C56.451 52.056 60.5463 51.9666 63.2376 49.3904Z" fill="white"/>
<path d="M58.9842 44.6758C57.2872 44.6758 55.8548 45.3214 55.7322 46.7244L55.596 48.2814H61.7418L61.878 46.7244C62.0006 45.3214 60.6814 44.6758 58.9842 44.6758Z" fill="#00A08D"/>
<path d="M59.0404 44.0346C59.828 44.0346 60.1912 43.3962 60.26 42.6086C60.329 41.821 60.0774 41.1826 59.2898 41.1826C58.5022 41.1826 58.139 41.821 58.07 42.6086C58.0012 43.3962 58.2528 44.0346 59.0404 44.0346Z" fill="#00A08D"/>
<path d="M65.0726 53.877C64.6534 53.877 64.2996 54.0364 64.2694 54.383L64.2358 54.7676H65.7538L65.7874 54.383C65.8176 54.0364 65.4918 53.877 65.0726 53.877Z" fill="#00A08D"/>
<path d="M65.0864 53.7186C65.281 53.7186 65.3706 53.5608 65.3876 53.3664C65.4046 53.1718 65.3426 53.0142 65.148 53.0142C64.9534 53.0142 64.8638 53.172 64.8468 53.3664C64.8298 53.561 64.892 53.7186 65.0864 53.7186Z" fill="#00A08D"/>
<path d="M60.3988 62.8078H54.397C53.696 62.8078 53.1774 62.2396 53.2388 61.5384C53.3002 60.8374 53.9182 60.269 54.6192 60.269H60.621C61.322 60.269 61.8406 60.8374 61.7792 61.5384C61.7178 62.2396 61.0998 62.8078 60.3988 62.8078Z" fill="#00A08D"/>
<path d="M59.6748 76.9635H53.2514C52.5106 76.9635 51.9626 76.3629 52.0274 75.6221L52.4372 70.9371C52.502 70.1963 53.155 69.5957 53.8958 69.5957H60.3192C61.06 69.5957 61.608 70.1963 61.5432 70.9371L61.1334 75.6221C61.0686 76.3629 60.4156 76.9635 59.6748 76.9635Z" fill="#00A08D"/>
<g opacity="0.6">
<path d="M57.6938 72.1207C57.7328 71.6749 57.403 71.3135 56.9572 71.3135C56.5114 71.3135 56.1184 71.6749 56.0794 72.1207C56.0562 72.3861 56.1656 72.6197 56.3506 72.7667L56.2094 74.3799C56.1862 74.6447 56.382 74.8593 56.6468 74.8593C56.9116 74.8593 57.145 74.6447 57.1682 74.3799L57.3094 72.7667C57.5204 72.6197 57.6706 72.3863 57.6938 72.1207Z" fill="white"/>
</g>
<path d="M60.3762 70.5709H59.5484L59.7512 68.2529C59.873 66.8599 58.839 65.7267 57.446 65.7267C56.053 65.7267 54.8206 66.8599 54.6988 68.2529L54.496 70.5709H53.6682L53.871 68.2529C54.0328 66.4035 55.669 64.8989 57.5184 64.8989C59.3678 64.8989 60.7408 66.4035 60.579 68.2529L60.3762 70.5709Z" fill="#00A08D"/>
<path d="M65.1742 57.4271L65.1936 57.2047C65.2136 56.9773 65.0448 56.7925 64.8174 56.7925C64.59 56.7925 64.389 56.9775 64.3692 57.2047L64.3498 57.4271C64.259 57.4271 64.179 57.5007 64.1712 57.5915L64.1194 58.1827C64.1114 58.2735 64.1786 58.3471 64.2694 58.3471H65.0934C65.1842 58.3471 65.2642 58.2735 65.2722 58.1827L65.324 57.5915C65.332 57.5007 65.265 57.4271 65.1742 57.4271ZM64.8086 56.8941C64.9798 56.8941 65.1068 57.0333 65.092 57.2045L65.0726 57.4269H64.4516L64.471 57.2045C64.486 57.0333 64.6374 56.8941 64.8086 56.8941Z" fill="#00A08D"/>
<path d="M52.7694 57.6639L52.4818 57.6045C52.4478 57.5975 52.4302 57.5617 52.4444 57.5281L52.5642 57.2449C52.59 57.1841 52.516 57.1391 52.4694 57.1873L52.252 57.4113C52.2262 57.4379 52.1848 57.4379 52.1638 57.4113L51.9856 57.1873C51.9474 57.1393 51.8656 57.1841 51.8806 57.2449L51.9508 57.5281C51.9592 57.5617 51.9354 57.5975 51.9 57.6045L51.602 57.6639C51.538 57.6767 51.5302 57.7665 51.592 57.7793L51.8796 57.8387C51.9136 57.8457 51.9312 57.8815 51.917 57.9151L51.7972 58.1983C51.7714 58.2591 51.8454 58.3041 51.892 58.2559L52.1094 58.0319C52.1352 58.0053 52.1766 58.0053 52.1976 58.0319L52.3758 58.2559C52.414 58.3041 52.4958 58.2591 52.4808 58.1983L52.4106 57.9151C52.4022 57.8815 52.426 57.8457 52.4614 57.8387L52.7594 57.7793C52.8234 57.7665 52.8312 57.6765 52.7694 57.6639Z" fill="#263238"/>
<path d="M54.662 57.6639L54.3744 57.6045C54.3404 57.5975 54.3228 57.5617 54.337 57.5281L54.4568 57.2449C54.4826 57.1841 54.4086 57.1391 54.362 57.1873L54.1446 57.4113C54.1188 57.4379 54.0776 57.4379 54.0564 57.4113L53.8782 57.1873C53.84 57.1393 53.7582 57.1841 53.7732 57.2449L53.8434 57.5281C53.8518 57.5617 53.8278 57.5975 53.7926 57.6045L53.4946 57.6639C53.4306 57.6767 53.4228 57.7665 53.4844 57.7793L53.772 57.8387C53.806 57.8457 53.8236 57.8815 53.8094 57.9151L53.6896 58.1983C53.6638 58.2591 53.7378 58.3041 53.7844 58.2559L54.0018 58.0319C54.0276 58.0053 54.0688 58.0053 54.09 58.0319L54.2682 58.2559C54.3064 58.3041 54.3882 58.2591 54.3732 58.1983L54.303 57.9151C54.2946 57.8815 54.3186 57.8457 54.3538 57.8387L54.6518 57.7793C54.716 57.7665 54.7238 57.6765 54.662 57.6639Z" fill="#263238"/>
<path d="M56.5546 57.6639L56.267 57.6045C56.233 57.5975 56.2154 57.5617 56.2296 57.5281L56.3494 57.2449C56.3752 57.1841 56.3012 57.1391 56.2546 57.1873L56.0372 57.4113C56.0114 57.4379 55.97 57.4379 55.949 57.4113L55.7708 57.1873C55.7326 57.1393 55.6508 57.1841 55.6658 57.2449L55.736 57.5281C55.7444 57.5617 55.7206 57.5975 55.6852 57.6045L55.3872 57.6639C55.3232 57.6767 55.3154 57.7665 55.377 57.7793L55.6646 57.8387C55.6986 57.8457 55.7162 57.8815 55.702 57.9151L55.5822 58.1983C55.5564 58.2591 55.6304 58.3041 55.677 58.2559L55.8944 58.0319C55.9202 58.0053 55.9616 58.0053 55.9826 58.0319L56.1608 58.2559C56.199 58.3041 56.2808 58.2591 56.2658 58.1983L56.1956 57.9151C56.1872 57.8815 56.211 57.8457 56.2464 57.8387L56.5444 57.7793C56.6086 57.7665 56.6164 57.6765 56.5546 57.6639Z" fill="#263238"/>
<path d="M58.4474 57.6639L58.1598 57.6045C58.1258 57.5975 58.1082 57.5617 58.1224 57.5281L58.2422 57.2449C58.268 57.1841 58.194 57.1391 58.1474 57.1873L57.93 57.4113C57.9042 57.4379 57.8628 57.4379 57.8418 57.4113L57.6636 57.1873C57.6254 57.1393 57.5436 57.1841 57.5586 57.2449L57.6288 57.5281C57.6372 57.5617 57.6134 57.5975 57.578 57.6045L57.28 57.6639C57.216 57.6767 57.2082 57.7665 57.27 57.7793L57.5576 57.8387C57.5916 57.8457 57.6092 57.8815 57.595 57.9151L57.4752 58.1983C57.4494 58.2591 57.5234 58.3041 57.57 58.2559L57.7874 58.0319C57.8132 58.0053 57.8546 58.0053 57.8756 58.0319L58.0538 58.2559C58.092 58.3041 58.1738 58.2591 58.1588 58.1983L58.0886 57.9151C58.0802 57.8815 58.104 57.8457 58.1394 57.8387L58.4374 57.7793C58.5012 57.7665 58.5092 57.6765 58.4474 57.6639Z" fill="#263238"/>
<path d="M60.34 57.6639L60.0524 57.6045C60.0184 57.5975 60.0008 57.5617 60.015 57.5281L60.1348 57.2449C60.1606 57.1841 60.0866 57.1391 60.04 57.1873L59.8226 57.4113C59.7968 57.4379 59.7554 57.4379 59.7344 57.4113L59.5562 57.1873C59.518 57.1393 59.4362 57.1841 59.4512 57.2449L59.5214 57.5281C59.5298 57.5617 59.506 57.5975 59.4706 57.6045L59.1726 57.6639C59.1086 57.6767 59.1008 57.7665 59.1624 57.7793L59.45 57.8387C59.484 57.8457 59.5016 57.8815 59.4874 57.9151L59.3676 58.1983C59.342 58.2591 59.4158 58.3041 59.4624 58.2559L59.6798 58.0319C59.7056 58.0053 59.7468 58.0053 59.768 58.0319L59.9462 58.2559C59.9844 58.3041 60.0662 58.2591 60.0512 58.1983L59.981 57.9151C59.9726 57.8815 59.9966 57.8457 60.0318 57.8387L60.3298 57.7793C60.3938 57.7665 60.4018 57.6765 60.34 57.6639Z" fill="#263238"/>
<path d="M62.2326 57.6639L61.945 57.6045C61.911 57.5975 61.8934 57.5617 61.9076 57.5281L62.0274 57.2449C62.053 57.1841 61.9792 57.1391 61.9326 57.1873L61.7152 57.4113C61.6894 57.4379 61.6482 57.4379 61.627 57.4113L61.4488 57.1873C61.4106 57.1393 61.3288 57.1841 61.3438 57.2449L61.414 57.5281C61.4224 57.5617 61.3984 57.5975 61.3632 57.6045L61.0652 57.6639C61.0012 57.6767 60.9934 57.7665 61.055 57.7793L61.3426 57.8387C61.3766 57.8457 61.3942 57.8815 61.38 57.9151L61.2602 58.1983C61.2344 58.2591 61.3084 58.3041 61.355 58.2559L61.5724 58.0319C61.5982 58.0053 61.6396 58.0053 61.6606 58.0319L61.8388 58.2559C61.877 58.3041 61.9588 58.2591 61.9438 58.1983L61.8736 57.9151C61.8652 57.8815 61.889 57.8457 61.9244 57.8387L62.2224 57.7793C62.2864 57.7665 62.2944 57.6765 62.2326 57.6639Z" fill="#263238"/>
<path d="M57.6706 53.5225H54.117C53.8962 53.5225 53.7016 53.7015 53.6822 53.9223C53.6628 54.1431 53.8262 54.3221 54.047 54.3221H57.6006C57.8214 54.3221 58.016 54.1431 58.0354 53.9223C58.0548 53.7015 57.8914 53.5225 57.6706 53.5225Z" fill="#263238"/>
<path d="M61.278 53.5225H59.216C58.9952 53.5225 58.8006 53.7015 58.7812 53.9223C58.7618 54.1431 58.9252 54.3221 59.146 54.3221H61.208C61.4288 54.3221 61.6234 54.1431 61.6428 53.9223C61.6622 53.7015 61.4988 53.5225 61.278 53.5225Z" fill="#263238"/>
<path d="M64.0002 71.6528C62.6604 72.1878 61.4858 72.9682 60.6818 73.8556C60.2104 73.4544 59.5402 73.1758 58.7368 73.0484L58.6426 73.0334L58.6014 73.5052L58.654 73.525C59.447 73.8246 60.0924 74.3562 60.5206 75.062L60.5878 75.173L60.6622 75.054C61.4862 73.7348 62.6878 72.6296 64.0454 71.942L64.0914 71.9186L64.1188 71.605L64.0002 71.6528Z" fill="#263238"/>
<path opacity="0.2" d="M46.129 32.2749C45.8792 32.7143 45.7144 33.2045 45.6688 33.7239L42.6904 67.7681H51.9058L53.7574 60.6695L53.148 53.5709L54.9996 46.4723L54.3902 39.3737L56.2418 32.2751H46.129V32.2749Z" fill="black"/>
<path d="M53.5902 37.3737L55.4416 30.2749H32.1368L30.2852 37.3737L30.8948 44.4723L29.0432 51.5709L29.6526 58.6697L27.801 65.7683H51.1058L52.9574 58.6697L52.348 51.5709L54.1994 44.4723L53.5902 37.3737Z" fill="#00A08D"/>
<path opacity="0.7" d="M53.5902 37.3737L55.4416 30.2749H32.1368L30.2852 37.3737L30.8948 44.4723L29.0432 51.5709L29.6526 58.6697L27.801 65.7683H51.1058L52.9574 58.6697L52.348 51.5709L54.1994 44.4723L53.5902 37.3737Z" fill="white"/>
<path opacity="0.5" d="M53.59 37.3737H30.2852L32.1368 30.2749H55.4416L53.59 37.3737Z" fill="white"/>
<path opacity="0.5" d="M52.348 51.5708H29.0432L30.8948 44.4722H54.1996L52.348 51.5708Z" fill="white"/>
<path opacity="0.5" d="M51.1058 65.7685H27.801L29.6526 58.6699H52.9574L51.1058 65.7685Z" fill="white"/>
<path opacity="0.2" d="M50.4716 40.3399C50.2714 40.4025 50.015 40.4401 49.7356 40.4401C49.3242 40.4401 48.9626 40.3587 48.757 40.2361C48.7006 40.2023 48.6386 40.1855 48.5766 40.1855C48.519 40.1855 48.4616 40.2017 48.4084 40.2307C48.4044 40.2329 48.4 40.2337 48.3962 40.2361C48.394 40.2375 48.3912 40.2385 48.389 40.2399C48.3128 40.2843 48.2168 40.3233 48.1048 40.3547C47.9126 40.4085 47.675 40.4403 47.4178 40.4403C47.348 40.4403 47.2794 40.4379 47.213 40.4335C47.0136 40.4199 46.8318 40.3871 46.6818 40.3403C46.6556 40.3321 46.6292 40.3273 46.6034 40.3255C46.422 40.3135 46.259 40.4527 46.259 40.6451V40.8619H37.2008C36.4998 40.8619 35.9314 41.4301 35.9314 42.1313V43.4105C35.9314 44.1115 36.4998 44.6799 37.2008 44.6799H47.5062C47.529 44.6799 47.551 44.6777 47.5736 44.6765C47.6848 44.7685 47.8006 44.8603 47.9232 44.9533C48.07 45.0645 48.2246 45.1773 48.3866 45.2949C48.4994 45.3767 48.6542 45.3767 48.767 45.2949C50.0628 44.3551 50.8948 43.7069 50.8948 41.9259V40.6453C50.8946 40.4251 50.6816 40.2743 50.4716 40.3399Z" fill="black"/>
<path d="M47.3092 43.9752H37.0038C36.3028 43.9752 35.7344 43.407 35.7344 42.7058V41.4266C35.7344 40.7256 36.3026 40.1572 37.0038 40.1572H47.3092C48.0102 40.1572 48.5786 40.7254 48.5786 41.4266V42.7058C48.5786 43.4068 48.0102 43.9752 47.3092 43.9752Z" fill="#00A08D"/>
<path d="M49.5388 39.736C49.1274 39.736 48.766 39.6546 48.5602 39.532C48.4472 39.4646 48.3124 39.4646 48.1994 39.532C47.9938 39.6546 47.6324 39.736 47.2208 39.736C46.9412 39.736 46.685 39.6984 46.4848 39.636C46.275 39.5704 46.0618 39.721 46.0618 39.941V41.2216C46.0618 43.0026 46.8938 43.6508 48.1896 44.5906C48.3024 44.6724 48.4572 44.6724 48.57 44.5906C49.8658 43.6508 50.6978 43.0026 50.6978 41.2216V39.941C50.6978 39.721 50.4848 39.5704 50.2748 39.636C50.0746 39.6984 49.8184 39.736 49.5388 39.736Z" fill="#00A08D"/>
<path opacity="0.3" d="M49.5388 39.736C49.1274 39.736 48.766 39.6546 48.5602 39.532C48.4472 39.4646 48.3124 39.4646 48.1994 39.532C47.9938 39.6546 47.6324 39.736 47.2208 39.736C46.9412 39.736 46.685 39.6984 46.4848 39.636C46.275 39.5704 46.0618 39.721 46.0618 39.941V41.2216C46.0618 43.0026 46.8938 43.6508 48.1896 44.5906C48.3024 44.6724 48.4572 44.6724 48.57 44.5906C49.8658 43.6508 50.6978 43.0026 50.6978 41.2216V39.941C50.6978 39.721 50.4848 39.5704 50.2748 39.636C50.0746 39.6984 49.8184 39.736 49.5388 39.736Z" fill="white"/>
<path opacity="0.2" d="M48.1994 39.5316C47.9938 39.6542 47.6324 39.7356 47.2208 39.7356C46.9412 39.7356 46.685 39.698 46.4848 39.6356C46.275 39.57 46.0618 39.7206 46.0618 39.9404V41.2212C46.0618 43.0022 46.8938 43.6504 48.1896 44.5902C48.246 44.631 48.3128 44.6516 48.3798 44.6516V39.481C48.3178 39.481 48.2558 39.4978 48.1994 39.5316Z" fill="white"/>
<path d="M50.2372 40.8716C49.3998 41.218 48.6832 41.7234 48.213 42.2982C47.885 42.0384 47.4352 41.858 46.9076 41.7754L46.8458 41.7658V42.0714L46.881 42.0842C47.4116 42.2782 47.8596 42.6226 48.177 43.0796L48.2268 43.1514L48.2682 43.0744C48.7272 42.22 49.4428 41.5042 50.283 41.059L50.3116 41.0438V40.8408L50.2372 40.8716Z" fill="#263238"/>
<path d="M55.0302 32.2711H54.146C53.6556 32.2711 53.293 31.8737 53.3358 31.3833L53.4132 30.4991C53.4562 30.0087 53.8884 29.6113 54.3788 29.6113H55.263C55.7534 29.6113 56.116 30.0089 56.0732 30.4991L55.9958 31.3833C55.9528 31.8737 55.5206 32.2711 55.0302 32.2711Z" fill="#00A08D"/>
<path d="M55.3976 30.4975L55.2058 30.2871L54.7228 30.7311L54.3176 30.2871L54.0888 30.4975L54.494 30.9415L54.0112 31.3855L54.2032 31.5959L54.686 31.1519L55.0912 31.5959L55.32 31.3855L54.9148 30.9415L55.3976 30.4975Z" fill="white"/>
<path d="M35.2744 39.8989C35.787 40.4563 36.2768 41.0337 36.7604 41.6165C37.2446 42.1987 37.7168 42.7913 38.1832 43.3891C38.2036 43.4151 38.1954 43.4045 38.2002 43.4123C38.2024 43.4157 38.2028 43.4213 38.2056 43.4241C38.2108 43.4299 38.2136 43.4395 38.2198 43.4447C38.229 43.4595 38.2424 43.4701 38.2558 43.4841C38.2842 43.5095 38.323 43.5289 38.3662 43.5369C38.3876 43.5401 38.4102 43.5433 38.4332 43.5409C38.4456 43.5425 38.4566 43.5387 38.4696 43.5383C38.4764 43.5385 38.4814 43.5349 38.488 43.5341C38.4982 43.5297 38.4918 43.5387 38.5194 43.5223L39.0204 43.2507C39.6924 42.8949 40.3698 42.5471 41.0704 42.2349L41.656 42.9601C41.0916 43.4795 40.5038 44.1291 39.9106 44.6051L39.4626 44.9573C39.4512 44.9677 39.403 44.9993 39.3728 45.0195C39.3382 45.0417 39.3044 45.0657 39.2678 45.0853C39.1952 45.1253 39.122 45.1653 39.0442 45.1961C38.8906 45.2625 38.7266 45.3047 38.5604 45.3303C38.227 45.3799 37.8806 45.3463 37.5572 45.2305C37.396 45.1725 37.2398 45.0951 37.0976 44.9963C37.0248 44.9491 36.9582 44.8937 36.8918 44.8379C36.8584 44.8101 36.8286 44.7791 36.7974 44.7489L36.7178 44.6683C36.1886 44.1255 35.6652 43.5775 35.1536 43.0191C34.6416 42.4611 34.1356 41.8981 33.6524 41.3149L35.2744 39.8989Z" fill="#FFBE9D"/>
<path d="M40.798 42.6766L41.2642 41.1792L42.4914 41.7908C42.4914 41.7908 42.3126 42.8834 41.4192 43.0728L40.798 42.6766Z" fill="#FFBE9D"/>
<path d="M41.7566 40.7637L42.8634 41.0685L42.4916 41.7905L41.2644 41.1789L41.7566 40.7637Z" fill="#FFBE9D"/>
<path d="M28.8188 40.307C28.6852 40.9432 28.522 41.5722 28.351 42.1994C28.1808 42.8268 27.995 43.4504 27.8018 44.0722L27.7298 44.3054L27.6938 44.422C27.6862 44.4474 27.6812 44.4538 27.6744 44.4708C27.6524 44.5298 27.6392 44.5938 27.6366 44.661C27.6332 44.7942 27.6648 44.9424 27.752 45.0712C27.7592 45.092 27.8282 45.1644 27.882 45.2228L28.048 45.4032L28.3754 45.7698C28.591 46.0172 28.8058 46.2654 29.0098 46.5264L28.3128 47.3332C28.025 47.1694 27.7482 46.9928 27.472 46.8154L27.0618 46.5448L26.859 46.4066C26.79 46.3586 26.7346 46.3264 26.6242 46.235C26.2438 45.9124 25.9596 45.4544 25.8554 44.9458C25.8022 44.692 25.7892 44.4274 25.8188 44.1654C25.8266 44.1026 25.8384 44.0294 25.848 43.9756L25.8692 43.8554L25.9116 43.615C26.0238 42.9736 26.1434 42.334 26.2784 41.698C26.4128 41.062 26.555 40.4278 26.7266 39.8008L28.8188 40.307Z" fill="#FFBE9D"/>
<path d="M28.325 46.4694L29.1502 46.0474L29.5142 47.45C29.5142 47.45 28.852 47.7038 28.3394 47.3778L28.325 46.4694Z" fill="#FFBE9D"/>
<path d="M30.2904 45.5986L30.3278 46.8852L29.4064 47.4878L29.0868 46.0744L30.2904 45.5986Z" fill="#FFBE9D"/>
<path d="M32.9884 33.6943C33.0086 33.7935 33.0774 33.8631 33.1422 33.8499C33.207 33.8367 33.2432 33.7457 33.223 33.6465C33.2028 33.5473 33.134 33.4777 33.0692 33.4909C33.0046 33.5041 32.9684 33.5951 32.9884 33.6943Z" fill="#263238"/>
<path d="M33.0684 33.8647C33.0684 33.8647 33.41 34.3907 33.7142 34.6161C33.572 34.8155 33.2588 34.8013 33.2588 34.8013L33.0684 33.8647Z" fill="#FF945E"/>
<path d="M32.5136 33.2175C32.4992 33.2175 32.4846 33.2123 32.4732 33.2017C32.4492 33.1795 32.4476 33.1419 32.47 33.1177C32.693 32.8763 32.9636 32.9193 32.9754 32.9211C33.0078 32.9267 33.0294 32.9573 33.024 32.9897C33.0184 33.0219 32.9874 33.0435 32.9558 33.0383C32.9468 33.0369 32.7352 33.0059 32.5574 33.1983C32.5456 33.2111 32.5296 33.2175 32.5136 33.2175Z" fill="#263238"/>
<path d="M30.1042 35.0884C30.3248 36.0058 30.545 37.6868 29.7576 38.2988C29.7576 38.2988 30.0652 39.2294 32.1566 39.2294C34.4562 39.2294 33.2556 38.63 33.2556 38.63C32.0006 38.3858 32.0328 37.2956 32.2514 36.5828L30.1042 35.0884Z" fill="#FFBE9D"/>
<path d="M29.5126 38.4687C29.3756 38.2137 29.2246 37.9221 29.5368 37.8307C29.8802 37.7301 32.0864 37.5437 32.7344 37.7325C32.5352 38.0867 32.8724 38.5221 32.8724 38.5221L29.5126 38.4687Z" fill="#263238"/>
<path d="M31.3392 81.3842H32.7822L32.9258 78.48H31.483L31.3392 81.3842Z" fill="#FFBE9D"/>
<path d="M22.1826 80.9842L23.644 81.0614L24.5322 78.2004L23.0706 78.123L22.1826 80.9842Z" fill="#FFBE9D"/>
<path d="M23.5994 80.9457L22.2224 80.6475C22.1724 80.6367 22.1214 80.6621 22.1 80.7087L21.622 81.7457C21.5724 81.8533 21.638 81.9795 21.7542 82.0025C22.2366 82.0983 22.4764 82.1207 23.0818 82.2517C23.4544 82.3323 24.2952 82.5373 24.8098 82.6487C25.313 82.7577 25.5016 82.2659 25.301 82.1743C24.4014 81.7633 24.0256 81.4013 23.782 81.0641C23.7382 81.0035 23.6728 80.9617 23.5994 80.9457Z" fill="#263238"/>
<path d="M32.7058 81.2388H31.3364C31.2852 81.2388 31.2408 81.2744 31.2296 81.3244L30.9818 82.439C30.9562 82.5546 31.0438 82.664 31.1622 82.662C31.6562 82.6536 32.37 82.6246 32.991 82.6246C33.717 82.6246 34.344 82.6642 35.1954 82.6642C35.7102 82.6642 35.853 82.1438 35.6376 82.0966C34.6566 81.882 33.8556 81.859 33.0078 81.3364C32.9158 81.2796 32.814 81.2388 32.7058 81.2388Z" fill="#263238"/>
<path d="M27.145 38.7227C26.056 39.2405 25.76 42.3795 25.76 42.3795L28.454 43.6243C28.454 43.6243 29.1226 42.6393 29.1738 41.0905C29.2274 39.4679 28.2584 38.1933 27.145 38.7227Z" fill="#263238"/>
<path opacity="0.4" d="M28.6064 40.6582C28.12 41.4132 28.166 42.5814 28.3344 43.5686L28.4534 43.6244C28.4534 43.6244 29.1228 42.6382 29.1742 41.0898C29.1772 40.993 29.1768 40.8968 29.1734 40.8032L28.6064 40.6582Z" fill="black"/>
<path d="M34.6626 38.6468C34.6626 38.6468 35.9974 40.1544 34.7368 49.4858C32.7158 49.4858 29.0128 49.4858 28.0294 49.4858C27.9832 48.4562 28.6302 43.4336 27.637 38.5822C27.637 38.5822 28.7868 38.3514 29.8824 38.2986C30.7394 38.2574 31.9802 38.23 32.7336 38.2986C33.727 38.3894 34.6626 38.6468 34.6626 38.6468Z" fill="#00A08D"/>
<path opacity="0.6" d="M34.6626 38.6468C34.6626 38.6468 35.9974 40.1544 34.7368 49.4858C32.7158 49.4858 29.0128 49.4858 28.0294 49.4858C27.9832 48.4562 28.6302 43.4336 27.637 38.5822C27.637 38.5822 28.7868 38.3514 29.8824 38.2986C30.7394 38.2574 31.9802 38.23 32.7336 38.2986C33.727 38.3894 34.6626 38.6468 34.6626 38.6468Z" fill="#F9FAFC"/>
<path opacity="0.2" d="M35.2488 41.4987L35.2232 41.4765L33.8892 40.7637C33.7536 42.8177 34.6718 44.1053 35.218 44.6685C35.2932 43.3525 35.2914 42.3145 35.2488 41.4987Z" fill="black"/>
<path opacity="0.2" d="M32.9256 78.4805L32.8518 79.9775H31.4082L31.482 78.4805H32.9256Z" fill="black"/>
<path opacity="0.2" d="M23.0702 78.1235L24.5322 78.2009L24.0736 79.6755L22.6116 79.5983L23.0702 78.1235Z" fill="black"/>
<path d="M29.6398 34.156C29.962 35.3582 30.0894 36.0782 30.8314 36.578C31.9472 37.3298 33.3366 36.467 33.38 35.1928C33.4192 34.046 32.8856 32.2728 31.5956 32.0304C30.3246 31.7918 29.3176 32.9538 29.6398 34.156Z" fill="#FFBE9D"/>
<path d="M32.3574 49.4858C32.3574 49.4858 30.9342 59.0692 30.153 62.6596C29.2974 66.5912 24.7098 79.5992 24.7098 79.5992L22.465 79.1132C22.465 79.1132 25.3418 68.5126 26.0598 63.016C26.34 60.871 26.6782 57.4134 27.1062 54.5306C27.5206 51.7388 28.0294 49.4858 28.0294 49.4858H32.3574Z" fill="#263238"/>
<path d="M25.2472 78.8497C25.2568 78.8517 24.8288 79.6615 24.8288 79.6615L22.3032 79.1147L22.5162 78.3555L25.2472 78.8497Z" fill="#00A08D"/>
<path opacity="0.6" d="M25.2472 78.8497C25.2568 78.8517 24.8288 79.6615 24.8288 79.6615L22.3032 79.1147L22.5162 78.3555L25.2472 78.8497Z" fill="white"/>
<path opacity="0.6" d="M31.458 52.9004C29.8124 53.223 29.9866 59.3597 30.1846 62.5161C30.6592 60.285 31.3538 55.9918 31.8284 52.9448C31.7192 52.8902 31.5962 52.8732 31.458 52.9004Z" fill="black"/>
<path d="M34.7368 49.4858C34.7368 49.4858 35.4062 58.8618 35.2698 62.686C35.128 66.6636 33.242 79.6878 33.242 79.6878H31.1176C31.1176 79.6878 31.0396 66.896 30.9452 62.9896C30.8422 58.7308 30.328 49.4858 30.328 49.4858H34.7368Z" fill="#263238"/>
<path d="M33.6506 78.8418C33.6604 78.8418 33.5308 79.7238 33.5308 79.7238H30.9466L30.8768 78.9366L33.6506 78.8418Z" fill="#00A08D"/>
<path opacity="0.6" d="M33.6506 78.8418C33.6604 78.8418 33.5308 79.7238 33.5308 79.7238H30.9466L30.8768 78.9366L33.6506 78.8418Z" fill="white"/>
<path d="M33.8798 40.4031C33.8798 42.9193 35.2188 43.9553 35.2188 43.9553L37.3952 41.8277C37.3952 41.8277 36.6552 40.5527 35.6376 39.3823C34.3802 37.9363 33.8798 38.7851 33.8798 40.4031Z" fill="#263238"/>
<path opacity="0.2" d="M33.3038 35.6479C33.2486 35.8021 33.1036 36.0635 32.7394 36.1677C32.2082 36.3197 32.2012 36.7699 32.2012 36.7699L32.2078 36.7784C32.7146 36.611 33.1366 36.1921 33.3038 35.6479Z" fill="black"/>
<path d="M32.7396 31.7664C33.188 31.201 32.4982 31.174 32.4982 31.174C32.6774 30.499 31.8706 30.8624 31.8706 30.8624C31.3862 30.1948 31.113 31.0072 31.113 31.0072C30.6106 30.4416 30.5182 31.366 30.5182 31.366C30.0144 30.6486 29.7578 31.6834 29.7578 31.6834C29.2938 30.9384 29.0098 31.909 29.0098 31.909C28.0518 31.566 28.5072 32.5616 28.5072 32.5616C27.6894 32.5846 28.3454 33.2172 28.3454 33.2172C27.3658 33.2196 28.2296 33.7806 28.2296 33.7806C27.4516 34.291 28.4282 34.4284 28.4282 34.4284C27.7934 35.421 28.8834 35.0528 28.8834 35.0528C28.4418 36.0352 29.421 35.6024 29.421 35.6024C29.3574 36.5504 29.905 36.2924 30.1682 36.1168C30.219 36.3078 30.3138 36.51 30.4898 36.533C30.8314 36.5776 30.8978 35.9328 30.8978 35.9328C30.8978 35.9328 31.2148 36.1794 31.4806 36.0458C31.7464 35.9122 31.6462 35.574 31.6462 35.574C31.6462 35.574 31.8496 35.7258 32.036 35.581C32.15 35.4924 32.1506 34.8558 32.0052 34.632L32.5258 34.4282C32.5258 34.4282 32.9122 34.3738 32.7396 33.8644C32.5672 33.3552 32.7134 32.953 32.7134 32.953C33.301 32.6776 32.819 32.3464 32.819 32.3464C33.4984 31.9062 32.7396 31.7664 32.7396 31.7664Z" fill="#263238"/>
<path d="M31.685 34.2063C31.7668 34.5219 31.9742 34.7931 32.191 34.9545C32.5174 35.1973 32.761 34.9583 32.7378 34.5891C32.717 34.2567 32.522 33.7299 32.162 33.6313C31.8076 33.5341 31.5916 33.8455 31.685 34.2063Z" fill="#FFBE9D"/>
</svg>
