<svg width="360" height="240" viewBox="0 0 360 240" fill="none" xmlns="http://www.w3.org/2000/svg">
<path d="M333.905 240H359.631V96.7393H333.905V240Z" fill="#CCCCCC"/>
<path d="M218.097 240H272.096V64.7087H218.097L218.097 240Z" fill="#E0E0E0"/>
<path d="M304.426 64.708H272.096V239.999H304.426V64.708Z" fill="#CCCCCC"/>
<path d="M333.904 96.7382H288.261V239.999H333.904V96.7382Z" fill="#E0E0E0"/>
<path d="M329.977 103.932H288.261V108.041H329.977V103.932Z" fill="#F5F5F5"/>
<path d="M321.118 113.821H288.261V117.929H321.118V113.821Z" fill="#F5F5F5"/>
<path d="M329.977 123.709H288.261V127.817H329.977V123.709Z" fill="#F5F5F5"/>
<path d="M329.977 133.597H307.049V137.705H329.977V133.597Z" fill="#F5F5F5"/>
<path d="M329.977 143.485H288.261V147.594H329.977V143.485Z" fill="#F5F5F5"/>
<path d="M325.836 153.374H288.261V157.482H325.836V153.374Z" fill="#F5F5F5"/>
<path d="M329.976 163.262H316.881V167.37H329.976V163.262Z" fill="#F5F5F5"/>
<path d="M329.976 173.15H293.957V177.258H329.976V173.15Z" fill="#F5F5F5"/>
<path d="M329.976 183.038H311.083V187.146H329.976V183.038Z" fill="#F5F5F5"/>
<path d="M329.977 192.927H288.261V197.035H329.977V192.927Z" fill="#F5F5F5"/>
<path d="M317.844 202.815H288.261V206.923H317.844V202.815Z" fill="#F5F5F5"/>
<path d="M329.977 212.703H288.261V216.811H329.977V212.703Z" fill="#F5F5F5"/>
<path d="M329.977 222.592H288.261V239.999H329.977V222.592Z" fill="#F5F5F5"/>
<path d="M346.767 222.593H337.295V239.999H346.767V222.593Z" fill="#E0E0E0"/>
<path d="M259.812 74.2686H218.097V78.3769H259.812V74.2686Z" fill="#F5F5F5"/>
<path d="M259.812 84.1567H218.097V88.265H259.812V84.1567Z" fill="#F5F5F5"/>
<path d="M259.812 94.045H218.097V98.1534H259.812V94.045Z" fill="#F5F5F5"/>
<path d="M259.812 103.933H218.097V108.042H259.812V103.933Z" fill="#F5F5F5"/>
<path d="M259.812 113.821H218.097V117.93H259.812V113.821Z" fill="#F5F5F5"/>
<path d="M259.812 123.71H218.097V127.818H259.812V123.71Z" fill="#F5F5F5"/>
<path d="M259.812 133.598H218.097V137.706H259.812V133.598Z" fill="#F5F5F5"/>
<path d="M259.812 143.486H218.097V147.594H259.812V143.486Z" fill="#F5F5F5"/>
<path d="M259.812 153.374H218.097V157.483H259.812V153.374Z" fill="#F5F5F5"/>
<path d="M259.812 163.263H218.097V167.371H259.812V163.263Z" fill="#F5F5F5"/>
<path d="M259.812 173.151H218.097V177.259H259.812V173.151Z" fill="#F5F5F5"/>
<path d="M259.812 183.039H218.097V187.147H259.812V183.039Z" fill="#F5F5F5"/>
<path d="M259.812 192.927H218.097V197.036H259.812V192.927Z" fill="#F5F5F5"/>
<path d="M259.812 202.815H218.097V206.924H259.812V202.815Z" fill="#F5F5F5"/>
<path d="M259.812 212.704H218.097V216.812H259.812V212.704Z" fill="#F5F5F5"/>
<path d="M259.812 222.593H218.097V226.701H259.812V222.593Z" fill="#F5F5F5"/>
<path d="M259.812 232.481H218.097V236.59H259.812V232.481Z" fill="#F5F5F5"/>
<path d="M231.759 103.933H218.097V108.042H231.759V103.933Z" fill="white"/>
<path d="M235.033 123.71H231.759V127.818H235.033V123.71Z" fill="white"/>
<path d="M259.812 84.1567H253.136V88.265H259.812V84.1567Z" fill="white"/>
<path d="M239.912 94.045H236.702V98.1534H239.912V94.045Z" fill="white"/>
<path d="M256.345 143.486H245.689V147.594H256.345V143.486Z" fill="white"/>
<path d="M226.302 74.3032H223.349V78.3764H226.302V74.3032Z" fill="white"/>
<path d="M231.759 94.045H228.581V98.1534H231.759V94.045Z" fill="white"/>
<path d="M279.414 55.9081H264.778V64.7072H279.414V55.9081Z" fill="#CCCCCC"/>
<path d="M126.736 32.3795H97.8971V239.999H126.736V32.3795Z" fill="#CCCCCC"/>
<path d="M97.8971 32.3795H52.5527V239.999H97.8971V32.3795Z" fill="#E0E0E0"/>
<path d="M198.13 0H135.219V239.999H198.13V0Z" fill="#E0E0E0"/>
<path d="M97.897 41.9393H52.5526V46.0476H97.897V41.9393Z" fill="#F5F5F5"/>
<path d="M97.897 51.8275H52.5526V55.9358H97.897V51.8275Z" fill="#F5F5F5"/>
<path d="M97.897 61.7157H52.5526V65.824H97.897V61.7157Z" fill="#F5F5F5"/>
<path d="M97.897 71.604H52.5526V75.7123H97.897V71.604Z" fill="#F5F5F5"/>
<path d="M97.897 81.4922H52.5526V85.6005H97.897V81.4922Z" fill="#F5F5F5"/>
<path d="M97.897 91.3804H52.5526V95.4887H97.897V91.3804Z" fill="#F5F5F5"/>
<path d="M97.897 101.269H52.5526V105.377H97.897V101.269Z" fill="#F5F5F5"/>
<path d="M97.897 111.157H52.5526V115.265H97.897V111.157Z" fill="#F5F5F5"/>
<path d="M97.897 121.045H52.5526V125.153H97.897V121.045Z" fill="#F5F5F5"/>
<path d="M97.897 130.933H52.5526V135.042H97.897V130.933Z" fill="#F5F5F5"/>
<path d="M97.897 140.822H52.5526V144.93H97.897V140.822Z" fill="#F5F5F5"/>
<path d="M97.897 150.71H52.5526V154.818H97.897V150.71Z" fill="#F5F5F5"/>
<path d="M97.897 160.599H52.5526V164.707H97.897V160.599Z" fill="#F5F5F5"/>
<path d="M97.897 170.487H52.5526V174.596H97.897V170.487Z" fill="#F5F5F5"/>
<path d="M97.897 180.375H52.5526V184.484H97.897V180.375Z" fill="#F5F5F5"/>
<path d="M97.897 190.264H52.5526V194.372H97.897V190.264Z" fill="#F5F5F5"/>
<path d="M97.897 200.152H52.5526V204.26H97.897V200.152Z" fill="#F5F5F5"/>
<path d="M116.594 41.9393H97.897V46.0476H116.594V41.9393Z" fill="#E0E0E0"/>
<path d="M116.594 51.8275H97.897V55.9358H116.594V51.8275Z" fill="#E0E0E0"/>
<path d="M116.594 61.7157H97.897V65.824H116.594V61.7157Z" fill="#E0E0E0"/>
<path d="M116.594 71.604H97.897V75.7123H116.594V71.604Z" fill="#E0E0E0"/>
<path d="M116.594 81.4922H97.897V85.6005H116.594V81.4922Z" fill="#E0E0E0"/>
<path d="M116.594 91.3804H97.897V95.4887H116.594V91.3804Z" fill="#E0E0E0"/>
<path d="M116.594 101.269H97.897V105.377H116.594V101.269Z" fill="#E0E0E0"/>
<path d="M116.594 111.157H97.897V115.265H116.594V111.157Z" fill="#E0E0E0"/>
<path d="M116.594 121.045H97.897V125.153H116.594V121.045Z" fill="#E0E0E0"/>
<path d="M116.594 130.933H97.897V135.042H116.594V130.933Z" fill="#E0E0E0"/>
<path d="M116.594 140.822H97.897V144.93H116.594V140.822Z" fill="#E0E0E0"/>
<path d="M116.594 150.71H97.897V154.818H116.594V150.71Z" fill="#E0E0E0"/>
<path d="M116.594 160.599H97.897V164.707H116.594V160.599Z" fill="#E0E0E0"/>
<path d="M116.594 170.487H97.897V174.596H116.594V170.487Z" fill="#E0E0E0"/>
<path d="M116.594 180.375H97.897V184.484H116.594V180.375Z" fill="#E0E0E0"/>
<path d="M116.594 190.264H97.897V194.372H116.594V190.264Z" fill="#E0E0E0"/>
<path d="M116.594 200.152H97.897V204.26H116.594V200.152Z" fill="#E0E0E0"/>
<path d="M62.7341 41.9397H58.6258V46.048H62.7341V41.9397Z" fill="white"/>
<path d="M97.897 61.7161H81.2221V65.8244H97.897V61.7161Z" fill="white"/>
<path d="M71.4644 101.269H67.3561V105.377H71.4644V101.269Z" fill="white"/>
<path d="M93.4194 111.157H79.4248V115.266H93.4194V111.157Z" fill="white"/>
<path d="M65.8635 130.934H61.9478V135.042H65.8635V130.934Z" fill="white"/>
<path d="M79.0045 130.934H75.225V135.042H79.0045V130.934Z" fill="white"/>
<path d="M65.8635 140.822H61.9478V144.93H65.8635V140.822Z" fill="white"/>
<path d="M106.483 111.157H102.92V115.266H106.483V111.157Z" fill="#F5F5F5"/>
<path d="M116.594 71.6044H109.757V75.7127H116.594V71.6044Z" fill="#F5F5F5"/>
<path d="M106.531 51.8279H102.92V55.9362H106.531V51.8279Z" fill="#F5F5F5"/>
<path d="M12.2583 239.999H37.067L37.067 80.5482H12.2583L12.2583 239.999Z" fill="#CCCCCC"/>
<path d="M21.6497 91.3813H17.3729V239.999H21.6497V91.3813Z" fill="#E0E0E0"/>
<path d="M21.6497 101.27H17.3729V105.378H21.6497V101.27Z" fill="#F5F5F5"/>
<path d="M21.6497 121.046H17.3729V135.043H21.6497V121.046Z" fill="#F5F5F5"/>
<path d="M21.6497 170.487H17.3729V174.595H21.6497V170.487Z" fill="#F5F5F5"/>
<path d="M142.203 10.1132H140.816V239.999H142.203V10.1132Z" fill="white"/>
<path d="M148.494 10.1132H147.107V239.999H148.494V10.1132Z" fill="white"/>
<path d="M154.785 10.1132H153.398V239.999H154.785V10.1132Z" fill="white"/>
<path d="M161.076 10.1132H159.69V239.999H161.076V10.1132Z" fill="white"/>
<path d="M167.367 10.1132H165.981V239.999H167.367V10.1132Z" fill="#F5F5F5"/>
<path d="M173.659 10.1132H172.272V142.226H173.659V10.1132Z" fill="#F5F5F5"/>
<path d="M179.95 10.1132H178.563V239.999H179.95V10.1132Z" fill="white"/>
<path d="M186.24 10.1132H184.854V122.582H186.24V10.1132Z" fill="#F5F5F5"/>
<path d="M192.532 10.1132H191.145V118.731H192.532V10.1132Z" fill="#F5F5F5"/>
<path d="M198.129 239.999H218.097L218.097 113.277H198.129V239.999Z" fill="#CCCCCC"/>
<path d="M116.979 23.5807H102.342V32.3799H116.979V23.5807Z" fill="#CCCCCC"/>
<path d="M85.4592 32.3795H102.343V23.5804H85.4592V32.3795Z" fill="#E0E0E0"/>
<path d="M247.895 64.708H264.778V55.9088H247.895V64.708Z" fill="#E0E0E0"/>
</svg>
