<svg width="73" height="70" viewBox="0 0 73 70" fill="none" xmlns="http://www.w3.org/2000/svg">
<g clip-path="url(#clip0_9826_38865)">
<path d="M34.4913 32.9358C34.4913 32.9358 31.2942 40.1762 29.9858 39.4974C28.6773 38.8186 34.1289 31.6866 34.1289 31.6866C34.1289 31.6866 30.1465 24.7241 27.6563 23.3428C27.6563 23.3428 27.0485 32.1434 25.9469 31.1632C24.8453 30.1825 25.053 20.9953 25.053 20.9953C25.053 20.9953 19.7289 15.6637 16.2641 18.6097C12.7993 21.5557 13.1381 24.4547 13.8865 25.3033C14.6349 26.1519 20.4862 30.0693 19.8179 30.72C19.1492 31.3703 14.4044 29.8807 12.6863 27.6982C12.6863 27.6982 11.0054 35.3158 14.3756 37.192C17.7462 39.0683 20.0716 37.7817 22.1334 38.9791C24.1951 40.1766 25.2638 41.6899 23.9221 41.5434C22.5803 41.3973 19.51 38.7604 17.0041 39.0181C14.4978 39.2754 12.6478 39.2236 15.1709 41.8493C17.694 44.4749 23.2254 47.728 25.8331 46.1914C25.9469 46.1243 26.0552 46.0605 26.1594 45.9991C25.9674 46.142 25.8331 46.1914 25.8331 46.1914C26.1578 46.881 25.9337 48.9499 25.7024 50.4961C25.6475 50.7486 25.5873 51.1087 25.522 51.6093C25.4835 51.8292 25.4506 52.0087 25.4274 52.1331C24.6814 55.4404 21.057 59.5424 21.057 59.5424L21.5685 60.1434C26.0592 56.586 26.167 51.1974 26.167 51.1974C26.6052 47.1672 28.4412 44.6548 28.4412 44.6548C28.4412 44.6548 36.2651 45.3765 36.581 39.2625C36.581 39.2625 36.2848 35.1709 34.4913 32.9366V32.9358Z" fill="#E9F9F7"/>
<path d="M57.4367 29.7531C57.4367 29.7531 53.6191 37.4005 49.741 42.6795C48.198 44.7805 46.6454 46.5062 45.3205 47.2259C44.0233 47.93 42.9253 49.0243 42.0169 50.2369C39.6637 53.3764 38.5778 57.3067 38.5778 57.3067L28.6616 42.2845C28.6616 42.2845 29 27.6003 30.1906 25.1441C31.926 21.5647 32.7642 14.3324 33.4309 12.8925C33.9256 11.8243 35.3379 6.30686 35.4734 5.90143C35.5323 5.72682 36.0021 5.45867 36.6122 5.45947C37.1021 5.45947 37.9335 5.93355 38.1432 6.90738C39.2035 11.8307 37.9271 15.0778 37.9416 15.2223C38.3156 19.006 37.1911 21.8147 37.9796 22.5586C38.0089 22.5863 38.0634 22.573 38.1408 22.5236C39.5078 21.6445 47.9924 9.25847 49.0375 8.99113C50.1415 8.70933 57.4371 29.7535 57.4371 29.7535L57.4367 29.7531Z" fill="#FFCFAF"/>
<path d="M41.5607 54.3338C41.5607 54.3338 41.4256 61.0093 41.0392 70.0002H16.0264C21.7437 57.7915 26.7146 47.5161 26.7146 47.5161C26.7146 47.5161 40.9566 47.9517 41.5607 54.3338Z" fill="#03AA96"/>
<path d="M66.1065 3.87197L63.0358 8.37987L60.0224 12.8035C59.8388 13.0254 59.6259 13.1025 59.3958 13.0804C58.6726 13.0118 57.7778 11.9673 57.0807 11.3893L57.0102 11.3311C56.0905 10.5696 55.9611 9.19314 56.7215 8.27309L61.3272 2.69824L62.6934 1.04441C63.4539 0.123559 64.8285 -0.00609836 65.7473 0.755386L65.8179 0.813592C66.7375 1.57508 66.8674 2.95153 66.1065 3.87197Z" fill="#F9CEB0"/>
<path d="M63.0357 8.37939L60.0223 12.803C59.8387 13.025 59.6259 13.102 59.3958 13.08L61.3268 2.69775C61.3312 2.75596 61.6591 7.41438 63.0353 8.37939H63.0357Z" fill="#FFCFAF"/>
<path d="M49.741 42.6795C48.198 44.7805 46.6454 46.5062 45.3205 47.2259C44.0233 47.93 42.9253 49.0243 42.0169 50.237C40.9718 49.7492 39.7804 49.1768 38.6158 48.61C37.1979 47.92 37.1434 45.9037 38.5324 45.1566C38.5461 45.1494 38.5593 45.1418 38.5725 45.1346C39.8742 44.3887 41.2075 41.7559 41.2075 41.7559L49.7414 42.6799L49.741 42.6795Z" fill="#FFC29F"/>
<path d="M35.4036 6.12939L34.6002 9.37765C34.6002 9.37765 35.3026 9.66546 35.7535 9.44187C36.2045 9.21829 36.5725 6.30441 35.4036 6.12939Z" fill="#FFC197"/>
<path d="M41.2328 0H58.5099C60.2152 0 61.5998 1.38649 61.5998 3.09411V41.1206C61.5998 42.8282 60.2152 44.2147 58.5099 44.2147H41.2328C39.5275 44.2147 38.1428 42.8282 38.1428 41.1206V3.09411C38.1428 1.38649 39.5275 0 41.2328 0Z" fill="#00A08D"/>
<path d="M60.4368 3.38658V40.532C60.4368 41.792 59.4146 42.8228 58.1655 42.8228H41.5759C40.3272 42.8228 39.3049 41.792 39.3049 40.532V3.38658C39.3049 2.12654 40.3268 1.0957 41.5759 1.0957H58.1655C59.4142 1.0957 60.4368 2.12654 60.4368 3.38658Z" fill="#C8FFF8"/>
<path d="M58.1659 1.0957L41.782 42.8228H41.5768C40.328 42.8228 39.3058 41.792 39.3058 40.532V3.38658C39.3058 2.12654 40.3276 1.0957 41.5768 1.0957H58.1663H58.1659Z" fill="#C2FDF6"/>
<path d="M46.4045 0.259277H53.3381C53.9049 0.259277 54.3651 0.720102 54.3651 1.2877V1.44947C54.3651 2.01707 53.9049 2.4779 53.3381 2.4779H46.4045C45.8376 2.4779 45.3774 2.01707 45.3774 1.44947V1.2877C45.3774 0.720102 45.8376 0.259277 46.4045 0.259277Z" fill="#00A08D"/>
<path d="M64.578 20.8948L64.1201 21.069L61.0406 22.2408C60.9684 22.2681 60.8955 22.2918 60.8225 22.3102C59.8027 22.5756 58.7179 22.0312 58.3355 21.0237L58.2902 20.9053C57.8805 19.8255 58.4273 18.6064 59.5056 18.1961L62.3763 17.1039L62.5848 17.0244L63.0426 16.8502C64.1209 16.4399 65.338 16.9875 65.7477 18.0673L65.793 18.1857C66.2027 19.2655 65.6559 20.4846 64.5776 20.8948H64.578Z" fill="#F9CEB0"/>
<path d="M62.0773 20.9653C61.5634 21.1603 60.6329 21.5064 60.1354 21.5778C59.9947 21.5983 59.7353 21.5216 59.4932 21.2559C59.3481 21.0969 59.209 20.8705 59.106 20.5566C59.0575 20.4089 59.0174 20.262 59.0005 20.1102C58.9813 19.9328 58.9865 19.755 59.0174 19.5792C59.0454 19.4206 59.1537 19.2765 59.3112 19.2002C59.3116 19.1998 59.3128 19.1998 59.3136 19.199C59.8428 18.9461 60.556 18.6379 61.1813 18.4656C61.6135 18.346 62.0508 18.5371 62.1879 18.916L62.2525 19.0931L62.5828 19.9995C62.7195 20.376 62.4974 20.8067 62.0773 20.9649V20.9653Z" fill="#FFD3B6"/>
<path d="M62.0773 20.9657C61.5633 21.1608 60.6329 21.5068 60.1354 21.5783C59.9947 21.5987 59.7353 21.5221 59.4932 21.2563C59.4671 21.1961 59.4435 21.1323 59.421 21.064C59.3725 20.9163 59.3328 20.7694 59.3156 20.6177C59.2964 20.4402 59.3016 20.2624 59.3324 20.0866C59.3605 19.928 59.4687 19.7839 59.6263 19.7077C59.6267 19.7073 59.6279 19.7073 59.6287 19.7065C60.1578 19.4536 60.871 19.1453 61.4964 18.9731C61.7734 18.8964 62.052 18.947 62.2524 19.0931L62.5828 19.9995C62.7195 20.376 62.4974 20.8067 62.0773 20.9649V20.9657Z" fill="#FFC197"/>
<path d="M63.1805 25.2299L60.8057 25.8774C60.0841 26.0741 59.3329 25.6438 59.1365 24.9212L59.0631 24.6523C58.8667 23.9297 59.2964 23.1775 60.018 22.9808L62.3928 22.3333C63.1144 22.1366 63.8656 22.5669 64.0621 23.2895L64.1354 23.5584C64.3318 24.281 63.9021 25.0332 63.1805 25.2299Z" fill="#F9CEB0"/>
<path d="M61.8965 25.1134C61.4604 25.2302 60.6718 25.4357 60.2585 25.4582C60.1082 25.4667 59.8071 25.3394 59.6107 24.9436C59.5622 24.8477 59.5213 24.7369 59.4892 24.6084C59.4604 24.4916 59.4387 24.376 59.4363 24.2588C59.4335 24.1207 59.4512 23.985 59.4892 23.8518C59.5237 23.7317 59.6231 23.6282 59.7578 23.58C59.759 23.5796 59.7594 23.5796 59.7602 23.5788C60.2128 23.4186 60.8206 23.2276 61.3465 23.1356C61.7097 23.0718 62.0541 23.2468 62.139 23.5467L62.2004 23.761L62.3832 24.4041C62.4678 24.7016 62.2533 25.0183 61.8969 25.113L61.8965 25.1134Z" fill="#FFD3B6"/>
<path d="M61.8966 25.1137C61.4604 25.2305 60.6719 25.436 60.2586 25.4585C60.1082 25.4669 59.8072 25.3397 59.6107 24.9439C59.5843 24.8351 59.565 24.7263 59.563 24.6159C59.5602 24.4783 59.5775 24.3422 59.616 24.2089C59.6504 24.0893 59.7498 23.9853 59.8845 23.9371C59.8857 23.9367 59.8861 23.9367 59.8869 23.9359C60.3395 23.7758 60.9473 23.5847 61.4732 23.4936C61.7739 23.4406 62.0621 23.5518 62.2004 23.7613L62.3832 24.4044C62.4678 24.7018 62.2533 25.0186 61.897 25.1133L61.8966 25.1137Z" fill="#FFC197"/>
<path d="M24.2797 52.5806C24.2797 52.5806 29.1676 57.2684 32.4624 59.0784L34.9571 57.3065V59.9205C34.9571 59.9205 39.8634 60.7892 41.4112 59.9205V52.7926L27.6306 45.875L24.2797 52.581V52.5806Z" fill="#019482"/>
<path d="M28.6617 41.7559C28.6617 41.7559 25.5577 46.4055 22.4729 51.377C22.4729 51.377 28.9743 55.8556 32.4989 57.169L37.1222 51.8671L36.4624 58.2496C36.4624 58.2496 40.5537 59.7429 42.4523 59.3531C42.4523 59.3531 42.3324 53.5631 42.3336 49.7697C42.3336 49.7697 31.0858 46.613 28.6621 41.7563L28.6617 41.7559Z" fill="#F3F8FF"/>
<path d="M29.4248 53.5555C29.4288 53.13 29.7764 52.788 30.2013 52.792C30.6263 52.796 30.9678 53.1441 30.9638 53.5696C30.9598 53.9951 30.6122 54.3371 30.1873 54.3331C29.7624 54.329 29.4208 53.981 29.4248 53.5555Z" fill="#03AA96"/>
<path d="M64.503 16.3375C64.4862 16.3435 64.4694 16.3491 64.4517 16.3551L61.3385 17.1556C59.9695 17.508 58.554 16.7662 58.1924 15.5073L58.0072 14.8627C57.66 13.6544 58.4065 12.3908 59.6785 11.9809L60.7063 11.7164L62.7917 11.1805C64.1607 10.828 65.5762 11.5699 65.9374 12.8287L66.1226 13.4734C66.4649 14.6656 65.7434 15.9104 64.5026 16.3379L64.503 16.3375Z" fill="#F9CEB0"/>
<path d="M63.0763 15.4672L61.5638 16.1496C61.5613 16.15 61.5585 16.1508 61.5541 16.152C61.4932 16.1685 61.4319 16.1809 61.3713 16.1898C61.3461 16.1938 61.32 16.1966 61.2948 16.1994C61.2839 16.2006 61.2735 16.2006 61.2627 16.1998C61.0959 16.1942 60.9817 16.0172 61.0538 15.8594C61.1969 15.5479 61.2358 15.187 61.1392 14.8326L61.1031 14.7005C61.1031 14.7005 61.1027 14.6977 61.1019 14.6965L60.9849 14.2666C60.8919 13.9238 60.6942 13.6372 60.4365 13.4296C60.4056 13.4043 60.3735 13.3807 60.3407 13.3582C60.0416 13.1507 60.1178 12.6814 60.4678 12.5839C60.471 12.5826 60.4738 12.5822 60.4774 12.581L62.1374 12.3298C62.5479 12.2182 62.9428 12.5345 63.055 12.9451L63.1885 13.4349L63.4723 14.4793C63.5838 14.8908 63.4864 15.3556 63.0763 15.4672Z" fill="#FFD3B6"/>
<path d="M63.0763 15.467L61.5638 16.1494C61.5614 16.1498 61.5586 16.1506 61.5542 16.1518C61.5189 16.1586 61.4079 16.1771 61.2627 16.1996C61.096 16.194 60.9817 16.0169 61.0539 15.8592C61.197 15.5477 61.2359 15.1868 61.1393 14.8324L61.1032 14.7003C61.1032 14.7003 61.1028 14.6975 61.102 14.6963L60.9849 14.2664C60.8919 13.9236 60.6943 13.6369 60.4365 13.4294C60.4898 13.3511 60.57 13.2889 60.6746 13.2596C60.6775 13.2584 60.6807 13.258 60.6843 13.2568L62.3443 13.0055C62.6899 12.9116 63.0242 13.1211 63.1886 13.4346L63.4724 14.4791C63.5838 14.8906 63.4864 15.3554 63.0763 15.467Z" fill="#FFC197"/>
<path d="M38.1428 32.5529C38.1428 32.5529 37.4638 26.6159 36.8372 25.4587C36.2106 24.3006 35.6802 21.9824 36.6444 20.2599C37.6085 18.5367 37.9416 15.2222 37.9416 15.2222C38.3156 19.0059 37.1912 21.8146 37.9797 22.5584C38.0089 22.5861 38.0635 22.5729 38.1408 22.5235L38.1432 32.5529H38.1428Z" fill="#FFC29F"/>
<path d="M19.6707 54.6153C19.6707 54.6153 18.5125 51.4457 16.5895 50.0841C16.5895 50.0841 15.6948 56.5352 14.5066 56.294C13.318 56.0531 16.0211 49.1777 16.0211 49.1777C16.0211 49.1777 11.2991 44.5718 9.01773 44.0424C9.01773 44.0424 10.5238 51.1422 9.43064 50.6156C8.33824 50.0893 6.42846 42.7747 6.42846 42.7747C6.42846 42.7747 2.44372 40.5577 0.000366211 41.8944V49.337C1.87047 50.0785 4.7624 51.1635 4.48219 51.652C4.20197 52.1409 1.92458 52.2144 0.000366211 51.6901V56.874C0.437725 57.4324 0.976105 57.8487 1.63836 58.0032C4.72833 58.7245 6.27732 57.1799 8.17869 57.6608C10.0801 58.1413 11.2667 59.0963 10.1727 59.2841C9.07826 59.4724 6.05444 58.0815 4.13022 58.8526C2.2056 59.6233 0.730366 60.001 3.31924 61.5072C5.90771 63.0133 11.0173 64.3343 12.7335 62.5284H12.7339C12.8088 62.4489 12.8802 62.3738 12.9483 62.302L12.9495 62.3008C12.8293 62.4589 12.7335 62.5284 12.7335 62.5284C13.146 63.0004 13.4362 64.6888 13.6022 65.9645C13.6154 66.1756 13.6495 66.4735 13.71 66.8813C13.7301 67.0708 13.7449 67.2241 13.7545 67.3293C13.7994 68.1538 13.6615 69.0899 13.4442 69.9995H14.2688C14.5314 67.9511 14.1289 66.4197 14.1273 66.4133C13.5641 63.1257 14.4492 60.7228 14.4492 60.7228C14.4633 60.72 20.8 59.5173 19.6707 54.6149V54.6153Z" fill="#E9F9F7"/>
<path d="M72.6568 48.9452C71.5696 44.9259 64.7964 46.1819 64.7964 46.1819C64.7964 46.1819 60.1971 53.2155 58.8589 53.3833C57.5208 53.5507 61.6186 46.6006 61.6186 46.6006C59.0261 46.3493 52.42 49.5313 52.42 49.5313C52.42 49.5313 52.8382 57.7374 51.5 57.57C50.1619 57.4027 51.5 50.2852 51.5 50.2852C48.9913 51.0386 46.6498 53.9698 46.6498 53.9698C43.723 58.7426 49.9947 62.2594 49.9947 62.2594C49.9947 62.2594 50.0785 65.1062 48.3223 68.3721C48.3223 68.3721 47.9258 68.9751 47.5229 69.9999H48.2068C48.2625 69.816 48.3243 69.6386 48.3924 69.4684C48.3924 69.4672 48.3928 69.4664 48.3936 69.4652C48.3944 69.4628 48.3956 69.4604 48.3968 69.458C48.4437 69.352 48.5111 69.2015 48.5948 69.018V69.0172C48.5948 69.0172 48.5957 69.0168 48.5957 69.0164C48.8045 68.607 48.9456 68.3043 49.035 68.0859C49.035 68.0851 49.0354 68.0847 49.0358 68.0839C49.662 66.7982 50.564 65.1231 51.1653 64.7714C51.1653 64.7714 51.0895 64.6647 51.019 64.4571C51.0655 64.5575 51.1144 64.6618 51.1653 64.7714C52.3358 67.2835 58.1899 67.7022 61.451 67.0322C64.7122 66.3622 63.2907 65.4414 61.5344 63.9461C59.7782 62.4513 56.0989 62.8454 55.0117 62.259C53.9245 61.6729 55.5136 61.0868 57.6876 61.2542C59.8619 61.4216 60.9487 63.5989 64.4612 63.9337C67.9733 64.2685 70.6492 57.6535 70.6492 57.6535C68.2243 58.407 63.8755 57.0675 63.7084 56.2301C63.5412 55.3928 69.9801 55.4767 70.9835 55.2254C71.9869 54.9741 73.7432 52.9646 72.656 48.9452H72.6568Z" fill="#E9F9F7"/>
<path d="M44.4109 23.2129V18.9854H46.154C47.0447 18.9854 47.6394 19.5596 47.6394 20.4297V20.4355C47.6394 21.3057 47.0447 21.8799 46.154 21.8799H45.2956V23.2129H44.4109ZM45.9372 19.6855H45.2956V21.1885H45.9372C46.4441 21.1885 46.7429 20.9189 46.7429 20.4385V20.4326C46.7429 19.9521 46.4441 19.6855 45.9372 19.6855ZM48.4402 23.2129V18.7539H49.2956V20.4854H49.3484C49.4949 20.1367 49.8142 19.917 50.2742 19.917C50.9919 19.917 51.3786 20.3564 51.3786 21.127V23.2129H50.5232V21.3203C50.5232 20.8662 50.3357 20.626 49.9314 20.626C49.5359 20.626 49.2956 20.9102 49.2956 21.3467V23.2129H48.4402ZM53.6824 23.2803C52.6892 23.2803 52.0915 22.6504 52.0915 21.6016V21.5957C52.0915 20.5557 52.698 19.917 53.6824 19.917C54.6667 19.917 55.2732 20.5527 55.2732 21.5957V21.6016C55.2732 22.6533 54.6755 23.2803 53.6824 23.2803ZM53.6824 22.6094C54.1365 22.6094 54.3972 22.2373 54.3972 21.6016V21.5957C54.3972 20.9658 54.1335 20.5879 53.6824 20.5879C53.2283 20.5879 52.9675 20.9658 52.9675 21.5957V21.6016C52.9675 22.2373 53.2253 22.6094 53.6824 22.6094ZM45.6443 30.2129V26.9873H46.4997V27.4854H46.5525C46.6989 27.1367 47.0183 26.917 47.4782 26.917C48.196 26.917 48.5827 27.3564 48.5827 28.127V30.2129H47.7273V28.3203C47.7273 27.8662 47.5398 27.626 47.1355 27.626C46.74 27.626 46.4997 27.9102 46.4997 28.3467V30.2129H45.6443ZM50.8718 30.2803C49.8904 30.2803 49.2956 29.6387 49.2956 28.6045V28.6016C49.2956 27.5762 49.8962 26.917 50.8367 26.917C51.7771 26.917 52.363 27.5615 52.363 28.5371V28.8037H50.1423C50.1511 29.334 50.4353 29.6416 50.8894 29.6416C51.2644 29.6416 51.4724 29.4424 51.531 29.3193L51.5398 29.3018H52.3367L52.3308 29.3311C52.2312 29.7354 51.8152 30.2803 50.8718 30.2803ZM50.8513 27.5586C50.4792 27.5586 50.2038 27.8105 50.1511 28.2676H51.5427C51.49 27.7988 51.2234 27.5586 50.8513 27.5586ZM43.2038 37.2129V32.9854H43.9421L45.8933 35.6777H45.9402V32.9854H46.7868V37.2129H46.0544L44.0974 34.5088H44.0505V37.2129H43.2038ZM48.8386 37.2803C48.115 37.2803 47.7429 36.8408 47.7429 36.0732V33.9873H48.5984V35.877C48.5984 36.334 48.7712 36.5713 49.1755 36.5713C49.5974 36.5713 49.8259 36.2871 49.8259 35.8506V33.9873H50.6814V37.2129H49.8259V36.7148H49.7732C49.6267 37.0664 49.2986 37.2803 48.8386 37.2803ZM51.5818 37.2129V33.9873H52.4372V34.4912H52.49C52.6277 34.1279 52.9617 33.917 53.3835 33.917C53.823 33.917 54.1482 34.1396 54.28 34.5117H54.3328C54.4792 34.1543 54.8542 33.917 55.3054 33.917C55.947 33.917 56.3484 34.333 56.3484 34.998V37.2129H55.4929V35.2119C55.4929 34.8223 55.3171 34.626 54.9597 34.626C54.614 34.626 54.3913 34.8809 54.3913 35.2295V37.2129H53.5359V35.1738C53.5359 34.8281 53.3396 34.626 53.0056 34.626C52.6716 34.626 52.4372 34.8984 52.4372 35.2676V37.2129H51.5818ZM46.945 44.2627C46.488 44.2627 46.1452 44.0605 45.9782 43.7119H45.9255V44.2129H45.07V39.7539H45.9255V41.5029H45.9782C46.1423 41.1514 46.5027 40.9346 46.945 40.9346C47.7624 40.9346 48.2546 41.5586 48.2546 42.5957V42.6016C48.2546 43.6328 47.7507 44.2627 46.945 44.2627ZM46.6521 43.5537C47.1062 43.5537 47.3845 43.1963 47.3845 42.6016V42.5957C47.3845 42.0068 47.1032 41.6436 46.6521 41.6436C46.2038 41.6436 45.9167 42.0068 45.9167 42.5986V42.6045C45.9167 43.1963 46.2009 43.5537 46.6521 43.5537ZM50.4089 44.2803C49.4275 44.2803 48.8327 43.6387 48.8327 42.6045V42.6016C48.8327 41.5762 49.4333 40.917 50.3738 40.917C51.3142 40.917 51.9001 41.5615 51.9001 42.5371V42.8037H49.6794C49.6882 43.334 49.9724 43.6416 50.4265 43.6416C50.8015 43.6416 51.0095 43.4424 51.0681 43.3193L51.0769 43.3018H51.8738L51.8679 43.3311C51.7683 43.7354 51.3523 44.2803 50.4089 44.2803ZM50.3884 41.5586C50.0163 41.5586 49.7409 41.8105 49.6882 42.2676H51.0798C51.0271 41.7988 50.7605 41.5586 50.3884 41.5586ZM52.6423 44.2129V40.9873H53.4978V41.4883H53.5505C53.6531 41.1396 53.946 40.9346 54.365 40.9346C54.4792 40.9346 54.5994 40.9521 54.6843 40.9756V41.7227C54.5554 41.6934 54.4236 41.6729 54.2917 41.6729C53.8054 41.6729 53.4978 41.9512 53.4978 42.4082V44.2129H52.6423Z" fill="#00A08D" fill-opacity="0.34"/>
</g>
<defs>
<clipPath id="clip0_9826_38865">
<rect width="73" height="70" fill="white"/>
</clipPath>
</defs>
</svg>
